<svg width="315" height="288" viewBox="0 0 315 288" fill="none" xmlns="http://www.w3.org/2000/svg">
<path d="M207.026 42.1308C209.788 43.6354 212.813 41.304 211.309 41.6017C210.073 41.7732 208.813 41.5777 207.688 41.0395C208.232 38.9585 208.543 36.8233 208.614 34.6735C208.084 29.465 206.051 41.5024 207.026 42.1308ZM214.963 44.4787C213.309 46.1322 211.259 47.3393 212.962 47.1574C215.244 46.9259 216.782 44.6606 215.955 43.4701C215.294 43.9 215.724 43.7016 214.963 44.4787ZM213.045 33.1358C212.549 33.731 213.045 35.0703 213.161 35.6656C213.196 35.8283 213.292 35.9716 213.429 36.0669C213.565 36.1621 213.733 36.2022 213.898 36.1793C214.063 36.1563 214.213 36.0719 214.319 35.9429C214.424 35.814 214.477 35.65 214.467 35.4837C214.285 33.9956 213.921 32.1106 213.045 33.1358ZM203.818 36.1782C203.273 32.3752 202.165 34.0121 202.264 34.6404C202.396 37.1868 204 37.4679 203.818 36.1782ZM212.053 30.5067C221.114 31.3831 211.755 27.4808 211.259 30.3744L212.053 30.5067ZM154.908 98.5315C153.023 99.1929 153.403 101.194 155.735 100.317C160.502 98.403 165.509 97.1513 170.616 96.5969C170.616 110.023 169.938 115.232 170.715 115.596C171.559 115.265 172.253 97.2583 172.204 95.7536C172.055 92.9757 157.868 97.4732 154.908 98.5315ZM138.902 117.117C136.472 122.325 132.173 129.435 137.447 131.238C140.407 132.23 152.94 131.238 150.543 124.508C148.426 118.489 141.713 111.247 138.902 117.117ZM222.106 152.022C219.874 151.377 200.297 147.69 199.337 148.632C197.254 150.732 208.812 149.542 221.742 153.295C221.911 153.343 222.092 153.323 222.246 153.237C222.399 153.152 222.513 153.009 222.561 152.841C222.609 152.672 222.588 152.491 222.503 152.337C222.418 152.184 222.275 152.07 222.106 152.022ZM223.941 142.481C218.274 141.127 212.507 140.231 206.696 139.803C206.52 139.825 206.361 139.915 206.252 140.055C206.144 140.194 206.095 140.371 206.117 140.547C206.139 140.722 206.229 140.882 206.369 140.99C206.508 141.099 206.685 141.147 206.861 141.125C212.492 141.574 218.081 142.453 223.578 143.755C223.747 143.803 223.928 143.782 224.081 143.697C224.235 143.611 224.348 143.469 224.396 143.3C224.444 143.131 224.424 142.95 224.338 142.796C224.253 142.643 224.11 142.53 223.941 142.481ZM95.1177 47.7361C93.0178 47.9676 92.3729 47.3723 92.191 47.8353C91.7446 50.8943 99.7475 47.6038 95.1177 47.7361ZM88.173 35.2853C88.173 31.1681 86.8502 32.3917 86.8502 35.2853C86.8502 35.4607 86.9199 35.6289 87.0439 35.753C87.168 35.877 87.3362 35.9467 87.5116 35.9467C87.687 35.9467 87.8553 35.877 87.9793 35.753C88.1033 35.6289 88.173 35.4607 88.173 35.2853ZM99.8963 33.731C99.9104 33.8168 99.9413 33.8989 99.9871 33.9728C100.033 34.0466 100.093 34.1107 100.164 34.1614C100.234 34.212 100.314 34.2483 100.399 34.2681C100.483 34.2879 100.571 34.2908 100.657 34.2767C100.743 34.2626 100.825 34.2317 100.899 34.1858C100.973 34.14 101.037 34.08 101.087 34.0094C101.138 33.9387 101.174 33.8588 101.194 33.7742C101.214 33.6895 101.217 33.6018 101.203 33.5161C100.591 29.5311 99.4168 30.7217 99.8963 33.731Z" fill="#333333"/>
<path d="M284.409 191.139C296.761 181.681 296.347 164.286 295.984 163.724C300.729 158.763 300.861 144.378 299.489 141.418C297.637 137.4 305.905 101.982 292.412 92.111C293.603 91.5819 295.868 90.226 296.033 88.4568C296.331 84.9679 293.04 84.4057 290.527 82.9176C280.027 76.7501 279.366 63.0757 258.797 58.016C258.036 56.6105 257.871 56.3625 257.259 55.3373C272.14 56.3625 270.222 48.2108 267.659 46.1935C266.046 45.2606 264.317 44.5434 262.517 44.0605C268.784 41.4314 268.602 33.5443 260.533 34.2718C259.574 34.3545 262.682 31.8081 260.153 28.5507C259.584 27.6721 258.781 26.9698 257.834 26.5228C256.888 26.0759 255.835 25.902 254.795 26.0209C254.795 20.4817 252.133 18.2329 248.975 18.2329C253.621 11.4205 247.421 3.83099 238.723 8.0474C240.79 3.25227 235.284 -5.37896 222.668 4.62467C221.874 1.15234 210.895 -2.46882 209.705 2.60741C209.093 5.20339 204.744 -2.05544 196.807 3.89713C194.641 5.55063 193.5 8.27889 196.047 9.13871C188.16 9.71743 185.134 17.0589 191.252 18.6463C192.574 18.9935 188.738 19.8864 189.35 24.8138C189.813 28.5838 193.153 30.7499 195.881 28.683C196.791 28.0051 196.526 27.8563 196.444 28.5673C196.421 28.8463 196.455 29.1269 196.543 29.3925C196.632 29.6581 196.773 29.9032 196.958 30.1131C197.143 30.323 197.369 30.4934 197.621 30.6142C197.874 30.7349 198.148 30.8036 198.428 30.816C198.678 32.2643 199.059 33.6868 199.569 35.0655C193.583 35.0655 190.028 40.2244 191.615 42.7377C193.451 45.6148 196.675 43.6967 192.64 45.7801C184.819 49.8312 186.787 56.5444 191.582 56.4948C196.377 56.4452 193.236 54.6759 193.98 59.4711C194.443 62.6292 199.569 65.7213 203.901 61.7529C205.124 63.2245 205.372 64.167 206.861 64.9276C194.443 73.195 198.775 77.213 182.67 93.4503C180.801 95.3519 180.256 94.6409 179.363 95.5172C178.47 96.3936 179.694 101.652 184.323 101.271C179.247 116.153 184.323 111.573 176.982 112.35C176.817 112.35 178.917 90.6394 178.635 87.6466C178.47 86.175 178.172 86.208 161.571 89.9945C162.117 78.9161 162.001 56.0153 161.042 55.7838C160.877 55.7838 148.922 55.7838 148.922 55.4696C148.658 54.4114 149.435 49.8642 149.22 49.0044C149.021 48.4422 148.36 48.4588 147.831 48.1115C141.415 43.8455 149.484 46.177 150.096 45.5486C150.989 44.5565 150.096 34.5529 151.75 34.5529C153.403 35.4293 152.08 43.7959 152.709 44.5896C154.742 46.3754 153.354 36.9339 155.553 37.1985C156.76 37.43 155.387 44.2424 155.85 45.3668C157.355 47.5163 156.826 42.0598 158.612 40.2905C160.695 39.2819 158.512 55.172 158.281 55.5027C159.124 56.1641 162.828 36.2229 157.967 39.3646C156.545 40.2905 157.967 38.9677 156.925 36.7686C156.346 35.6277 154.693 35.4458 153.767 37.0662C152.891 31.279 149.997 32.6845 149.551 36.752C149.121 44.4243 149.302 43.2668 149.17 44.6392C144.788 42.9857 141.515 46.8714 147.947 49.1036C148.955 49.4509 147.947 53.1216 148.261 55.2216C148.261 55.5688 148.443 55.4531 147.583 55.3704C144.044 55.0066 133.462 85.2821 130.205 89.6308C134.719 96.2447 133.214 97.2203 132.801 96.129C128.32 86.8694 109.652 67.474 88.9005 60.4631C87.247 59.934 87.6438 60.4631 87.247 58.3136C86.0399 56.5444 103.683 65.622 102.128 39.0008C109.586 39.2488 108.494 27.5752 102.261 27.2445C106.378 22.2013 105.088 18.051 100.938 13.6362C99.1025 0.408261 84.8825 0.110634 72.2333 4.93884C69.2405 6.07975 68.7113 7.86552 67.1736 10.5111C65.6855 10.7426 65.0075 9.66783 62.1305 11.3213C53.3835 16.3645 55.5165 30.6176 62.7588 36.3717C61.4525 40.1582 62.5934 44.3581 67.5208 44.0109C67.5208 59.8514 68.9594 56.1806 61.4194 57.4869C7.681 66.796 -7.3327 131.944 15.965 153.571C17.2547 154.778 11.5998 162.864 21.6861 168.602C22.0092 175.947 23.7615 183.158 26.845 189.832C29.1433 194.793 29.226 193.718 28.9945 194.446C19.1728 225.697 0.455241 281.486 0.157613 282.808C-0.917156 287.587 3.77876 288.976 5.94483 285.305C6.90386 283.652 33.3762 212.055 36.7824 202.73C38.3242 203.956 39.9303 205.098 41.5941 206.152C40.8831 218.868 36.8155 273.946 37.543 277.12C37.6789 277.893 38.0688 278.598 38.6508 279.124C39.2328 279.649 39.9737 279.966 40.7559 280.023C41.5382 280.08 42.3171 279.874 42.9692 279.438C43.6212 279.002 44.1091 278.361 44.3554 277.616C44.6034 276.79 49.8946 240.396 53.1024 211.923C72.1175 219.678 93.6625 220.621 97.5482 220.67C100.855 286.661 100.359 282.693 107.337 280.675C108.56 280.312 108.594 280.675 108.792 272.854C112.099 275.698 126.65 287.124 131.064 287.984C132.387 288.232 133.611 285.586 131.875 282.527C121.788 264.785 120.681 272.97 129.957 261.247C130.998 263.777 135.033 274.061 136.571 274.309C140.456 274.739 138.968 283.189 141.349 283.271C145.582 283.437 167.524 281.916 169.244 279.485C169.971 278.476 168.4 276.31 166.383 275.401C144.491 267.414 153.403 282.296 151.733 235.419C151.733 234.229 161.175 223.299 165.672 209.41C168.169 201.688 165.672 198.348 166.912 194.528C169.64 185.517 164.812 187.402 174.75 186.889C176.866 190.99 178.437 188.543 179.594 193.503C180.767 198.814 183.219 203.758 186.738 207.905C187.382 200.335 189.051 192.887 191.698 185.765C193.351 185.616 191.483 184.012 187.713 208.914C187.862 209.079 187.234 254.286 189.201 255.212C190.748 255.707 192.356 255.986 193.98 256.038C193.583 256.353 193.848 267.249 193.666 267.249C193.666 267.662 180.272 272.011 178.784 278.741C178.586 280.212 178.553 280.824 180.09 280.824C185.2 280.543 202.38 276.261 203.504 276.261C203.504 278.096 203.223 278.245 204.959 278.228C206.431 278.228 208.266 278.228 208.745 277.55C209.192 276.442 208.167 258.7 208.431 256.634C208.431 256.468 208.15 256.634 212.185 256.634C212.35 280.229 212.532 277.997 214.185 278.476C221.246 279.683 219.956 281.238 222.453 239.867C228.835 245.654 225.991 245.721 234.027 240.562C235.119 241.934 240.641 248.465 240.641 248.515C237.996 253.674 233.399 263.595 237.434 267.91C238.574 268.886 239.914 267.1 251.273 252.103C255.738 246.184 253.406 251.805 256.068 249.524C260.88 245.406 259.375 247.87 246.147 232.493C253.902 226.887 253.059 228.475 246.925 222.687C213.491 191.056 225.562 212.948 267.907 198.943C268.933 209.592 276.704 275.616 278.275 276.757C279.35 277.534 282.905 277.087 284.012 276.591C285.914 275.731 283.549 252.053 280.077 209.162C294.049 247.324 308.005 283.834 308.005 283.999C309.856 287.918 314.47 287.141 314.222 283.255C314.172 283.321 289.155 206.45 284.409 191.139ZM255.142 248.647C254.365 247.837 254.183 247.225 253.489 247.457C252.183 248.118 239.798 265.645 238.012 266.77C234.342 261.346 241.931 249.044 241.551 248.283C241.319 247.969 246.214 246.63 251.736 240.297C258.053 247.606 257.953 246.332 255.126 248.647H255.142ZM251.058 239.421C248.335 242.85 244.964 245.709 241.137 247.837C236.177 242.347 235.499 241.537 234.523 240.347C248.132 231.732 243.866 230.988 251.042 239.421H251.058ZM295.504 164.732C295.223 177.448 290.444 185.566 284.128 190.246C278.192 171.115 279.779 176.919 280.623 170.652C297.158 166.204 295.521 162.897 295.488 164.732H295.504ZM298.034 139.202C294.578 135.35 289.254 134.242 284.31 133.101C288.427 131.001 293.272 128.389 294.496 125.115C296.149 119.691 293.619 106.645 292.594 103.471C288.345 90.1599 285.567 94.3928 290.941 92.6897C301.82 100.031 299.158 122.568 298.017 139.202H298.034ZM233.366 139.467C223.743 140.575 228.951 142.873 226.752 144.163C225.198 145.056 224.669 146.924 227.182 147.47C229.034 147.883 228.835 147.47 227.976 148.016C226.124 149.123 225.644 151.802 232.572 151.108C231.779 152.629 227.794 160.285 226.702 161.64C226.306 162.136 199.205 160.45 181.314 158.333C181.463 158.168 198.858 136.259 203.074 132.506C203.471 132.324 232.837 135.813 233.002 135.813C232.675 137.033 232.798 138.33 233.349 139.467H233.366ZM228.29 149.868C227.05 148.214 235.383 148.594 233.498 146.792C233.333 146.693 217.426 145.916 234.16 144.064C234.312 144.029 234.447 143.94 234.539 143.814C234.631 143.688 234.673 143.532 234.659 143.377C234.645 143.221 234.575 143.076 234.462 142.968C234.349 142.86 234.2 142.797 234.044 142.791C231.068 142.873 229.216 143.419 228.62 142.791C227.645 140.889 233.25 140.906 234.193 140.558C235.846 140.112 232.853 137.251 234.441 135.598C235.267 134.854 237.665 139.599 238.012 139.914C242.824 143.105 261.856 113.805 273.48 112.714C276.357 112.432 268.519 112.085 265.311 115.177C258.697 96.4597 258.863 97.1211 258.912 96.3936C259.127 93.5165 262.368 92.2929 265.163 92.7559C267.957 93.2188 268.552 95.0377 271.562 95.0542C273.101 95.0622 274.626 94.7603 276.047 94.1666C277.467 93.573 278.753 92.6995 279.829 91.5984C281.957 92.4852 284.223 92.9944 286.526 93.1031C290.263 101.106 291.569 101.883 292.991 110.994C293.735 115.739 295.256 123.775 291.916 126.867C284.889 133.382 237.797 153.125 228.273 149.868H228.29ZM237.103 136.259C240.41 136.689 239.914 136.259 239.269 137.698C238.393 139.533 239.004 138.954 237.086 136.259H237.103ZM201.735 49.3682C193.087 46.6895 202.132 36.5371 201.735 39.7614C201.735 39.9268 201.255 40.0756 201.123 40.1582C199.469 41.1007 197.386 48.4257 204.727 48.7233C208.696 48.9052 204.298 50.1784 201.735 49.3682ZM202.132 39.4472C199.651 32.8333 199.552 33.875 199.006 30.8491C202.313 30.4688 205.885 30.7333 203.735 29.4932C202.561 28.8153 201.404 29.609 201.933 29.1625C206.894 24.4501 205.124 19.7211 206.116 22.284C206.594 23.4172 207.35 24.4114 208.314 25.174C209.279 25.9366 210.42 26.443 211.633 26.6459C212.846 26.8489 214.09 26.7418 215.251 26.3348C216.411 25.9277 217.449 25.2339 218.27 24.3178C219.659 28.0051 221.213 29.9231 225.595 30.353C228.521 30.6341 228.058 30.2704 229.166 29.1625C233.416 24.913 237.434 33.2962 232.275 35.7765C230.39 36.4379 233.085 44.9368 238.128 42.7708C241.898 41.1173 240.873 33.2962 236.673 32.9821C235.119 32.8663 235.912 32.4695 236.16 32.4364C241.617 31.6593 243.932 41.0842 239.104 43.7629C234.672 46.2266 229.365 41.0842 231.349 35.9418C227.794 36.4213 227.81 41.0677 229.695 44.1266C229.927 44.4904 222.271 44.788 222.982 50.3768C223.462 52.7909 226.289 53.3366 228.72 53.287C223.544 65.3575 230.142 67.0441 235.863 61.3064C236.335 62.8304 237.013 64.2825 237.88 65.622C240.575 69.0448 211.639 77.5933 212.482 64.2662C214.113 63.3481 215.662 62.2915 217.112 61.108C217.328 59.4584 217.289 57.7853 216.996 56.1475C216.252 51.8319 209.06 57.9333 202.065 39.4142L202.132 39.4472ZM222.618 96.2778C219.311 93.7314 214.351 74.6501 213.392 70.0699C226.008 77.5107 237.384 67.7385 236.739 69.144C234.805 73.2116 224.569 93.3842 222.552 96.2447L222.618 96.2778ZM223.891 107.538C217.856 108.216 216.302 100.097 220.932 98.1132C229.96 94.7731 232.605 106.529 223.891 107.538ZM209.407 65.7543C209.407 65.7543 210.895 64.9937 211.904 64.4315C211.738 68.185 213.508 68.8629 209.407 65.7213V65.7543ZM180.57 98.6258C178.321 95.2196 181.264 97.2534 188.622 89.0024C194.36 82.5869 200.362 68.8133 207.654 65.8535C208.068 66.2173 210.283 67.9535 212.4 69.4251C213.64 77.4445 217.856 92.574 220.965 96.4762C221.114 96.6581 213.607 99.0722 218.733 106.926C227.728 114.136 235.102 98.6588 225.016 96.592C222.651 96.129 223.958 99.3368 235.301 74.0714C238.608 66.6307 236.871 69.1109 239.649 67.0275C242.047 68.3338 248.71 68.7802 248.71 61.6371C254.332 66.2834 261.393 64.5142 259.541 59.5537C276.406 64.1339 278.44 74.1706 286.162 81.2476C291.122 85.8443 295.124 85.3482 294.727 88.2914C294.727 89.73 289.932 93.4338 282.491 91.3504C279.945 90.6394 279.664 90.1103 279.184 90.7055C278.077 91.9039 276.7 92.8203 275.167 93.3783C273.634 93.9363 271.989 94.1197 270.371 93.9133C268.966 93.5496 268.172 92.7063 266.188 91.9953C263.493 91.2181 259.574 91.9953 258.367 94.8062C254.465 79.098 255.539 77.0146 254.646 76.1217C251.174 79.6602 262.732 111.209 264.303 116.004C261.492 117.657 254.217 124.883 251.918 127.182C251.339 127.76 239.319 125.016 199.387 124.817C202.826 117.955 208.564 113.59 208.861 112.763C208.96 112.217 202.132 105.355 203.388 97.7825C205.29 86.208 210.25 79.8256 208.15 81.7271C204.182 87.9111 201.09 94.8393 202.628 102.148C201.919 102.657 201.1 102.99 200.237 103.119C199.375 103.249 198.494 103.171 197.667 102.892C194.36 101.652 193.566 96.625 184.77 100.246C183.989 100.461 183.159 100.42 182.403 100.128C181.647 99.8362 181.005 99.3097 180.57 98.6258ZM185.349 101.172C188.358 100.66 190.673 99.5187 192.674 100.759C194.327 101.784 197.469 106.513 202.76 103.537C204.215 105.67 203.702 108.894 207.373 112.598C191.913 127.876 201.305 132.241 175.064 131.861C175.461 127.81 176.37 118.12 176.817 112.912C184.919 111.953 179.677 117.36 185.349 101.172ZM177.246 88.093C177.246 95.666 173.791 132.456 172.947 139.98C165.126 142.592 113.769 157.027 95.9609 159.822C96.3246 149.123 99.4663 117.575 102.343 107.257C111.206 102.892 168.665 89.3497 177.246 88.093ZM59.8486 143.171C64.8091 139.864 89.7107 134.424 97.3333 132.671C97.3333 133.068 97.0522 135.085 97.0026 135.482C57.1038 143.634 65.0902 145.436 59.8982 143.171H59.8486ZM104.493 68.9125C95.068 90.8213 94.5719 84.3561 103.021 86.9852C103.898 87.2663 90.8847 114.764 90.8351 115.673C88.8343 155.192 89.6115 107.207 93.5137 67.722C94.0594 62.282 91.8767 61.2403 104.509 68.9125H104.493ZM93.7783 126.156C93.7783 126.332 93.7086 126.5 93.5845 126.624C93.4605 126.748 93.2923 126.818 93.1169 126.818C92.9415 126.818 92.7732 126.748 92.6492 126.624C92.5252 126.5 92.4555 126.332 92.4555 126.156C92.4389 122.42 93.7783 120.468 93.7783 126.156ZM87.6438 60.645C95.2003 63.241 93.4145 60.9923 92.2405 73.0958C92.2405 72.7486 90.7028 71.8392 87.1643 68.2346C88.7517 66.796 88.0572 62.745 87.6438 60.645ZM87.8422 77.4445C88.9666 77.1634 89.132 74.1375 89.2312 72.0541C92.9681 75.5265 92.1744 72.947 91.3476 82.6861C89.132 76.8823 89.1485 77.2296 88.8509 77.0973C88.4375 77.924 86.2383 78.9492 85.0974 78.0398C84.9817 79.2138 85.61 92.7559 85.7092 96.5754C58.6747 49.1367 76.4331 84.5876 81.6416 74.9974C86.4533 78.0067 84.7502 78.2217 87.8753 77.4445H87.8422ZM102.31 28.1704C107.271 28.0712 108.031 37.4961 102.525 37.7111C97.0191 37.926 96.8868 28.2696 102.31 28.1704ZM97.5648 21.7383C97.9616 23.0446 98.6891 25.7067 99.2183 28.1373C96.5892 30.3365 98.2262 32.1057 96.275 32.4034C95.9113 31.4774 95.9113 30.9483 95.4152 31.4774C95.4152 32.8498 95.8617 32.4695 94.0098 32.8167C90.8847 33.3789 93.2161 33.0482 91.3146 30.8656C90.6412 30.0193 89.7484 29.3742 88.7334 29.0008C87.7184 28.6274 86.6203 28.54 85.5591 28.7482C84.4978 28.9563 83.5141 29.452 82.7154 30.1812C81.9166 30.9103 81.3336 31.8449 81.0299 32.8829C79.5913 32.8829 75.1434 32.7175 74.4159 32.6018C73.4238 29.6751 71.638 19.2416 71.6215 19.1093C84.0061 26.7815 94.4066 24.417 97.5648 21.7383ZM91.6122 36.6198C90.587 39.6953 84.0227 40.8031 82.3692 35.8757C79.7401 28.1704 94.7704 26.9964 91.5791 36.6198H91.6122ZM64.8091 42.7542C62.6596 41.6464 62.1139 34.9828 65.8839 34.4868C68.331 34.1891 69.6373 36.9009 70.6129 37.3473C73.1262 38.4717 74.6805 36.9009 74.6805 34.123H80.8314C80.4842 42.7212 94.0594 42.3905 92.6208 34.2718C96.7545 34.0899 94.8861 31.4443 96.9034 40.3897C95.5806 41.0346 93.3318 41.3322 93.2326 41.696C93.6956 42.4235 98.1931 42.0102 98.1931 40.2575C97.6805 37.2646 97.3002 35.4623 97.0356 34.4702C97.3329 35.3954 97.8183 36.249 98.4614 36.9775C99.1045 37.706 99.8914 38.2935 100.773 38.7032C100.872 39.9764 100.888 40.9354 100.921 42.622C101.434 62.8276 86.0399 55.1554 85.8415 57.5034C85.8415 58.3301 87.8092 65.7709 86.4202 67.0771C82.3196 66.085 69.0916 57.6687 68.6783 56.5774C68.6617 37.5788 68.6287 44.7053 64.8091 42.7542ZM83.692 67.5566C82.4784 70.5514 81.0356 73.4481 79.3764 76.2209C68.3806 68.8629 67.124 64.5473 63.354 57.9333C72.2333 56.4121 63.3375 58.0821 83.692 67.5732V67.5566ZM62.1966 58.4293C93.0838 111.341 89.9256 102.098 89.3304 110.68C85.2628 108.166 63.354 94.3763 60.6588 92.1937C61.3037 90.2756 67.7854 84.3561 68.1492 83.2648C68.5129 82.1735 48.4892 62.2655 48.5553 62.2489C52.9664 60.6224 57.5004 59.3507 62.1139 58.4459L62.1966 58.4293ZM38.3367 132.837C41.0319 133.481 40.4036 133.928 40.9823 132.985C48.1419 121.411 51.3993 99.7171 51.7135 99.4525C52.6725 100.627 50.2253 120.22 42.024 132.522C40.4697 134.854 40.4532 132.522 44.9672 137.83C57.881 134.672 80.2196 132.34 97.664 130.505C97.664 130.935 97.5317 131.63 97.4821 132.159C86.1557 134.424 51.0355 140.095 58.3109 147.172C60.5927 149.107 94.1916 162.054 95.8286 160.4C112.876 158.218 169.574 142.857 173.741 141.121C174.188 140.823 174.138 141.517 174.965 133.035C184.753 133.366 188.193 134.688 194.327 130.207C196.107 128.92 197.709 127.402 199.089 125.693C215.376 125.892 234.689 126.537 250.926 128.372C234.623 145.056 243.981 136.077 239.682 135.499C232.457 134.507 202.793 131.778 202.975 132.059C202.512 131.415 181.083 156.085 179.826 158.366C178.569 160.648 226.421 163.823 227.446 162.748C228.472 161.673 233.184 152.629 234.06 151.025C242.46 149.934 253.902 148.346 282.756 133.977C307.723 140.228 299.836 151.852 287.716 156.399C283.483 158.052 242.857 169.792 188.11 173.876C88.0076 181.334 27.9032 160.648 31.144 160.648C31.9542 160.648 32.318 159.59 33.7235 156.978C40.8004 163.211 58.7573 168.701 54.3094 162.947C55.2304 163.083 56.1663 163.083 57.0873 162.947C58.84 162.55 58.9557 160.88 57.5503 159.64C56.8393 159.028 56.7401 159.226 57.3684 159.177C60.1132 158.978 60.2785 156.845 58.1455 155.638C55.2685 153.985 50.2088 154.167 48.7537 151.521C47.6955 149.603 51.4654 147.668 50.1592 145.568C49.2498 144.113 47.7947 144.709 46.3727 145.668C43.4956 147.668 44.5373 147.834 42.4704 145.932C46.2404 143.303 47.4309 144.593 46.8191 142.724C46.1117 140.659 44.9246 138.791 43.3552 137.273C41.7859 135.756 39.879 134.632 37.7911 133.994C24.0506 131.183 19.1893 140.608 18.7594 140.608C17.8334 138.111 26.2001 129.993 38.254 132.803L38.3367 132.837ZM48.4561 152.943C50.4237 155.407 58.5258 155.87 58.377 157.655C57.6826 159.54 48.5388 154.944 48.9521 157.374C49.2167 158.102 49.7458 157.722 52.9866 158.846C59.3526 161.078 59.0054 163.393 49.4151 160.152C47.6459 159.557 47.3979 160.152 47.6789 160.797C47.96 161.442 53.8961 162.715 53.5654 164.104C53.2181 165.179 39.3288 161.128 34.0542 156.448C35.9826 152.542 38.7156 149.088 42.0736 146.313C43.4129 147.619 43.9751 148.214 44.3058 148.098C44.6365 147.983 49.3986 143.816 49.5805 146.445C49.6135 148.231 45.794 149.702 48.3734 152.91L48.4561 152.943ZM22.3971 168.982C36.9643 177.034 37.4769 167.676 29.4905 193.139C25.2413 185.747 22.7836 177.462 22.3144 168.949L22.3971 168.982ZM4.68818 284.842C4.09292 286 1.3812 286.876 2.07566 283.189C5.10155 267.547 25.9355 212.089 35.5754 174.29C39.2131 175.431 41.6602 176.108 45.3145 177.051C42.5862 184.641 5.36611 283.801 4.68818 284.842ZM43.6775 274.012C42.9334 278.972 39.1139 279.253 38.717 273.913C38.254 266.819 40.602 248.25 42.1894 206.566C45.4401 208.532 48.8337 210.251 52.3418 211.708C51.6969 216.751 45.8601 259.511 43.6775 274.012ZM107.138 279.369C101.45 281.552 102.608 283.668 98.4576 220.67C99.2348 220.67 103.964 220.753 108.164 220.389C107.684 250.631 107.783 275.202 107.138 279.369ZM37.1131 201.87C44.372 182.028 36.6006 193.784 57.1038 203.722C75.2922 212.535 91.6949 213.643 111.95 213.362C112.909 216.073 113.604 218.107 113.752 218.322C94.3405 221.894 55.5661 216.669 37.1131 201.87ZM108.875 269.415C109.85 212.221 106.427 220.951 114.199 219.612C117.291 228.16 118.812 232.212 119.887 235.105C109.205 264.025 109.569 262.586 110.627 263.215C112.132 264.207 111.785 262.818 108.875 269.415ZM129.345 259.99C127.273 262.712 125.066 265.328 122.731 267.828C118.888 266.275 115.168 264.435 111.603 262.322C111.454 262.222 118.68 240.71 120.201 235.866C128.419 258.006 129.527 259.759 129.345 259.99ZM149.881 270.077C149.054 270.325 140.159 272.458 136.835 273.003C95.6632 188.162 133.148 219.017 83.1463 210.898C71.5719 208.996 55.7149 204.152 46.6868 195.603C39.7422 188.989 41.0319 191.469 45.9593 177.249C48.6049 177.779 84.8494 187.65 143.317 187.65C151.766 209.327 151.088 262.966 149.881 270.077ZM151.535 232.906C150.724 220.753 149.997 202.366 144.607 187.633C163.539 187.733 161.29 186.972 162.067 187.947C172.137 200.564 160.679 219.976 151.551 232.906H151.535ZM165.672 193.768C163.341 185.814 159.323 187.733 166.73 187.336C166.545 189.503 166.197 191.653 165.689 193.768H165.672ZM178.718 189.336C174.584 186.344 176.784 186.906 178.553 186.807C178.685 189.452 178.917 189.469 178.735 189.336H178.718ZM207.423 276.972C204 276.972 204.661 277.765 204.579 275.831C204.463 273.433 185.779 279.683 179.776 279.683C180.339 274.723 189.697 270.291 194.261 268.291C194.261 268.291 195.303 268.291 198.825 268.671C210.234 269.878 207.439 264.818 207.439 276.972H207.423ZM194.195 256.22C201.966 256.882 207.737 256.567 207.72 256.733C207.439 258.8 207.72 267.398 207.39 267.464C203.13 268.27 198.753 268.231 194.509 267.348C194.261 255.608 194.393 256.915 194.195 256.22ZM20.8924 166.568C18.2468 164.914 16.0807 163.443 17.3374 155.159C39.1965 173.678 167.805 191.089 284.327 158.648C297.554 154.96 299.506 148.181 299.489 148.727C299.059 163.79 294.661 166.105 281.4 169.66C170.847 199.241 47.2656 183.797 20.8924 166.568ZM213.871 277.153C213.441 274.392 213.309 259.924 213.276 256.683C216.748 256.584 215.707 259.461 217.542 235.849C217.658 235.948 219.196 208.302 220.204 200.795C220.336 199.753 220.766 199.505 220.733 200.795C220.733 201.622 220.733 202.713 220.651 204.102C219.278 242.513 217.344 235.518 221.147 238.825C218.27 279.204 219.592 279.336 213.871 277.153ZM226.173 203.325C225.776 203.325 226.454 203.838 220.981 198.844C224.536 198.365 255.705 198.183 271.529 185.864C272.868 189.618 272.554 188.741 274.951 195.339C260.847 201.275 241.038 204.019 226.173 203.325ZM278.969 275.748C278.721 275.45 270.024 213.064 268.403 198.861C277.233 196.05 274.323 193.636 278.887 206.136C283.202 272.375 286.063 279.303 278.969 275.748ZM309.509 284.148C309.096 283.42 270.619 181.631 268.007 173.86C271.314 173.066 275.53 172.008 278.043 171.346C287.27 209.377 310.104 269.349 312.188 283.222C312.7 286.595 310.733 286.413 309.509 284.148Z" fill="#333333"/>
</svg>
