<svg width="42" height="57" viewBox="0 0 42 57" fill="none" xmlns="http://www.w3.org/2000/svg">
<path d="M30.5059 42.5034C30.6895 42.8591 30.7823 43.2547 30.7758 43.655C30.8118 44.4617 31.1207 46.4919 31.1207 46.7228C31.1207 48.1473 16.1623 48.6271 13.8172 46.5519C11.9549 44.9145 14.258 42.6953 14.258 42.6953L30.5059 42.5034Z" fill="#EAE5D9"/>
<path d="M34.3145 54.5352C34.1159 54.0999 33.9612 53.6458 33.8527 53.1797C33.6955 52.6281 33.4929 52.0905 33.2469 51.5723C32.9835 50.9047 32.6676 50.2589 32.3023 49.6411C31.9814 49.1583 32.1673 48.7924 32.0504 47.7338C31.9334 46.6752 31.7505 46.6332 31.2707 46.3123C30.7909 45.9914 30.0981 46.5402 29.5013 46.6782C29.0395 46.7861 28.0889 46.9181 27.4561 46.9961C27.2792 44.6899 27.5281 46.2853 27.1382 43.3674C27.9449 43.2565 28.8146 43.1125 28.8176 43.1125C29.1685 43.0345 29.7562 42.8516 30.0171 42.8126C30.404 42.7407 30.5659 42.8126 30.7159 42.6447C30.7669 42.5907 30.8298 42.5457 30.7849 42.4618C30.7399 42.3778 30.7399 42.2488 30.5929 42.2578C30.2934 42.3146 29.9845 42.2971 29.6933 42.2069C29.4765 42.1041 29.2403 42.0489 29.0005 42.0449C28.7006 42.1229 27.5941 43.0256 26.4215 43.0795C24.7901 43.1545 25.2219 42.7287 24.5832 43.1095C24.3433 43.2535 24.2503 43.2985 23.5396 43.2625C23.143 43.2395 22.758 43.1201 22.418 42.9146C22.1181 42.7677 20.7326 43.1935 20.7266 43.1935C19.5691 43.3434 19.626 43.1695 18.9663 42.8426C18.7654 42.7437 18.6814 42.8186 18.4085 42.9326C18.3395 42.9596 18.7984 43.1485 19.3082 43.3554C19.776 43.5414 20.2888 43.7513 20.5077 43.6553H20.7326L20.4327 45.4756L20.5767 47.131V47.158C20.1661 47.198 19.7521 47.187 19.3442 47.125C18.4025 46.9661 17.137 46.7801 15.7815 46.4593C14.426 46.1384 12.7286 46.6902 12.5667 46.9181C12.4048 47.146 11.3671 49.9979 11.2112 50.4118C11.0553 50.8256 11.1422 51.3114 11.1422 51.7883C11.1422 52.2651 10.8124 52.7719 10.7554 53.1558C10.6984 53.5396 10.7104 54.3283 10.5245 54.7661C10.3385 55.204 9.99666 56.3525 10.1586 56.3735C14.1771 56.8564 13.3494 55.5219 16.3363 56.4185C19.3232 57.3152 22.7689 55.8907 23.6415 56.3256C24.5142 56.7604 29.9602 56.3496 30.464 56.4875C30.9678 56.6254 35.3132 56.7394 35.3132 56.5805C35.3132 56.4215 34.4735 54.9251 34.3145 54.5352ZM23.2877 47.4609C22.8258 47.5059 21.9322 47.23 21.5393 47.137C21.406 47.119 21.2708 47.119 21.1375 47.137C21.1375 46.4743 21.1375 45.3377 21.1375 45.3377L21.4194 43.6973C22.2441 43.6973 22.319 43.6643 22.496 43.7993C22.6729 43.9342 22.6609 43.7993 23.6955 43.7663C23.8109 44.0801 23.8766 44.4099 23.8904 44.7439C23.8485 45.0738 23.8635 47.4189 23.8635 47.4189H23.8934C23.7225 47.4219 23.5036 47.4369 23.2877 47.4609ZM26.6974 47.104C26.4384 47.2277 26.1641 47.3164 25.8817 47.3679C25.5428 47.3859 25.033 47.3889 24.6821 47.3889L24.5922 43.7123L25.09 43.6823C25.6898 43.6403 25.5128 43.4964 25.9057 43.4934C26.0526 43.4934 26.3015 43.4694 26.5894 43.4334C26.6877 44.6543 26.7237 45.8794 26.6974 47.104Z" fill="#333333"/>
<path d="M14.0302 42.2748C14.426 42.4037 14.528 42.3078 14.7499 42.5057C14.5281 42.6999 14.287 42.8708 14.0302 43.0155C13.7573 42.9525 13.6343 42.8446 13.6943 42.5867C13.7543 42.3857 13.8412 42.2058 14.0302 42.2748Z" fill="#EAE5D9"/>
<path d="M41.4518 30.6802C41.6198 31.4539 41.5208 33.868 41.4818 34.0929C41.2299 35.4604 39.9194 35.8473 38.9658 35.6823C37.3104 35.3825 36.1888 34.0749 32.5302 31.0491C32.3562 30.9081 32.6681 30.7762 32.7821 30.2244C32.8638 29.9482 33.0051 29.6933 33.1959 29.4777C33.3789 29.2168 34.4405 27.3785 34.6354 27.0786C34.7044 26.9706 34.7044 26.9676 35.9549 27.9962C36.1108 28.1252 36.9985 32.4316 37.6133 32.0177C37.8682 31.8468 37.3134 31.4359 36.9655 30.1704C36.3327 27.7983 35.631 23.8938 34.6144 21.6536C34.5124 21.4287 34.1945 20.505 33.9756 20.2531C33.4778 19.6714 31.6035 19.4794 31.1207 18.4748C30.9798 18.1749 31.0547 18.2829 30.5719 16.7804C30.4939 16.5315 30.5719 16.5015 30.6139 16.4536C30.6559 16.4056 30.8178 16.4536 30.8748 16.5165C31.0209 16.6958 31.1355 16.8986 31.2137 17.1163C31.6605 18.0969 31.4986 18.2379 31.8134 18.3159C32.5152 18.5138 32.3652 18.0909 33.097 18.2169C33.3191 18.2814 33.5456 18.3295 33.7747 18.3608C33.8887 18.3608 33.9966 18.1839 33.8047 18.1089C33.6251 18.0078 33.4275 17.9426 33.2229 17.917C33.019 17.917 33.2229 17.4372 33.043 16.8794C32.6561 15.5599 32.914 15.6049 32.5332 15.272C32.2843 15.0561 31.9094 14.7022 31.6095 14.7352C31.3096 14.7682 31.3966 14.9211 31.0307 15.6529C30.7818 16.1477 30.4939 16.1897 30.5899 15.8358C30.7516 15.4145 30.8682 14.9772 30.9378 14.5313C31.0457 13.9315 31.5375 13.8355 31.8374 14.0185C32.2633 14.2824 32.1823 14.1324 32.7611 14.4713C33.4298 14.8612 32.989 13.6136 33.1299 11.4904C33.1431 11.0825 33.1893 10.6763 33.2679 10.2759C33.2679 10.2249 33.2949 10.048 33.4208 10.024C33.5468 9.99998 33.6098 10.1229 33.6278 10.3239C33.6937 11.0436 33.3998 13.0828 33.9516 14.8672C33.6967 14.8672 33.3938 14.7952 33.4688 15.0351C33.4838 15.0801 33.8467 15.1341 33.8557 15.1341C34.9743 15.29 35.703 15.8838 35.7989 15.6649C35.8649 15.5089 35.685 15.4369 35.5171 15.365C35.3491 15.293 35.4751 15.311 35.769 14.5613C35.9879 13.9975 36.5187 11.5174 36.8366 11.5624C36.9355 11.5624 37.0165 11.6134 37.0135 11.7573C37.0135 12.3211 36.2968 13.8325 36.1348 15.215C35.9519 16.7414 36.2788 15.8538 35.9849 18.8557C35.9159 19.5724 36.4377 19.6803 37.3854 21.6866C37.3854 21.6866 38.5699 24.3856 38.9358 25.0693C39.8084 26.7157 41.11 29.0818 41.4518 30.6802ZM35.754 16.2646C35.8919 16.0547 33.8437 15.365 33.3549 15.4729C33.3251 15.4845 33.3008 15.5069 33.2869 15.5357C33.273 15.5645 33.2706 15.5975 33.2801 15.628C33.2896 15.6585 33.3104 15.6842 33.3382 15.7C33.366 15.7157 33.3988 15.7203 33.4298 15.7128C34.3295 15.7398 35.3431 16.3126 35.592 16.3756C35.694 16.3906 35.724 16.3186 35.76 16.2646H35.754ZM35.61 19.6174C35.8589 19.3175 34.5514 19.3805 34.6234 18.3638C34.6834 17.5122 35.2711 16.5135 34.9803 16.4536C34.8813 16.4326 34.8183 16.4356 34.7403 16.6725C34.2635 18.1029 33.8407 19.2605 35.3971 19.6863C35.4331 19.6923 35.5021 19.7463 35.616 19.6174H35.61Z" fill="#C49E91"/>
<path d="M35.0463 15.1179C35.0463 15.1988 35.0883 15.2048 34.4285 14.9679C34.3626 14.9439 34.3805 14.9379 34.4825 14.0683C34.4825 14.0233 34.5665 11.4982 34.7824 10.6585C34.8304 10.4846 34.8304 10.3766 34.9743 10.3287C35.4361 10.1877 34.8574 12.3979 35.0463 15.1179Z" fill="#C49E91"/>
<path d="M34.8693 25.9715C35.0013 26.0825 34.9443 25.9715 34.1556 27.1531C33.5798 28.0258 33.3069 28.6525 32.89 29.2523C32.0624 30.4339 32.1313 31.4385 31.8045 30.9857C31.3786 30.3859 30.6199 29.9331 30.305 29.4862C30.1371 29.2553 30.326 29.2133 30.1521 28.4036C29.9002 27.2041 30.1131 26.9762 29.7922 25.8456C29.7502 25.7076 29.5103 25.6687 29.4923 25.8456C29.4923 25.9625 29.5763 26.3464 29.6603 26.9342C29.6641 27.4621 29.7193 27.9884 29.8252 28.5056C30.1041 29.8371 29.5253 31.3065 29.5583 32.857C29.6213 35.499 29.3904 35.8558 29.4803 37.0164C29.5553 37.997 29.6273 37.3673 30.0471 39.0616C30.0681 39.1426 25.8937 36.8185 21.6053 31.3215C21.0535 30.6168 13.9012 21.6802 13.9192 21.6742C14.414 21.5062 14.5429 21.4133 14.7738 21.6262C15.8534 22.6698 16.6241 23.6834 19.3891 24.4481C25.087 25.9985 28.5087 21.2213 28.9855 21.2873C30.1851 21.4642 30.326 21.3653 30.8418 21.8601C31.9004 22.8767 31.8105 23.2366 33.2739 24.634C33.5978 24.9549 34.4195 25.5967 34.8693 25.9715ZM28.7276 32.5061C28.7876 32.4791 28.8895 32.4041 28.8296 32.3232C28.4997 31.8913 27.9059 33.1928 25.1919 32.725C23.3536 32.4071 23.5006 32.1042 22.9878 32.0862C22.8498 32.0862 22.8198 32.1342 22.8138 32.1912C22.8137 32.2205 22.823 32.2492 22.8402 32.2729C22.8575 32.2966 22.8818 32.3142 22.9098 32.3232C23.6085 32.5541 23.7075 32.9229 25.3089 33.1089C27.57 33.3608 28.3138 32.68 28.7276 32.5061Z" fill="#333333"/>
<path d="M31.2497 45.3643C32.4283 45.6492 34.1586 44.6476 35.1182 44.1857C34.8963 43.2471 34.3925 41.3638 33.5708 40.86C32.9201 40.4611 32.6712 40.2152 32.3173 40.1612C32.0303 40.0845 31.7355 40.0402 31.4386 40.0293C30.8119 40.0683 30.8569 40.0623 30.8778 40.1852C30.9062 40.2508 30.9169 40.3226 30.9091 40.3936C30.9012 40.4646 30.8749 40.5323 30.8329 40.5901C30.7699 40.6651 31.1088 41.1539 30.8568 41.8886C30.8119 42.0146 30.9078 41.8886 31.0998 42.3624C31.2677 42.7553 30.8748 42.8812 30.8479 42.9832C30.8209 43.0852 30.8868 43.1301 30.9018 43.2081C31.0158 43.7179 30.9708 45.2953 31.2497 45.3643Z" fill="#219EBC"/>
<path d="M35.2712 45.2126C35.2442 45.2126 34.6894 45.4375 34.5395 45.5305C33.8287 45.9653 33.7718 45.8303 32.8451 46.1302C32.587 46.224 32.3126 46.2648 32.0384 46.2502C31.8255 46.2502 31.6725 46.2742 31.6066 46.2082C31.5924 46.193 31.5816 46.175 31.5749 46.1554C31.5681 46.1358 31.5657 46.1149 31.5676 46.0942C31.5676 45.8213 31.8525 46.1182 32.9501 45.7584C33.4239 45.6054 33.7807 45.6114 34.2906 45.2755C34.5696 45.1356 34.8559 45.0104 35.1482 44.9007C35.2622 44.8497 35.2802 44.7867 35.3162 44.5198C35.3342 44.3849 35.2292 44.4509 34.3685 44.9187C33.5618 45.3565 33.127 45.3205 32.6832 45.5724C32.4193 45.7194 31.6605 45.7164 31.3367 45.6894C31.2317 45.6894 31.1267 45.6174 31.1657 45.7344C31.2377 45.9533 31.1657 46.0343 31.3067 46.1062C31.5412 46.1996 31.7445 46.3577 31.8926 46.5621C32.0407 46.7665 32.1277 47.0088 32.1434 47.2608C32.1883 47.8606 32.2963 48.1395 32.2933 48.5893C32.2933 49.6389 32.6592 49.405 33.2499 51.0484C33.5888 51.99 33.6098 51.948 33.6698 51.948C33.8568 51.9688 34.0459 51.9408 34.2188 51.8667C34.3918 51.7926 34.5425 51.6749 34.6564 51.5252C35.712 49.8668 35.5201 49.9568 35.4901 46.3911C35.4871 46.2472 35.661 45.0476 35.2712 45.2126Z" fill="#219EBC"/>
<path d="M29.1624 38.947C28.3247 38.4162 27.5232 37.8301 26.7633 37.1927C23.2757 34.2328 22.421 32.7694 20.1958 30.0914C17.026 26.2738 14.5339 22.7081 13.5983 21.8564C13.3704 21.6525 13.3704 21.6525 13.2324 21.7125C13.0945 21.7725 13.0345 21.8085 13.0885 21.8714C13.1425 21.9344 13.3884 22.1713 13.4873 22.2763C20.6456 30.8501 21.9591 34.3288 27.813 38.5902C30.5989 40.6174 30.6529 40.7704 30.6319 40.2455C30.6109 39.7207 30.5749 40.0326 29.1624 38.947Z" fill="#219EBC"/>
<path d="M30.509 40.8513C30.6169 41.1362 30.7069 41.727 30.419 41.8319C29.9872 41.9909 29.7023 41.721 29.1655 41.643C28.6287 41.565 27.627 42.8426 25.9327 42.6836C25.8787 42.6836 25.6868 42.6836 25.6868 42.6836C25.024 42.5607 24.9011 42.4407 24.4872 42.6836C24.3511 42.8089 24.1713 42.8757 23.9864 42.8695C23.518 42.9299 23.043 42.8317 22.6369 42.5907C22.0371 42.2638 21.0955 42.8905 19.9769 42.8726C19.6757 42.829 19.3913 42.707 19.1522 42.5187C18.6394 42.2038 18.2885 42.8486 17.5208 42.5577C17.107 42.3987 16.4892 42.4767 15.9314 42.3717C15.7052 42.3329 15.4739 42.3329 15.2477 42.3717C15.0588 42.4527 15.1847 42.2398 14.7799 42.0719C14.6479 42.0179 14.1801 42.0029 13.9522 41.8169C13.6763 41.592 14.1381 41.4181 14.2011 40.9923C14.2067 40.7922 14.2495 40.595 14.327 40.4105C14.7169 39.7597 14.7079 39.6218 14.7259 39.3549C14.6903 39.0235 14.7199 38.6883 14.8128 38.3682C14.9928 38.0294 14.5519 36.7698 14.474 36.5389C13.8442 34.6946 14.0571 35.7442 13.7662 33.8639C13.5383 32.3855 13.3284 32.3855 13.3104 31.6088C13.2924 30.8321 13.5113 30.8111 13.3104 30.3193C13.2438 30.2101 13.1643 30.1094 13.0735 30.0194C12.9808 29.9139 12.926 29.7804 12.9179 29.6402C12.9097 29.5001 12.9487 29.3612 13.0285 29.2457C13.3681 28.6811 13.5571 28.0389 13.5773 27.3804C13.6523 26.8675 13.6943 26.3457 13.4903 26.3547C13.1395 26.3547 13.4633 27.3774 13.0585 28.4809C12.8576 29.0327 12.4137 29.3446 12.0689 29.6805C11.1302 30.5802 11.5381 30.6611 10.9833 29.7285C10.1856 28.388 10.2396 28.412 9.87669 28.0371C9.24693 27.3834 9.40287 27.6143 9.10298 27.1944C8.80521 26.769 8.40778 26.4231 7.94542 26.1868C7.87344 26.1658 9.02801 24.9872 9.49883 24.5164C11.4601 22.6301 11.4091 23.4188 11.8979 22.6121C12.1288 22.2373 12.2488 22.3123 12.7676 22.0813C13.3674 21.8354 21.4973 33.9089 25.2819 37.0037C27.633 38.905 30.5 40.8333 30.509 40.8513ZM19.9859 32.2445C20.0222 32.243 20.0566 32.2275 20.0817 32.2012C20.1069 32.1749 20.1209 32.1399 20.1209 32.1036C20.1209 31.7827 19.5481 32.0556 19.1282 32.1036C16.7081 32.3105 16.951 32.2475 15.4756 31.8037C15.1953 31.6922 14.9311 31.5439 14.6899 31.3629C14.39 31.2039 14.0901 32.1995 17.6288 32.5774C17.6288 32.5774 18.9993 32.4215 19.0053 32.4215C19.3361 32.3867 19.6638 32.3275 19.9859 32.2445Z" fill="#333333"/>
<path d="M29.7922 8.23835C29.5673 8.62821 30.461 9.03905 30.305 9.7078C30.1941 10.1906 29.8042 10.2416 29.5613 10.4005C29.3184 10.5595 29.2794 10.7004 29.5223 11.0363C29.6085 11.134 29.6593 11.2578 29.6663 11.3879C29.6734 11.518 29.6364 11.6466 29.5613 11.753C29.2314 12.1159 28.7396 11.903 28.7276 12.2748C28.7126 12.7457 28.9465 12.9166 28.5957 13.1085C28.2448 13.3005 27.8399 12.9736 27.696 13.1325C27.552 13.2915 27.696 13.3874 27.735 13.5674C27.8369 13.9212 27.588 13.8193 27.0572 14.1102C26.7993 14.2541 26.6854 14.623 26.9553 15.0578C27.3901 15.7625 27.4141 15.8045 26.8323 16.1734C25.8007 16.8331 27.0962 17.3519 26.6854 17.8827C26.2745 18.4135 26.2925 18.6564 26.3135 18.7824C26.3345 18.9084 26.2176 18.9203 26.1306 18.7344C26.0535 18.6165 26.0168 18.4767 26.026 18.3361C26.0352 18.1955 26.0898 18.0616 26.1816 17.9547C26.2445 17.8823 26.2908 17.797 26.3172 17.7048C26.3436 17.6125 26.3495 17.5157 26.3345 17.4209C26.3165 17.274 26.1306 17.121 25.9267 16.9741C25.8431 16.888 25.7915 16.7758 25.7806 16.6563C25.7697 16.5368 25.8001 16.4172 25.8667 16.3173C26.1306 15.9125 26.2745 15.9725 26.3375 15.7175C26.3885 15.5136 26.1336 15.3127 25.9866 14.9798C25.9477 14.9198 27.2702 13.7023 27.3661 12.6437C27.3962 12.4911 27.3841 12.3331 27.3313 12.1868C27.2785 12.0405 27.1869 11.9113 27.0662 11.813C27.0123 11.78 26.9823 11.762 26.9973 11.6661C27.759 6.61296 28.0079 5.21548 28.0858 4.84362C28.1248 4.6487 28.0858 4.57073 27.9659 4.52274C27.8459 4.47476 27.741 4.54674 27.726 4.3668C27.63 3.36518 26.3615 2.83138 25.3569 2.83138C25.0883 2.7968 24.8154 2.83935 24.5701 2.95405C24.3247 3.06874 24.1171 3.25086 23.9714 3.47913C23.9084 3.60509 23.8994 3.68006 23.8185 3.59609C23.6723 3.44811 23.4916 3.33884 23.2926 3.27811C23.0937 3.21738 22.8828 3.20711 22.6789 3.24822C22.1451 3.32019 22.1271 3.54811 22.1061 3.35918C21.9412 1.80276 19.1072 1.65582 18.2915 2.93334C18.1836 3.10428 18.2915 3.23323 18.0246 3.25722C17.5538 3.28121 17.7607 3.41916 17.6048 8.92509C17.5088 12.3138 17.6648 10.5775 17.2839 12.5567C17.044 13.7923 17.5178 14.2391 17.1879 14.8479C17.0877 14.9558 16.9794 15.0561 16.8641 15.1478C16.5822 15.4656 17.104 15.6696 17.074 16.0084C17.0092 16.2228 16.8684 16.4062 16.6781 16.5242C16.669 16.5313 16.6578 16.5351 16.6462 16.5353C16.6347 16.5355 16.6234 16.532 16.614 16.5253C16.6046 16.5186 16.5976 16.509 16.594 16.498C16.5905 16.4871 16.5905 16.4752 16.5942 16.4643C16.7561 15.9125 16.5942 15.8375 16.2643 15.4716C15.9854 15.1718 16.2193 15.0068 16.6152 14.6889C16.8791 14.479 16.7291 14.3261 16.5702 14.2031C15.8534 13.6483 16.0514 13.6483 16.3782 13.0216C16.5252 12.7397 16.4532 12.6287 16.3213 12.4968C16.1893 12.3648 15.8864 12.1609 15.8055 11.927C15.7575 11.7877 15.7431 11.639 15.7634 11.4931C15.7837 11.3472 15.8382 11.2082 15.9224 11.0873C16.2223 10.6914 15.5296 10.9763 15.2357 10.5865C14.9898 10.2596 15.3136 9.95971 15.4096 9.87874C15.6015 9.7168 15.5356 9.55786 15.3796 9.56386C14.501 9.59684 14.33 8.88611 14.9118 8.3643C15.0947 8.20536 15.1817 8.08541 14.9118 7.97145C14.375 7.75553 14.6119 7.61159 14.9118 7.40466C15.1517 7.25472 15.2117 7.10478 14.8488 6.98482C14.1741 6.7719 14.249 6.17213 14.6929 5.83625C15.1367 5.50038 15.2927 5.89923 15.5206 5.78827C15.6885 5.7073 15.5386 5.41641 15.4276 5.33544C14.8278 4.88861 15.2057 4.55573 15.3946 4.54674C15.7935 4.52274 15.7695 4.57672 15.9734 4.52574C16.5252 4.39079 16.0664 3.96195 16.0304 3.60209C16.0124 3.43715 16.0964 3.11027 16.3303 3.17625C16.4922 3.21823 16.8701 3.39217 16.8131 3.05629C16.7886 2.96591 16.7823 2.87158 16.7944 2.77873C16.8065 2.68588 16.8368 2.59633 16.8836 2.51524C16.9304 2.43415 16.9928 2.36311 17.0672 2.3062C17.1415 2.24929 17.2264 2.20763 17.3169 2.18362C17.4968 2.14464 17.4968 2.2436 17.7757 2.42953C18.0546 2.61546 18.3365 2.5045 18.3425 2.31257C18.3425 1.88673 18.1776 1.41291 19.0472 1.02006C19.1995 0.972901 19.3619 0.969253 19.5161 1.00953C19.6703 1.0498 19.8102 1.13239 19.9199 1.24797C20.0429 1.38292 20.1148 1.49088 20.2438 1.28696C20.3414 1.02611 20.5058 0.795498 20.7206 0.618207C20.8736 0.488091 21.0536 0.393669 21.2476 0.341798C21.4416 0.289926 21.6447 0.281906 21.8422 0.31832C22.0273 0.342359 22.2004 0.423401 22.3374 0.550213C22.4745 0.677024 22.5686 0.843323 22.6069 1.02605C22.6339 1.13102 22.6069 1.21798 22.7419 1.25397C22.8318 1.27796 22.9248 1.14301 22.9398 1.11302C23.0017 0.990422 23.0952 0.886579 23.2106 0.812238C23.3261 0.737898 23.4593 0.695758 23.5965 0.69018C24.1153 0.759154 24.0644 1.21798 24.1453 1.28996C24.4152 1.54186 24.2533 0.672187 25.4498 0.861116C25.6507 0.903054 25.8368 0.997634 25.9891 1.13517C26.1414 1.2727 26.2544 1.44825 26.3165 1.64382C26.4725 1.99469 26.2625 1.9797 26.3705 2.2436C26.4425 2.42653 26.5774 2.36355 26.7154 2.21661C27.1322 1.76078 27.687 1.85075 27.579 2.2346C27.5142 2.36655 27.4774 2.51054 27.4711 2.65744C27.4725 2.68703 27.4822 2.71562 27.4993 2.73986C27.5163 2.7641 27.5399 2.78299 27.5672 2.79432C27.5946 2.80564 27.6246 2.80894 27.6538 2.80382C27.683 2.7987 27.7101 2.78537 27.732 2.7654C28.1128 2.35156 29.3454 2.72042 29.0785 3.64107C29.0035 3.90498 28.9105 4.1029 29.0965 4.18387C29.6033 4.40279 29.7772 4.42078 30.0861 4.82263C30.2282 4.98761 30.3108 5.19555 30.3206 5.41307C30.3304 5.6306 30.2668 5.84511 30.1401 6.02218C30.1011 6.07916 29.8852 6.21111 29.8042 6.32207C29.7875 6.345 29.7769 6.37177 29.7734 6.3999C29.7698 6.42804 29.7735 6.45661 29.7839 6.48295C29.7944 6.5093 29.8114 6.53256 29.8333 6.55058C29.8552 6.56859 29.8813 6.58077 29.9092 6.58597C30.314 6.63395 30.6889 7.3057 30.233 7.8335C29.9961 8.1214 29.9122 8.02843 29.7922 8.23835Z" fill="#333333"/>
<path d="M27.2072 5.86754C27.8669 5.26777 27.732 3.70236 26.6494 11.4904C26.6494 11.5594 26.6164 11.5924 26.5444 11.5984C26.4725 11.6044 26.3495 11.6434 26.2445 11.5744C26.2084 11.5546 26.1767 11.5276 26.1514 11.495C26.1262 11.4624 26.1079 11.425 26.0978 11.385C26.0876 11.345 26.0859 11.3034 26.0925 11.2627C26.0992 11.2221 26.1142 11.1832 26.1366 11.1486C26.2625 10.9356 26.6044 10.8667 26.1666 10.6148C25.8157 10.4138 26.2445 10.1259 26.3285 9.91302C26.5234 9.42121 25.5908 9.75408 25.5668 9.28026C25.5308 8.63251 26.3375 8.94139 26.1666 8.1167C26.1096 7.8498 25.8817 7.8498 25.4948 7.75983C25.3239 7.72085 25.2399 7.5829 25.147 7.45995C24.964 7.19604 25.4468 6.67724 25.2159 6.5153C24.985 6.35336 24.6431 7.08209 24.2683 6.85117C24.1123 6.75821 23.9084 6.66225 23.9684 6.48831C24.0913 6.09246 23.8364 6.00849 23.6475 6.18842C23.5939 6.2325 23.5297 6.26172 23.4612 6.27313C23.3927 6.28455 23.3225 6.27776 23.2575 6.25346C23.1925 6.22916 23.135 6.18819 23.0908 6.13467C23.0466 6.08115 23.0173 6.01695 23.0058 5.94851C22.9428 5.58565 22.7059 5.67262 22.6309 5.87654C22.5199 6.2394 22.1451 6.58727 21.8572 6.47632C21.7599 6.45124 21.6705 6.40212 21.5971 6.33348C21.5238 6.26484 21.4688 6.17887 21.4373 6.08346C21.4196 6.05058 21.3927 6.02351 21.36 6.00547C21.3272 5.98743 21.29 5.97918 21.2527 5.98171C21.2154 5.98424 21.1796 5.99743 21.1496 6.01973C21.1196 6.04202 21.0967 6.07247 21.0835 6.10745C20.9095 6.45832 20.8646 6.40734 20.5737 6.42833C20.3338 6.44633 20.1988 6.28739 20.0669 6.09246C20.0481 6.05621 20.018 6.02711 19.9812 6.00966C19.9443 5.99221 19.9027 5.98738 19.8628 5.99591C19.8229 6.00443 19.7869 6.02584 19.7604 6.05684C19.7338 6.08783 19.7182 6.1267 19.716 6.16743C19.7696 6.35593 19.7619 6.5566 19.694 6.74043C19.6261 6.92427 19.5015 7.08173 19.3381 7.19005C19.1167 7.31033 18.8702 7.37709 18.6184 7.38497C18.2735 7.42696 18.2915 7.16306 18.0696 7.39997C18.0336 7.44195 18.0696 7.41796 17.9916 7.46594C17.9736 7.36098 17.9706 3.8463 18.0756 3.8493C18.1806 3.8523 17.9916 4.1162 18.3755 4.71298C19.2752 6.06247 21.2004 5.51668 21.7732 4.50905C22.0071 4.09521 22.1151 3.79832 22.5109 3.67237C22.6978 3.60773 22.8999 3.60182 23.0903 3.65543C23.2806 3.70903 23.4499 3.81959 23.5755 3.97226C23.6759 4.17865 23.7582 4.39338 23.8214 4.61401C24.1543 6.02349 25.9836 7.00412 27.2072 5.86754Z" fill="#333333"/>
<path d="M28.2388 21.3768C27.4741 22.2075 27.0002 22.3995 26.0436 22.9932C25.3593 23.5111 24.5735 23.879 23.7375 24.0728C23.1719 24.2424 22.5879 24.3431 21.9981 24.3727C21.5333 24.3727 21.5483 24.3727 21.5483 24.3727C19.6462 24.3367 17.8004 23.7204 16.2583 22.6064C14.8248 21.3049 14.9088 21.6048 15.6285 21.4068C18.0696 20.7681 18.1626 20.8071 18.6274 19.0407C18.8175 18.4036 18.9402 17.7482 18.9932 17.0854C19.2302 17.2324 20.0758 18.1201 21.1614 17.9551C22.418 17.7602 23.0327 17.1934 23.2606 17.1124C23.2816 17.3913 22.7538 18.8638 23.0897 20.1113C23.4646 21.4728 26.9792 21.08 28.2388 21.3768ZM21.4103 22.0696C21.6502 22.0696 22.8618 21.8926 22.8108 21.6587C22.7478 21.3588 22.235 21.8537 21.2904 21.8147C21.1854 21.8147 21.1434 21.8147 20.7386 21.6018C20.0758 21.2719 19.9319 21.3978 18.8403 21.6827C18.4415 21.7877 18.5914 21.9826 18.8733 21.9046C19.1552 21.8267 19.9979 21.5688 20.2648 21.6827C21.0805 22.0336 21.1704 22.0906 21.4103 22.0696Z" fill="#C49E91"/>
<path d="M26.7603 11.9493C27.1142 12.1142 27.0932 12.5791 26.9613 12.9419C26.7492 13.4686 26.4445 13.9531 26.0616 14.3724C25.9725 14.4825 25.8451 14.5548 25.7049 14.5748C25.5648 14.5948 25.4222 14.5611 25.3059 14.4803C25.2429 14.4444 25.1559 14.4444 25.072 14.5523C24.6761 15.0561 24.5442 16.0038 22.6969 17.0534C21.8872 17.5122 20.8975 17.8391 20.0459 17.4432C19.0832 16.9934 18.6094 16.0398 18.1206 15.1971C17.092 13.4187 17.7337 12.4531 17.8597 11.2536C17.9256 10.6538 17.8297 9.92205 17.8897 9.15434C17.9226 8.7255 17.9226 8.14972 18.0846 7.81984C18.1236 7.74487 18.1596 7.68189 18.2225 7.6729C18.4325 7.64891 18.5224 7.76286 18.9003 7.69089C19.2418 7.66015 19.561 7.508 19.7999 7.26205C20.1778 6.80322 20.0189 6.61729 20.1688 6.68927C20.3394 6.78151 20.5347 6.81754 20.7269 6.79223C20.9192 6.76693 21.0985 6.68156 21.2394 6.54832C21.3714 6.43736 21.2784 6.65328 21.7702 6.82722C22.1241 6.95017 22.5709 6.66528 22.7628 6.40138C22.8708 6.24543 22.9008 6.71926 23.4826 6.63229C23.7495 6.5933 23.5695 7.11211 24.3462 7.25305C24.4841 7.2545 24.6208 7.22797 24.7481 7.17508C24.928 7.10011 24.5412 7.51995 25.1889 8.00877C25.3591 8.1011 25.5454 8.16013 25.7377 8.18271C25.8517 8.2067 25.9176 8.32965 25.7767 8.42561C24.925 8.9984 25.1769 9.83209 25.7257 9.92505C25.8067 9.92505 25.8907 9.94604 25.8397 10.006C25.7463 10.1272 25.6957 10.2759 25.6957 10.4289C25.6957 10.5818 25.7463 10.7305 25.8397 10.8517C25.9566 10.9747 25.7557 10.9956 25.7797 11.4515C25.8007 11.8113 26.0796 11.7814 25.9386 11.9433C25.8427 12.0602 25.9386 12.2642 26.0706 12.1952C26.1755 12.1262 26.4005 11.7844 26.7603 11.9493ZM26.7453 12.69C26.8443 12.648 26.8713 12.4111 26.7093 12.2612C26.4754 12.0423 26.0406 12.4231 25.8847 12.8879C25.7287 13.3528 26.0976 13.3048 25.9086 13.5507C25.7977 13.6946 25.6328 13.8266 25.7677 13.9495C25.9027 14.0725 26.0676 13.8596 26.1845 13.7276C26.2251 13.6825 26.2553 13.6291 26.2729 13.571C26.2905 13.513 26.2952 13.4518 26.2865 13.3918C26.2625 13.2238 25.9236 13.1099 26.3675 12.594C26.4604 12.4861 26.5414 12.4741 26.5954 12.5701C26.6494 12.666 26.6944 12.714 26.7453 12.69ZM24.6611 10.5728C24.7691 10.7108 24.997 10.6298 24.934 10.4439C24.8291 10.1685 24.6362 9.93554 24.3852 9.78111C24.1399 9.62952 23.8449 9.58001 23.5635 9.64316C22.6969 9.68814 22.7778 10.2429 23.1497 10.078C24.0224 9.72113 24.3402 10.165 24.6611 10.5728ZM23.2846 14.5673C23.2666 14.7592 23.5155 14.9752 23.6175 14.4534C23.5245 13.5537 22.7598 13.6497 22.9937 13.9495C23.0747 14.0545 22.7808 14.0665 22.6489 14.0695C21.7202 14.0875 20.7947 13.9559 19.9079 13.6796C19.4911 13.5627 19.4581 13.5957 19.725 14.1775C20.2708 15.377 20.5976 16.4116 21.6323 15.8118C22.262 15.449 22.9578 14.5883 23.2936 14.3844C23.3086 14.5553 23.2966 14.4683 23.2846 14.5673ZM23.3926 11.4575C23.4436 11.2026 23.3926 11.0766 23.2966 11.0376C23.2689 11.0316 23.2402 11.0315 23.2124 11.0373C23.1846 11.0431 23.1584 11.0548 23.1354 11.0715C23.1125 11.0882 23.0933 11.1096 23.0792 11.1343C23.0652 11.1589 23.0565 11.1863 23.0537 11.2146C22.9578 11.7034 23.3506 11.6884 23.3926 11.4575ZM22.0311 13.0019C22.379 12.9269 22.433 12.4561 22.208 12.4711C22.1121 12.4711 22.1091 12.5311 22.0761 12.5791C22.0431 12.627 21.9951 12.729 21.8782 12.684C21.6143 12.5821 21.6263 12.2162 21.4163 12.5041C21.3671 12.5806 21.2972 12.6416 21.2148 12.6801C21.1324 12.7186 21.0408 12.733 20.9505 12.7217C20.8603 12.7104 20.7751 12.6739 20.7047 12.6163C20.6343 12.5587 20.5816 12.4824 20.5527 12.3961C20.4717 12.0303 20.6816 11.8743 20.9455 11.6284C21.0349 11.5537 21.1041 11.4577 21.1465 11.3492C21.189 11.2407 21.2034 11.1232 21.1884 11.0076C21.1884 10.8937 21.0685 10.8307 20.9845 10.9447C20.9175 11.148 20.7911 11.3267 20.6216 11.4575C19.596 12.2732 20.6216 13.5837 21.4913 12.9569C21.5543 12.9119 21.5783 12.8609 21.6323 12.8999C21.6869 12.9456 21.7511 12.9785 21.8201 12.9962C21.8891 13.0138 21.9612 13.0158 22.0311 13.0019ZM20.8316 9.05838C21.0235 8.75849 20.3157 8.36864 19.5031 8.66253C18.8313 8.90244 18.6544 9.58918 19.0262 9.48122C19.1162 9.45423 19.0832 9.21132 19.548 8.9864C20.2948 8.62354 20.6696 9.30728 20.8316 9.05838ZM20.2768 10.7018C20.2948 10.5158 20.1658 10.3689 20.0369 10.4019C19.9079 10.4349 19.8839 10.4978 19.8779 10.6778C19.8719 10.8577 19.9739 10.9567 20.0399 10.9777C20.1808 10.9986 20.2678 10.8397 20.2768 10.7018Z" fill="#C49E91"/>
<path d="M26.3135 3.82796C26.3525 4.31677 25.9117 4.28978 25.9956 4.89855C26.1546 6.01114 26.2775 6.00514 26.0316 5.99314C25.5098 5.96016 25.6178 6.1041 25.4319 5.09348C25.3937 4.98086 25.3817 4.86102 25.3968 4.74307C25.4118 4.62512 25.4536 4.51215 25.5188 4.41274C26.0466 3.59404 25.3359 3.07824 25.8607 3.19519C26.1846 3.29116 26.2715 3.26717 26.3135 3.82796Z" fill="white"/>
<path d="M21.1015 14.2688C22.463 14.5267 22.9008 14.2868 22.7569 14.4158C21.3024 15.7473 20.9576 16.2721 20.2138 14.4697C19.9979 13.9389 19.68 14.0019 21.1015 14.2688Z" fill="white"/>
<path d="M20.2708 2.39014C20.7116 2.44112 20.3817 2.39014 20.2888 2.98991C20.1328 3.98554 20.7716 3.2898 19.9709 5.05914C19.9259 5.1581 19.9109 5.1491 19.4641 5.07713C19.1402 5.02615 20.1058 3.99454 19.749 3.37377C19.572 3.07388 19.749 2.80098 19.8779 2.4921C19.9109 2.41713 19.8899 2.44412 20.2708 2.39014Z" fill="white"/>
<path d="M18.9123 44.1672C19.692 44.3921 19.8389 44.3801 19.8119 44.4911C19.731 44.761 19.3111 44.722 18.7024 44.6051C17.8867 44.4491 16.999 44.1852 16.0034 44.3681C15.8414 44.3981 15.8534 44.3681 15.3766 44.3292C15.3479 44.324 15.3184 44.3288 15.2927 44.3426C15.2671 44.3564 15.2469 44.3785 15.2354 44.4053C15.2239 44.4321 15.2219 44.462 15.2295 44.4901C15.2372 44.5182 15.2542 44.5428 15.2777 44.5601C15.6333 44.6761 15.9972 44.7653 16.3662 44.827C16.7261 44.8929 16.906 44.827 17.137 44.9469C17.7667 45.3128 17.8357 45.1149 18.1686 45.3278C19.0202 45.8706 19.4161 45.8076 19.1942 46.0085C18.9723 46.2095 18.7264 46.1525 17.7697 45.6787C17.131 45.3608 16.3393 45.5227 15.3016 45.2648C15.0287 45.1958 14.8788 45.4477 15.0707 45.5197C16.4682 46.0325 16.3183 45.7596 16.8701 46.1645C17.2509 46.4644 17.3409 46.3894 17.8477 46.7642C17.9766 46.8602 17.8057 46.9562 17.6977 46.9592C17.2389 46.9592 16.2403 46.4014 15.9794 46.4014C15.7077 46.3957 15.4377 46.3564 15.1757 46.2844C14.7888 46.1915 13.4124 47.319 12.5877 47.484C11.8799 47.6339 11.1542 47.1001 11.0882 46.8422C11.0882 46.7942 11.0612 46.7972 11.3581 45.9576C11.5201 45.4987 11.724 46.2035 12.5037 45.5137C12.6692 45.304 12.7666 45.0487 12.7826 44.782C12.7826 44.68 12.9115 44.5571 13.2504 44.2422C13.5893 43.9273 13.8802 43.6244 14.1261 43.4145C15.4066 42.3169 15.3256 42.6228 16.6481 42.7278C17.5898 42.7997 17.2479 42.7727 19.2722 43.5884C19.4161 43.6454 19.2722 43.9393 19.0142 43.8883C17.9269 43.4784 16.7725 43.275 15.6105 43.2886C15.4576 43.2886 15.3436 43.3995 15.3616 43.4685C15.4366 43.7744 15.7935 43.2736 18.9123 44.1672Z" fill="#C49E91"/>
<path d="M11.4391 44.0166C12.2488 44.1785 12.6087 45.0212 11.8799 45.1771C10.7554 45.1052 10.7164 43.8726 11.4391 44.0166Z" fill="white"/>
<path d="M10.9323 30.304C10.7648 30.5504 10.5696 30.7768 10.3505 30.9787C9.89467 31.3896 9.97864 31.4285 9.86468 31.3236C9.26491 30.7598 8.87206 29.8691 7.51057 28.7955C6.67688 28.1358 6.51194 28.6216 7.57354 27.3711C8.17332 26.6693 8.04437 26.6393 8.20331 26.7503C8.74011 27.1222 8.84807 27.566 9.57979 28.2497C10.0176 28.6516 10.0056 28.8105 10.2905 29.2784C10.5034 29.6112 10.8483 30.157 10.9323 30.304Z" fill="#C49E91"/>
<path d="M9.97268 42.9984C9.97268 42.9984 10.7374 43.5982 10.6564 43.6941C10.4797 43.8999 10.3752 44.1579 10.359 44.4287C10.3427 44.6995 10.4156 44.9681 10.5665 45.1936C10.7824 45.5174 10.4825 45.5204 10.3655 46.3331C10.3655 46.4441 10.4495 46.4501 9.04903 45.5114C7.87347 44.7257 3.5221 41.457 2.60745 40.3804C0.8621 38.3291 -0.490393 37.0816 0.994051 35.1143C2.28957 33.39 4.73065 30.5111 4.8566 30.4331C6.09214 30.8679 7.48962 32.8532 7.99343 33.303C8.0774 33.378 8.16136 33.345 7.54959 33.9208C7.54959 33.9208 6.14012 35.3423 5.51336 36.1699C5.11151 36.7007 4.70966 36.8537 4.79063 37.3695C4.88059 37.9393 9.55584 42.5755 9.97268 42.9984Z" fill="#C49E91"/>
<path d="M6.16411 28.938C7.56158 29.6247 9.42688 31.9669 9.31592 32.0748C8.56321 32.8125 8.65317 32.8005 8.54821 32.6746C8.0564 32.1318 6.54197 30.3535 5.73227 29.8736C5.46537 29.7147 5.3904 29.7507 5.45038 29.6877C6.23308 28.848 5.99917 29.0819 6.16411 28.938Z" fill="#C49E91"/>
<path d="M41.3799 29.2791C41.08 28.4334 37.2804 20.7413 37.2774 20.7353C36.5667 19.3768 36.2278 19.6137 36.3538 18.5641C36.6236 16.27 36.2668 16.5099 36.4857 15.1724C36.6663 14.1442 36.9157 13.1293 37.2324 12.1345C37.3884 11.5587 37.2894 11.2678 36.8696 11.2348C36.5697 11.2079 36.3837 11.4928 36.1918 12.0266C35.9069 12.8093 35.649 13.9698 35.3911 14.5756C35.3221 14.7375 35.4691 11.0189 35.4631 10.803C35.4831 10.5786 35.4394 10.353 35.3371 10.1523C35.2857 10.0919 35.2174 10.0482 35.141 10.0269C35.0646 10.0055 34.9836 10.0074 34.9083 10.0323C34.5094 10.1403 34.4795 10.5781 34.3745 11.3398C34.2126 12.5574 34.1766 14.5936 34.1226 14.2877C33.8767 12.9232 33.8977 12.5364 33.8767 10.9889C33.8767 10.782 33.9007 10.4881 33.8767 10.2302C33.8467 9.86436 33.6548 9.69643 33.4029 9.73241C33.1989 9.7594 33.088 9.84337 32.995 10.1403C32.6112 11.3188 32.899 14.1767 32.7671 14.0658C32.6202 13.9809 32.4643 13.9125 32.3023 13.8619C31.8644 13.6399 31.6395 13.502 31.2467 13.6699C30.6469 13.9248 30.7339 14.1078 30.5179 14.8695C30.302 15.6312 30.1701 15.8411 30.269 16.165C30.305 16.273 30.1521 16.4649 30.236 16.6988C31.0697 19.1609 30.371 19.0349 33.3729 20.2015C33.8587 20.3934 33.8587 20.6213 34.2066 21.524C34.7284 22.8825 34.9773 23.6502 35.1062 24.145C35.2352 24.6398 35.9399 26.844 35.9219 27.5097C35.7264 27.3728 35.5382 27.2257 35.3581 27.0689C35.2652 26.9969 35.3581 26.925 35.3911 26.5651C35.4216 26.4421 35.422 26.3135 35.3922 26.1903C35.3624 26.0671 35.3034 25.9529 35.2202 25.8574C34.9563 25.6145 34.5304 25.2216 33.7447 24.5768C31.5376 22.7835 31.7475 20.9482 29.0485 20.9842C28.9285 20.9842 28.6796 20.8342 28.4487 21.0442C28.3707 21.1191 27.0183 20.8223 26.1996 20.8732C26.0436 20.8732 23.8275 20.7593 23.5186 20.2375C23.1707 19.6587 23.3027 18.5851 23.3896 18.1742C23.6265 17.0707 23.5755 16.8038 23.8844 16.5998C24.4183 16.1447 24.8496 15.5815 25.15 14.9475C25.1799 14.8785 25.1949 14.7705 25.2459 14.7975C25.3586 14.8694 25.4875 14.9116 25.6208 14.9205C25.7347 14.9205 25.7257 15.2204 26.0376 15.5712C26.0856 15.6222 26.0646 15.6162 25.8277 15.8291C25.7285 15.9145 25.6483 16.0198 25.5923 16.1381C25.5363 16.2564 25.5058 16.3852 25.5027 16.516C25.4996 16.6469 25.524 16.777 25.5743 16.8978C25.6246 17.0186 25.6997 17.1276 25.7947 17.2176C26.0766 17.4365 26.1126 17.4695 26.0466 17.6135C25.9103 17.7578 25.8181 17.9381 25.7809 18.1331C25.7437 18.3281 25.7631 18.5297 25.8367 18.714C25.912 18.8621 26.0136 18.9952 26.1366 19.1069C26.2805 19.2718 26.6374 19.3018 26.5714 19.0259C26.3465 18.0513 27.588 18.3332 26.7694 16.9087C26.4005 16.264 28.1878 16.4889 27.3871 15.1094C27.1982 14.7855 26.9523 14.5276 27.2972 14.3807C27.642 14.2337 27.741 14.2457 27.9389 14.0598C28.2238 13.7899 27.9389 13.46 28.1248 13.484C28.7906 13.619 29.3514 13.1091 29.0455 12.5064C28.8536 12.1225 29.9092 12.4044 29.9452 11.4838C29.9781 10.755 29.4833 10.761 29.8072 10.6081C29.9518 10.5722 30.0878 10.5078 30.2073 10.4187C30.3268 10.3296 30.4273 10.2176 30.5029 10.0893C30.9228 9.24959 30.257 8.65282 30.0801 8.39492C30.7189 8.02905 30.9078 7.52224 30.7189 6.91347C30.5779 6.45164 30.254 6.46064 30.395 6.2987C30.6077 6.02872 30.7087 5.68733 30.6769 5.34506C30.248 3.73766 29.2074 4.19049 29.3484 3.89061C29.4628 3.64188 29.4821 3.35981 29.4025 3.09783C29.3229 2.83585 29.15 2.61216 28.9165 2.46914C28.6294 2.29891 28.2948 2.22631 27.9629 2.26222C27.8999 2.19024 28.0079 1.64445 27.4081 1.59946C26.8083 1.55448 26.7843 1.86337 26.7394 1.68943C26.5977 1.26757 26.3149 0.90746 25.9387 0.669814C25.6813 0.542495 25.3942 0.487555 25.108 0.510873C24.3523 0.528867 24.4062 0.810761 24.2383 0.642824C23.5396 -0.0799049 22.9038 0.771776 22.8378 0.606837C22.6159 0.0520456 20.9965 -0.505745 20.1388 0.804763C20.0879 0.882734 20.0579 0.927717 20.0099 0.876736C19.8613 0.75952 19.6849 0.682733 19.4978 0.653833C19.3107 0.624932 19.1194 0.6449 18.9423 0.711798C17.4728 1.31157 18.2765 2.2982 17.9736 2.11527C17.6708 1.93234 17.4608 1.73142 17.131 1.89935C16.2853 2.32819 16.6691 2.95196 16.4322 2.86499C16.0004 2.70305 15.5895 3.27284 15.7125 3.71967C15.9044 4.41841 15.9044 4.08253 15.3616 4.1665C15.1905 4.18885 15.0339 4.27456 14.9229 4.40669C14.8119 4.53883 14.7544 4.7078 14.7619 4.88023C14.7858 5.32407 14.9988 5.37805 14.8488 5.39604C14.7038 5.43371 14.5681 5.50101 14.4504 5.59368C14.3326 5.68635 14.2353 5.8024 14.1646 5.93452C14.0939 6.06664 14.0513 6.21196 14.0395 6.36135C14.0277 6.51073 14.047 6.66094 14.0961 6.80251C14.261 7.27334 14.6479 7.21936 14.504 7.33031C14.4275 7.37696 14.3648 7.44316 14.3224 7.52209C14.2801 7.60101 14.2595 7.6898 14.2629 7.77932C14.2662 7.86884 14.2934 7.95584 14.3416 8.03136C14.3897 8.10689 14.4572 8.1682 14.5369 8.20899C14.5819 8.23897 14.5819 8.25697 14.5369 8.28995C14.4172 8.39898 14.3292 8.53829 14.282 8.69319C14.2349 8.84809 14.2305 9.01284 14.2692 9.17006C14.3078 9.32728 14.3882 9.47115 14.5019 9.58648C14.6155 9.70182 14.7582 9.78435 14.9148 9.82538C15.0318 9.85237 14.8908 9.85837 14.8428 10.2692C14.8307 10.3659 14.8381 10.464 14.8644 10.5577C14.8907 10.6515 14.9355 10.7391 14.9961 10.8154C15.0567 10.8916 15.1319 10.955 15.2173 11.0018C15.3028 11.0486 15.3967 11.0779 15.4936 11.0879C15.7245 11.1029 14.9748 11.9126 15.9944 12.6113C16.3663 12.8662 15.9014 13.0402 15.8355 13.475C15.7515 14.0058 15.9824 14.1048 16.3453 14.3927C16.5282 14.5366 16.3453 14.5366 16.0454 14.8005C15.9376 14.8817 15.8659 15.0019 15.8457 15.1353C15.8256 15.2688 15.8585 15.4048 15.9374 15.5142C16.0348 15.647 16.1431 15.7714 16.2613 15.8861C16.4772 16.138 16.3663 16.3209 16.2613 16.6538C16.2073 16.8487 16.3693 16.9717 16.5072 16.8997C17.2209 16.5339 17.6468 16.081 17.164 15.4423C17.023 15.2533 17.3379 15.3433 17.5118 14.7855C17.5118 14.7705 17.5358 14.7405 17.5538 14.7855C18.1866 16.153 18.6514 16.4949 18.6484 17.0497C18.6484 17.6734 18.2675 19.7487 17.7937 20.2495C17.3739 20.6933 16.6392 20.8312 14.9718 21.2181C14.6719 21.2871 14.7589 21.0382 14.303 21.1851C13.5563 21.422 13.5473 21.485 13.4483 21.422C13.3494 21.3591 13.2744 21.377 12.8126 21.557C12.6297 21.629 12.8126 21.6529 12.5127 21.7849C12.0569 21.9858 11.811 22.0458 11.5201 22.5646C11.2292 23.0834 11.0463 22.2647 8.01739 25.5635C7.60054 26.0133 7.39062 26.1183 7.41761 26.4301C7.4476 26.802 7.63353 26.865 7.4596 27.0299C6.80284 27.6087 3.1982 31.7771 2.6614 32.4579C-0.484421 36.3564 -1.21315 36.5993 2.51445 40.8727C3.15921 41.6135 9.29791 46.4386 10.2426 46.7265C10.4075 46.7775 10.2665 46.9634 10.6444 47.1314C10.8963 47.2423 10.8093 47.0924 11.1272 47.3923C11.757 47.9921 11.9699 47.7791 11.9129 47.9291C11.673 48.5618 10.8723 50.5621 10.9473 51.1589C11.0463 51.9386 10.7584 52.1995 10.6474 52.7513C10.4975 53.408 10.5994 53.7289 10.4795 54.3707C10.3745 54.9165 10.2935 54.6256 10.0506 56.191C9.99964 56.5269 10.3505 56.5808 10.3985 56.3589C10.4373 55.9529 10.5136 55.5513 10.6264 55.1594C10.8253 54.6845 10.9273 54.1747 10.9263 53.6599C11.0463 52.0106 11.4211 52.3524 11.3132 51.2428C11.2592 50.6761 11.4091 50.5051 12.2338 47.9831C12.2788 47.8451 12.3658 47.9291 12.6027 47.8781C13.7572 47.6292 14.8158 46.5796 15.0737 46.6306C16.915 47.0144 15.4216 46.5646 17.2479 47.2723C17.9317 47.5392 18.1476 47.0744 18.3395 47.1044C18.3395 47.1044 20.9365 47.4523 21.1165 47.3173C21.2334 47.2303 21.1914 47.3713 21.9322 47.4343C22.292 47.4673 22.475 47.5722 22.8318 47.6022C23.1887 47.6322 23.7735 47.4972 23.9264 47.5302C24.3336 47.5724 24.7447 47.5552 25.147 47.4793C25.582 47.5186 26.0202 47.5035 26.4515 47.4343C26.8473 47.3503 26.6704 47.2273 26.9013 47.2303C27.0782 47.2303 28.2598 47.0954 28.2688 47.0954C29.2083 46.9569 30.129 46.7114 31.0128 46.3637C31.1087 46.3637 31.1927 46.4926 31.3126 46.5346C31.4829 46.621 31.6176 46.7642 31.6935 46.9395C31.8854 47.2004 31.7955 47.4283 31.8914 47.8901C31.9563 48.2866 31.9864 48.6879 31.9814 49.0896C32.0534 49.6894 32.1493 49.4855 32.7431 50.757C32.8841 51.0569 32.6232 50.5141 33.6428 53.0152C34.3415 54.7395 33.3009 52.7543 35.0732 56.5568C35.1632 56.7488 35.2202 57.0637 35.4541 56.9887C35.8709 56.8597 34.5544 55.0274 34.2695 53.7319C33.9846 52.4364 33.5528 52.3524 33.9277 52.3314C34.1306 52.3275 34.3302 52.2784 34.5118 52.1876C34.6933 52.0968 34.8524 51.9667 34.9773 51.8066C35.577 50.832 35.8949 50.6071 35.9129 48.6998C35.9129 47.7162 35.8469 46.4716 35.9129 46.0548C36.0449 45.2421 35.613 45.0592 35.679 44.8043C35.748 44.4594 35.73 44.5044 35.562 44.1325C35.2112 43.3378 34.8573 41.1756 33.8077 40.5548C32.8601 39.9941 32.8481 39.8741 32.5092 39.8381C32.0414 39.7871 31.7835 39.6462 31.1507 39.7452C30.9288 39.7781 30.8508 39.7991 30.7848 39.7452C30.44 39.4453 30.44 39.4123 30.428 39.2893C30.356 38.4796 29.8792 37.583 29.8492 37.2591C29.8237 36.4698 29.8447 35.6798 29.9122 34.893C30.0411 33.0727 29.8072 33.2166 29.9751 31.8371C30.0501 31.2373 30.1311 30.8955 30.233 30.0378C30.233 29.9778 30.1611 29.8909 30.9888 30.6376C31.5885 31.1684 32.1883 32.137 32.6352 31.6752C32.6831 31.6272 32.7191 31.6392 32.7641 31.6752C33.1629 32.035 33.3909 32.182 33.8077 32.5389C35.2712 33.7864 37.5893 36.2904 39.5056 36.1195C41.9317 35.9066 41.9047 34.3412 41.9047 31.9211C41.916 31.0134 41.7372 30.1135 41.3799 29.2791ZM34.4825 14.0658C34.4825 14.0208 34.5664 11.4958 34.7823 10.6561C34.8303 10.4821 34.8303 10.3742 34.9743 10.3262C35.4211 10.1732 34.8423 12.3864 35.0372 15.1244C35.0372 15.2054 35.0792 15.2114 34.4195 14.9744C34.3685 14.9445 34.3865 14.9385 34.4885 14.0658H34.4825ZM17.2839 12.5304C17.044 13.7659 17.5178 14.2127 17.1879 14.8215C17.0877 14.9295 16.9794 15.0297 16.8641 15.1214C16.5822 15.4393 17.104 15.6432 17.074 15.9821C17.0092 16.1964 16.8684 16.3798 16.6781 16.4979C16.669 16.5049 16.6578 16.5088 16.6462 16.5089C16.6347 16.5091 16.6234 16.5056 16.614 16.4989C16.6046 16.4922 16.5976 16.4826 16.594 16.4717C16.5905 16.4607 16.5905 16.4488 16.5942 16.4379C16.7561 15.8861 16.5942 15.8111 16.2643 15.4453C15.9854 15.1454 16.2193 14.9804 16.6152 14.6626C16.8791 14.4526 16.7291 14.2997 16.5702 14.1767C15.8534 13.622 16.0514 13.622 16.3782 12.9952C16.5252 12.7133 16.4532 12.6023 16.3213 12.4704C16.1893 12.3384 15.8864 12.1345 15.8055 11.9006C15.7619 11.7652 15.7498 11.6216 15.77 11.4807C15.7903 11.3399 15.8424 11.2056 15.9224 11.0879C16.2223 10.6921 15.5296 10.9769 15.2357 10.5871C14.9898 10.2602 15.3136 9.96033 15.4096 9.87936C15.6015 9.71742 15.5356 9.55848 15.3796 9.56448C14.501 9.59746 14.33 8.88673 14.9118 8.36493C15.0947 8.20599 15.1817 8.08603 14.9118 7.97207C14.375 7.75616 14.6119 7.61221 14.9118 7.40529C15.1517 7.25534 15.2117 7.1054 14.8488 6.98544C14.1741 6.77252 14.249 6.17275 14.6929 5.83687C15.1367 5.501 15.2927 5.89985 15.5206 5.78889C15.6885 5.70792 15.5386 5.41703 15.4276 5.33606C14.8278 4.88923 15.2057 4.55636 15.3946 4.54736C15.7935 4.52337 15.7695 4.57735 15.9734 4.52637C16.5252 4.39142 16.0664 3.96258 16.0304 3.60271C16.0124 3.43778 16.0964 3.1109 16.3303 3.17687C16.4922 3.21886 16.8701 3.39279 16.8131 3.05692C16.7886 2.96653 16.7823 2.87221 16.7944 2.77936C16.8065 2.6865 16.8368 2.59696 16.8836 2.51587C16.9304 2.43477 16.9928 2.36373 17.0672 2.30682C17.1415 2.24991 17.2264 2.20825 17.3169 2.18425C17.4968 2.14526 17.4968 2.24422 17.7757 2.43015C18.0546 2.61608 18.3365 2.50513 18.3425 2.3132C18.3425 1.88736 18.1776 1.41353 19.0472 1.02068C19.1995 0.973526 19.3619 0.969879 19.5161 1.01015C19.6703 1.05043 19.8102 1.13302 19.9199 1.2486C20.0429 1.38355 20.1148 1.49151 20.2438 1.28758C20.3414 1.02674 20.5058 0.796124 20.7206 0.618833C20.8736 0.488717 21.0536 0.394295 21.2476 0.342423C21.4416 0.290552 21.6447 0.282532 21.8422 0.318945C22.0273 0.342985 22.2004 0.424027 22.3374 0.550838C22.4745 0.67765 22.5686 0.843948 22.6069 1.02668C22.6339 1.13164 22.6069 1.21861 22.7419 1.25459C22.8318 1.27859 22.9248 1.14364 22.9398 1.11365C23.0017 0.991047 23.0952 0.887205 23.2106 0.812864C23.3261 0.738523 23.4593 0.696384 23.5965 0.690806C24.1153 0.75978 24.0644 1.21861 24.1453 1.29058C24.4152 1.54249 24.2533 0.672813 25.4498 0.861742C25.6507 0.903679 25.8368 0.99826 25.9891 1.13579C26.1414 1.27333 26.2544 1.44887 26.3165 1.64445C26.4725 1.99532 26.2625 1.98032 26.3705 2.24422C26.4425 2.42715 26.5774 2.36418 26.7154 2.21723C27.1322 1.7614 27.687 1.85137 27.579 2.23523C27.5142 2.36718 27.4774 2.51117 27.4711 2.65807C27.4725 2.68766 27.4822 2.71625 27.4993 2.74049C27.5163 2.76473 27.5399 2.78362 27.5672 2.79494C27.5946 2.80627 27.6246 2.80956 27.6538 2.80444C27.683 2.79932 27.7101 2.786 27.732 2.76603C28.1128 2.35218 29.3454 2.72104 29.0785 3.6417C29.0035 3.9056 28.9105 4.10353 29.0965 4.18449C29.6033 4.40341 29.7772 4.42141 30.0861 4.82326C30.2282 4.98824 30.3108 5.19617 30.3206 5.41369C30.3304 5.63122 30.2668 5.84573 30.1401 6.02281C30.1011 6.07978 29.8852 6.21173 29.8042 6.32269C29.7875 6.34562 29.7769 6.3724 29.7734 6.40053C29.7698 6.42866 29.7735 6.45723 29.7839 6.48357C29.7944 6.50992 29.8114 6.53319 29.8333 6.5512C29.8552 6.56921 29.8813 6.58139 29.9092 6.58659C30.314 6.63458 30.6889 7.30632 30.233 7.83413C29.9841 8.13401 29.8972 8.02905 29.7802 8.23897C29.5553 8.62883 30.449 9.03967 30.293 9.70842C30.1821 10.1912 29.7922 10.2422 29.5493 10.4012C29.3064 10.5601 29.2674 10.701 29.5103 11.0369C29.5965 11.1346 29.6473 11.2585 29.6543 11.3885C29.6614 11.5186 29.6244 11.6472 29.5493 11.7537C29.2194 12.1165 28.7276 11.9036 28.7156 12.2755C28.7006 12.7463 28.9345 12.9172 28.5837 13.1091C28.2328 13.3011 27.828 12.9742 27.684 13.1331C27.5401 13.2921 27.684 13.388 27.723 13.568C27.825 13.9218 27.576 13.8199 27.0452 14.1108C26.7873 14.2547 26.6734 14.6236 26.9433 15.0584C27.3781 15.7632 27.4021 15.8051 26.8203 16.174C25.7887 16.8337 27.0842 17.3526 26.6734 17.8834C26.2625 18.4142 26.2805 18.6571 26.3015 18.783C26.3225 18.909 26.2056 18.921 26.1186 18.735C26.0415 18.6171 26.0048 18.4773 26.014 18.3367C26.0232 18.1961 26.0778 18.0623 26.1696 17.9553C26.2325 17.8829 26.2788 17.7976 26.3052 17.7054C26.3317 17.6132 26.3376 17.5163 26.3225 17.4215C26.3045 17.2746 26.1186 17.1216 25.9147 16.9747C25.8311 16.8886 25.7795 16.7764 25.7686 16.6569C25.7577 16.5374 25.7881 16.4178 25.8547 16.3179C26.1186 15.9131 26.2625 15.9731 26.3255 15.7182C26.3765 15.5142 26.1216 15.3133 25.9746 14.9804C25.9357 14.9205 27.2582 13.7029 27.3541 12.6443C27.3842 12.4917 27.3722 12.3337 27.3193 12.1874C27.2665 12.0411 27.1749 11.9119 27.0542 11.8136C27.0003 11.7806 26.9703 11.7627 26.9853 11.6667C27.747 6.61358 27.9959 5.21611 28.0739 4.84425C28.1128 4.64932 28.0739 4.57135 27.9539 4.52337C27.8339 4.47539 27.729 4.54736 27.714 4.36743C27.618 3.3658 26.3495 2.832 25.3449 2.832C25.0763 2.79743 24.8034 2.83997 24.5581 2.95467C24.3127 3.06937 24.1051 3.25148 23.9594 3.47976C23.8964 3.60571 23.8874 3.68068 23.8065 3.59672C23.6603 3.44874 23.4796 3.33946 23.2806 3.27873C23.0817 3.218 22.8708 3.20773 22.6669 3.24885C22.1331 3.32082 22.1151 3.54873 22.0941 3.3598C21.9292 1.80339 19.0952 1.65644 18.2795 2.93396C18.1716 3.1049 18.2795 3.23385 18.0126 3.25784C17.5418 3.28183 17.7487 3.41978 17.5928 8.92572C17.5088 12.2875 17.6528 10.5511 17.2839 12.5304ZM26.1696 10.6141C25.8187 10.4132 26.2475 10.1253 26.3315 9.91235C26.5264 9.42053 25.5938 9.75341 25.5698 9.27958C25.5338 8.63183 26.3405 8.94071 26.1696 8.11602C26.1126 7.84912 25.8847 7.84912 25.4978 7.75915C25.3269 7.72017 25.2429 7.58222 25.15 7.45927C24.967 7.19537 25.4498 6.67656 25.2189 6.51462C24.988 6.35268 24.6461 7.08141 24.2713 6.85049C24.1153 6.75753 23.9114 6.66157 23.9714 6.48763C24.0944 6.09178 23.8394 6.00781 23.6505 6.18774C23.5969 6.23182 23.5327 6.26104 23.4642 6.27245C23.3957 6.28387 23.3255 6.27708 23.2605 6.25278C23.1955 6.22848 23.138 6.18751 23.0938 6.13399C23.0496 6.08047 23.0203 6.01627 23.0088 5.94783C22.9458 5.58497 22.7089 5.67194 22.6339 5.87586C22.5229 6.23872 22.1481 6.58659 21.8602 6.47564C21.7629 6.45056 21.6735 6.40144 21.6001 6.3328C21.5268 6.26416 21.4718 6.17819 21.4403 6.08278C21.4226 6.0499 21.3957 6.02283 21.363 6.00479C21.3302 5.98675 21.293 5.9785 21.2557 5.98103C21.2184 5.98356 21.1826 5.99675 21.1526 6.01905C21.1226 6.04134 21.0997 6.07179 21.0865 6.10677C20.9125 6.45764 20.8676 6.40666 20.5767 6.42765C20.3368 6.44565 20.2018 6.28671 20.0699 6.09178C20.0512 6.05553 20.021 6.02643 19.9842 6.00898C19.9473 5.99153 19.9057 5.9867 19.8658 5.99523C19.8259 6.00375 19.7899 6.02516 19.7634 6.05616C19.7369 6.08715 19.7213 6.12602 19.719 6.16675C19.7724 6.35556 19.7642 6.55645 19.6957 6.74032C19.6273 6.92418 19.502 7.08146 19.3381 7.18937C19.1167 7.30965 18.8702 7.37641 18.6184 7.38429C18.2735 7.42628 18.2915 7.16238 18.0696 7.39929C18.0336 7.44127 18.0696 7.41728 17.9916 7.46526C17.9736 7.3603 17.9707 3.84562 18.0756 3.84862C18.1806 3.85162 17.9916 4.11552 18.3755 4.7123C19.2752 6.06179 21.2004 5.516 21.7732 4.50837C22.0071 4.09453 22.1151 3.79764 22.5109 3.67169C22.696 3.60644 22.8964 3.59874 23.0859 3.64959C23.2754 3.70044 23.445 3.80747 23.5725 3.95658C23.6737 4.16505 23.757 4.38175 23.8215 4.60434C24.1423 6.0288 25.9716 7.00344 27.1952 5.87286C27.4621 5.62695 27.6 5.2251 27.597 5.34806C27.597 5.52799 27.2972 6.8475 26.6374 11.4958C26.6374 11.5647 26.6044 11.5977 26.5324 11.6037C26.4605 11.6097 26.3375 11.6487 26.2326 11.5797C26.1964 11.5599 26.1647 11.5329 26.1394 11.5003C26.1142 11.4677 26.0959 11.4303 26.0858 11.3903C26.0757 11.3504 26.0739 11.3087 26.0805 11.2681C26.0872 11.2274 26.1022 11.1885 26.1246 11.1539C26.2685 10.935 26.6044 10.866 26.1696 10.6141ZM19.752 3.3838C19.5751 3.08391 19.752 2.81101 19.8809 2.50213C19.9139 2.41816 19.8809 2.44515 20.2738 2.40016C20.7146 2.45115 20.3847 2.40016 20.2918 2.99994C20.1358 3.99557 20.7746 3.29983 19.9739 5.06916C19.9289 5.16813 19.9139 5.15913 19.4671 5.08716C19.1522 5.03618 20.1059 4.00456 19.752 3.3838ZM25.8787 3.20386C26.1786 3.27584 26.2745 3.26684 26.3165 3.82763C26.3555 4.31645 25.9147 4.28946 25.9986 4.89823C26.1576 6.01081 26.2805 6.00481 26.0346 5.99282C25.5128 5.95983 25.6208 6.10378 25.4348 5.09315C25.3967 4.98053 25.3847 4.8607 25.3997 4.74274C25.4148 4.62479 25.4566 4.51182 25.5218 4.41241C26.0496 3.59072 25.3509 3.08691 25.8757 3.20386H25.8787ZM18.1326 15.1994C17.104 13.421 17.7457 12.4554 17.8717 11.2558C17.9377 10.6561 17.8417 9.92434 17.9017 9.15663C17.9347 8.72779 17.9347 8.15201 18.0966 7.82213C18.1356 7.74716 18.1716 7.68418 18.2346 7.67519C18.4445 7.65119 18.5344 7.76515 18.9123 7.69318C19.2538 7.66244 19.573 7.51029 19.812 7.26434C20.1898 6.80551 20.0309 6.61958 20.1808 6.69155C20.3514 6.7838 20.5467 6.81983 20.739 6.79452C20.9312 6.76921 21.1105 6.68385 21.2514 6.55061C21.3834 6.43965 21.2904 6.65557 21.7822 6.8295C22.1361 6.95246 22.5829 6.66756 22.7748 6.40366C22.8828 6.24772 22.9128 6.72154 23.4946 6.63458C23.7615 6.59559 23.5815 7.1144 24.3583 7.25534C24.4961 7.25678 24.6328 7.23026 24.7601 7.17737C24.94 7.1024 24.5532 7.52224 25.2009 8.01106C25.3712 8.10339 25.5574 8.16242 25.7497 8.18499C25.8637 8.20899 25.9297 8.33194 25.7887 8.4279C24.937 9.00069 25.1889 9.83438 25.7377 9.92734C25.8187 9.92734 25.9027 9.94833 25.8517 10.0083C25.7583 10.1295 25.7077 10.2782 25.7077 10.4312C25.7077 10.5841 25.7583 10.7328 25.8517 10.854C25.9686 10.9769 25.7677 10.9979 25.7917 11.4538C25.8127 11.8136 26.0916 11.7836 25.9507 11.9456C25.8547 12.0625 25.9507 12.2665 26.0826 12.1975C26.1756 12.1525 26.4005 11.8106 26.7604 11.9756C27.1202 12.1405 27.0932 12.6053 26.9613 12.9682C26.7492 13.4949 26.4445 13.9794 26.0616 14.3987C25.9725 14.5087 25.8451 14.5811 25.705 14.6011C25.5648 14.6211 25.4222 14.5874 25.3059 14.5066C25.2429 14.4706 25.156 14.4706 25.072 14.5786C24.6761 15.0824 24.5442 16.0301 22.6969 17.0797C21.8872 17.5385 20.8976 17.8654 20.0459 17.4695C19.0922 16.9927 18.6184 16.039 18.1296 15.1964L18.1326 15.1994ZM15.6285 21.398C18.0696 20.7623 18.1626 20.7983 18.6274 19.0319C18.8169 18.3977 18.9396 17.7454 18.9933 17.0857C19.2302 17.2326 20.0759 18.1203 21.1615 17.9553C22.418 17.7604 23.0328 17.1936 23.2607 17.1126C23.2817 17.3915 22.7539 18.864 23.0897 20.1115C23.4586 21.482 26.9733 21.0892 28.2328 21.386C27.4681 22.2167 26.9943 22.4087 26.0376 23.0024C25.3533 23.5203 24.5675 23.8882 23.7315 24.082C23.1659 24.2516 22.5819 24.3523 21.9921 24.3819C21.5273 24.3819 21.5423 24.3819 21.5423 24.3819C19.6402 24.3459 17.7945 23.7296 16.2523 22.6156C14.8248 21.2841 14.9088 21.584 15.6285 21.398ZM9.51383 24.5109C11.4751 22.6246 11.4241 23.4133 11.9129 22.6066C12.1438 22.2317 12.2638 22.3067 12.7826 22.0758C13.3824 21.8299 21.5123 33.9033 25.2969 36.9982C27.627 38.9055 30.494 40.8337 30.5029 40.8517C30.6109 41.1516 30.7009 41.7274 30.413 41.8324C29.9811 41.9913 29.6963 41.7214 29.1595 41.6434C28.6227 41.5655 27.618 42.843 25.9267 42.6841C25.8727 42.6841 25.6808 42.6841 25.6808 42.6841C25.018 42.5611 24.8951 42.4411 24.4812 42.6841C24.3451 42.8093 24.1653 42.8761 23.9804 42.87C23.512 42.9303 23.037 42.8322 22.6309 42.5911C22.0311 42.2642 21.0895 42.891 19.9709 42.873C19.6718 42.8285 19.3896 42.7065 19.1522 42.5191C18.6394 42.2042 18.2885 42.849 17.5208 42.5581C17.107 42.3992 16.4892 42.4771 15.9314 42.3722C15.7052 42.3333 15.4739 42.3333 15.2477 42.3722C15.0587 42.4531 15.1847 42.2402 14.7798 42.0723C14.6479 42.0183 14.1801 42.0033 13.9522 41.8174C13.6763 41.5925 14.1381 41.4185 14.2011 40.9927C14.2067 40.7926 14.2494 40.5954 14.327 40.4109C14.7169 39.7601 14.7079 39.6222 14.7259 39.3553C14.6903 39.0239 14.7198 38.6887 14.8128 38.3687C14.9928 38.0298 14.5519 36.7703 14.474 36.5394C13.8442 34.695 14.0571 35.7447 13.7662 33.8644C13.5383 32.3859 13.3284 32.3859 13.3104 31.6092C13.2924 30.8325 13.5113 30.8115 13.3104 30.3197C13.2438 30.2105 13.1643 30.1098 13.0735 30.0198C12.9808 29.9143 12.926 29.7809 12.9179 29.6407C12.9097 29.5005 12.9487 29.3616 13.0285 29.2461C13.3681 28.6816 13.5571 28.0393 13.5773 27.3808C13.6523 26.868 13.6943 26.3462 13.4903 26.3552C13.1395 26.3552 13.4633 27.3778 13.0585 28.4814C12.8576 29.0332 12.4137 29.3451 12.0689 29.6809C11.1302 30.5806 11.5381 30.6616 10.9833 29.7289C10.1856 28.3884 10.2396 28.4124 9.87669 28.0375C9.24693 27.3838 9.40287 27.6147 9.10298 27.1949C8.80521 26.7695 8.40777 26.4235 7.94542 26.1872C7.88844 26.1602 9.043 24.9667 9.51383 24.5109ZM14.7499 42.5041C14.5281 42.6984 14.2869 42.8692 14.0301 43.0139C13.7572 42.951 13.6343 42.843 13.6943 42.5851C13.7392 42.3902 13.8412 42.2102 14.0301 42.2852C14.426 42.3992 14.5279 42.3032 14.7499 42.5011V42.5041ZM7.57355 27.3718C8.17333 26.6701 8.04438 26.6401 8.20332 26.751C8.74012 27.1229 8.84808 27.5667 9.5798 28.2505C10.0176 28.6523 10.0056 28.8113 10.2905 29.2791C10.5035 29.6269 10.8483 30.1787 10.9323 30.3197C10.7648 30.5661 10.5696 30.7925 10.3505 30.9944C9.89468 31.4053 9.97865 31.4443 9.86469 31.3393C9.26492 30.7755 8.87207 29.8849 7.51058 28.8113C6.67689 28.1365 6.51195 28.6223 7.57355 27.3718ZM5.45035 29.6959C6.23306 28.8472 5.99915 29.0782 6.16408 28.9372C7.56156 29.6239 9.42686 31.9661 9.3159 32.074C8.56318 32.8148 8.65315 32.7998 8.54819 32.6738C8.05637 32.131 6.54194 30.3527 5.73225 29.8729C5.46535 29.7229 5.39037 29.7589 5.45035 29.6959ZM10.6564 43.6947C10.4797 43.9005 10.3752 44.1585 10.3589 44.4292C10.3427 44.7 10.4156 44.9687 10.5664 45.1941C10.7824 45.518 10.4825 45.521 10.3655 46.3337C10.3655 46.4446 10.4495 46.4506 9.049 45.512C7.87344 44.7263 3.52208 41.4575 2.60742 40.3809C0.862075 38.3297 -0.490418 37.0822 0.994025 35.1149C2.28954 33.3905 4.73062 30.5116 4.85658 30.4336C6.09211 30.8685 7.48959 32.8537 7.9934 33.3036C8.07737 33.3785 8.16133 33.3456 7.54956 33.9213C7.54956 33.9213 6.14009 35.3428 5.51333 36.1705C5.11148 36.7013 4.70963 36.8542 4.7906 37.37C4.92387 37.6697 5.11671 37.939 5.35739 38.1617C6.05013 38.9684 7.34564 40.4049 9.97865 42.9989C9.97865 43.0049 10.7374 43.6017 10.6564 43.6947ZM7.09973 39.6282C5.48934 37.556 4.74262 37.544 5.34539 36.8572C7.33065 34.5961 7.01576 35.0309 9.44485 32.4489C10.2515 31.5882 10.5964 31.2014 10.7794 31.0334C10.9623 30.8655 10.9833 30.9345 11.1902 30.9614C11.4571 30.9944 11.634 30.4876 12.5997 29.6839C12.6297 29.6599 12.6506 29.6479 12.6476 29.6839C12.6207 30.2567 13.0645 30.2837 13.0645 30.7245C12.9253 31.3354 12.947 31.9719 13.1275 32.5718C13.4933 33.7024 13.4903 34.884 13.7272 35.5017C14.9508 38.8965 14.366 37.502 14.408 39.1004C14.408 39.5292 14.408 39.5442 14.0331 40.195C13.8382 40.5309 13.9582 40.8637 13.7782 41.0946C13.5503 41.3705 13.4184 41.6045 13.5803 41.9133C13.6973 42.1353 13.2804 42.2132 13.3884 42.813C13.4663 43.2628 13.8682 43.1279 13.6643 43.3948C13.5953 43.4847 13.4424 43.6167 13.1665 43.8956C13.0346 44.035 12.8944 44.1662 12.7466 44.2885C12.6536 44.3604 12.6267 44.2885 12.5427 44.1655C12.384 43.9089 12.1461 43.711 11.8649 43.6017C11.2352 43.3198 11.1392 43.6017 10.9983 43.4548C10.8573 43.3078 7.1957 39.7482 7.09973 39.6282ZM11.4391 44.0156C12.2488 44.1775 12.6087 45.0202 11.8799 45.1761C10.7554 45.1041 10.7164 43.8716 11.4391 44.0156ZM17.6918 46.9694C17.2329 46.9874 16.2343 46.4117 15.9734 46.4117C15.7017 46.4059 15.4318 46.3666 15.1697 46.2947C14.7828 46.2017 13.4064 47.3293 12.5817 47.4942C11.8739 47.6442 11.1482 47.1104 11.0822 46.8525C11.0822 46.8045 11.0552 46.8075 11.3521 45.9678C11.5141 45.509 11.718 46.2137 12.4977 45.524C12.6632 45.3143 12.7606 45.0589 12.7766 44.7923C12.7766 44.6903 12.9056 44.5673 13.2444 44.2525C13.5833 43.9376 13.8742 43.6347 14.1201 43.4248C15.4006 42.3272 15.3196 42.6331 16.6421 42.738C17.5898 42.81 17.2749 42.792 19.2662 43.5987C19.4101 43.6557 19.2662 43.9496 19.0083 43.8986C17.9209 43.4887 16.7665 43.2853 15.6045 43.2988C15.4516 43.2988 15.3376 43.4098 15.3556 43.4788C15.4336 43.7786 15.7905 43.2838 18.9093 44.1775C19.689 44.4024 19.836 44.3904 19.809 44.5014C19.728 44.7713 19.3081 44.7323 18.6994 44.6153C17.8837 44.4594 16.996 44.1955 16.0004 44.3784C15.8385 44.4084 15.8504 44.3784 15.3736 44.3394C15.3449 44.3343 15.3154 44.339 15.2897 44.3529C15.2641 44.3667 15.2439 44.3888 15.2324 44.4156C15.2209 44.4424 15.2189 44.4722 15.2265 44.5003C15.2342 44.5284 15.2512 44.5531 15.2747 44.5703C15.6304 44.6863 15.9942 44.7756 16.3633 44.8372C16.7231 44.9032 16.9031 44.8372 17.134 44.9572C17.7637 45.3231 17.8327 45.1251 18.1656 45.3381C19.0173 45.8809 19.4131 45.8179 19.1912 46.0188C18.9693 46.2197 18.7234 46.1627 17.7667 45.6889C17.128 45.371 16.3363 45.533 15.2987 45.2751C15.0258 45.2061 14.8758 45.458 15.0677 45.53C16.4652 46.0428 16.3153 45.7699 16.8671 46.1747C17.2479 46.4746 17.3379 46.3997 17.8447 46.7745C17.9707 46.8705 17.7997 46.9664 17.6918 46.9694ZM20.5377 44.2705C20.4747 44.8222 20.2078 46.1058 20.3548 46.8375C20.3728 46.9245 20.3278 46.8945 20.2078 46.8945C19.8393 46.8749 19.4719 46.8369 19.1072 46.7805C18.6694 46.7145 18.4325 46.8495 18.1656 46.6186C17.5658 46.1058 17.122 46.0188 16.984 45.8269C17.5838 45.7969 18.0216 46.2737 18.6664 46.3877C19.0922 46.4656 19.5151 46.3877 19.665 45.9858C19.815 45.584 18.8163 45.386 18.2645 44.9992C18.0606 44.9138 17.8472 44.8534 17.6288 44.8192C17.5508 44.7953 17.2779 44.6573 17.3589 44.6513C17.4987 44.6574 17.6374 44.6785 17.7727 44.7143C18.1056 44.8013 18.7744 44.9152 19.3471 45.0142C19.629 45.0562 20.0669 44.9482 20.1268 44.5464C20.1868 44.1445 19.809 44.0815 19.4221 43.9856C19.5451 43.9256 19.5451 43.7397 19.623 43.7517C19.701 43.7636 19.9799 43.8746 20.2738 43.9166C20.3545 43.9289 20.4332 43.9521 20.5077 43.9856C20.5857 44.0186 20.5587 44.0755 20.5377 44.2794V44.2705ZM20.8376 46.9694C20.7866 46.9694 20.6846 46.9485 20.6756 46.8975C20.5887 46.3217 20.5017 46.4446 20.8196 44.1175C20.8196 44.0245 20.8556 44.0006 21.2334 44.0305C20.8646 45.6889 21.0625 46.6186 20.9845 46.8975C20.9695 46.9724 20.9036 46.9754 20.8406 46.9724L20.8376 46.9694ZM23.7135 47.1164C23.1137 47.1944 22.8948 47.2633 22.496 47.1464C21.8092 46.9395 21.2964 47.1134 21.2964 46.8225C21.2704 45.9541 21.3377 45.0855 21.4973 44.2315C21.5071 44.1764 21.5359 44.1264 21.5786 44.0903C21.6213 44.0542 21.6753 44.0341 21.7312 44.0335H22.1361C22.403 44.0335 22.415 44.2555 22.7868 44.1985C23.0477 44.1595 23.3086 44.1415 23.5696 44.1235C23.7315 44.1235 23.7015 44.0965 23.7615 44.6123C23.6505 44.6183 23.7645 47.1134 23.7165 47.1194L23.7135 47.1164ZM24.4842 47.1524C24.1183 47.1524 24.1063 47.1524 24.0824 47.1044C23.9714 46.8555 24.0824 44.4354 24.0044 44.1805C23.9684 44.0665 24.0374 44.0935 24.3912 44.0935C24.4272 44.4714 24.5502 47.1554 24.4872 47.1554L24.4842 47.1524ZM26.5534 46.9365C26.5142 46.99 26.4583 47.029 26.3945 47.0474C26.1637 47.09 25.9302 47.116 25.6958 47.1254C25.018 47.0924 24.8411 47.1854 24.8321 46.9125C24.7151 43.0559 24.4062 44.3664 25.5758 43.9646C25.7489 43.8612 25.9516 43.819 26.1516 43.8446C26.4815 43.8446 26.4875 43.7996 26.5174 44.0365C26.5802 45.0029 26.5932 45.9718 26.5564 46.9395L26.5534 46.9365ZM26.9463 46.8465C26.7873 46.8465 26.8653 46.8285 26.8713 46.4326C26.8713 46.1567 26.8953 45.3381 26.9013 45.2061C26.9463 43.7067 26.4905 43.7666 27.0332 43.7606C27.0435 43.7627 27.053 43.7673 27.0609 43.7742C27.0688 43.781 27.0748 43.7898 27.0782 43.7996C27.1641 44.0915 27.2035 44.3951 27.1952 44.6993C27.1583 45.374 27.1693 46.0504 27.2282 46.7235C27.2492 46.8405 27.1592 46.8615 26.9493 46.8495L26.9463 46.8465ZM27.588 46.7415C27.4531 46.6306 27.5521 44.5913 27.4891 44.2285C27.3571 43.4518 26.9643 43.7696 28.7066 43.4698C30.5059 43.1699 30.5869 42.825 30.6199 43.5387C30.6199 43.6197 30.7369 45.383 30.8538 45.9378C30.9108 46.1747 27.783 46.9005 27.591 46.7445L27.588 46.7415ZM35.3131 44.5284C35.2802 44.7953 35.2592 44.8582 35.1452 44.9092C34.8529 45.019 34.5666 45.1441 34.2875 45.2841C33.7777 45.6199 33.4209 45.614 32.947 45.7669C31.8494 46.1268 31.5616 45.8299 31.5645 46.1028C31.5621 46.1444 31.5761 46.1853 31.6035 46.2167C31.6695 46.2827 31.8225 46.2587 32.0354 46.2587C32.3096 46.2733 32.584 46.2325 32.8421 46.1388C33.7687 45.8389 33.8257 45.9618 34.5364 45.539C34.6864 45.446 35.2412 45.2391 35.2682 45.2211C35.658 45.0532 35.4841 46.2557 35.4871 46.4027C35.5171 49.9683 35.709 49.8784 34.6534 51.5367C34.5395 51.6865 34.3887 51.8041 34.2158 51.8782C34.0429 51.9523 33.8537 51.9803 33.6668 51.9596C33.6068 51.9596 33.5858 52.0106 33.2469 51.0599C32.6471 49.4165 32.2813 49.6504 32.2903 48.6008C32.2903 48.151 32.1853 47.8571 32.1403 47.2723C32.1247 47.0204 32.0377 46.778 31.8896 46.5736C31.7414 46.3692 31.5382 46.2111 31.3036 46.1178C31.1657 46.0458 31.2347 45.9648 31.1627 45.7459C31.1237 45.6289 31.2287 45.6919 31.3336 45.7009C31.6575 45.7279 32.4162 45.7309 32.6801 45.584C33.124 45.3321 33.5588 45.368 34.3655 44.9302C35.2292 44.4624 35.3461 44.3964 35.3161 44.5314L35.3131 44.5284ZM30.8148 40.5878C30.8569 40.5301 30.8831 40.4624 30.891 40.3914C30.8989 40.3204 30.8882 40.2486 30.8598 40.183C30.8388 40.06 30.7938 40.066 31.4206 40.0271C31.7175 40.038 32.0123 40.0822 32.2993 40.159C32.6651 40.213 32.899 40.4589 33.5528 40.8577C34.3745 41.3615 34.8783 43.2568 35.1002 44.1835C34.1406 44.6453 32.4012 45.6469 31.2317 45.362C30.9528 45.2931 30.9978 43.7157 30.8838 43.2059C30.8688 43.1279 30.8118 43.0469 30.8298 42.9809C30.8478 42.915 31.2497 42.753 31.0817 42.3602C30.8898 41.9013 30.7818 42.0123 30.8388 41.8863C31.1057 41.1546 30.7698 40.6658 30.8478 40.5908L30.8148 40.5878ZM30.7609 42.4501C30.8058 42.5341 30.7429 42.5791 30.6919 42.6331C30.5419 42.804 30.392 42.729 29.9931 42.801C29.7262 42.849 29.1385 43.0319 28.7936 43.1009C28.7936 43.1009 26.5114 43.4758 25.9087 43.4818C25.5158 43.4818 25.6868 43.6287 25.093 43.6707C24.4992 43.7127 23.5366 43.7517 23.4136 43.7606C22.6579 43.8146 22.6249 43.8836 22.496 43.7786C22.319 43.6407 22.244 43.6857 21.4014 43.6767C21.0595 43.6767 20.5017 43.6467 20.5017 43.6467C20.2708 43.7307 19.758 43.5207 19.3022 43.3468C18.7893 43.1399 18.3305 42.951 18.4025 42.924C18.6754 42.81 18.7594 42.735 18.9603 42.834C19.62 43.1609 19.5601 43.3348 20.7206 43.1849C20.7206 43.1849 22.1031 42.759 22.412 42.906C22.752 43.1115 23.137 43.2309 23.5336 43.2538C24.2443 43.2898 24.3373 43.2538 24.5772 43.1009C25.2129 42.72 24.7841 43.1459 26.4155 43.0709C27.588 43.0169 28.7066 42.1143 28.9945 42.0363C29.2343 42.0403 29.4705 42.0955 29.6873 42.1982C29.9785 42.2885 30.2874 42.306 30.5869 42.2492C30.7339 42.2402 30.7339 42.3692 30.7788 42.4531L30.7609 42.4501ZM30.6049 40.243C30.6259 40.7678 30.5719 40.6148 27.786 38.5876C21.9502 34.3262 20.6516 30.8625 13.4783 22.2767C13.3824 22.1627 13.1425 21.9498 13.0795 21.8719C13.0165 21.7939 13.1005 21.7609 13.2234 21.7129C13.3464 21.6649 13.3614 21.6529 13.5893 21.8569C14.5369 22.7085 17.029 26.2742 20.1868 30.0918C22.334 32.6798 23.2247 34.1972 26.7544 37.1931C27.5142 37.8305 28.3157 38.4166 29.1535 38.9475C30.5749 40.033 30.5629 39.7242 30.6229 40.246L30.6049 40.243ZM31.7865 30.9914C31.3606 30.3917 30.6019 29.9388 30.287 29.492C30.1191 29.2641 30.308 29.2191 30.1341 28.4094C29.8822 27.2099 30.0951 26.9819 29.7742 25.8514C29.7322 25.7134 29.4923 25.6744 29.4743 25.8514C29.4743 25.9683 29.5583 26.3522 29.6423 26.94C29.6461 27.4679 29.7013 27.9942 29.8072 28.5114C30.0861 29.8429 29.5073 31.3153 29.5403 32.8627C29.6033 35.5047 29.3724 35.8616 29.4623 37.0222C29.5373 38.0028 29.6093 37.373 30.0291 39.0674C30.0501 39.1484 25.8757 36.8242 21.5873 31.3273C21.0355 30.6226 13.8832 21.6859 13.9012 21.6799C14.396 21.512 14.5249 21.419 14.7559 21.6319C15.8534 22.6696 16.6242 23.6832 19.3891 24.4479C25.087 25.9983 28.5087 21.2211 28.9855 21.2871C30.1851 21.464 30.326 21.365 30.8418 21.8599C31.9004 22.8765 31.8105 23.2363 33.2739 24.6338C33.6098 24.9547 34.4315 25.5965 34.8813 25.9713C35.0133 26.0823 34.9563 25.9713 34.1676 27.1529C33.5918 28.0255 33.3189 28.6523 32.9021 29.2521C32.0624 30.4426 32.1313 31.4473 31.8045 30.9944L31.7865 30.9914ZM38.9658 35.6787C37.3104 35.3788 36.1888 34.0713 32.5302 31.0454C32.3563 30.9045 32.6681 30.7725 32.7821 30.2207C32.8638 29.9446 33.0051 29.6897 33.1959 29.474C33.3789 29.2131 34.4405 27.3748 34.6354 27.0749C34.7044 26.9669 34.7044 26.9639 35.9549 27.9926C36.1108 28.1215 36.9985 32.4279 37.6133 32.0141C37.8682 31.8431 37.3134 31.4323 36.9655 30.1667C36.3358 27.8006 35.631 23.8931 34.6144 21.6499C34.5124 21.425 34.1946 20.5014 33.9756 20.2495C33.4778 19.6677 31.6035 19.4758 31.1207 18.4711C30.9798 18.1712 31.0547 18.2792 30.5719 16.7768C30.494 16.5279 30.5719 16.4979 30.6139 16.4499C30.6559 16.4019 30.8178 16.4499 30.8748 16.5129C31.0209 16.6922 31.1355 16.895 31.2137 17.1126C31.6605 18.0933 31.4986 18.2342 31.8135 18.3122C32.5152 18.5101 32.3652 18.0873 33.097 18.2132C33.3191 18.2777 33.5456 18.3258 33.7747 18.3572C33.8887 18.3572 33.9966 18.1802 33.8047 18.1053C33.6251 18.0041 33.4275 17.9389 33.2229 17.9133C33.019 17.9133 33.2229 17.4335 33.043 16.8757C32.6471 15.5862 32.905 15.6042 32.5272 15.2863C32.2783 15.0704 31.9034 14.7165 31.6035 14.7495C31.3036 14.7825 31.3906 14.9355 31.0247 15.6672C30.7758 16.162 30.488 16.204 30.5839 15.8501C30.7456 15.4288 30.8622 14.9915 30.9318 14.5456C31.0397 13.9458 31.5316 13.8499 31.8314 14.0328C32.2573 14.2967 32.1763 14.1468 32.7551 14.4856C33.4239 14.8755 32.983 13.628 33.124 11.5047C33.1371 11.0968 33.1833 10.6907 33.2619 10.2902C33.2619 10.2392 33.2889 10.0623 33.4149 10.0383C33.5408 10.0143 33.6038 10.1373 33.6218 10.3382C33.6878 11.0579 33.3939 13.0972 33.9457 14.8815C33.6908 14.8815 33.3879 14.8095 33.4628 15.0494C33.4778 15.0944 33.8407 15.1484 33.8497 15.1484C34.9683 15.3043 35.697 15.8981 35.793 15.6792C35.8589 15.5232 35.679 15.4513 35.5111 15.3793C35.3431 15.3073 35.4691 15.3253 35.763 14.5756C35.9819 14.0118 36.5127 11.5317 36.8306 11.5767C36.9295 11.5767 37.0105 11.6277 37.0075 11.7716C37.0075 12.3354 36.2908 13.8469 36.1288 15.2294C35.9459 16.7558 36.2728 15.8681 35.9789 18.87C35.9099 19.5867 36.4317 19.6947 37.3794 21.7009C37.3794 21.7009 38.5639 24.3999 38.9298 25.0837C39.8294 26.733 41.119 29.1111 41.4608 30.6975C41.6288 31.4713 41.5298 33.8853 41.4908 34.1103C41.2299 35.4598 39.9194 35.8496 38.9658 35.6787ZM32.8151 17.7364C32.8151 17.9253 32.7341 17.8084 32.2963 17.9973C32.1733 18.0513 31.8554 18.0243 31.8015 17.9043C31.6605 17.5865 31.7535 17.5895 31.5885 17.2116C31.4853 16.9596 31.3609 16.7169 31.2167 16.4859C31.1357 16.3539 30.9378 16.3569 31.0367 16.246C31.6365 15.5832 31.5136 14.9804 31.7715 15.0974C32.0063 15.2269 32.2197 15.3917 32.4042 15.5862C32.6022 15.7002 32.4282 15.9371 32.7371 16.9927C32.7981 17.2357 32.8244 17.4861 32.8151 17.7364Z" fill="#000001"/>
<path d="M33.3729 15.4731C33.8497 15.3772 35.8979 16.0549 35.772 16.2648C35.736 16.3188 35.706 16.3908 35.622 16.3758C35.3731 16.3278 34.3505 15.74 33.4598 15.713C33.4441 15.7187 33.4274 15.7213 33.4106 15.7205C33.3939 15.7198 33.3775 15.7157 33.3623 15.7086C33.3471 15.7015 33.3335 15.6915 33.3222 15.6791C33.3109 15.6668 33.3021 15.6523 33.2964 15.6366C33.2907 15.6208 33.2881 15.6041 33.2889 15.5873C33.2896 15.5706 33.2937 15.5542 33.3008 15.539C33.3079 15.5238 33.3179 15.5102 33.3303 15.4989C33.3426 15.4876 33.3571 15.4788 33.3729 15.4731Z" fill="#000001"/>
<path d="M34.6294 18.3637C34.5574 19.3804 35.8649 19.3324 35.616 19.6173C35.502 19.7462 35.4331 19.6922 35.4031 19.6862C33.8527 19.2604 34.2695 18.1028 34.7463 16.6724C34.8243 16.4355 34.8873 16.4325 34.9862 16.4534C35.2771 16.5134 34.6893 17.5121 34.6294 18.3637Z" fill="#000001"/>
<path d="M30.6379 56.4643C30.7309 56.5963 30.5779 56.8932 30.38 56.6953C30.1821 56.4973 30.2721 56.3954 30.0381 55.8676C29.4864 54.638 29.3694 53.5854 28.9825 52.158C28.9645 52.089 28.7546 51.6451 28.9016 51.6122C29.3844 51.5072 29.3394 53.1536 30.431 55.8886C30.4825 56.0863 30.5518 56.279 30.6379 56.4643Z" fill="#000001"/>
<path d="M28.8296 32.3235C28.8895 32.4045 28.7876 32.4795 28.7276 32.5065C28.3138 32.6894 27.57 33.3611 25.2939 33.1062C23.7075 32.9293 23.6085 32.5514 22.8948 32.3205C22.8668 32.3116 22.8425 32.294 22.8252 32.2703C22.808 32.2465 22.7987 32.2179 22.7988 32.1886C22.7988 32.1316 22.8348 32.0806 22.9728 32.0836C23.4856 32.1016 23.3386 32.4045 25.1769 32.7224C27.9059 33.1932 28.4967 31.8917 28.8296 32.3235Z" fill="#000001"/>
<path d="M26.7094 12.2599C26.8713 12.4099 26.8443 12.6468 26.7453 12.6888C26.6944 12.7127 26.6554 12.6888 26.5954 12.5688C26.5354 12.4488 26.4634 12.4848 26.3675 12.5928C25.9237 13.1086 26.2625 13.2256 26.2865 13.3905C26.2952 13.4505 26.2905 13.5117 26.2729 13.5698C26.2553 13.6278 26.2251 13.6813 26.1846 13.7264C26.0796 13.8583 25.8847 14.0592 25.7677 13.9483C25.6508 13.8373 25.7977 13.6934 25.9087 13.5494C26.0976 13.3035 25.7317 13.3425 25.8847 12.8867C26.0376 12.4309 26.4754 12.041 26.7094 12.2599Z" fill="#000001"/>
<path d="M24.934 10.4422C24.997 10.6282 24.7691 10.7091 24.6611 10.5712C24.3403 10.1633 24.0224 9.7195 23.1617 10.0764C22.7898 10.2293 22.7089 9.68651 23.5755 9.64153C23.8569 9.57838 24.1519 9.6279 24.3972 9.77948C24.6437 9.9359 24.8322 10.1687 24.934 10.4422Z" fill="#000001"/>
<path d="M23.8484 56.1522C23.9684 56.5301 23.5276 56.656 23.4976 56.3051C23.4406 55.6034 23.1977 54.9407 23.1977 54.3439C23.194 53.4929 23.1419 52.6429 23.0417 51.7978C23.04 51.7781 23.0421 51.7583 23.048 51.7394C23.0539 51.7206 23.0634 51.703 23.0761 51.6879C23.0888 51.6727 23.1043 51.6601 23.1218 51.651C23.1394 51.6418 23.1585 51.6362 23.1782 51.6344C23.1979 51.6326 23.2177 51.6347 23.2366 51.6406C23.2555 51.6465 23.273 51.6561 23.2882 51.6688C23.3033 51.6814 23.3159 51.697 23.3251 51.7145C23.3342 51.732 23.3399 51.7512 23.3416 51.7708C23.6415 53.7381 23.4076 54.026 23.6895 55.3065C23.7525 55.6034 23.8065 56.0232 23.8484 56.1522Z" fill="#000001"/>
<path d="M23.6175 14.4523C23.5156 14.9741 23.2667 14.7521 23.2846 14.5662C23.2846 14.4672 23.3086 14.5662 23.2846 14.3833C22.9488 14.5872 22.253 15.4479 21.6233 15.8107C20.5887 16.4105 20.2618 15.3669 19.716 14.1764C19.4671 13.6306 19.4791 13.5766 19.8269 13.6576C20.7361 13.9461 21.6862 14.0849 22.6399 14.0684C22.7718 14.0684 23.0657 14.0684 22.9848 13.9484C22.7508 13.6486 23.5246 13.5436 23.6175 14.4523ZM22.7508 14.4163C22.8948 14.2873 22.451 14.5272 21.0955 14.2693C19.674 14.0024 19.9919 13.9394 20.1958 14.4702C20.9515 16.2726 21.3054 15.7478 22.7508 14.4163Z" fill="#000001"/>
<path d="M23.2967 11.0364C23.4046 11.0754 23.4466 11.2013 23.3926 11.4562C23.3387 11.7111 22.9578 11.7051 23.0538 11.2133C23.0565 11.185 23.0652 11.1577 23.0793 11.133C23.0934 11.1084 23.1125 11.087 23.1355 11.0703C23.1584 11.0535 23.1846 11.0419 23.2124 11.036C23.2402 11.0302 23.2689 11.0303 23.2967 11.0364Z" fill="#000001"/>
<path d="M22.8108 21.6574C22.8618 21.8914 21.6503 22.0713 21.4104 22.0683C21.1704 22.0653 21.0805 22.0323 20.2648 21.6814C19.9979 21.5675 19.1552 21.8164 18.8733 21.9034C18.5914 21.9903 18.4415 21.7864 18.8403 21.6814C19.9319 21.3816 20.0759 21.2706 20.7386 21.6005C21.1435 21.8014 21.1854 21.8074 21.2904 21.8134C22.235 21.8524 22.7509 21.3696 22.8108 21.6574Z" fill="#000001"/>
<path d="M22.2081 12.4707C22.433 12.4707 22.379 12.9265 22.0311 13.0015C21.9604 13.0138 21.8877 13.0099 21.8187 12.9902C21.7496 12.9704 21.6859 12.9354 21.6323 12.8875C21.5783 12.8486 21.5543 12.8875 21.4913 12.9445C20.6187 13.5833 19.596 12.2728 20.6217 11.4451C20.7912 11.3143 20.9176 11.1357 20.9845 10.9323C21.0685 10.8183 21.1794 10.8813 21.1884 10.9953C21.2063 11.1122 21.1938 11.2317 21.1524 11.3425C21.1109 11.4532 21.0418 11.5515 20.9515 11.628C20.6876 11.8739 20.4777 12.0299 20.5587 12.3957C20.5876 12.482 20.6403 12.5583 20.7107 12.6159C20.7811 12.6735 20.8663 12.71 20.9566 12.7213C21.0468 12.7326 21.1384 12.7182 21.2208 12.6797C21.3032 12.6412 21.3731 12.5802 21.4224 12.5037C21.6353 12.2038 21.6203 12.5817 21.8842 12.6836C22.0011 12.7286 22.0431 12.6326 22.0821 12.5787C22.1211 12.5247 22.1121 12.4767 22.2081 12.4707Z" fill="#000001"/>
<path d="M19.5031 8.66075C20.3158 8.36086 21.0235 8.76571 20.8316 9.0566C20.6397 9.34749 20.2948 8.62176 19.5481 8.98463C19.0833 9.20954 19.1162 9.45245 19.0263 9.47944C18.6544 9.5874 18.8313 8.90066 19.5031 8.66075Z" fill="#000001"/>
<path d="M20.0519 10.4072C20.1808 10.3682 20.3098 10.5151 20.2918 10.7071C20.2918 10.845 20.1958 11.007 20.0549 10.98C19.9889 10.98 19.89 10.869 19.8929 10.6801C19.8959 10.4912 19.9529 10.4312 20.0519 10.4072Z" fill="#000001"/>
<path d="M20.1209 32.1047C20.1209 32.1411 20.1069 32.1761 20.0817 32.2023C20.0566 32.2286 20.0222 32.2441 19.9859 32.2457C19.6635 32.3246 19.3358 32.3798 19.0053 32.4106C19.0053 32.4106 17.6288 32.5605 17.6288 32.5665C14.0961 32.1887 14.405 31.1931 14.6899 31.352C14.9318 31.5289 15.196 31.6731 15.4756 31.7808C16.951 32.2247 16.7081 32.2876 19.1282 32.0807C19.5481 32.0567 20.1059 31.7808 20.1209 32.1047Z" fill="#000001"/>
<path d="M16.975 51.2722C17.1759 51.2452 17.155 51.4731 17.2029 51.806C17.098 52.8946 16.6032 53.9262 16.6451 54.6729C16.7201 55.8005 16.4652 55.6655 16.5252 56.2713C16.5252 56.3493 16.5252 56.5532 16.3992 56.5712C16.1593 56.5922 16.1563 56.3553 16.1263 56.0404C16.2662 55.6473 16.3273 55.2305 16.3063 54.8139C16.1743 53.7762 17.023 52.1898 16.8701 51.5841C16.8371 51.4611 16.8341 51.2962 16.975 51.2722Z" fill="#000001"/>
</svg>
