<svg width="25" height="23" viewBox="0 0 25 23" fill="none" xmlns="http://www.w3.org/2000/svg">
<path d="M24.3491 3.2235C24.355 4.18804 24.1347 5.1109 23.7656 5.99804C23.3726 6.96258 22.8427 7.84377 22.2056 8.66541C21.3602 9.74903 20.4373 10.7612 19.4787 11.7436C18.1569 13.1011 16.7459 14.3514 15.2871 15.5601C13.7153 16.864 12.1137 18.1322 10.4466 19.317C8.88067 20.4364 7.22546 21.395 5.45118 22.1452C4.7248 22.4488 3.98651 22.7168 3.21249 22.8597C2.71832 22.9549 2.21818 23.0264 1.70614 22.9906C1.31318 22.9668 0.949988 22.8477 0.616566 22.6394C0.235512 22.4072 0.0330776 22.0737 0.00926172 21.6331C-0.00860017 21.3771 -0.00264621 21.1151 0.0449855 20.8651C0.205743 20.0315 0.408177 19.2099 0.729691 18.424C1.09288 17.5368 1.53348 16.6854 2.02766 15.8638C3.06364 14.1431 4.23062 12.5176 5.49286 10.9517C7.26119 8.75472 9.19623 6.71252 11.3337 4.87274C13.0782 3.36639 14.9835 2.11011 17.0733 1.13366C18.026 0.687109 19.0084 0.34178 20.0443 0.133391C20.6457 0.0143119 21.253 -0.0392738 21.8603 0.0321737C22.2056 0.0738515 22.545 0.157207 22.8606 0.306056C23.4262 0.562076 23.8192 0.978853 24.0573 1.55043C24.23 1.96126 24.3133 2.38994 24.3431 2.82458C24.355 2.96748 24.3491 3.09251 24.3491 3.2235Z" fill="#F7D046"/>
<mask id="mask0_395_2843" style="mask-type:alpha" maskUnits="userSpaceOnUse" x="0" y="0" width="25" height="23">
<path d="M24.3491 3.2235C24.355 4.18804 24.1347 5.1109 23.7656 5.99804C23.3726 6.96258 22.8427 7.84377 22.2056 8.66541C21.3602 9.74903 20.4373 10.7612 19.4787 11.7436C18.1569 13.1011 16.7459 14.3514 15.2871 15.5601C13.7153 16.864 12.1137 18.1322 10.4466 19.317C8.88067 20.4364 7.22546 21.395 5.45118 22.1452C4.7248 22.4488 3.98651 22.7168 3.21249 22.8597C2.71832 22.9549 2.21818 23.0264 1.70614 22.9906C1.31318 22.9668 0.949988 22.8477 0.616566 22.6394C0.235512 22.4072 0.0330776 22.0737 0.00926172 21.6331C-0.00860017 21.3771 -0.00264621 21.1151 0.0449855 20.8651C0.205743 20.0315 0.408177 19.2099 0.729691 18.424C1.09288 17.5368 1.53348 16.6854 2.02766 15.8638C3.06364 14.1431 4.23062 12.5176 5.49286 10.9517C7.26119 8.75472 9.19623 6.71252 11.3337 4.87274C13.0782 3.36639 14.9835 2.11011 17.0733 1.13366C18.026 0.687109 19.0084 0.34178 20.0443 0.133391C20.6457 0.0143119 21.253 -0.0392738 21.8603 0.0321737C22.2056 0.0738515 22.545 0.157207 22.8606 0.306056C23.4262 0.562076 23.8192 0.978853 24.0573 1.55043C24.23 1.96126 24.3133 2.38994 24.3431 2.82458C24.355 2.96748 24.3491 3.09251 24.3491 3.2235Z" fill="black"/>
</mask>
<g mask="url(#mask0_395_2843)">
<path d="M3.18481 20.7356C3.161 20.9142 3.13123 21.0928 3.10741 21.2714C2.9407 22.4682 2.61919 23.6351 2.20241 24.7723C2.16669 24.8676 2.11906 24.9569 2.06547 25.0403C2.04761 25.07 1.98807 25.0998 1.9583 25.0879C1.92257 25.0819 1.89876 25.0284 1.84517 24.9688C2.00593 24.9867 2.02975 24.8974 2.05356 24.814C2.38103 23.8197 2.68468 22.8194 2.86925 21.7835C2.9407 21.3786 2.99429 20.9737 3.05978 20.5688C3.07169 20.4795 3.05978 20.4021 3.02406 20.3188C2.58942 19.3483 2.24409 18.3421 2.0357 17.2882C1.90471 16.6511 1.82136 16.0141 1.85113 15.3591C1.85708 15.246 1.87494 15.1329 1.91067 15.0257C1.97021 14.8411 2.13096 14.7935 2.27981 14.9185C2.37508 15.0019 2.45843 15.115 2.52988 15.2281C2.71445 15.5199 2.82758 15.8414 2.92879 16.1748C3.0955 16.7285 3.19077 17.2942 3.25031 17.8717C3.29794 18.354 3.3158 18.8303 3.30389 19.3126C3.29794 19.5864 3.27412 19.8663 3.25031 20.1402C3.24435 20.2354 3.25626 20.3247 3.29794 20.414C3.54205 20.932 3.80998 21.4381 4.13149 21.9085C4.30416 22.1645 4.49469 22.4086 4.72094 22.623C4.87574 22.7718 5.04245 22.9087 5.23298 23.004C5.52472 23.1469 5.81647 23.1588 6.11416 23.0338C6.3166 22.9504 6.48926 22.8313 6.65002 22.6885C6.9239 22.4443 7.1442 22.1645 7.34663 21.8609C7.83486 21.1226 8.17424 20.3188 8.41239 19.4733C8.48384 19.2292 8.53147 18.9851 8.59697 18.741C8.60887 18.6874 8.60292 18.6398 8.57315 18.5921C7.99562 17.6574 7.63242 16.6273 7.32877 15.5794C7.03703 14.5613 6.82864 13.5253 6.66788 12.4834C6.55476 11.7272 6.45949 10.9651 6.36423 10.203C6.30469 9.72073 6.27492 9.2325 6.29278 8.75023C6.29874 8.60734 6.32255 8.46444 6.35232 8.3275C6.36423 8.26201 6.39995 8.20247 6.43568 8.14888C6.51308 8.03576 6.63811 7.98812 6.76315 8.04171C6.86436 8.08339 6.97153 8.14293 7.04894 8.22033C7.17992 8.35727 7.30496 8.50612 7.40617 8.66092C7.73364 9.14319 7.96585 9.67905 8.17424 10.2209C8.53743 11.1854 8.77559 12.1857 8.92443 13.2038C9.07924 14.2696 9.14473 15.3353 9.10901 16.407C9.08519 17.1096 9.00779 17.8122 8.8768 18.5088C8.86489 18.5683 8.85894 18.6279 8.90062 18.6874C9.11496 19.003 9.35312 19.3006 9.65677 19.5329C9.75204 19.6103 9.85921 19.6757 9.96638 19.7353C10.3653 19.9496 10.7761 19.9556 11.1869 19.7591C11.4608 19.6281 11.6871 19.4316 11.8895 19.2054C12.1277 18.9375 12.3241 18.6398 12.4968 18.3242C12.8957 17.5978 13.1637 16.8178 13.372 16.02C13.7233 14.6804 13.9019 13.311 13.9317 11.9237C13.9317 11.8582 13.9139 11.7808 13.8841 11.7213C12.991 10.0601 12.4015 8.29178 11.9729 6.46391C11.8716 6.03522 11.7942 5.59463 11.7585 5.15404C11.7407 4.91588 11.7407 4.67772 11.8002 4.44552C11.8181 4.38002 11.8478 4.30858 11.8836 4.24904C11.9967 4.05851 12.1872 4.00492 12.3718 4.124C12.467 4.1895 12.5623 4.2669 12.6338 4.36216C12.7528 4.52292 12.86 4.69558 12.9493 4.86825C13.2411 5.43983 13.4375 6.04713 13.6042 6.66039C13.9019 7.77974 14.0806 8.9229 14.152 10.0839C14.1818 10.596 14.1877 11.114 14.2056 11.626C14.2056 11.6855 14.2175 11.751 14.2473 11.8046C14.539 12.3167 14.8724 12.8108 15.2952 13.2217C15.5929 13.5134 15.9203 13.7516 16.3133 13.8885C16.5872 13.9838 16.867 14.0195 17.1588 13.9778C17.5041 13.9242 17.7839 13.7635 18.028 13.5194C18.2424 13.305 18.4091 13.0609 18.552 12.793C18.8437 12.2452 19.0343 11.6617 19.1772 11.0663C19.4272 10.0184 19.5463 8.95862 19.582 7.88095C19.588 7.69638 19.588 7.51181 19.5939 7.32128C19.5939 7.24983 19.5701 7.19625 19.5165 7.14861C18.3615 6.01736 17.6529 4.64795 17.3612 3.05824C17.2362 2.36163 17.2124 1.65906 17.3552 0.956495C17.391 0.771923 17.4565 0.58735 17.5279 0.414685C17.5696 0.313468 17.641 0.21225 17.7184 0.134849C17.8673 -0.0199542 18.0757 -0.0437701 18.2543 0.0753092C18.3674 0.152711 18.4746 0.247974 18.546 0.361099C18.677 0.563534 18.8021 0.777876 18.8973 0.998173C19.1533 1.56975 19.3081 2.17706 19.4391 2.78436C19.7309 4.14186 19.8619 5.51128 19.8797 6.89855C19.8797 7.01167 19.9154 7.08908 20.0048 7.16648C20.5882 7.6547 21.267 7.93454 22.0112 8.07743C22.6007 8.19056 23.202 8.22628 23.8034 8.24414C24.2321 8.25605 24.6608 8.25605 25.0894 8.24414C25.3097 8.23819 25.536 8.21437 25.7563 8.1846C25.8873 8.16674 26.0183 8.13102 26.1195 8.00599C26.1195 8.1072 26.0778 8.16079 26.0123 8.19056C25.9051 8.24414 25.798 8.29773 25.6848 8.3275C25.3455 8.42276 24.9882 8.44658 24.6369 8.45849C23.8689 8.48826 23.1008 8.46444 22.3387 8.4049C21.4694 8.33345 20.6716 8.07148 19.969 7.53562C19.9452 7.51776 19.9214 7.50585 19.8797 7.48204C19.8738 7.54753 19.8738 7.60112 19.8678 7.64875C19.85 8.51803 19.7785 9.38135 19.6297 10.2328C19.5046 10.9532 19.332 11.6617 19.0581 12.3345C18.939 12.6263 18.808 12.9121 18.6294 13.174C18.5103 13.3467 18.3853 13.5134 18.2364 13.6622C17.7065 14.2041 17.0635 14.3589 16.3371 14.1624C15.9561 14.0612 15.6286 13.8647 15.3309 13.6146C14.9141 13.2633 14.5807 12.8406 14.289 12.3881C14.2651 12.3524 14.2413 12.3167 14.2175 12.2809C14.2116 12.275 14.1996 12.275 14.1818 12.2631C14.1699 12.4536 14.158 12.6441 14.1461 12.8287C14.027 14.3886 13.7531 15.9188 13.1994 17.3835C13.0267 17.8479 12.8124 18.2944 12.5504 18.7172C12.3599 19.0268 12.1455 19.3185 11.8657 19.5567C11.7168 19.6877 11.5561 19.8067 11.3775 19.902C10.8476 20.1937 10.3117 20.1759 9.78776 19.8782C9.45434 19.6877 9.18045 19.4197 8.9423 19.122C8.89466 19.0625 8.84703 19.003 8.78749 18.9315C8.76963 18.997 8.75177 19.0446 8.73986 19.0923C8.51361 20.0211 8.18614 20.9142 7.68601 21.7358C7.46571 22.0931 7.2216 22.4324 6.9239 22.7301C6.73338 22.9147 6.53094 23.0755 6.28683 23.1886C5.8641 23.391 5.44732 23.3732 5.04245 23.141C4.81025 23.01 4.61377 22.8373 4.43515 22.6468C4.15531 22.3491 3.91715 22.0216 3.71472 21.6763C3.55396 21.4084 3.41107 21.1285 3.25626 20.8546C3.23245 20.813 3.21458 20.7713 3.19077 20.7296C3.20268 20.7296 3.19672 20.7296 3.18481 20.7356ZM8.67437 18.2885C8.69223 18.2468 8.69818 18.2289 8.70414 18.2111C8.79345 17.6931 8.84703 17.1751 8.8768 16.6511C8.93039 15.6687 8.88276 14.6923 8.76963 13.7158C8.6446 12.6798 8.43026 11.6677 8.09683 10.6853C7.88249 10.0541 7.62052 9.44089 7.26328 8.87526C7.17397 8.73237 7.0668 8.59543 6.95367 8.46444C6.90604 8.4049 6.83459 8.35132 6.7691 8.30964C6.68574 8.25605 6.64407 8.26796 6.6143 8.36322C6.58453 8.45253 6.56667 8.5478 6.56071 8.64306C6.51308 9.20869 6.56071 9.77431 6.63216 10.3399C6.72742 11.1437 6.84055 11.9475 6.96558 12.7453C7.12634 13.7754 7.34663 14.7935 7.65029 15.7938C7.8944 16.6095 8.18614 17.4013 8.59101 18.1515C8.60887 18.1813 8.63269 18.223 8.67437 18.2885ZM19.588 6.75565C19.5939 6.69016 19.5939 6.65444 19.5939 6.61276C19.5582 5.29693 19.4153 3.99302 19.1236 2.70696C18.9985 2.14133 18.8437 1.58166 18.5996 1.05176C18.5163 0.87314 18.4091 0.700475 18.3019 0.533764C18.2602 0.462317 18.1888 0.402777 18.1233 0.355145C18.0519 0.30156 17.9923 0.307514 17.9328 0.367053C17.8971 0.402777 17.8613 0.450409 17.8435 0.492086C17.7899 0.61712 17.7363 0.748107 17.7065 0.879094C17.5696 1.46258 17.5636 2.05798 17.641 2.65337C17.8316 4.15973 18.4448 5.48151 19.451 6.61276C19.4868 6.66039 19.5284 6.69611 19.588 6.75565ZM13.9198 11.1854C13.9258 11.1854 13.9377 11.1794 13.9436 11.1794C13.9436 11.1616 13.9496 11.1437 13.9496 11.1259C13.9198 9.66119 13.7471 8.21437 13.378 6.79138C13.2232 6.19003 13.0327 5.60059 12.7588 5.04687C12.6695 4.86825 12.5623 4.70154 12.4492 4.53483C12.4015 4.46338 12.3241 4.40384 12.2527 4.35025C12.1932 4.30858 12.1455 4.32048 12.1098 4.38598C12.0741 4.45742 12.0503 4.53483 12.0384 4.61818C11.9848 4.94565 12.0324 5.27312 12.08 5.60058C12.1872 6.28529 12.3539 6.96404 12.5504 7.63089C12.8898 8.80382 13.2946 9.94698 13.8365 11.0485C13.8662 11.0842 13.896 11.1318 13.9198 11.1854ZM2.10119 15.0138C2.02975 15.115 2.02379 15.2281 2.01784 15.3353C2.00593 15.6985 2.0357 16.0676 2.08333 16.4308C2.24409 17.6216 2.59537 18.7588 3.05383 19.8663C3.06574 19.896 3.08955 19.9258 3.11932 19.9794C3.13123 19.8246 3.14314 19.7115 3.14909 19.5924C3.18481 18.8065 3.14909 18.0205 3.01215 17.2465C2.91689 16.6988 2.79185 16.157 2.55369 15.6449C2.48225 15.4842 2.38698 15.3353 2.29767 15.1865C2.26195 15.1091 2.20241 15.0436 2.10119 15.0138Z" fill="black"/>
</g>
</svg>
