<svg width="33" height="28" viewBox="0 0 33 28" fill="none" xmlns="http://www.w3.org/2000/svg">
<path d="M6.82482 16.8085C6.67971 16.6841 6.5346 16.5597 6.41022 16.4561C5.16644 15.4611 4.08849 14.3417 3.09347 13.0979C2.18136 11.9785 1.66312 10.714 1.74604 9.24215C1.76677 8.7861 1.84969 8.30932 1.97406 7.87399C2.28501 6.81678 3.07274 6.42291 4.08849 6.83751C4.58601 7.0448 5.06279 7.33502 5.49812 7.64597C6.43095 8.30932 7.26014 9.09704 8.02714 9.94696C8.44174 10.403 8.85633 10.8383 9.33311 11.2529C9.29165 11.1078 9.27092 10.942 9.22946 10.7969C8.85633 9.3458 8.54538 7.89472 8.42101 6.40218C8.25517 4.47432 8.77341 2.73302 9.72698 1.09538C9.87209 0.84662 10.0587 0.639323 10.266 0.452756C10.9915 -0.189865 11.8621 -0.148406 12.5048 0.577134C12.7535 0.86735 12.9608 1.19903 13.1267 1.5307C13.4998 2.25624 13.6864 3.0647 13.8315 3.85243C14.0595 5.09621 14.2668 6.33999 14.4948 7.68742C14.5777 7.50086 14.6192 7.41794 14.6399 7.33502C14.9301 6.1327 15.2618 4.97183 15.8422 3.87316C16.2776 3.02324 16.7544 2.21478 17.4799 1.57216C17.8738 1.19903 18.3091 0.86735 18.7859 0.597864C20.5064 -0.334973 22.3514 0.701512 22.4965 2.6501C22.5794 3.54148 22.4343 4.41213 22.227 5.26205C22.0819 5.9254 21.8953 6.56802 21.688 7.33502C21.8953 7.14845 22.0197 7.0448 22.1233 6.92043C23.4708 5.61445 25.0877 4.80599 26.8912 4.3914C27.368 4.28775 27.8447 4.30848 28.3215 4.45359C29.1922 4.72308 29.7312 5.40716 29.669 6.31926C29.6275 6.79605 29.5031 7.2521 29.3373 7.70815C29.2129 8.03983 29.0263 8.3715 28.819 8.66172C27.6167 10.5067 26.3522 12.3102 24.8182 13.9063C24.7768 13.9478 24.7353 14.01 24.6316 14.1344C24.8389 14.0722 24.984 14.0307 25.1084 13.9893C26.1656 13.5954 27.2436 13.2844 28.363 13.1186C29.1093 13.015 29.8555 12.9735 30.5811 13.1601C30.7884 13.2223 30.9957 13.2844 31.1822 13.3881C32.0943 13.8649 32.3846 14.7977 31.9078 15.7098C31.5968 16.311 31.0993 16.767 30.5603 17.1402C29.5239 17.8657 28.4459 18.5291 27.3058 19.0473C25.8547 19.6899 24.3207 20.146 22.7867 20.5398C21.7709 20.7886 20.7552 20.9959 19.7394 21.2447C19.2005 21.369 18.6615 21.4727 18.1432 21.6385C17.397 21.8665 16.63 21.9909 15.8422 21.9702C15.3862 21.9495 15.3033 21.9909 15.2204 22.4262C15.096 23.0481 15.0131 23.67 14.9923 24.2919C14.9509 24.8931 14.9923 25.515 14.9923 26.1369C14.9923 27.1112 14.7228 27.4636 13.7693 27.7331C13.5205 27.816 13.251 27.8782 13.0023 27.9404C12.1316 28.1476 11.6134 27.816 11.489 26.9246C11.3854 26.2198 11.3024 25.515 11.2817 24.8102C11.261 24.1054 11.2817 23.3798 11.3232 22.675C11.3439 22.3848 11.2402 22.219 10.9915 22.0946C10.0794 21.6178 9.10509 21.3483 8.11006 21.1617C6.63825 20.8715 5.16644 20.6435 3.71536 20.3533C2.98982 20.2082 2.26428 19.9801 1.5802 19.7314C1.18633 19.5863 0.79247 19.3583 0.481524 19.0888C-0.264746 18.4254 -0.119638 17.3475 0.75101 16.8707C1.04123 16.7256 1.3729 16.6012 1.68385 16.5805C3.3215 16.4146 4.95914 16.3524 6.55533 16.85C6.61752 16.8707 6.67971 16.8707 6.7419 16.8707C6.7419 16.8707 6.7419 16.85 6.82482 16.8085Z" fill="#EB5757"/>
</svg>
