<svg width="21" height="23" viewBox="0 0 21 23" fill="none" xmlns="http://www.w3.org/2000/svg">
<path d="M20.3881 8.84465C20.3881 9.88229 20.4048 10.9032 20.3881 11.9408C20.3379 13.8823 19.886 15.7232 19.1664 17.514C19.0157 17.8655 18.8316 18.2169 18.6141 18.5349C17.9614 19.5056 17.1915 20.3926 16.3379 21.1625C15.8024 21.6479 15.1999 22.0161 14.5137 22.2336C13.8108 22.4512 13.1078 22.6688 12.3882 22.8361C11.3338 23.1039 10.2627 23.0035 9.2083 22.8194C8.99073 22.7859 8.75642 22.7357 8.53885 22.6855C7.45099 22.4679 6.48029 22.0328 5.62674 21.3131C4.57236 20.4261 3.48451 19.5558 2.76485 18.3508C2.11213 17.263 1.45942 16.1751 1.07449 14.9366C0.789972 13.9827 0.471983 13.0454 0.22094 12.0915C0.103786 11.6229 0.0201047 11.0706 0.00336843 10.5517C-0.0133678 9.7484 0.0368409 8.94506 0.0535771 8.14172C0.0703134 7.52248 0.0535771 6.90324 0.0703134 6.30074C0.0703134 6.0999 0.0535771 5.89907 0.0703134 5.69823C0.103786 5.09573 0.538928 4.86142 1.04102 5.19615C1.39248 5.44719 1.7272 5.73171 1.99498 6.04969C2.53054 6.66893 3.01589 7.32165 3.51798 7.95762C3.83597 8.37603 4.12048 8.81117 4.43847 9.22958C4.67278 9.53083 4.95729 9.81535 5.24181 10.0664C5.71043 10.4681 6.06189 10.4179 6.37988 9.86556C6.59745 9.49736 6.76481 9.09569 6.8987 8.69402C7.43426 7.05387 7.96982 5.41372 8.48864 3.77357C8.82337 2.71918 9.2083 1.69827 9.71039 0.710835C9.79407 0.526736 9.89449 0.359374 10.0451 0.208748C10.3464 -0.109241 10.815 -0.0590322 11.0158 0.325901C11.133 0.560209 11.2166 0.861461 11.2334 1.12924C11.2836 1.74848 11.2836 2.36772 11.3171 2.97023C11.4175 4.49322 11.6016 5.99949 11.953 7.48901C12.02 7.79026 12.1371 8.07478 12.2543 8.35929C12.4551 8.81117 12.7731 9.16263 13.1915 9.43041C13.4593 9.61451 13.7438 9.64798 14.0283 9.46389C14.3129 9.27979 14.5806 9.07895 14.8149 8.84465C15.5179 8.15846 16.1204 7.40533 16.6392 6.55178C17.1747 5.66476 17.7103 4.79448 18.2459 3.90746C18.3965 3.65641 18.5639 3.40537 18.7647 3.1878C19.1831 2.73592 19.7354 2.83634 19.9864 3.40537C20.2207 3.9744 20.2877 4.61038 20.3044 5.21288C20.3714 6.40115 20.3881 7.58943 20.4383 8.7777C20.4216 8.84465 20.4048 8.84465 20.3881 8.84465Z" fill="#EE8DB9"/>
</svg>
