<svg width="40" height="45" viewBox="0 0 40 45" fill="none" xmlns="http://www.w3.org/2000/svg">
<path d="M31.3402 18.8144C31.922 19.7443 32.5446 20.891 33.0254 22.111C33.5729 23.5041 33.8214 24.964 33.9123 26.4446C34.0633 28.9395 33.5574 31.309 32.4513 33.5436C31.5053 35.4679 30.3039 37.2059 28.7477 38.6867C27.8727 39.5211 26.9422 40.2833 25.8923 40.8884C24.9419 41.4384 23.9345 41.8722 22.8586 42.116C22.1617 42.2775 21.4582 42.3172 20.7535 42.1597C20.4398 42.092 20.1437 41.9679 19.8586 41.8188C19.2613 41.4929 18.9333 40.9844 18.811 40.3342C18.7395 39.9302 18.7561 39.5235 18.8251 39.1279C18.9589 38.3306 19.2118 37.5644 19.5752 36.8439C19.8929 36.234 20.2315 35.6285 20.5387 35.0163C21.1418 33.8442 21.7346 32.6698 22.3191 31.4827C22.6222 30.8642 22.8712 30.2175 23.0929 29.5705C23.563 28.1781 23.7463 26.7457 23.6741 25.2801C23.6109 24.0517 23.2674 22.9051 22.6986 21.8139C21.8585 20.2044 20.6477 18.9691 19.0943 18.0539C18.8468 17.9074 18.5844 17.7797 18.3197 17.6624C16.6938 16.9558 14.9902 16.5334 13.2197 16.3702C11.6965 16.2275 10.1914 16.2802 8.67632 16.4293C7.49119 16.5456 6.30012 16.6388 5.1195 16.7342C4.6069 16.7768 4.08877 16.7689 3.58151 16.736C3.44106 16.7276 3.30739 16.6878 3.19319 16.6085C3.00211 16.4797 2.81103 16.3509 2.6136 16.2262C2.34974 16.0543 2.17712 15.8146 2.06624 15.5171C1.71533 14.5823 1.69617 13.6316 2.067 12.6993C2.4772 11.6606 3.13445 10.7957 3.93911 10.0336C5.36327 8.68302 7.06825 7.90737 9.0108 7.65356C10.6212 7.44298 12.2252 7.51556 13.8087 7.8354C15.1307 8.09883 16.413 8.49594 17.693 8.9035C19.3153 9.42327 20.8988 10.0222 22.4402 10.7652C24.7502 11.8766 26.7731 13.3802 28.5325 15.2427C29.5194 16.2984 30.4341 17.4096 31.3402 18.8144Z" fill="#F2994A"/>
<mask id="mask0_395_2847" style="mask-type:alpha" maskUnits="userSpaceOnUse" x="1" y="7" width="33" height="36">
<path d="M31.3402 18.8144C31.922 19.7443 32.5446 20.891 33.0254 22.111C33.5729 23.5041 33.8214 24.964 33.9123 26.4446C34.0633 28.9395 33.5574 31.309 32.4513 33.5436C31.5053 35.4679 30.3039 37.2059 28.7477 38.6867C27.8727 39.5211 26.9422 40.2833 25.8923 40.8884C24.9419 41.4384 23.9345 41.8722 22.8586 42.116C22.1617 42.2775 21.4582 42.3172 20.7535 42.1597C20.4398 42.092 20.1437 41.9679 19.8586 41.8188C19.2613 41.4929 18.9333 40.9844 18.811 40.3342C18.7395 39.9302 18.7561 39.5235 18.8251 39.1279C18.9589 38.3306 19.2118 37.5644 19.5752 36.8439C19.8929 36.234 20.2315 35.6285 20.5387 35.0163C21.1418 33.8442 21.7346 32.6698 22.3191 31.4827C22.6222 30.8642 22.8712 30.2175 23.0929 29.5705C23.563 28.1781 23.7463 26.7457 23.6741 25.2801C23.6109 24.0517 23.2674 22.9051 22.6986 21.8139C21.8585 20.2044 20.6477 18.9691 19.0943 18.0539C18.8468 17.9074 18.5844 17.7797 18.3197 17.6624C16.6938 16.9558 14.9902 16.5334 13.2197 16.3702C11.6965 16.2275 10.1914 16.2802 8.67632 16.4293C7.49119 16.5456 6.30012 16.6388 5.1195 16.7342C4.6069 16.7768 4.08877 16.7689 3.58151 16.736C3.44106 16.7276 3.30739 16.6878 3.19319 16.6085C3.00211 16.4797 2.81103 16.3509 2.6136 16.2262C2.34974 16.0543 2.17712 15.8146 2.06624 15.5171C1.71533 14.5823 1.69617 13.6316 2.067 12.6993C2.4772 11.6606 3.13445 10.7957 3.93911 10.0336C5.36327 8.68302 7.06825 7.90737 9.0108 7.65356C10.6212 7.44298 12.2252 7.51556 13.8087 7.8354C15.1307 8.09883 16.413 8.49594 17.693 8.9035C19.3153 9.42327 20.8988 10.0222 22.4402 10.7652C24.7502 11.8766 26.7731 13.3802 28.5325 15.2427C29.5194 16.2984 30.4341 17.4096 31.3402 18.8144Z" fill="black"/>
</mask>
<g mask="url(#mask0_395_2847)">
<path d="M15.3728 28.133C15.3768 28.1938 15.383 28.2169 15.3787 28.2379C15.3219 29.3727 15.5527 30.4624 15.8905 31.5357C16.2988 32.8527 16.8331 34.1135 17.4094 35.3556C17.8422 36.2846 18.3066 37.1926 18.8004 38.0904C19.2629 38.9271 19.7443 39.7514 20.2868 40.5444C20.7853 41.2848 21.366 41.9436 22.0962 42.4583C23.5964 43.5068 25.2091 43.6829 26.9068 43.0139C28.4028 42.4238 29.5229 41.375 30.3233 39.9934C31.4088 38.1241 31.6263 36.1214 31.1182 34.0362C30.9633 33.4041 30.7307 32.8053 30.4287 32.2251C30.412 32.1999 30.3953 32.1747 30.3661 32.1305C30.2987 32.1932 30.2314 32.2559 30.1703 32.3144C28.9111 33.5095 27.4936 34.4377 25.8529 35.0146C24.7415 35.4047 23.6017 35.5871 22.4252 35.4672C21.3452 35.356 20.3521 35.0061 19.4946 34.3125C18.8254 33.7666 18.3412 33.0892 18.162 32.2284C17.9415 31.1953 18.2095 30.2565 18.842 29.4302C19.0508 29.1562 19.3076 28.9138 19.5478 28.6462C19.5374 28.6441 19.5017 28.6314 19.4703 28.6249C18.7929 28.5741 18.3515 28.222 18.14 27.573C18.0406 27.2579 18.0082 26.9347 18.02 26.6095C18.0366 26.0998 18.1497 25.5988 18.3131 25.119C18.6886 24.0275 19.2777 23.0668 20.0049 22.1779C21.0461 20.9001 22.2922 19.8496 23.7365 19.0579C24.4135 18.6829 25.1342 18.3878 25.8777 18.1683C25.9365 18.1475 25.989 18.1309 26.0457 18.1206C26.0563 18.0955 26.0648 18.0809 26.0627 18.0641C26.2082 16.7891 26.1816 15.5281 25.8465 14.2807C25.6334 13.5057 25.3046 12.789 24.8057 12.1577C23.8724 10.9793 22.6536 10.3977 21.1515 10.4024C20.6816 10.4048 20.2197 10.4744 19.7724 10.6069C19.7325 10.6151 19.6904 10.6339 19.6484 10.6526C19.6525 10.6862 19.6461 10.7176 19.6564 10.747C19.9611 12.2776 19.9614 13.828 19.7835 15.3693C19.5969 16.9525 19.2134 18.4846 18.591 19.9571C18.2565 20.7404 17.8466 21.492 17.3028 22.1508C16.9635 22.5565 16.5803 22.9095 16.1156 23.1805C15.8864 23.3139 15.6322 23.4094 15.3719 23.4546C14.7001 23.5632 14.1598 23.3219 13.7359 22.8042C13.4206 22.4233 13.244 21.9778 13.1115 21.5032C12.8904 20.6338 12.8791 19.7526 12.9937 18.8698C13.1903 17.3705 13.718 15.9879 14.4699 14.6838C15.0528 13.6727 15.778 12.7671 16.6516 11.99C17.3694 11.3613 18.156 10.8504 19.0448 10.5076C19.1036 10.4869 19.1519 10.464 19.2171 10.439C19.211 10.3887 19.2027 10.3488 19.1945 10.3089C19.0002 9.54868 18.7114 8.82378 18.2523 8.18424C17.2214 6.76207 15.8245 6.11684 14.0763 6.28425C13.1466 6.37299 12.3164 6.74953 11.555 7.27108C10.9576 7.68418 10.4375 8.1731 9.96963 8.72726C9.93381 8.76908 9.89798 8.8109 9.87264 8.85486C10.0102 9.09036 10.1499 9.31537 10.2833 9.54456C10.8189 10.4781 11.2053 11.474 11.4614 12.5198C11.8352 14.059 11.9551 15.6119 11.7267 17.1866C11.6125 17.9603 11.4103 18.7106 11.0531 19.4183C10.8206 19.8622 10.54 20.2744 10.1402 20.575C9.9845 20.6961 9.80997 20.8024 9.62505 20.8793C9.02411 21.1224 8.41425 20.9544 7.95047 20.4449C7.60156 20.068 7.3935 19.6162 7.22961 19.1351C7.1881 19.0175 7.12553 18.9228 7.03354 18.8385C6.27263 18.1265 5.66112 17.2976 5.16746 16.3726C4.33011 14.8043 3.89179 13.1264 3.86085 11.3514C3.8473 10.508 3.93857 9.68592 4.19134 8.87499C4.3698 8.29455 4.62366 7.74586 5.0387 7.29011C5.64336 6.62738 6.37639 6.40572 7.24187 6.6587C7.81397 6.82454 8.29731 7.15787 8.74055 7.55398C9.0395 7.82786 9.31739 8.12474 9.55742 8.44665C9.60127 8.49926 9.64095 8.54557 9.69315 8.61081C9.74791 8.55647 9.79004 8.51048 9.83849 8.46031C10.359 7.8623 10.9443 7.32119 11.611 6.88947C12.467 6.33261 13.3978 5.97115 14.4301 5.94155C16.3394 5.89433 17.7795 6.72855 18.7761 8.3457C19.1118 8.89455 19.3445 9.49335 19.512 10.1171C19.5265 10.1801 19.5514 10.2452 19.5742 10.3208C19.6435 10.3022 19.7065 10.2878 19.7695 10.2733C20.7711 10.0191 21.7699 9.99359 22.7547 10.3037C23.9302 10.669 24.8043 11.4151 25.4444 12.4518C26.0825 13.4718 26.3719 14.5953 26.4785 15.7852C26.5367 16.4631 26.5236 17.1427 26.4623 17.818C26.4599 17.8831 26.4513 17.9523 26.4468 18.0278C26.5266 18.0113 26.5937 18.0032 26.6567 17.9887C27.507 17.8346 28.3631 17.7855 29.2206 17.944C31.5141 18.3682 33.0216 19.702 33.7074 21.9327C34.0452 23.0333 34.0723 24.1579 33.9274 25.2965C33.709 26.9824 33.0737 28.5178 32.1515 29.9345C31.7315 30.5749 31.2656 31.1731 30.7474 31.7334C30.7178 31.771 30.6842 31.8023 30.642 31.8483C30.7461 32.0606 30.8565 32.2687 30.9501 32.4789C32.2693 35.3246 32.0311 38.8734 29.7491 41.4702C28.8957 42.4425 27.8628 43.1707 26.6173 43.5499C24.708 44.132 22.985 43.7478 21.4563 42.4643C20.9523 42.0449 20.5242 41.5481 20.1549 41.0033C19.6397 40.2377 19.1644 39.4365 18.7186 38.625C18.056 37.4308 17.4503 36.1991 16.9201 34.9446C16.3712 33.6481 15.879 32.3413 15.5528 30.9701C15.3485 30.0986 15.2386 29.2192 15.3175 28.3237C15.3198 28.2859 15.3242 28.2377 15.3264 28.1999C15.3348 28.1853 15.3412 28.1811 15.3728 28.133ZM21.8451 27.5536C21.9353 27.5393 21.9899 27.5395 22.0361 27.5271C22.7247 27.3892 23.413 27.3603 24.1134 27.4323C25.5541 27.5951 26.8486 28.1267 28.0265 28.962C28.9471 29.6138 29.7118 30.414 30.3293 31.3478C30.3626 31.3983 30.4065 31.4509 30.4482 31.514C30.4966 31.4639 30.5366 31.4283 30.5703 31.397C30.8338 31.0686 31.1225 30.7509 31.3713 30.414C32.4131 28.9998 33.1471 27.4355 33.4538 25.6912C33.6489 24.601 33.6657 23.5018 33.4182 22.4141C33.2057 21.4755 32.8103 20.6306 32.1648 19.9148C31.4566 19.1317 30.5795 18.6416 29.5608 18.3901C28.5317 18.1365 27.4973 18.1766 26.4706 18.3929C26.4474 18.3991 26.4285 18.4116 26.4096 18.4241C26.4011 18.4388 26.3927 18.4535 26.3906 18.4639C26.3841 18.4954 26.3756 18.5373 26.3692 18.5687C26.0507 20.6382 25.351 22.5698 24.3244 24.3911C23.7667 25.3854 23.1086 26.3102 22.3041 27.1232C22.163 27.2527 22.0157 27.3864 21.8451 27.5536ZM30.1869 31.8046C30.1432 31.7247 30.1078 31.6575 30.0639 31.6048C29.8427 31.2977 29.6237 30.9801 29.3835 30.6854C28.3477 29.4479 27.0588 28.5681 25.5249 28.086C23.8528 27.5592 22.2101 27.5571 20.6084 28.3713C19.8894 28.7377 19.3022 29.2348 18.8737 29.9171C18.1518 31.0745 18.2306 32.4007 19.0761 33.4739C19.5188 34.0336 20.0753 34.4365 20.7203 34.7264C21.491 35.0692 22.3024 35.2129 23.1395 35.2035C24.5137 35.1836 25.7908 34.7836 27.0142 34.1652C27.9643 33.6821 28.8247 33.077 29.61 32.3584C29.7995 32.1787 29.9848 31.9927 30.1869 31.8046ZM19.3039 10.7625C19.2346 10.7811 19.201 10.7851 19.1653 10.7997C18.514 11.0489 17.9126 11.4012 17.3572 11.8228C16.6271 12.3781 15.991 13.0344 15.4468 13.775C14.2911 15.3461 13.5397 17.0761 13.291 19.0178C13.1959 19.7517 13.2035 20.4902 13.3497 21.2188C13.4465 21.6807 13.598 22.1156 13.8671 22.5089C14.2969 23.1315 14.9213 23.3353 15.6293 23.0758C16.0789 22.9055 16.4493 22.6153 16.7758 22.2725C17.3171 21.7061 17.7141 21.0446 18.0482 20.3431C18.5918 19.2039 18.9509 18.0053 19.1906 16.7768C19.5159 15.1018 19.6274 13.405 19.4346 11.7007C19.4106 11.3901 19.3531 11.0836 19.3039 10.7625ZM25.9834 18.5064C25.9204 18.5209 25.8637 18.5311 25.8175 18.5436C25.1433 18.7445 24.494 19.0105 23.8738 19.348C22.4443 20.1208 21.234 21.1568 20.2179 22.4179C19.5433 23.2629 18.9797 24.1796 18.6233 25.2041C18.4493 25.7091 18.3319 26.231 18.332 26.766C18.3267 27.0324 18.3656 27.2969 18.4611 27.5511C18.6542 28.0763 19.0727 28.3528 19.6267 28.3129C19.8051 28.2948 19.992 28.2619 20.158 28.1975C20.6117 28.0335 21.0218 27.7896 21.3943 27.489C21.9225 27.0672 22.3817 26.5822 22.7907 26.0488C24.4692 23.842 25.5046 21.362 25.9724 18.6407C25.9788 18.6092 25.9769 18.5651 25.9834 18.5064ZM7.65241 19.3906C7.83737 19.8486 8.07912 20.2691 8.52288 20.5289C8.86825 20.7358 9.23124 20.7225 9.58224 20.5539C9.69154 20.4998 9.80929 20.431 9.90608 20.358C10.2217 20.1221 10.4536 19.8146 10.6479 19.4776C10.9626 18.925 11.16 18.332 11.2925 17.7094C11.5319 16.5628 11.5552 15.4048 11.4212 14.242C11.2385 12.649 10.8037 11.141 10.0203 9.73656C9.9036 9.53261 9.78059 9.33284 9.65758 9.13306C9.63234 9.14975 9.61555 9.15178 9.60924 9.15595C9.55866 9.2166 9.50807 9.27724 9.46797 9.34003C7.92386 11.5306 7.14246 13.9696 7.13005 16.6529C7.12722 17.3892 7.22301 18.1239 7.43215 18.838C7.46532 18.943 7.51741 19.0355 7.60736 19.103C7.79561 19.2506 7.98172 19.4086 8.16783 19.5667C8.20548 19.5962 8.22634 19.6277 8.26399 19.6573C8.01853 19.6563 7.86183 19.4879 7.65241 19.3906ZM9.47392 8.8827C9.45306 8.85115 9.44269 8.82174 9.426 8.7965C8.99815 8.21792 8.51553 7.69368 7.91914 7.29908C7.59687 7.08595 7.2513 6.93357 6.87183 6.86707C6.31203 6.77471 5.82263 6.92598 5.39528 7.30826C5.08793 7.58401 4.86635 7.92093 4.6929 8.2895C4.44546 8.80674 4.30069 9.35584 4.22298 9.92408C4.03335 11.2283 4.14169 12.5168 4.45987 13.7936C4.88343 15.4904 5.64334 17.0101 6.80687 18.3174C6.87372 18.3911 6.94057 18.4647 7.01373 18.5343C6.68258 16.8127 6.80233 15.1285 7.24092 13.4602C7.67533 11.7856 8.41339 10.2549 9.47392 8.8827Z" fill="black"/>
</g>
</svg>
