<svg width="72" height="12" viewBox="0 0 72 12" fill="none" xmlns="http://www.w3.org/2000/svg">
<path fill-rule="evenodd" clip-rule="evenodd" d="M66.6851 5.00425C67.0822 4.89619 67.4928 4.80389 67.7664 4.45874C67.381 4.59062 66.9612 4.64638 66.6851 5.00425ZM41.67 10.4003C40.0798 10.2959 38.4902 10.412 36.9004 10.4077C34.6207 10.4019 32.3405 10.4078 30.0643 10.1972C28.666 10.0675 27.2591 10.0971 25.8565 9.92633C22.5857 9.52766 19.3065 9.21813 16.0545 8.65257C13.4442 8.1985 10.8288 7.77782 8.23079 7.25443C5.9277 6.79014 3.67745 6.12782 1.41669 5.50381C1.09965 5.41643 0.789022 5.29436 0.578983 5.028C0.711839 4.74423 0.973416 5.11558 1.0963 4.86875C0.937843 4.66167 0.347708 4.78662 0.536313 4.40779C0.690547 4.09805 1.07598 3.85196 1.56805 3.90353C2.25186 3.97525 2.83362 4.33108 3.49227 4.4661C6.4142 5.06512 9.31692 5.74995 12.2745 6.17779C14.0935 6.44093 15.908 6.78073 17.7401 6.87435C18.7557 6.92655 19.7204 7.28544 20.739 7.22804C20.9893 7.21403 21.2358 7.35421 21.4853 7.1146C21.5779 7.02579 21.9747 6.87104 22.0016 7.33201C22.0073 7.42927 22.1869 7.39849 22.2971 7.40668C23.487 7.49523 24.6859 7.72674 25.8637 7.64719C27.0102 7.56976 28.1324 7.73814 29.2682 7.72222C30.0707 7.71121 30.849 8.09308 31.6839 8.02567C32.0285 7.99811 32.3796 8.05172 32.7164 7.92893C32.8455 7.94167 32.9745 7.95409 33.1037 7.96683C33.9793 8.11134 34.856 8.16399 35.7343 7.98964C36.6539 8.14356 37.5723 8.14281 38.4897 7.97056C39.4715 8.03574 40.4459 8.13624 41.4191 7.81156C41.8233 7.67678 42.2925 7.74498 42.7295 7.69777C44.2178 7.53716 45.7042 7.36044 47.1927 7.20411C47.4681 7.17517 47.7626 7.05085 48.0263 7.26124C48.7989 7.34863 49.5443 7.20866 50.2802 6.99161C51.0171 6.74348 51.7968 6.78218 52.5539 6.68955C53.5295 6.57 54.4753 6.45796 55.3998 6.05455C56.1603 5.72268 57.04 5.76465 57.8584 5.55279C59.6472 5.08912 61.4925 4.71588 63.1421 3.93051C64.9361 3.07633 66.9108 2.72142 68.637 1.72813C69.0773 1.47467 69.4452 1.11016 69.9554 0.957285C70.4755 0.801778 71.2957 1.05526 71.5931 1.63947C71.8363 2.11735 71.7743 2.61947 71.3226 3.01661C70.5489 3.69641 69.6862 4.24918 68.793 4.74643C64.9497 6.88566 60.8143 8.2501 56.5569 9.26776C52.3977 10.2621 48.1782 10.8845 43.9141 11.2048C41.7439 11.3678 39.5705 11.3569 37.3963 11.3903C35.1593 11.4245 32.9253 11.428 30.6945 11.2782C28.7081 11.1446 26.7274 10.9336 24.7468 10.7316C22.4271 10.4954 20.1127 10.2277 17.8149 9.86186C12.3033 8.98424 6.80902 8.00633 1.50078 6.21355C1.14286 6.09266 0.676237 6.17781 0.434879 5.711C0.843894 5.50781 1.22496 5.62963 1.59861 5.75082C4.33329 6.63931 7.12155 7.30124 9.93376 7.90545C14.0785 8.7962 18.2817 9.28306 22.4664 9.89072C24.4904 10.1846 26.5467 10.2497 28.5841 10.4576C31.2572 10.7309 33.94 10.7794 36.6206 10.8143C38.2239 10.8352 39.8365 10.8035 41.4331 10.5724C41.5491 10.5554 41.6498 10.5244 41.6654 10.3855C41.9421 10.6231 42.2624 10.4921 42.5601 10.4759C44.8786 10.3494 47.1862 10.1092 49.4903 9.82342C50.9366 9.64391 52.3664 9.36357 53.8071 9.15218C55.3234 8.92992 56.8169 8.51094 58.293 8.08441C58.7112 7.96371 59.2891 8.07472 59.5497 7.54341C60.2245 7.74794 60.7186 7.3233 61.2564 7.05308C60.6721 7.1635 60.0846 7.26385 59.5561 7.56269C59.404 7.57845 59.2462 7.57312 59.1005 7.6129C54.7939 8.79786 50.4107 9.56169 45.9681 9.99624C44.5358 10.1365 43.1028 10.2659 41.67 10.4003Z" fill="#333333"/>
</svg>
