<svg width="51" height="50" viewBox="0 0 51 50" fill="none" xmlns="http://www.w3.org/2000/svg">
<path d="M21.2899 14.2553C20.8098 14.3059 20.355 14.3817 19.8749 14.4322C16.5141 14.8112 13.1787 15.3419 9.96957 16.3779C9.00936 16.6811 8.07442 17.0602 7.16475 17.4897C6.58357 17.7677 6.02766 18.1214 5.54755 18.551C4.13251 19.7892 4.28412 21.5327 5.92659 22.4677C6.63411 22.872 7.4427 23.1246 8.20076 23.4279C8.42818 23.5289 8.6556 23.5795 8.88302 23.7564C8.70614 23.8069 8.52926 23.8574 8.35238 23.908C6.8868 24.2617 5.39595 24.6155 4.00617 25.2472C3.32392 25.5504 2.66693 25.9042 2.03521 26.3085C1.65619 26.5359 1.32769 26.8644 1.04974 27.1929C0.241142 28.1784 0.21587 29.3913 0.948662 30.4525C1.32769 31.0085 1.85833 31.438 2.41425 31.7918C3.39972 32.4235 4.43574 32.8783 5.52229 33.2574C8.12496 34.1923 10.8287 34.8493 13.5325 35.4305C16.3373 36.0117 19.1674 36.5423 21.9722 37.0982C22.1491 37.1235 22.3007 37.174 22.4776 37.3256C22.2501 37.4267 22.048 37.5025 21.8206 37.6036C20.1276 38.2858 18.4851 39.0692 17.0195 40.1557C16.3373 40.6611 15.7056 41.2423 15.1244 41.8487C14.5937 42.4046 14.2652 43.1374 14.1894 43.9207C14.0631 45.0326 14.4674 45.9928 15.2254 46.8014C15.8572 47.4836 16.6405 47.9385 17.4744 48.3175C18.9147 48.9492 20.4308 49.303 21.9722 49.5304C26.192 50.1368 30.4372 50.1116 34.657 49.7073C37.7651 49.404 40.8226 48.8734 43.8043 47.9637C44.9161 47.61 46.0279 47.2057 47.0387 46.6245C47.7715 46.2202 48.4285 45.7401 49.0096 45.1084C50.4499 43.4659 50.6016 41.4949 49.4645 39.6756C49.0096 38.9681 48.4537 38.3869 47.7967 37.8563C46.8871 37.1235 45.9269 36.517 44.8656 36.0369C43.6527 35.481 42.4145 34.9756 41.2016 34.445C41.0247 34.3692 40.8479 34.2934 40.5446 34.167C40.7973 34.0407 40.9237 33.9649 41.0753 33.8891C42.4398 33.2574 43.8043 32.6509 45.1183 31.9687C46.4322 31.2864 47.6451 30.4525 48.6811 29.366C49.1865 28.8354 49.6414 28.2542 49.9951 27.6477C50.9553 25.98 51.0059 24.2365 50.172 22.4677C49.6414 21.3558 48.858 20.4462 47.9484 19.6123C46.9629 18.7026 45.8511 17.9698 44.714 17.2876C44.5371 17.1865 44.3349 17.0602 44.1075 16.9085C44.3097 16.7822 44.4613 16.7064 44.6129 16.6306C46.2554 15.822 47.5441 14.6344 48.479 13.0424C49.2118 11.779 49.793 10.4398 50.0456 8.99946C50.2983 7.78656 49.9951 6.70001 49.2371 5.71453C48.3779 4.60271 47.2914 3.76885 45.9774 3.28874C45.1183 2.96025 44.2339 2.65702 43.3242 2.45488C41.0753 1.97477 38.8011 1.51994 36.5522 1.16617C31.827 0.408114 27.0764 -0.0467214 22.3007 0.00381595C19.5969 0.0290846 16.8932 0.231234 14.24 0.837682C13.1029 1.09037 11.9911 1.39359 10.9803 1.9495C10.2981 2.32853 9.59054 2.73283 9.03463 3.26347C7.31636 4.80486 7.2911 6.85162 8.93356 8.46882C9.41366 8.94892 9.96957 9.40376 10.5507 9.73225C11.7131 10.3892 12.9007 11.021 14.1136 11.5011C16.312 12.3855 18.5609 13.1435 20.7593 13.9268C20.9362 14.0027 21.113 14.0532 21.2899 14.129C21.2899 14.1795 21.2899 14.2048 21.2899 14.2553Z" fill="#F7D046"/>
</svg>
