<svg width="50" height="50" viewBox="0 0 50 50" fill="none" xmlns="http://www.w3.org/2000/svg">
<path d="M44.7744 33.6952C45.9155 40.3474 40.2654 45.3296 34.0585 43.2421C34.0028 43.4647 33.9472 43.6596 33.8915 43.8822C32.639 48.8923 27.4341 51.3973 22.7859 49.1984C20.0861 47.9181 18.3604 45.8306 17.5532 42.9637C17.4697 42.7132 17.4141 42.4627 17.3306 42.1844C17.2192 42.1844 17.1357 42.1566 17.0522 42.1844C13.0442 42.9359 10.066 41.3216 7.81151 38.1207C7.14351 37.1744 6.69817 36.0889 6.4755 34.9477C6.392 34.5024 6.16934 34.2797 5.75183 34.0849C2.35615 32.4984 0.43564 29.8263 0.0459717 26.0967C-0.343697 22.3113 1.77165 18.7208 5.33433 17.524C5.44567 17.4961 5.58483 17.4126 5.75183 17.357C5.724 17.1064 5.66833 16.8559 5.6405 16.6333C5.27867 14.6849 5.52917 12.8201 6.41984 11.0388C8.25685 7.39257 12.4597 5.80606 16.3842 7.3369C16.9687 7.55957 17.4976 7.86574 18.1377 8.17191C18.1656 7.9214 18.1656 7.6709 18.2212 7.44824C18.3882 6.69673 18.4717 5.88956 18.7222 5.16589C20.1696 1.15787 24.3724 -0.901804 28.464 0.378535C31.637 1.38054 33.641 3.60722 34.6708 6.7524C34.7543 7.03073 34.8378 7.30907 34.9213 7.5874C35.0883 7.55957 35.2275 7.55957 35.3667 7.53174C38.5397 7.05857 41.1839 8.08841 43.2992 10.3986C45.1919 12.4583 46.0547 14.9354 45.7764 17.7745C45.7207 18.2476 45.8877 18.526 46.2217 18.8321C48.9494 21.3371 50.0906 24.3988 49.3391 28.045C48.8381 30.4665 47.4464 32.2757 45.2475 33.4447C45.0805 33.5282 44.9414 33.6117 44.7744 33.6952ZM28.0743 32.8602C28.3248 31.4407 28.8258 30.216 29.633 29.1305C30.468 28.0172 31.5256 27.21 32.7781 26.6533C32.7781 26.4585 32.7503 26.3193 32.7503 26.208C32.7225 25.4008 32.6668 24.6215 32.7225 23.8143C32.7503 23.4246 32.6668 23.202 32.3885 22.9515C30.802 21.6433 29.7721 19.9455 29.2155 17.9693C29.1598 17.8023 29.1041 17.6353 29.0485 17.4683C27.8795 17.6631 26.7661 17.7466 25.6249 17.524C24.5116 17.3013 23.5096 16.7724 22.4519 16.2158C22.2014 20.1403 20.3922 22.868 16.6347 24.1761C16.7739 24.6493 16.6626 25.0947 17.2471 25.3452C20.2809 26.5977 22.1179 28.88 22.9529 32.053C23.0086 32.22 23.0643 32.387 23.1478 32.5819C24.7899 32.1922 26.3764 32.2757 28.0743 32.8602Z" fill="#4CA96D"/>
<path d="M36.1736 25.7066C36.0345 29.1579 34.448 32.4979 31.3028 34.9751C29.2153 36.6173 26.7381 37.2853 24.0939 37.0905C22.4796 36.9791 20.9766 36.3668 19.6406 35.4483C16.3006 33.1938 14.38 30.0764 13.7955 26.1241C13.545 24.5097 13.5729 22.9232 13.9069 21.3367C14.38 19.0544 15.4655 17.1338 17.2469 15.6308C19.1117 14.0443 21.2827 13.098 23.7043 12.8475C25.3186 12.6805 26.8494 13.0145 28.3246 13.6825C29.9111 14.4062 31.3585 15.3525 32.611 16.5772C35.0046 18.9152 36.118 21.8099 36.1736 25.7066Z" fill="#EE8DB9"/>
</svg>
