<svg width="47" height="44" viewBox="0 0 47 44" fill="none" xmlns="http://www.w3.org/2000/svg">
<path d="M22.75 14.5771C25.0417 14.6385 26.9668 15.1604 28.6168 16.3884C31.0613 18.1689 32.2836 20.5941 32.1308 23.6639C32.0697 24.8305 31.5808 25.8435 30.8169 26.7031C29.5029 28.2073 27.7918 28.9441 25.8056 29.1897C25.6223 29.2204 25.4695 29.2204 25.2862 29.1897C23.3 28.852 21.3444 28.4836 19.5721 27.4706C17.2804 26.0891 16.0887 24.0323 16.1192 21.3308C16.1803 18.2303 18.5943 15.3139 21.5277 14.6999C22.0166 14.6078 22.5055 14.6078 22.75 14.5771ZM22.9639 17.9233C22.5361 18.0154 22.0777 18.0461 21.6805 18.1996C19.8166 18.967 18.961 21.4536 19.9693 23.2034C20.3055 23.8174 20.8249 24.2779 21.436 24.5849C22.5972 25.1682 23.85 25.5365 25.1334 25.6593C25.7445 25.7207 26.4167 25.5979 26.9973 25.3523C28.4029 24.7998 28.9835 23.7253 28.6779 22.3132C28.4029 21.0238 27.7612 19.9187 26.6612 19.1512C25.5917 18.4145 24.3389 18.0461 22.9639 17.9233Z" fill="#EA552B"/>
<path d="M25.868 7.20935C27.1208 7.33214 28.4042 7.36284 29.657 7.54703C32.5598 8.00751 34.9127 9.51174 36.685 11.8448C39.0072 14.8533 40.2601 18.2915 40.3823 22.1289C40.4434 23.6024 40.1378 25.0145 39.5573 26.3653C39.0072 27.6239 38.335 28.8211 37.4489 29.8956C34.4849 33.4566 30.8792 35.9739 26.2041 36.6186C23.0568 37.0484 19.94 36.8642 16.976 35.759C14.9288 34.9609 13.0648 33.825 11.4148 32.3822C10.8648 31.891 10.4064 31.2463 10.0092 30.6017C8.93969 28.7904 8.29801 26.795 7.71744 24.7996C7.5341 24.1857 7.56465 23.4796 7.56465 22.8349C7.56465 18.7213 9.03136 15.2217 12.087 12.4281C15.5704 9.26616 19.6345 7.45494 24.4013 7.30145C24.8902 7.30145 25.3791 7.30145 25.868 7.30145C25.868 7.27075 25.868 7.24005 25.868 7.20935ZM25.8069 10.6476C21.804 10.5248 18.2594 11.7834 15.1427 14.27C13.8593 15.3138 12.7593 16.511 12.0259 18.0459C10.3453 21.5763 10.6814 24.9838 12.637 28.2993C12.9426 28.8211 13.4009 29.2509 13.8898 29.6193C14.6843 30.2333 15.5093 30.7859 16.3649 31.3077C18.6566 32.7199 21.1012 33.518 23.8512 33.3952C29.1681 33.1496 33.0487 30.6017 35.8294 26.2118C36.1655 25.6899 36.4099 25.1373 36.5933 24.554C36.8072 23.9094 36.96 23.2033 36.9905 22.5586C36.9905 19.2125 35.8905 16.2347 33.8126 13.6868C32.4682 12.0597 30.7264 11.0774 28.5875 10.8625C27.6708 10.7397 26.7236 10.709 25.8069 10.6476Z" fill="#EE8DB9"/>
<path d="M21.3131 43.7714C18.7769 43.7714 16.6685 43.4337 14.6518 42.6048C13.3379 42.0522 12.1462 41.2848 11.1072 40.2717C9.70165 38.8903 8.23494 37.5089 6.79878 36.1581C6.67656 36.0353 6.52378 35.9432 6.40155 35.8204C5.91265 35.36 5.33207 34.9302 4.93484 34.3776C2.88756 31.584 1.32918 28.5449 0.931945 25.0145C0.595824 22.0368 1.08473 19.1818 2.21532 16.4496C3.10145 14.27 4.23204 12.2439 5.72931 10.4634C7.25713 8.6522 8.99885 7.17867 11.0767 6.04282C13.5518 4.75348 16.0574 3.52554 18.6852 2.54318C22.4437 1.16174 26.3549 0.609171 30.3578 0.762663C31.8245 0.824061 33.2301 1.16174 34.5135 1.86781C36.0413 2.69667 37.5691 3.55623 38.9747 4.53859C41.9387 6.56469 43.7415 9.51176 44.9027 12.8272C46.5527 17.5548 46.7361 22.4052 45.4221 27.2555C45.1471 28.2686 44.7805 29.2816 44.3221 30.2026C42.1832 34.439 39.1581 37.8465 34.8802 40.0568C30.48 42.3285 25.866 43.5565 21.3131 43.7714ZM21.252 40.3638C25.4382 40.1182 29.6245 38.9824 33.5662 36.9256C36.7747 35.2372 39.0664 32.6585 40.8387 29.5579C41.3581 28.637 41.8165 27.6239 42.0915 26.5802C43.2832 22.221 43.1304 17.8618 41.5415 13.6254C40.5942 11.1081 39.2192 8.86709 36.9274 7.30146C35.7052 6.4726 34.3913 5.73583 33.0773 4.99907C32.069 4.44649 30.9689 4.2009 29.8384 4.17021C26.3244 4.10881 22.8715 4.59999 19.5714 5.85863C17.2491 6.74889 14.9879 7.85403 12.7878 9.02058C11.0767 9.94154 9.64053 11.1388 8.38772 12.6123C7.13491 14.0858 6.21821 15.7436 5.4543 17.5241C4.29315 20.2256 3.89592 22.9884 4.50705 25.8741C4.78206 27.1634 5.14874 28.3607 6.18765 29.3123C6.67656 29.7728 7.04324 30.3868 7.40991 30.9394C7.74603 31.4305 8.0516 31.9217 8.32661 32.4436C8.78495 33.2418 9.36553 33.9171 10.0378 34.5311C11.1072 35.5135 12.2073 36.5265 13.2156 37.5703C14.2851 38.6447 15.5379 39.3508 16.9435 39.7806C18.288 40.2103 19.6325 40.3638 21.252 40.3638Z" fill="#F7D046"/>
</svg>
