<svg width="352" height="380" viewBox="0 0 352 380" fill="none" xmlns="http://www.w3.org/2000/svg">
<path d="M298.231 131.326C306.731 121.806 306.871 119.686 307.811 120.406C310.851 122.666 275.811 152.166 292.591 162.926C296.591 165.466 297.851 166.126 296.591 168.926C296.451 170.606 295.151 172.306 295.311 175.086C295.471 177.866 295.311 178.906 299.871 180.666C302.348 180.789 304.804 180.154 306.911 178.846C309.491 177.286 312.911 175.766 314.671 178.106C317.175 177.599 319.528 176.525 321.551 174.966C320.512 175.013 319.472 174.891 318.471 174.606C327.871 171.266 330.051 166.606 330.951 160.786C331.191 154.406 326.771 149.126 326.311 147.946C325.071 150.446 323.011 156.266 319.231 157.046C322.307 153.198 324.56 148.759 325.851 144.006C325.451 138.426 325.371 132.686 322.851 128.146C320.651 124.146 317.591 124.146 315.071 127.866C313.871 129.666 313.891 130.066 313.211 129.866C312.531 129.666 312.611 129.086 312.431 128.606C308.591 118.606 308.851 118.606 307.771 118.606C296.971 118.266 292.171 113.686 291.111 115.146C291.631 120.706 292.391 126.086 295.391 130.926C296.691 133.046 296.671 133.066 298.231 131.326Z" fill="#295562"/>
<path d="M140.811 95.6054C141.95 97.0727 143.369 98.2988 144.986 99.2121C146.604 100.125 148.386 100.708 150.231 100.925C153.991 101.685 157.471 99.0854 160.951 97.4854C156.491 97.0054 152.351 96.7054 148.731 94.3254C146.451 92.8454 148.731 90.5454 149.051 92.4654C149.591 94.9854 159.771 95.6254 161.311 97.3254C173.691 91.6054 174.791 94.7454 167.311 92.9054C165.851 92.5454 161.831 91.1454 162.451 89.7854C163.071 88.4254 164.171 91.7854 177.191 92.4454C188.171 90.4454 188.251 96.2654 190.351 96.8654C186.351 92.0254 184.091 85.1654 185.291 84.8654C187.551 84.1454 184.491 94.6054 204.271 105.705C207.118 107.123 210.191 108.03 213.351 108.385C212.941 108.842 212.416 109.18 211.831 109.365C220.111 112.665 217.831 120.405 218.511 116.645C218.511 116.205 218.251 115.425 218.951 115.365C219.651 115.305 219.771 116.085 219.711 116.645C219.331 120.145 220.471 123.645 220.031 127.165C220.431 127.305 220.491 126.645 220.571 126.445C221.454 124.276 222.196 122.051 222.791 119.785C222.791 104.045 217.451 102.265 207.951 88.0454C201.951 79.0254 189.471 79.8654 177.271 80.0454C153.271 80.2254 198.271 86.4654 177.751 85.2854C175.143 85.2398 172.575 84.6402 170.216 83.5264C167.858 82.4127 165.763 80.8103 164.071 78.8254C154.751 67.7654 155.871 68.0054 154.791 62.8254C152.87 66.6315 151.708 70.7753 151.371 75.0254C151.371 76.8854 150.791 78.9054 153.171 79.9854C148.551 79.7454 146.871 75.9854 144.451 72.9454C143.945 74.1474 143.641 75.4245 143.551 76.7254C143.051 83.0454 146.291 86.5054 144.231 87.5854C142.171 88.6654 138.971 83.3054 137.851 81.3454C137.356 83.7991 137.363 86.3275 137.872 88.7783C138.381 91.229 139.381 93.5514 140.811 95.6054ZM206.171 100.105C206.591 99.5654 206.491 99.4654 217.091 105.805C217.468 105.986 217.786 106.27 218.009 106.624C218.232 106.978 218.351 107.387 218.351 107.805C216.291 106.785 204.871 101.865 206.171 100.105Z" fill="#295562"/>
<path d="M152.451 360.345C146.731 361.665 132.111 369.205 119.271 360.345C115.271 357.884 111.029 355.84 106.611 354.245C106.497 354.371 106.403 354.512 106.331 354.665C105.551 356.385 104.211 353.945 103.551 355.245C103.091 356.105 103.451 358.385 103.931 363.985C103.931 364.485 104.731 365.985 103.171 365.845C104.971 372.105 114.791 375.285 121.171 376.365C137.571 379.165 156.111 382.625 183.791 373.625C187.791 372.305 185.311 368.745 188.031 350.985C176.291 354.685 164.411 357.605 152.451 360.345Z" fill="#295562"/>
<path d="M126.371 52.2255C126.571 52.2255 158.991 50.0455 164.511 49.5855C165.911 49.4655 166.511 48.7255 165.871 47.3255C165.231 45.9255 164.771 44.1255 163.991 42.6255C162.751 40.2655 164.231 40.7655 173.811 38.2455C177.811 37.2255 174.671 35.6055 167.331 27.0855C166.836 26.4322 166.119 25.9837 165.315 25.8251C164.511 25.6665 163.677 25.809 162.971 26.2255C160.491 27.3455 149.851 32.0055 147.131 33.2055C143.991 34.6655 144.531 34.4855 150.431 40.1255C125.851 50.4455 123.451 49.5855 124.151 51.4855C124.511 52.4455 125.551 52.4655 126.371 52.2255Z" fill="#295562"/>
<path d="M228.211 160.445C224.891 147.905 233.411 136.065 227.731 137.225C228.931 137.945 227.731 138.545 227.451 138.925C219.451 148.185 213.331 165.765 222.931 170.185C227.251 172.185 227.571 171.145 226.791 174.765C226.131 177.845 227.551 178.045 230.611 178.005C233.122 177.752 235.526 176.856 237.591 175.405C240.891 173.405 231.591 173.225 228.211 160.445Z" fill="#295562"/>
<path d="M249.531 308.305C251.531 308.865 253.531 309.806 255.731 308.826C256.161 308.628 256.628 308.526 257.101 308.526C257.574 308.526 258.041 308.628 258.471 308.826C259.656 308.949 260.776 309.423 261.691 310.185C263.37 309.88 264.897 309.021 266.031 307.745C265.831 307.745 244.811 303.105 224.811 296.365C225.811 299.865 226.811 300.885 225.851 300.885C233.606 303.779 241.511 306.256 249.531 308.305Z" fill="#295562"/>
<path d="M255.431 285.006C253.551 280.786 253.791 280.266 252.491 280.026C243.251 278.306 234.011 276.566 224.711 275.186C224.471 278.226 224.131 278.766 224.331 278.766C226.351 279.206 255.171 285.586 255.431 285.006Z" fill="#295562"/>
<path d="M287.531 261.365C287.831 260.485 285.891 257.365 284.971 257.365C278.611 257.185 272.311 256.145 265.951 256.145C262.251 256.145 258.571 255.805 254.891 255.485C255.831 259.265 255.631 259.125 255.831 259.225C286.431 261.245 287.091 262.685 287.531 261.365Z" fill="#295562"/>
<path d="M279.971 233.425C281.971 233.425 279.971 232.625 277.971 229.985C268.111 229.985 272.451 228.105 267.051 233.505L274.611 233.905C275.731 234.005 277.851 233.385 279.971 233.425Z" fill="#295562"/>
<path d="M258.771 230.006C259.178 231.158 259.765 232.238 260.511 233.206C265.811 233.466 264.511 234.086 268.511 230.106C269.351 229.126 268.731 229.846 258.771 230.006Z" fill="#295562"/>
<path d="M249.851 229.585C248.551 229.585 248.771 229.045 249.551 232.645C250.891 232.645 257.551 233.025 258.811 233.105C256.631 229.425 258.171 230.045 256.251 229.925C254.331 229.805 252.011 229.665 249.851 229.585Z" fill="#295562"/>
<path d="M289.851 285.405C284.371 284.945 278.971 283.825 273.471 283.565C270.358 283.327 267.269 282.845 264.231 282.125C265.331 284.125 266.231 285.486 267.071 286.926C294.631 289.186 293.071 289.186 293.071 288.266C291.851 285.586 292.651 285.625 289.851 285.405Z" fill="#295562"/>
<path d="M246.191 258.286C247.671 258.586 247.191 257.986 246.751 255.406C246.191 254.746 246.071 255.086 238.011 254.526C222.011 253.426 215.791 249.426 215.051 249.206C215.618 250.767 216.286 252.29 217.051 253.766C222.631 256.386 242.091 257.846 246.191 258.286Z" fill="#295562"/>
<path d="M242.011 231.745C241.331 229.025 241.471 228.885 240.531 228.785C233.311 228.025 224.951 225.505 223.071 225.365C221.974 226.269 220.932 227.238 219.951 228.265C243.111 232.225 241.851 232.005 242.011 231.745Z" fill="#295562"/>
<path d="M243.471 203.085C242.871 203.625 242.531 201.585 243.771 206.645C245.551 206.645 245.111 206.385 245.351 204.465C245.451 203.605 246.031 202.765 243.471 203.085Z" fill="#295562"/>
<path d="M319.331 202.885C316.425 201.307 313.434 199.892 310.371 198.645C308.611 197.985 306.951 195.685 305.171 196.825C303.391 197.965 302.931 200.085 301.831 201.765C301.331 202.505 307.951 201.445 306.771 205.345C301.811 201.345 295.591 207.585 293.451 213.345C293.149 214.206 293.081 215.132 293.253 216.028C293.425 216.924 293.831 217.758 294.431 218.445C295.951 220.565 298.431 218.225 299.551 215.865C301.371 212.025 305.731 205.185 309.911 206.145C318.451 208.145 312.491 215.045 312.231 217.665C310.491 235.005 310.231 227.265 315.071 230.145C322.211 233.325 315.071 235.585 317.371 238.785C319.671 241.985 319.091 245.465 315.371 247.505C312.551 249.045 310.951 248.605 311.971 250.625C315.731 258.125 315.751 266.125 322.691 273.005C328.451 278.705 325.811 285.145 327.391 287.225C328.125 283.699 328.586 280.122 328.771 276.525C328.611 266.885 324.611 265.465 325.571 252.025C326.231 242.005 339.991 213.285 319.331 202.885Z" fill="#EAE5D9"/>
<path d="M310.811 208.005C309.531 207.745 308.011 207.405 306.951 209.245C304.851 212.925 296.951 219.925 302.471 223.405C303.571 224.085 304.471 222.765 305.191 222.065C307.877 219.417 310.21 216.432 312.131 213.185C312.991 211.785 312.931 208.365 310.811 208.005Z" fill="#EAE5D9"/>
<path d="M232.251 126.945C230.251 139.245 233.431 138.645 230.931 144.245C226.691 153.725 228.931 162.045 235.611 169.505C237.876 171.742 240.608 173.45 243.611 174.505C251.611 177.885 255.331 177.305 258.431 183.165C259.491 185.165 261.611 188.805 260.791 189.285C259.971 189.765 259.531 188.685 258.631 187.925C258.271 187.645 258.191 186.805 257.491 187.225C256.791 187.645 256.431 187.805 256.331 188.645C255.188 198.392 255.054 208.231 255.931 218.005C256.251 221.205 267.931 220.005 271.151 219.765C274.991 219.565 269.851 214.945 269.151 206.865C268.451 198.785 275.451 197.405 282.891 197.585C281.691 178.965 280.451 170.925 284.891 170.285C293.111 169.065 289.111 182.285 293.751 196.125C296.215 191.223 299.3 186.659 302.931 182.545C301.345 182.422 299.777 182.134 298.251 181.685C292.811 179.505 291.871 174.585 293.851 169.085C294.131 168.325 295.031 167.705 295.271 166.965C294.711 165.365 283.951 163.265 286.551 151.245C287.131 145.825 289.571 142.725 295.451 134.225C296.111 133.245 295.991 133.865 294.551 132.225C288.991 125.645 290.011 113.625 289.991 113.425C289.591 112.645 280.911 110.105 272.391 101.265C270.845 99.957 269.689 98.2478 269.051 96.3255C268.291 96.2055 267.991 97.0255 266.531 98.7455C266.911 98.4055 267.331 98.0055 267.751 98.4855C268.171 98.9655 267.391 99.4255 267.071 99.7455C261.071 105.945 253.691 110.425 246.331 114.845C243.891 116.305 243.591 115.945 246.331 116.145C241.921 118.106 237.934 120.904 234.591 124.385C234.331 123.305 234.331 123.305 238.051 119.265C236.891 119.465 235.891 120.085 234.731 120.285C233.549 121.77 232.58 123.413 231.851 125.165C232.871 125.365 232.351 126.285 232.251 126.945ZM280.731 139.745C275.311 139.745 276.291 131.305 281.171 131.245C282.246 131.277 283.267 131.727 284.014 132.501C284.761 133.275 285.177 134.31 285.171 135.385C285.043 136.511 284.532 137.559 283.724 138.352C282.915 139.146 281.859 139.638 280.731 139.745ZM289.131 124.445C288.951 125.505 287.571 125.665 287.131 126.705C287.131 126.945 286.711 126.585 286.531 126.445C277.251 119.605 269.451 128.785 269.911 123.905C270.191 120.845 270.351 120.645 273.431 119.905C281.851 117.645 289.411 122.845 289.131 124.445ZM268.771 111.505C274.834 109.714 281.357 110.359 286.951 113.305C287.453 113.52 287.882 113.877 288.184 114.331C288.486 114.786 288.648 115.319 288.651 115.865C278.651 108.585 268.211 113.865 267.771 112.465C267.571 111.765 268.311 111.625 268.771 111.505ZM261.851 143.685C268.931 143.685 274.511 143.685 273.111 150.625C271.531 158.465 265.751 161.905 263.711 164.625C261.411 167.705 249.031 167.505 244.051 155.765C243.284 153.826 242.707 151.817 242.331 149.765C242.124 149.2 242.148 148.576 242.399 148.029C242.65 147.482 243.108 147.057 243.671 146.845C248.711 144.005 255.851 143.645 261.851 143.685ZM245.251 137.685C248.751 132.245 256.551 127.845 257.091 130.325C257.291 131.305 256.371 130.885 255.911 131.065C252.569 132.479 249.658 134.749 247.471 137.645C247.412 137.738 247.381 137.846 247.381 137.955C247.381 138.065 247.412 138.173 247.471 138.265C247.526 138.363 247.608 138.441 247.708 138.491C247.808 138.541 247.92 138.56 248.031 138.545C250.851 138.265 253.291 137.105 255.811 136.825C255.954 136.814 256.098 136.851 256.217 136.931C256.337 137.011 256.427 137.129 256.471 137.265C256.506 137.404 256.493 137.55 256.435 137.681C256.377 137.811 256.277 137.918 256.151 137.985C246.451 142.685 243.611 140.125 245.191 137.685H245.251ZM240.891 122.765C241.251 121.865 241.711 120.765 242.891 121.145C244.071 121.525 244.051 122.565 243.931 123.565C243.943 126.021 243.381 128.445 242.291 130.645C240.651 133.285 237.051 132.325 240.831 122.765H240.891ZM238.891 134.265C239.997 134.255 241.062 134.678 241.859 135.445C242.656 136.211 243.12 137.26 243.151 138.365C243.009 139.62 242.437 140.787 241.533 141.669C240.629 142.551 239.449 143.094 238.191 143.205C237.045 143.128 235.968 142.629 235.167 141.806C234.366 140.983 233.898 139.893 233.851 138.745C233.975 137.517 234.551 136.378 235.468 135.55C236.384 134.722 237.576 134.264 238.811 134.265H238.891Z" fill="#EAE5D9"/>
<path d="M292.791 238.485C286.611 238.865 283.731 233.905 286.691 237.945C287.891 237.705 288.691 240.925 289.551 241.785C291.551 242.805 295.871 239.045 299.311 240.605C299.711 240.745 300.231 241.025 300.611 240.425C303.391 235.905 308.411 238.085 307.891 235.085C307.771 234.405 308.031 234.665 306.991 235.245C306.551 235.485 305.911 236.085 305.411 235.485C304.471 234.265 309.091 234.525 309.911 219.825C306.731 222.525 302.471 230.045 298.651 220.885C298.56 220.572 298.5 220.25 298.471 219.925C297.705 220.3 296.853 220.465 296.003 220.403C295.152 220.34 294.333 220.054 293.63 219.572C292.926 219.09 292.363 218.43 291.998 217.659C291.633 216.889 291.479 216.035 291.551 215.185C291.391 207.805 298.811 203.545 299.171 202.725C305.171 189.265 316.891 183.865 313.611 179.685C311.471 176.945 305.331 182.565 303.031 185.185C297.751 191.185 295.631 198.865 293.411 198.465C291.191 198.065 290.271 189.985 290.031 187.865C288.331 173.645 288.791 171.865 285.511 172.085C283.511 172.085 283.911 173.925 283.851 175.005C283.251 187.825 285.191 189.585 284.311 194.645C283.991 196.645 284.051 197.885 286.311 198.845C289.711 200.245 289.631 203.185 286.411 205.065C285.067 205.804 283.685 206.471 282.271 207.065C284.069 207.974 285.527 209.437 286.431 211.237C287.335 213.037 287.636 215.081 287.291 217.065C287.291 217.645 287.291 218.485 286.551 218.465C285.811 218.445 286.131 217.545 286.071 217.025C285.531 212.705 284.071 209.025 279.371 207.785C273.371 206.085 292.951 204.265 285.611 199.885C282.751 198.165 279.731 198.705 276.751 199.405C266.111 201.925 272.871 212.585 277.811 225.405C282.011 236.005 290.191 235.345 292.791 238.485Z" fill="#EAE5D9"/>
<path d="M254.831 218.465C253.832 208.617 253.953 198.687 255.191 188.865C252.191 190.165 250.891 189.925 249.971 193.165C246.711 204.725 243.491 215.265 254.831 218.465Z" fill="#EAE5D9"/>
<path d="M324.271 293.885C326.271 290.005 324.851 288.245 324.711 283.985C324.351 273.305 319.031 275.025 314.951 263.685C310.771 252.025 310.651 244.425 307.651 255.065C306.331 259.725 304.251 260.885 299.651 259.305C296.991 258.365 294.551 256.125 289.871 257.305C288.991 257.525 288.731 257.545 289.011 258.565C291.671 268.565 289.331 277.125 297.371 294.145C299.371 298.585 306.571 302.345 314.091 301.305C317.849 299.375 321.283 296.872 324.271 293.885Z" fill="#EAE5D9"/>
<path d="M60.5711 120.885C65.4511 121.705 72.8711 125.145 74.3111 121.105C76.3111 115.345 81.0111 95.1054 81.4911 92.6854C84.4911 78.5054 83.8311 76.9454 88.8111 62.1054C91.1711 55.1054 101.851 14.4254 97.0311 9.00538C82.2619 6.32748 67.3504 4.50445 52.3711 3.54538C42.0111 2.94538 48.5711 5.00538 35.5511 44.8654C36.4511 45.3254 41.1311 41.9854 45.5511 41.5054C54.6911 40.5254 64.2511 44.3054 65.9711 45.9054C68.4111 47.5454 66.8311 53.0254 65.6911 55.7254C64.8911 57.7254 62.5711 57.8454 60.6911 58.3454C52.6911 60.5254 47.0511 55.4854 39.8511 60.3454C68.5511 58.2454 71.5911 57.8454 73.8511 69.2854C75.3111 76.4454 67.4111 75.1254 38.4511 78.4054C33.6111 78.9454 30.4511 81.8054 27.3711 84.7054C27.7628 84.7558 28.1594 84.7558 28.5511 84.7054C31.6995 84.2889 34.8795 84.1617 38.0511 84.3254C39.7384 84.2903 41.3971 84.7642 42.8111 85.6854C64.1511 98.2054 64.0511 96.6254 60.8111 104.785C60.0711 106.785 59.6711 108.485 56.8111 108.225C45.3711 107.185 41.6111 102.225 31.7711 101.765C42.4711 106.345 40.8911 107.485 44.0711 112.725C46.5711 116.865 46.9311 117.305 47.8511 117.525C52.3111 118.485 56.3111 120.185 60.5711 120.885ZM64.1511 18.3654C50.0311 15.8654 49.1511 16.0054 47.7111 14.5454C45.0511 12.4254 46.3511 8.54538 48.6711 6.28538C50.3511 4.64538 51.5711 4.86538 65.8311 8.00538C69.5511 8.84538 70.2311 10.5454 70.2311 13.3254C70.2311 17.1454 67.9511 19.0454 64.1511 18.3654Z" fill="#EAE5D9"/>
<path d="M209.571 347.085C210.451 337.905 214.911 335.425 214.791 330.185C214.791 328.505 214.511 329.065 213.531 328.305C211.531 326.725 211.531 325.065 212.911 322.765C213.737 321.478 214.74 320.313 215.891 319.305C219.311 316.565 210.131 318.445 211.351 312.265C212.862 305.44 215.081 298.79 217.971 292.425C218.876 291.073 219.959 289.849 221.191 288.785C221.811 285.925 221.851 275.665 222.971 271.125C223.171 267.325 223.691 266.505 221.891 263.505C215.751 253.345 211.271 248.645 211.891 240.825C211.771 235.325 214.131 232.825 216.551 230.105C219.703 226.586 223.223 223.415 227.051 220.645C231.051 217.845 229.611 217.425 233.611 207.045C235.611 201.725 232.931 201.325 232.831 195.045C232.749 193.946 232.575 192.856 232.311 191.785C232.081 191.122 231.713 190.516 231.231 190.005C228.792 189.045 226.142 188.748 223.551 189.145C216.551 190.805 213.131 204.305 211.071 211.945C209.391 218.185 208.971 222.905 207.491 252.205C206.991 262.205 208.951 260.205 204.451 271.965C196.451 292.765 187.491 344.905 190.251 347.725C190.403 347.9 190.487 348.124 190.487 348.355C190.487 348.587 190.403 348.811 190.251 348.985C189.091 350.145 189.371 351.705 189.311 352.985C188.991 359.105 187.951 369.585 189.671 375.285C189.269 375.343 188.858 375.309 188.471 375.185C188.611 375.945 189.031 376.325 190.171 376.085C191.761 375.764 193.301 375.233 194.751 374.505C201.931 370.765 209.391 361.385 210.231 359.685C208.833 355.63 208.605 351.264 209.571 347.085Z" fill="#EAE5D9"/>
<path d="M158.231 19.4254C163.418 18.2996 168.545 16.9111 173.591 15.2654C174.966 14.8548 176.187 14.0438 177.099 12.9359C178.011 11.8281 178.572 10.4736 178.711 9.04542C178.711 5.62542 174.711 4.60542 171.831 5.40542C170.771 5.68542 169.571 6.32542 168.671 6.04542C167.771 5.76542 168.471 4.62542 167.411 2.44542C167.208 1.83896 166.847 1.29784 166.365 0.878304C165.882 0.45877 165.296 0.176135 164.667 0.0597755C164.038 -0.0565838 163.39 -0.00242066 162.789 0.216636C162.188 0.435692 161.657 0.811647 161.251 1.30542C158.471 4.00542 157.631 9.50542 155.851 16.6654C155.251 18.8454 156.051 20.0054 158.231 19.4254ZM159.231 14.4654C163.231 -1.69458 166.211 2.84542 164.791 8.70542C164.351 10.5254 165.851 11.6654 167.391 10.4454C169.067 9.02067 171.192 8.23431 173.391 8.22542C174.131 8.22542 175.091 7.96542 175.391 8.92542C176.091 11.1254 172.331 12.7054 170.011 13.2254C159.211 15.6054 158.831 16.0054 159.231 14.4654Z" fill="#EAE5D9"/>
<path d="M143.111 166.725C142.131 166.305 139.271 167.465 135.491 165.785C122.951 160.145 124.051 158.225 116.211 154.525C113.951 153.102 111.359 152.296 108.691 152.185C103.071 152.665 99.691 152.365 100.331 153.745C101.291 154.605 111.891 165.085 110.891 167.225L110.271 166.625C109.951 166.625 109.711 166.225 109.471 166.005C99.471 156.165 98.231 151.525 102.131 162.905C103.211 166.085 103.271 169.645 105.411 172.485C106.791 174.325 103.151 183.145 102.231 190.265C102.231 191.145 101.231 190.925 101.071 190.385C100.351 190.265 100.651 189.445 100.631 188.945C100.371 180.945 106.011 173.105 102.951 170.065C100.791 168.005 96.711 147.705 88.051 137.525C85.891 136.145 80.551 140.125 72.811 141.005C75.691 142.705 76.671 143.505 76.491 142.385C76.031 139.905 77.811 142.065 82.731 144.385C83.4568 144.72 84.0939 145.22 84.591 145.845C85.2476 146.454 85.7266 147.229 85.9767 148.089C86.2268 148.948 86.2387 149.86 86.011 150.725C83.751 169.565 82.171 184.385 75.251 202.725C73.471 207.405 72.891 203.445 73.731 201.365C74.931 198.425 72.791 198.565 72.031 198.045C67.671 195.045 62.691 193.165 58.031 190.205C59.091 195.465 60.171 200.445 63.391 204.645C74.271 218.785 69.251 220.265 92.091 202.645C94.091 201.085 94.811 203.325 95.391 205.605C95.4317 205.778 95.418 205.959 95.3518 206.124C95.2856 206.288 95.1701 206.428 95.0211 206.525C94.8722 206.621 94.6971 206.669 94.5198 206.662C94.3426 206.655 94.1718 206.593 94.031 206.485C91.791 204.705 94.671 204.885 80.331 214.625C81.131 214.985 81.631 215.585 82.331 215.925C84.171 216.825 93.531 219.085 98.331 224.305C102.551 228.305 100.991 231.185 103.351 232.885C105.171 234.165 109.351 234.285 110.851 232.665C128.051 214.065 120.851 221.405 151.551 183.525C151.679 183.394 151.751 183.219 151.751 183.035C151.751 182.852 151.679 182.676 151.551 182.545C149.331 178.345 145.551 168.525 143.111 166.725ZM125.851 177.805C123.272 189.819 118.173 201.148 110.891 211.045C104.791 218.925 101.751 216.405 103.511 215.205C114.911 207.785 120.771 186.985 123.731 178.165C125.551 172.825 126.611 174.925 125.851 177.805Z" fill="#295562"/>
<path d="M344.771 347.545C344.657 346.533 344.34 345.554 343.838 344.667C343.336 343.78 342.66 343.004 341.851 342.385C341.351 342.085 314.251 330.385 313.611 330.845C321.411 347.885 322.611 361.965 329.411 367.185C331.631 368.585 335.751 369.365 345.791 371.185C347.931 371.585 348.891 370.585 348.891 368.465C348.891 358.365 346.271 357.205 344.771 347.545Z" fill="#295562"/>
<path d="M224.671 79.8254C223.18 76.8768 220.857 74.4294 217.991 72.7854C222.171 86.7854 218.951 98.7854 219.991 100.325C222.506 104.094 224.008 108.447 224.351 112.965C227.311 110.965 225.771 108.325 226.811 103.245C228.505 95.4033 227.758 87.2306 224.671 79.8254Z" fill="#295562"/>
<path d="M218.331 98.1053C219.311 91.0411 219.108 83.863 217.731 76.8653C217.351 75.0053 217.391 72.5853 215.731 71.5653C211.792 69.0689 207.436 67.3008 202.871 66.3453C206.079 71.318 208.286 76.8681 209.371 82.6853C210.291 87.4853 206.471 81.6253 218.331 98.1053Z" fill="#295562"/>
<path d="M246.191 224.005C243.931 214.185 240.411 204.665 239.111 194.605C239.004 193.991 238.771 193.406 238.427 192.886C238.083 192.367 237.635 191.924 237.111 191.585C235.631 191.245 234.431 190.665 233.931 191.985C236.251 199.185 229.611 175.045 240.531 223.065C242.171 230.265 244.531 237.305 245.831 244.585C253.251 284.585 262.371 294.325 273.071 305.125C274.371 306.085 275.271 301.565 274.751 300.965C252.091 273.265 255.431 264.005 246.191 224.005Z" fill="#295562"/>
<path d="M247.211 45.0254C250.171 46.0454 250.811 45.8654 251.731 42.8854C258.511 20.8854 258.691 20.0854 257.731 16.1054C258.251 14.1054 257.051 14.1054 243.211 7.18536C242.949 7.0174 242.652 6.9127 242.343 6.87956C242.034 6.84643 241.722 6.88578 241.431 6.99448C241.14 7.10319 240.878 7.27826 240.666 7.50581C240.454 7.73335 240.298 8.00711 240.211 8.30536C237.451 14.4454 240.551 14.3054 228.211 11.2054C223.851 10.0054 224.511 14.0054 218.831 31.4854C217.231 36.4654 215.851 34.3254 247.211 45.0254ZM242.731 11.7454C243.051 10.2654 243.231 10.8254 253.371 15.8854C254.551 16.4654 254.111 17.6454 253.211 17.5454C239.571 14.0054 241.851 15.5854 242.731 11.7454ZM250.091 24.0054C249.931 25.6854 247.451 25.0054 247.451 23.5454C247.451 22.0854 249.991 22.3054 250.091 24.0054ZM221.851 31.7654C226.931 13.5454 226.031 14.1254 227.851 14.6454L248.871 20.4854C245.271 22.3254 244.531 23.5054 245.551 25.4654C247.551 29.2254 254.191 27.2054 250.831 21.2854C251.771 20.8654 252.551 21.5654 253.391 21.6454C254.231 21.7254 254.091 22.4054 253.911 23.0454C248.251 41.5654 248.911 41.9854 246.731 41.2854C220.451 32.5854 221.291 33.5054 221.851 31.7654Z" fill="#295562"/>
<path d="M201.551 53.8454C201.812 54.2826 202.206 54.6248 202.676 54.8215C203.145 55.0182 203.665 55.0591 204.16 54.9383C204.655 54.8174 205.097 54.5412 205.423 54.1501C205.749 53.759 205.941 53.2736 205.971 52.7654C207.231 46.2054 206.251 47.6854 215.351 47.5654C218.491 47.5654 219.771 44.0654 216.151 42.6654C209.771 40.2454 208.791 40.3254 209.411 38.5254C210.031 36.7254 208.631 34.3454 205.751 35.6854C203.191 36.8854 202.411 37.5654 199.911 36.4454C193.731 33.6854 192.791 33.5254 191.691 34.8454C189.571 37.3654 195.271 40.4254 192.351 41.6254C190.359 42.6966 188.179 43.3755 185.931 43.6254C184.651 43.6254 183.451 43.8454 183.451 45.4054C183.451 46.9654 184.691 47.5054 186.031 47.5254C200.571 48.1654 195.471 44.9654 201.551 53.8454Z" fill="#295562"/>
<path d="M213.431 189.625C209.971 187.325 205.251 185.625 202.871 182.485C202.311 181.765 202.631 181.945 196.471 188.905C195.571 189.945 195.931 189.405 202.071 196.245C203.911 198.245 208.451 203.445 210.531 205.325C214.911 190.985 217.991 192.585 213.431 189.625Z" fill="#295562"/>
<path d="M327.291 312.765C339.471 338.225 334.711 338.425 338.771 338.765C339.411 338.765 339.911 338.985 339.651 337.825C336.311 322.665 329.431 312.045 325.511 303.825C324.817 302.09 324.029 300.395 323.151 298.745C320.811 301.385 319.511 296.445 327.291 312.765Z" fill="#295562"/>
<path d="M323.071 362.646C316.851 350.646 315.991 333.206 309.751 328.646C310.291 331.966 310.671 334.785 311.271 337.565C311.951 340.725 316.931 355.245 317.071 355.405C318.145 355.727 319.059 356.441 319.631 357.405C322.651 360.725 320.491 361.405 320.051 360.505C319.58 359.364 318.902 358.32 318.051 357.426C316.411 356.266 315.751 357.905 315.011 358.785C313.951 360.045 315.531 359.385 320.891 362.505C321.891 363.085 323.071 364.665 324.231 365.085C324.091 364.685 324.091 364.906 323.071 362.646Z" fill="#295562"/>
<path d="M315.151 354.005C310.231 339.265 310.051 343.545 307.911 327.705C307.751 326.405 306.751 325.445 305.911 325.465C304.431 325.465 304.991 326.985 305.071 327.945C305.891 336.265 308.971 350.965 313.071 357.665C314.331 357.725 315.551 355.285 315.151 354.005Z" fill="#295562"/>
<path d="M204.251 124.685C196.711 124.565 196.971 136.565 204.131 136.685C211.851 136.785 210.571 124.785 204.251 124.685Z" fill="#295562"/>
<path d="M155.631 116.445C152.071 113.765 146.731 117.885 148.811 124.585C148.992 125.212 149.313 125.79 149.749 126.275C150.186 126.761 150.726 127.141 151.331 127.387C151.935 127.633 152.587 127.74 153.239 127.698C153.89 127.656 154.523 127.467 155.091 127.145C159.511 124.945 159.851 119.545 155.631 116.445Z" fill="#295562"/>
<path d="M287.371 310.985C286.611 310.065 286.911 310.425 286.011 311.705C284.271 314.185 285.651 315.245 286.351 316.365C290.851 321.365 289.571 329.125 290.351 330.365C291.811 331.385 294.351 328.565 294.131 327.025C293.541 321.121 291.185 315.531 287.371 310.985Z" fill="#295562"/>
<path d="M267.011 364.165C267.033 364.864 267.282 365.536 267.72 366.081C268.158 366.626 268.761 367.013 269.439 367.185C270.116 367.356 270.831 367.303 271.476 367.032C272.12 366.762 272.659 366.289 273.011 365.685C271.011 363.965 269.011 362.205 267.011 360.445C266.941 361.684 266.941 362.926 267.011 364.165Z" fill="#295562"/>
<path d="M268.511 354.285C266.791 355.005 266.931 356.625 266.931 358.505C268.671 360.145 266.931 358.665 273.451 364.265C274.611 357.165 270.731 353.385 268.511 354.285Z" fill="#295562"/>
<path d="M267.311 336.766C267.328 335.845 266.987 334.953 266.361 334.278C265.734 333.603 264.871 333.197 263.951 333.146C263.125 333.174 262.339 333.509 261.747 334.086C261.156 334.663 260.8 335.44 260.751 336.266C260.69 338.6 260.932 340.933 261.471 343.206C261.589 343.893 261.97 344.508 262.534 344.919C263.098 345.329 263.8 345.504 264.491 345.405C268.171 345.045 267.331 340.746 267.311 336.766Z" fill="#295562"/>
<path d="M319.371 327.385C321.991 326.785 320.851 323.385 320.651 320.345C320.111 318.745 319.691 318.185 320.471 317.865C320.472 317.316 320.391 316.771 320.231 316.245C319.371 318.245 318.371 320.525 319.131 321.925C320.431 324.445 315.751 323.405 317.131 318.805C317.583 317.339 318.158 315.914 318.851 314.545C314.571 312.885 314.511 321.225 315.471 325.385C315.799 326.111 316.364 326.703 317.072 327.066C317.78 327.43 318.591 327.542 319.371 327.385Z" fill="#295562"/>
<path d="M228.531 321.585C227.771 317.585 222.771 317.905 222.271 320.565C221.271 325.685 223.771 332.385 226.991 329.425C227.682 328.723 228.19 327.861 228.469 326.915C228.748 325.97 228.79 324.971 228.591 324.005C228.638 323.198 228.618 322.389 228.531 321.585Z" fill="#295562"/>
<path d="M234.191 316.185C236.531 316.825 238.871 317.505 241.171 318.185C241.036 317.249 240.849 316.321 240.611 315.405C240.46 314.595 240.007 313.873 239.342 313.385C238.678 312.898 237.853 312.682 237.035 312.781C236.217 312.88 235.467 313.288 234.939 313.92C234.411 314.553 234.143 315.363 234.191 316.185Z" fill="#295562"/>
<path d="M241.111 320.005C238.851 319.305 236.571 318.605 234.291 318.005C235.271 325.445 240.631 324.105 241.111 320.005Z" fill="#295562"/>
<path d="M284.031 355.485C285.311 355.065 285.891 353.965 286.031 352.225C285.311 350.385 284.631 348.225 283.591 346.085C283.249 345.553 282.739 345.15 282.142 344.941C281.544 344.732 280.894 344.728 280.295 344.93C279.695 345.132 279.18 345.529 278.832 346.057C278.483 346.585 278.321 347.215 278.371 347.845C278.871 351.645 280.391 356.725 284.031 355.485Z" fill="#295562"/>
<path d="M265.371 314.945C264.789 314.68 264.25 314.329 263.771 313.905C263.167 313.972 262.59 314.19 262.094 314.54C261.597 314.89 261.197 315.359 260.931 315.905L266.931 320.825C267.091 318.745 266.541 316.672 265.371 314.945Z" fill="#295562"/>
<path d="M266.731 321.825C264.284 320.676 262.17 318.92 260.591 316.725C260.316 317.68 260.255 318.684 260.411 319.665C260.332 320.376 260.332 321.094 260.411 321.805C260.408 322.643 260.739 323.448 261.33 324.043C261.92 324.637 262.723 324.973 263.561 324.975C264.399 324.978 265.204 324.648 265.798 324.057C266.393 323.466 266.728 322.663 266.731 321.825Z" fill="#295562"/>
<path d="M305.351 318.425C306.154 318.291 306.882 317.871 307.4 317.242C307.918 316.614 308.192 315.82 308.171 315.005C307.931 310.445 307.591 306.865 304.551 307.225C301.511 307.585 302.071 310.045 302.071 312.465C302.071 313.385 302.071 314.285 302.071 315.185C302.12 316.036 302.482 316.838 303.088 317.436C303.694 318.035 304.5 318.387 305.351 318.425Z" fill="#295562"/>
<path d="M282.331 369.025C281.931 369.073 281.553 369.234 281.242 369.489C280.93 369.744 280.697 370.083 280.571 370.465C281.251 371.085 282.771 372.025 281.951 372.865C281.131 373.705 280.751 372.865 280.251 372.345C280.141 373.683 280.222 375.03 280.491 376.345C282.454 376.947 284.46 377.402 286.491 377.705C286.591 377.405 286.671 377.065 286.751 376.725C286.111 373.605 285.491 368.625 282.331 369.025Z" fill="#295562"/>
<path d="M223.211 311.525C222.651 308.145 222.711 304.905 219.331 305.365C215.951 305.825 216.871 310.185 217.911 313.785C218.571 316.185 223.131 316.425 223.211 311.525Z" fill="#295562"/>
<path d="M293.651 316.505C294.179 319.791 295.4 322.927 297.231 325.705C301.971 329.485 301.611 329.465 302.091 326.525C302.631 323.005 304.171 325.585 293.651 316.505Z" fill="#295562"/>
<path d="M282.771 319.025C282.64 318.413 282.282 317.872 281.769 317.513C281.256 317.153 280.626 317.001 280.005 317.087C279.384 317.173 278.819 317.491 278.423 317.977C278.027 318.463 277.83 319.08 277.871 319.705C277.828 320.701 277.875 321.698 278.011 322.685C279.671 322.845 281.351 323.065 282.991 323.365C283.489 321.946 283.41 320.387 282.771 319.025Z" fill="#295562"/>
<path d="M233.851 34.8454C236.17 34.8405 238.394 33.9267 240.047 32.3002C241.7 30.6736 242.649 28.4639 242.691 26.1454C242.597 24.0216 241.677 22.0186 240.126 20.5648C238.575 19.1109 236.516 18.3215 234.391 18.3654C223.851 18.4854 222.451 34.8454 233.851 34.8454ZM235.111 21.6054C236.35 21.731 237.496 22.3201 238.319 23.2547C239.143 24.1892 239.583 25.4003 239.551 26.6454C239.493 28.1442 238.875 29.5669 237.82 30.633C236.765 31.6992 235.349 32.3315 233.851 32.4054C232.602 32.3647 231.416 31.8462 230.538 30.9568C229.659 30.0674 229.156 28.875 229.131 27.6254C229.19 26.0477 229.844 24.5508 230.96 23.4345C232.076 22.3181 233.573 21.6648 235.151 21.6054H235.111Z" fill="#295562"/>
<path d="M346.891 344.705C346.832 344.179 346.654 343.673 346.37 343.226C346.085 342.779 345.703 342.402 345.251 342.125C341.771 340.765 342.251 338.125 340.471 332.225C335.191 314.405 323.731 298.225 324.791 297.025C327.211 294.065 327.491 290.045 329.631 287.025C329.933 286.446 330.123 285.815 330.191 285.165C334.011 266.225 324.191 264.545 329.231 244.005C333.431 226.845 335.691 208.845 319.331 200.745C307.651 194.945 305.331 195.685 307.551 193.445C317.311 183.185 317.931 182.125 314.551 177.905C313.071 176.385 311.491 176.825 309.691 177.585C304.911 179.585 304.551 182.545 299.951 180.665C295.351 178.785 293.311 175.685 296.391 169.505C299.771 162.705 286.511 165.245 288.291 152.725C290.071 140.205 310.171 122.145 307.851 120.405C306.871 119.685 306.711 121.865 298.251 131.325C296.711 133.065 296.711 133.045 295.411 131.025C292.251 126.045 291.411 119.885 290.971 113.605C296.791 115.765 305.651 118.325 311.111 117.605C311.591 117.605 312.291 117.605 312.211 116.825C312.131 116.045 311.511 116.385 311.111 116.385C296.411 116.385 277.391 106.385 271.291 98.1654C265.771 90.6854 269.291 103.505 288.891 112.705C289.491 112.985 290.211 112.965 290.071 114.065C289.391 119.865 290.971 129.125 295.851 133.505C296.771 134.325 288.531 141.665 286.531 151.205C283.971 163.205 294.671 165.205 295.251 166.925C295.571 167.865 294.351 169.165 293.491 171.985C293.141 172.929 292.987 173.934 293.038 174.94C293.089 175.945 293.344 176.929 293.787 177.833C294.231 178.737 294.853 179.541 295.617 180.196C296.381 180.852 297.27 181.345 298.231 181.645C299.752 182.113 301.323 182.401 302.911 182.505C299.291 186.634 296.207 191.204 293.731 196.105C289.091 182.225 293.131 169.045 284.871 170.245C282.731 170.565 282.351 172.105 282.131 173.905C281.531 178.745 281.711 177.905 282.951 197.565C275.431 197.365 268.511 198.885 269.211 206.845C269.911 214.805 275.051 219.545 271.211 219.745C267.691 219.925 256.291 221.125 255.991 217.965C255.114 208.198 255.248 198.366 256.391 188.625C256.439 188.307 256.573 188.006 256.777 187.757C256.981 187.507 257.248 187.316 257.551 187.205C258.251 186.785 258.351 187.625 258.691 187.905C259.631 188.685 260.151 189.685 260.851 189.265C261.551 188.845 259.491 185.025 258.491 183.145C255.371 177.265 251.931 177.925 243.671 174.465C240.661 173.425 237.925 171.716 235.671 169.465C228.951 162.025 226.751 153.705 230.991 144.205C233.551 138.505 230.191 139.205 232.311 126.925C232.311 126.565 232.951 125.085 231.951 125.085C230.291 124.705 229.471 132.305 229.411 134.145C228.431 133.625 228.331 132.705 228.111 131.965C225.751 124.585 227.731 117.785 231.011 111.205C231.266 110.523 231.726 109.936 232.327 109.524C232.929 109.112 233.642 108.896 234.371 108.905C234.691 108.905 235.131 108.785 234.891 108.385C234.351 107.445 235.171 106.905 235.491 106.385C247.071 84.8054 284.091 76.9654 300.791 91.3054C305.859 95.406 310.147 100.385 313.451 106.005C309.771 103.645 308.751 101.405 308.111 102.005C307.99 102.165 307.937 102.366 307.963 102.564C307.989 102.763 308.093 102.943 308.251 103.065C309.291 104.105 311.211 106.085 313.051 107.585C313.27 107.761 313.538 107.865 313.818 107.884C314.097 107.903 314.377 107.837 314.618 107.693C314.859 107.55 315.051 107.337 315.167 107.081C315.284 106.826 315.32 106.542 315.271 106.265C315.106 104.982 314.669 103.748 313.991 102.645C302.551 85.2254 288.551 80.7654 268.931 83.2054C255.631 84.8854 237.491 94.2254 233.431 107.045C233.011 108.345 230.651 107.385 228.231 112.445C225.171 118.865 223.011 129.285 227.991 134.805C232.611 139.905 227.151 143.105 227.451 153.905C227.831 168.125 236.431 175.305 249.991 179.125C252.567 179.863 254.772 181.54 256.171 183.825C257.311 185.545 256.871 186.125 255.231 186.845C235.011 195.545 226.931 180.405 217.891 190.605C216.711 191.945 217.891 189.245 211.351 185.905C203.111 181.785 202.951 175.485 192.531 174.845C192.111 174.845 191.591 174.845 191.531 174.225C191.917 172.373 192.884 170.691 194.291 169.425C217.551 157.425 214.951 136.005 220.751 129.425C222.19 127.797 223.287 125.895 223.974 123.833C224.661 121.771 224.926 119.592 224.751 117.425C224.673 116.896 224.73 116.356 224.919 115.855C225.109 115.355 225.422 114.911 225.831 114.565C226.951 113.708 227.777 112.524 228.196 111.177C228.615 109.831 228.607 108.387 228.171 107.045C227.551 105.045 229.891 98.1654 228.331 85.1454C228.087 82.0522 227.065 79.0709 225.358 76.4795C223.651 73.8882 221.317 71.771 218.571 70.3254C214.13 67.759 209.33 65.8714 204.331 64.7254C198.331 63.5054 200.471 62.0254 194.831 59.8054C182.711 55.0254 161.391 56.3254 159.111 68.0454C156.831 68.2454 156.851 66.9254 156.131 60.6454C155.951 59.0854 154.851 59.3254 154.371 60.0454C149.491 67.4854 149.951 76.7454 149.751 76.6454C146.551 74.0054 144.971 68.0054 142.991 72.2054C141.371 75.6854 141.871 81.3254 142.691 84.7454C140.623 82.9383 139.181 80.5228 138.571 77.8454C138.411 77.2654 138.691 76.3654 137.751 76.3454C136.811 76.3254 136.771 77.3254 136.671 77.9454C136.018 81.3919 135.743 84.8993 135.851 88.4054C136.048 91.3936 137.135 94.2545 138.97 96.6208C140.805 98.9872 143.306 100.751 146.151 101.685C147.371 102.005 148.651 102.105 150.151 102.345C147.861 106.709 146.223 111.386 145.291 116.225C141.991 114.005 140.451 114.225 137.931 117.305C135.411 120.385 135.691 123.465 135.931 126.765C135.97 128.858 136.555 130.904 137.628 132.7C138.702 134.496 140.227 135.98 142.051 137.005C144.991 138.605 139.371 147.905 153.291 159.965C157.787 163.488 162.525 166.689 167.471 169.545C176.131 175.105 181.651 173.125 191.071 171.025C189.931 173.825 185.671 183.145 186.931 183.645C187.771 183.985 188.051 182.965 188.311 182.365C190.831 176.545 190.491 175.885 191.351 176.145C193.503 176.562 195.598 177.234 197.591 178.145C190.931 179.005 182.271 204.145 168.891 191.705C161.051 184.076 155.349 174.526 152.351 164.005C152.131 163.225 151.731 161.865 150.551 161.725C149.481 161.542 148.386 161.573 147.328 161.816C146.271 162.06 145.272 162.512 144.391 163.145C139.131 167.145 129.951 162.065 124.771 157.985C116.971 151.845 111.851 148.545 103.951 149.985C101.651 150.425 99.4911 150.745 98.9911 153.985C96.9911 148.625 91.8111 133.545 85.871 135.565C63.871 143.045 71.5111 138.865 44.7311 123.565C44.4111 123.385 44.0111 123.245 44.0311 122.745C45.2492 121.264 46.974 120.288 48.8711 120.005C74.1311 128.225 75.5511 128.485 77.5111 121.325C79.0711 115.645 102.271 22.1854 102.191 13.1054C102.191 10.2054 100.371 7.36542 98.191 7.10542C93.191 6.30542 88.191 5.30542 83.191 4.82542C49.851 1.58542 45.9711 -0.674582 43.6711 5.84542C41.2311 12.7254 43.6711 10.0054 33.7711 43.6454C31.7711 50.7054 30.8111 43.9254 7.55106 65.2854C2.23106 70.1854 -0.768946 75.6254 0.171054 83.2854C3.13105 106.785 6.01105 108.565 3.71106 114.505C3.27214 115.519 3.11119 116.632 3.24477 117.728C3.37834 118.825 3.80161 119.867 4.47106 120.745C27.1311 153.025 32.5911 168.345 53.4111 186.165C59.2711 191.205 55.4111 197.785 61.4111 204.625C69.5511 213.805 68.1711 219.245 74.9311 218.325C77.1477 217.81 79.4434 217.728 81.691 218.085C87.2055 219.426 92.3508 221.982 96.7511 225.565C100.891 229.165 100.311 229.985 100.371 233.745C100.811 265.745 96.511 266.625 95.371 287.925C94.151 310.865 99.871 316.965 98.951 321.345C98.1311 325.225 103.591 327.845 102.791 329.225C100.631 332.945 100.131 337.225 99.231 341.225C97.051 350.905 102.531 347.365 101.691 354.925C101.451 356.925 101.331 366.345 103.691 365.685C104.651 365.425 104.071 364.505 104.011 363.865C103.537 360.259 103.363 356.62 103.491 352.985C109.048 354.757 114.372 357.188 119.351 360.225C132.151 369.145 147.191 361.565 152.531 360.225C164.531 357.485 176.371 354.565 188.151 350.765C187.591 354.485 185.691 373.745 188.651 375.045C189.046 375.135 189.456 375.135 189.851 375.045C188.131 369.465 189.171 358.705 189.491 352.745C189.491 351.425 189.271 349.885 190.431 348.745C190.587 348.573 190.673 348.348 190.673 348.115C190.673 347.883 190.587 347.658 190.431 347.485C187.771 344.805 196.671 292.705 204.651 271.745C209.191 259.745 207.171 261.745 207.671 251.965C209.111 224.745 209.431 218.565 211.271 211.725C216.971 190.545 220.791 186.405 231.771 189.885C232.391 190.065 232.191 189.885 232.991 194.285C235.471 207.665 235.911 200.985 232.991 208.665C231.331 213.165 231.631 213.985 230.671 216.165C228.071 222.165 203.751 232.645 214.671 251.445C226.411 271.805 222.671 261.285 223.091 273.745C223.211 278.445 221.451 282.985 221.851 287.745C221.851 288.605 218.871 290.525 218.111 292.305C215.229 298.674 213.011 305.322 211.491 312.145C210.331 317.925 218.491 316.685 216.451 318.785C214.725 320.177 213.354 321.96 212.451 323.985C212.061 324.706 211.968 325.551 212.192 326.34C212.416 327.128 212.94 327.798 213.651 328.205C214.351 328.725 215.651 328.905 215.171 330.385C214.871 331.345 215.391 332.385 214.851 333.405C212.859 337.551 211.206 341.852 209.911 346.265C208.705 350.655 208.901 355.312 210.471 359.585C212.471 356.185 209.851 353.325 211.591 347.785C217.871 327.785 213.411 338.085 222.951 335.145C216.951 352.805 217.591 375.145 220.151 374.765C220.911 374.765 220.651 373.565 220.651 372.885C220.791 365.765 218.651 362.125 221.951 360.645C228.83 357.361 234.994 352.754 240.091 347.085C240.771 346.325 243.391 343.665 244.511 342.225C247.813 344.042 251.522 344.992 255.291 344.985C256.291 344.985 256.291 345.665 256.371 346.225C256.566 348.396 257.262 350.492 258.404 352.349C259.545 354.205 261.102 355.772 262.951 356.925C265.771 358.745 260.651 366.325 262.331 369.765C262.382 369.865 262.465 369.945 262.566 369.992C262.668 370.039 262.782 370.051 262.891 370.025C263.004 369.999 263.105 369.935 263.177 369.844C263.25 369.754 263.29 369.641 263.291 369.525C263.291 365.785 265.491 362.625 265.151 358.665C282.111 372.665 280.911 373.925 282.071 372.665C283.231 371.405 279.131 369.905 267.071 358.285C264.111 355.445 259.071 354.285 258.111 348.425C257.011 341.745 258.111 335.105 258.691 328.425C258.691 327.745 258.691 326.725 259.751 326.545C261.211 326.305 262.451 332.945 267.311 328.445C269.031 326.865 271.191 325.325 272.831 326.985C281.391 335.765 285.411 338.985 288.831 345.985C291.814 351.364 294.112 357.096 295.671 363.045C295.811 363.725 296.191 363.885 296.791 363.505C297.451 362.185 295.331 360.885 302.111 356.645C304.951 354.645 305.091 353.965 302.911 351.245C300.471 348.185 298.911 344.625 296.331 341.425C299.378 341.122 302.286 340.002 304.751 338.185C310.471 354.485 311.611 360.645 315.451 361.985C319.291 363.325 322.571 367.285 327.191 367.685C329.205 368.991 331.453 369.894 333.811 370.345C346.111 372.645 345.491 374.065 349.331 373.245C350.02 373.152 350.651 372.81 351.104 372.283C351.558 371.756 351.802 371.081 351.791 370.385C351.851 358.685 349.571 357.085 346.891 344.705ZM224.671 79.8254C227.701 87.2477 228.399 95.4168 226.671 103.245C225.451 109.465 227.391 109.245 224.251 113.585C224.022 108.847 222.5 104.261 219.851 100.325C218.851 98.8054 222.071 86.7254 217.851 72.7854C220.765 74.4135 223.136 76.8615 224.671 79.8254ZM215.851 71.5654C217.451 72.6054 217.411 75.0054 217.851 76.8654C219.235 83.862 219.445 91.0401 218.471 98.1054C206.591 81.6654 210.471 87.3054 209.551 82.6854C208.483 76.8478 206.267 71.2802 203.031 66.3054C207.568 67.33 211.902 69.108 215.851 71.5654ZM162.211 65.4654C168.211 57.8654 181.591 57.3454 191.391 60.6654C200.711 63.8254 205.271 73.7454 207.231 83.4254C204.064 81.14 200.407 79.6264 196.551 79.0054C168.551 75.9854 169.231 80.8854 166.951 78.4654C165.191 76.6254 163.391 74.8654 161.731 72.9454C161.026 71.8026 160.694 70.4689 160.78 69.129C160.866 67.789 161.366 66.5088 162.211 65.4654ZM142.671 116.925C146.871 119.465 142.431 121.225 142.671 136.005C133.391 128.105 139.091 114.765 142.671 116.925ZM176.671 170.925C174.614 170.582 172.656 169.797 170.931 168.625C160.931 163.205 153.531 159.065 147.191 151.325C140.851 143.585 146.911 116.245 149.471 106.525C149.891 104.965 151.251 103.725 150.851 101.825C150.611 100.585 149.491 101.325 146.051 100.125C143.525 99.0738 141.356 97.3168 139.802 95.0646C138.249 92.8123 137.377 90.1601 137.291 87.4254C137.262 85.4091 137.463 83.396 137.891 81.4254C138.991 83.4254 142.191 88.6054 144.191 87.5454C146.191 86.4854 143.051 82.6854 143.511 76.6854C143.609 75.3856 143.912 74.1097 144.411 72.9054C146.851 75.8654 148.411 79.6854 153.151 79.9454C150.771 78.8854 151.151 76.8454 151.331 74.9854C151.682 70.7353 152.85 66.5929 154.771 62.7854C155.811 67.7454 155.571 68.0854 158.151 71.2454C162.151 76.2654 165.691 84.4854 177.731 85.2454C179.541 85.6593 181.425 85.6112 183.211 85.1054C178.971 83.1054 174.091 83.3654 169.751 80.8254C173.551 79.4454 190.171 79.7854 196.671 81.0254C206.831 83.0254 207.171 88.2054 217.011 100.525C221.132 106.1 223.163 112.945 222.751 119.865C222.439 122.832 221.447 125.686 219.851 128.205C220.711 124.205 219.271 120.445 219.691 116.605C219.691 116.045 219.691 115.265 218.931 115.325C218.171 115.385 218.571 116.165 218.491 116.605C217.431 123.205 221.311 119.225 212.791 145.145C211.792 148.279 210.61 151.351 209.251 154.345C202.151 161.445 194.451 172.145 176.711 170.945L176.671 170.925ZM145.991 164.925C146.511 164.725 149.671 162.145 150.731 165.705C153.971 176.485 162.891 193.385 172.231 196.425C181.571 199.465 188.231 190.245 197.311 179.325C198.551 177.845 199.051 178.785 201.751 181.325C193.751 187.925 177.331 215.785 163.751 199.065C153.491 186.505 150.471 175.285 147.751 170.685C145.471 166.805 143.391 166.005 146.031 165.005L145.991 164.925ZM35.5511 44.8654C48.6911 5.06542 41.8511 2.96542 52.3911 3.56542C67.4053 4.57606 82.3538 6.39873 97.1711 9.02542C101.591 9.78542 100.091 17.0254 99.1711 21.3854C92.371 56.7454 90.3111 52.3654 82.411 90.4254C80.411 100.145 78.0311 109.785 75.5111 119.405C74.5111 123.405 72.6911 124.285 68.7111 123.265C51.8511 118.885 48.3311 118.445 47.1511 117.045C43.1511 112.405 42.8711 107.185 38.4711 105.045C29.7511 101.045 31.1911 101.645 32.0311 101.685C41.8711 102.265 45.7111 107.125 57.0911 108.165C59.8511 108.405 60.2711 106.565 61.0911 104.725C63.5111 98.4854 63.4911 97.9854 57.7111 94.4054C42.6311 85.0854 41.2311 84.6254 38.4911 84.6654C38.2911 84.6654 27.3711 84.8254 27.5711 84.6654C34.8311 77.7054 33.9711 78.5054 65.1511 75.6454C67.3536 75.507 69.5204 75.021 71.5711 74.2054C72.0496 74.089 72.4989 73.8751 72.891 73.5771C73.283 73.2791 73.6094 72.9035 73.8497 72.4736C74.09 72.0437 74.239 71.5689 74.2874 71.0788C74.3358 70.5888 74.2826 70.094 74.1311 69.6254C72.6111 61.0854 70.1311 59.6254 62.5111 59.6254C47.4111 59.4854 42.2111 61.1854 39.3111 60.7454C46.8911 55.1854 52.5511 60.5054 60.7311 58.3054C62.6111 57.8054 64.951 57.5854 65.731 55.6854C66.8511 52.9854 68.4511 47.5054 66.0111 45.8654C59.4855 42.2516 51.926 40.9611 44.5711 42.2054C41.4341 43.1075 38.3716 44.2509 35.4111 45.6254C35.3711 45.4054 35.4711 45.1454 35.5511 44.8654ZM27.0711 150.585C17.6911 135.025 20.5511 141.565 5.87106 119.085C5.48337 118.565 5.23262 117.955 5.14177 117.312C5.05092 116.669 5.12288 116.013 5.35105 115.405C8.17105 107.645 3.35106 103.905 1.89106 80.8654C1.83231 78.8405 2.1789 76.8243 2.91047 74.9353C3.64203 73.0463 4.74381 71.3226 6.15105 69.8654C19.1111 54.9254 32.6911 49.3054 38.5911 45.8654C46.1511 41.3654 55.7911 43.6454 64.0711 46.7854C64.7074 46.9407 65.2759 47.2987 65.691 47.8054C66.951 49.8054 64.8511 55.5254 62.5911 56.2454C53.6711 59.0654 44.5911 53.3854 35.9311 61.1054C35.1823 61.7421 34.2339 62.0959 33.2511 62.1054C29.834 62.4932 26.4764 63.2923 23.2511 64.4854C22.6511 64.6454 22.0311 64.8654 22.2111 65.6254C22.5911 67.4454 26.0911 63.9254 42.2111 62.6654C49.6479 61.9389 57.1197 61.6317 64.591 61.7454C65.7457 61.8189 66.872 62.1341 67.8971 62.6706C68.9221 63.2072 69.8231 63.9531 70.5414 64.86C71.2598 65.767 71.7797 66.8147 72.0673 67.9354C72.3549 69.056 72.4039 70.2246 72.2111 71.3654C71.7911 73.6454 64.771 74.3454 61.5511 74.6854C45.7711 76.3054 34.4311 74.9054 30.2511 79.9854C26.4711 84.6054 21.7911 85.1854 22.2511 86.4854C22.4311 87.0654 23.0111 87.1254 23.5511 87.0654C28.2711 86.4654 33.0311 87.0654 37.7711 86.4454C39.6577 86.2355 41.5576 86.7034 43.1311 87.7654C64.4111 100.985 61.6311 96.4054 58.9311 104.965C58.1911 107.325 57.9911 107.445 55.4911 106.965C44.5111 104.725 47.4911 102.625 29.4911 99.2854C28.2911 99.0654 27.2911 100.065 26.0711 99.7054C25.8111 99.7054 25.6511 99.9654 25.6511 100.225C25.6511 100.825 26.1311 100.925 26.5111 101.145C35.6711 106.485 39.6111 105.305 41.3311 110.385C43.7111 117.425 48.0511 118.625 44.6511 120.145C42.1511 121.245 41.2511 124.585 38.6511 121.565C31.8511 113.805 31.8511 113.325 30.2111 114.625C28.2872 115.469 26.2745 116.092 24.2111 116.485C21.3511 117.385 20.6511 118.645 24.4911 118.245C26.9111 117.965 29.0711 116.765 30.6711 116.665C31.3511 116.665 31.7911 116.425 32.2711 117.045C33.8511 119.045 38.4511 124.805 41.0111 124.325C43.5711 123.845 54.831 134.325 66.051 140.325C86.051 151.125 84.051 149.625 83.6711 153.445C81.3911 172.405 79.7911 183.445 75.1711 198.345C70.3511 193.325 66.0911 194.725 59.3311 188.745C46.6881 177.751 35.808 164.882 27.0711 150.585ZM96.771 222.965C89.7111 217.685 84.1711 217.725 81.3111 215.525C80.451 214.865 80.0111 216.445 79.1511 215.525C88.4111 209.525 92.3311 205.245 93.1511 205.705C93.5311 205.905 93.931 206.725 94.691 207.365C94.8125 207.468 94.9646 207.528 95.1235 207.535C95.2825 207.542 95.4393 207.496 95.5695 207.405C95.6997 207.314 95.796 207.182 95.8433 207.03C95.8906 206.878 95.8863 206.715 95.8311 206.565C95.5511 205.785 95.2311 205.005 95.1111 204.565C94.6111 202.905 93.9911 201.905 92.411 203.125C76.191 215.545 73.951 218.805 70.2111 213.925C60.8711 201.705 60.2111 200.965 58.0311 190.265C62.6711 193.245 67.6511 195.125 72.0311 198.125C72.4997 198.382 72.9963 198.583 73.5111 198.725C74.4511 199.045 74.731 199.545 74.691 200.145C74.691 201.185 73.711 202.565 73.691 203.885C73.6932 204.001 73.7308 204.112 73.7988 204.206C73.8668 204.299 73.9619 204.368 74.0711 204.405C74.1836 204.435 74.3028 204.428 74.4109 204.385C74.519 204.342 74.6103 204.265 74.6711 204.165C77.3111 199.685 82.3511 180.165 84.231 165.085C85.151 157.805 85.911 153.505 86.051 150.745C86.1711 148.445 86.411 146.745 85.411 145.605C83.3775 144.025 81.1698 142.683 78.8311 141.605C77.6311 140.925 76.951 142.005 78.1311 142.805C80.143 143.921 82.0566 145.206 83.8511 146.645C84.411 147.345 84.0111 148.125 83.8511 149.085C80.0215 145.965 75.8557 143.282 71.4311 141.085C79.1111 140.385 85.9911 136.125 88.1711 137.525C94.4311 141.525 102.451 169.245 102.991 169.965C106.751 173.725 101.331 179.465 101.091 188.785C101.042 189.318 101.042 189.853 101.091 190.385C101.271 190.905 102.131 191.145 102.251 190.265C103.311 182.685 106.831 174.265 105.431 172.465C103.271 169.645 103.251 166.085 102.151 162.885C100.371 157.705 99.8311 156.225 100.151 156.185C100.471 156.145 103.111 159.745 110.151 166.385C110.246 166.467 110.366 166.512 110.491 166.512C110.616 166.512 110.737 166.467 110.831 166.385C110.932 166.313 111.004 166.206 111.034 166.085C111.063 165.964 111.048 165.836 110.991 165.725C110.792 165.398 110.572 165.084 110.331 164.785C109.951 164.245 107.991 161.705 106.151 159.705C98.5511 151.445 97.6311 153.045 108.791 152.125C112.791 151.785 120.951 156.845 123.791 159.025C127.448 161.708 131.409 163.951 135.591 165.705C137.701 166.611 140.023 166.902 142.291 166.545C145.191 166.185 148.811 176.765 152.171 182.885C152.371 183.265 152.391 183.485 152.011 183.965C123.391 219.585 125.291 218.505 110.991 233.445C109.911 234.565 104.231 234.785 102.651 232.025C101.331 230.005 102.031 226.905 96.771 222.965ZM210.191 208.365C206.391 223.865 204.891 253.485 205.611 258.365C206.331 263.245 203.891 268.025 201.931 273.345C195.211 291.625 193.631 307.845 191.931 313.725C188.471 326.005 188.571 340.585 187.771 344.605C187.411 346.445 189.171 346.945 186.951 348.605C183.611 351.085 148.451 361.105 133.931 361.965C122.871 362.625 121.071 356.105 104.431 351.965C103.223 351.398 102.203 350.494 101.494 349.363C100.784 348.232 100.416 346.921 100.431 345.585C101.124 340.715 102.119 335.892 103.411 331.145C103.891 329.305 103.411 328.865 116.371 343.625C117.551 344.965 118.091 345.785 118.931 345.105C120.931 343.585 106.791 329.845 101.871 324.085C101.009 323.209 100.466 322.068 100.331 320.845C100.031 316.505 98.2111 312.465 97.7111 308.145C94.451 279.645 102.471 274.245 102.471 233.785C103.969 235.102 105.927 235.772 107.917 235.648C109.908 235.525 111.768 234.617 113.091 233.125C123.671 222.025 146.871 193.325 152.731 184.825C158.151 192.625 166.611 213.505 181.811 202.625C193.671 194.145 194.111 188.925 196.031 191.225C211.091 209.265 210.751 206.005 210.191 208.365ZM214.991 195.185C209.551 206.085 212.111 206.905 209.851 204.625C206.231 200.985 201.851 196.125 196.411 190.105C195.671 189.305 195.831 189.685 201.851 182.725C202.291 182.205 202.611 181.945 203.051 182.525C205.651 185.905 209.931 187.325 213.431 189.625C216.931 191.925 216.651 191.845 214.991 195.185ZM340.191 339.185C337.251 339.185 336.971 339.005 336.191 336.065C333.211 323.525 322.691 303.365 321.531 301.285C320.371 299.205 322.631 299.545 323.211 298.585C329.451 312.005 337.671 324.445 340.191 339.185ZM324.191 293.885C317.971 305.605 302.191 301.665 298.191 295.705C296.011 292.425 291.671 281.705 290.591 269.705C289.451 256.785 287.751 257.705 289.791 257.305C294.391 256.225 296.891 258.425 299.571 259.305C307.911 262.225 306.791 254.385 308.951 250.845C311.851 246.065 312.011 264.565 320.471 273.325C324.711 277.705 324.351 282.405 325.171 289.145C325.366 290.78 325.052 292.436 324.271 293.885H324.191ZM310.191 198.645C313.259 199.88 316.251 201.295 319.151 202.885C339.411 213.125 326.591 242.165 325.531 250.445C323.391 267.205 331.251 268.445 327.531 285.725C327.531 286.025 327.111 287.065 327.051 287.245C325.511 285.245 328.051 278.665 322.351 273.025C315.471 266.245 315.311 258.025 311.631 250.645C310.611 248.645 312.251 249.065 315.031 247.545C318.771 245.545 319.571 242.285 317.031 238.805C314.771 235.665 321.831 233.165 314.711 230.165C309.691 228.045 310.191 233.825 311.871 217.705C312.131 215.145 318.071 208.125 309.551 206.185C308.668 205.972 307.741 206.027 306.889 206.345C306.037 206.662 305.3 207.226 304.771 207.965C302.423 210.256 300.53 212.971 299.191 215.965C294.951 225.045 287.451 213.605 299.191 205.365C300.184 204.503 301.456 204.028 302.771 204.028C304.087 204.028 305.358 204.503 306.351 205.365C306.991 203.245 306.011 202.565 301.451 201.965C301.451 201.965 301.451 201.825 301.451 201.785C302.551 200.105 303.251 197.785 304.791 196.845C306.331 195.905 308.611 198.005 310.371 198.645H310.191ZM302.291 223.305C296.731 219.825 304.671 212.865 306.771 209.145C307.811 207.325 309.331 207.645 310.651 207.905C312.811 208.365 312.771 211.905 311.951 213.085C311.131 214.265 304.611 224.645 302.471 223.305H302.291ZM276.591 199.305C279.551 198.605 282.591 198.065 285.451 199.785C292.731 204.145 273.291 206.005 279.191 207.785C286.831 209.965 285.391 218.425 286.391 218.465C287.051 218.465 287.031 217.645 287.131 217.085C287.476 215.101 287.175 213.058 286.271 211.257C285.367 209.457 283.909 207.994 282.111 207.085C283.52 206.495 284.896 205.828 286.231 205.085C289.471 203.085 289.531 200.285 286.131 198.865C283.811 197.905 283.751 196.585 284.131 194.685C284.991 189.665 283.091 187.725 283.691 175.025C283.691 173.945 283.251 172.205 285.331 172.105C288.671 171.925 288.191 173.965 289.851 187.905C290.111 189.905 291.171 198.125 293.231 198.485C295.291 198.845 297.571 191.225 302.871 185.205C305.151 182.605 311.311 176.965 313.451 179.705C314.271 180.785 314.691 181.705 313.871 182.885C313.271 183.665 312.011 185.265 311.411 185.905C297.771 200.485 301.671 200.365 297.691 203.905C287.571 212.925 291.031 222.485 298.291 219.905C298.332 220.23 298.399 220.551 298.491 220.865C302.231 229.885 306.351 222.685 309.731 219.825C308.851 235.965 303.951 233.825 305.251 235.465C305.771 236.125 307.251 234.965 307.651 234.665C310.071 232.665 309.351 229.645 312.051 231.025C312.331 231.165 312.671 231.225 312.971 231.345C316.971 232.685 316.971 232.685 315.211 236.325C313.971 238.945 320.831 243.605 312.971 246.325C302.271 250.185 308.671 260.025 300.351 257.425C296.351 256.145 295.011 254.745 291.251 255.985C290.482 256.326 289.649 256.497 288.808 256.486C287.967 256.475 287.139 256.282 286.379 255.921C285.619 255.561 284.947 255.04 284.407 254.395C283.867 253.75 283.473 252.997 283.251 252.185C282.997 251.176 282.424 250.277 281.616 249.621C280.809 248.965 279.811 248.587 278.771 248.545C276.451 248.325 274.291 247.285 275.011 245.045C275.411 244.122 275.506 243.094 275.283 242.113C275.06 241.131 274.531 240.246 273.771 239.585C272.851 238.765 273.071 237.585 274.191 237.025C283.611 231.405 285.191 238.825 292.671 238.365C290.171 235.345 281.791 235.685 277.691 225.205C272.371 211.485 266.611 201.825 276.771 199.405L276.591 199.305ZM256.991 220.765C268.531 223.845 272.451 219.685 273.791 221.525C274.451 222.405 273.431 222.565 273.151 223.005C271.685 225.445 270.048 227.778 268.251 229.985C260.431 238.385 258.671 232.225 256.251 221.365C256.311 220.865 256.511 220.685 257.171 220.865L256.991 220.765ZM264.151 246.025C264.151 247.305 263.531 247.685 262.591 247.705C261.651 247.725 260.251 248.525 259.611 246.845C258.971 245.165 259.611 239.545 260.071 236.645C260.251 235.705 260.531 235.725 261.331 235.885C266.411 236.945 263.851 236.505 264.331 246.125L264.151 246.025ZM255.011 188.745C253.773 198.574 253.652 208.51 254.651 218.365C243.331 215.165 246.451 204.625 249.771 193.045C250.891 189.885 252.151 190.165 255.191 188.845L255.011 188.745ZM241.911 192.045C252.451 192.285 247.911 186.245 245.331 203.345C242.871 219.505 254.251 216.685 255.171 221.865C255.671 225.75 256.856 229.515 258.671 232.985C259.471 234.345 259.251 234.045 258.971 235.165C258.031 239.165 256.751 243.165 257.751 247.165C258.611 250.565 261.031 249.845 264.731 249.285C267.271 248.905 265.511 246.485 266.351 238.525C266.491 237.185 267.351 235.805 266.151 234.525C265.771 234.085 266.491 233.785 266.871 233.485C279.271 221.085 270.871 220.685 277.791 229.965C278.737 231.214 279.824 232.348 281.031 233.345C276.431 233.545 269.031 236.425 273.291 240.905C276.031 243.725 269.551 248.485 277.291 250.245C283.291 251.605 280.831 256.025 284.811 256.665C289.751 257.485 286.231 270.785 292.671 288.245C296.831 299.505 300.671 301.085 308.251 303.225C301.131 303.925 295.231 306.665 289.151 308.805C286.371 309.785 288.871 307.745 287.511 306.685C284.751 304.505 282.771 301.485 279.891 299.425C277.671 297.845 277.671 297.865 276.231 300.165C258.231 278.745 255.591 261.405 249.311 232.605C240.951 193.065 239.551 192.005 242.091 192.145L241.911 192.045ZM293.911 324.245C294.426 325.715 294.475 327.307 294.051 328.805C293.511 329.965 292.771 331.025 291.331 330.925C288.331 330.725 291.571 322.305 286.171 316.245C284.851 314.245 284.031 314.125 286.731 310.065C290.431 314.072 292.975 319.007 294.091 324.345L293.911 324.245ZM293.471 316.405C304.471 325.925 302.931 322.725 302.171 329.265C296.551 327.285 295.011 322.445 293.651 316.505L293.471 316.405ZM282.551 315.845C276.691 311.365 276.791 311.345 275.791 310.985C274.051 310.365 275.471 308.705 275.671 307.565C276.272 305.466 277.027 303.414 277.931 301.425C278.271 300.425 278.631 300.565 279.231 301.105C283.531 304.965 285.671 307.205 285.751 307.705C285.831 308.205 283.991 311.625 282.731 316.005L282.551 315.845ZM234.951 191.005C239.211 191.865 239.531 191.865 239.571 193.005C239.911 202.365 243.171 211.005 245.571 220.025C247.971 229.045 249.471 238.165 251.411 247.245C256.491 271.005 256.531 276.505 272.431 297.685C274.171 300.005 277.431 301.965 273.971 305.845C262.531 294.965 253.191 283.845 245.971 244.525C244.611 237.245 242.311 230.205 240.671 223.005C232.751 188.785 233.471 190.705 234.951 191.005ZM223.851 336.525C224.403 335.676 225.218 335.03 226.171 334.687C227.125 334.344 228.164 334.322 229.131 334.625C232.352 336.655 235.692 338.492 239.131 340.125C233.931 346.125 228.471 351.705 220.411 354.345C220.866 348.293 222.02 342.313 223.851 336.525ZM220.131 360.345C220.131 357.285 219.791 354.965 222.891 354.725C228.932 352.004 234.243 347.892 238.391 342.725C240.011 340.725 241.331 340.945 243.291 341.865C238.171 346.385 231.851 354.765 220.171 360.345H220.131ZM255.051 344.005C249.871 343.345 251.391 343.705 230.631 333.805C239.751 331.125 248.491 329.345 257.351 327.325C254.851 342.005 257.251 344.305 255.051 344.005ZM223.051 334.005C221.931 334.245 220.771 334.385 219.631 334.665C218.031 335.065 217.331 334.265 217.071 332.865C216.885 332.107 216.818 331.324 216.871 330.545C217.271 327.525 210.691 328.705 214.731 322.545C216.351 320.105 220.571 318.065 217.071 316.545C211.891 314.425 212.531 314.385 213.831 309.125C217.131 295.765 220.891 291.125 221.831 289.565C222.351 291.657 222.672 293.793 222.791 295.945C223.091 298.165 224.591 300.765 225.911 300.845C228.111 300.845 221.791 297.725 224.331 278.625C226.331 263.185 221.371 261.885 217.091 253.665C211.491 242.845 212.251 236.185 219.991 228.185C227.731 220.185 232.471 222.185 233.471 213.585C233.858 211.231 234.672 208.968 235.871 206.905C246.191 248.705 243.031 234.645 246.791 255.285C252.791 287.525 261.491 297.125 272.031 306.645C273.891 308.325 272.971 310.025 273.211 311.705C273.211 312.185 272.751 312.265 272.431 311.905C271.909 310.677 271.17 309.553 270.251 308.585C268.631 307.385 264.751 309.665 264.551 309.805C261.031 312.465 261.971 306.345 253.531 309.945C252.411 310.425 252.951 311.325 253.271 312.105C254.998 316.485 256.954 320.771 259.131 324.945C230.871 330.945 236.431 331.025 222.951 334.005H223.051ZM266.411 327.645C264.671 329.365 263.971 329.265 262.591 327.245C259.351 322.505 257.391 317.105 254.751 312.085C254.331 311.325 254.751 311.225 255.311 311.045C256.105 310.672 256.983 310.509 257.858 310.572C258.734 310.635 259.578 310.922 260.311 311.405C264.951 314.745 265.311 315.405 266.511 315.025C265.831 312.185 261.451 312.445 268.191 310.405C270.411 309.745 272.691 314.125 272.511 316.685C272.451 319.642 273.009 322.578 274.151 325.305C270.671 324.005 268.451 325.525 266.311 327.605L266.411 327.645ZM273.271 314.445C273.051 313.345 274.271 312.645 275.371 313.205C281.171 316.065 283.111 319.765 284.691 316.125C286.262 318.219 287.342 320.638 287.851 323.205C288.391 325.645 286.811 323.465 277.951 322.685C274.611 322.405 275.071 323.665 273.171 314.405L273.271 314.445ZM301.491 353.305C302.451 354.885 301.391 355.085 296.551 358.445C295.911 356.885 295.311 355.405 294.731 353.905C286.471 332.525 274.591 331.265 276.451 326.445C276.671 325.865 276.311 325.065 276.191 324.065C276.618 324.167 277.029 324.329 277.411 324.545C295.851 341.105 295.951 344.285 301.391 353.265L301.491 353.305ZM296.071 340.005C295.531 340.205 295.091 340.345 294.611 339.705C281.431 321.845 271.991 323.805 287.251 325.965C288.811 326.185 288.131 328.645 288.651 330.245C290.111 334.805 295.531 333.345 296.371 326.925C298.771 328.625 300.791 330.745 303.191 332.365C304.171 333.005 303.911 334.865 304.031 336.185C304.111 337.025 304.431 336.785 296.071 340.005ZM289.511 310.385C297.031 307.985 311.711 301.765 318.411 304.385C318.411 303.305 317.411 303.165 316.731 302.565L319.931 301.025C319.931 306.665 322.391 307.245 320.131 311.845C318.922 314.071 317.899 316.392 317.071 318.785C315.751 323.365 320.451 324.425 319.071 321.905C317.591 319.065 322.851 312.785 322.871 308.505C327.291 317.945 331.991 327.245 334.631 337.785C326.031 333.785 325.731 334.145 326.151 332.465C326.991 329.145 324.911 325.945 321.531 318.665C321.371 318.325 321.071 317.505 320.411 317.845C319.751 318.185 319.991 318.665 320.591 320.325C321.191 321.985 325.371 331.265 324.311 332.325C323.591 333.005 322.571 331.785 321.671 331.425C316.723 329.444 311.986 326.971 307.531 324.045C306.908 323.671 306.234 323.388 305.531 323.205C304.351 322.905 305.071 323.825 304.951 324.205C299.851 319.785 294.531 315.325 289.511 310.385ZM313.511 358.265C309.031 351.305 305.951 336.265 305.151 328.005C305.151 327.045 304.511 325.545 305.991 325.525C306.599 325.574 307.171 325.835 307.606 326.263C308.041 326.691 308.312 327.258 308.371 327.865C309.311 334.465 308.671 337.425 315.011 352.625C316.031 355.065 316.131 356.845 313.511 358.265ZM322.431 363.785C320.344 362.465 318.173 361.282 315.931 360.245C315.211 359.845 314.091 359.725 314.971 358.705C315.851 357.685 316.371 356.185 318.011 357.345C319.131 357.905 320.311 360.445 320.771 361.345C320.771 361.545 320.951 361.805 321.611 361.725C321.422 360.368 320.912 359.075 320.122 357.955C319.332 356.835 318.286 355.919 317.071 355.285C316.931 355.065 311.971 340.685 311.271 337.445C310.491 333.825 309.991 329.685 309.731 328.365C317.331 334.945 317.731 352.645 324.191 364.925C324.591 365.725 324.391 365.285 322.431 363.785ZM340.691 370.545C334.471 369.305 332.411 369.445 329.411 367.165C322.471 361.865 318.271 338.545 313.531 330.645C317.531 331.805 341.531 342.165 341.851 342.365C342.775 342.948 343.556 343.73 344.138 344.654C344.719 345.578 345.086 346.621 345.211 347.705C346.751 357.445 349.211 357.805 349.211 369.985C349.311 372.965 343.671 371.125 340.691 370.545Z" fill="#333333"/>
<path d="M242.251 149.885C242.644 151.935 243.227 153.944 243.991 155.885C248.951 167.565 261.331 167.885 263.651 164.725C265.511 162.245 271.511 158.365 273.051 150.725C274.451 143.785 268.871 143.825 261.791 143.785C256.011 143.785 248.611 144.165 243.611 147.065C243.064 147.269 242.617 147.676 242.364 148.202C242.11 148.727 242.07 149.331 242.251 149.885ZM244.991 148.325C250.491 145.885 262.991 145.145 268.991 145.985C270.571 146.205 271.151 147.185 271.191 148.745C270.431 155.085 265.191 159.865 260.751 163.845C259.211 165.225 257.491 164.485 255.951 164.145C253.405 163.549 251.102 162.188 249.351 160.245C246.796 157.391 244.97 153.96 244.031 150.245C243.611 149.205 244.071 148.745 244.991 148.325Z" fill="#333333"/>
<path d="M319.851 119.145C319.551 120.085 320.991 119.145 322.931 121.425C331.251 131.125 326.491 147.965 319.331 156.985C323.551 156.105 325.851 148.705 326.571 147.565C328.004 150.046 329.228 152.642 330.231 155.325C332.771 162.805 329.751 170.585 318.571 174.545C329.371 177.385 339.591 160.365 328.251 147.665C325.771 144.885 329.671 142.225 329.011 133.105C328.111 121.565 320.431 117.205 319.851 119.145Z" fill="#333333"/>
<path d="M227.451 138.925C227.771 138.545 228.931 137.945 227.731 137.205C227.191 136.925 226.791 137.525 226.211 138.165C219.891 145.165 215.931 152.865 216.211 162.165C216.161 164.458 216.875 166.702 218.24 168.545C219.604 170.388 221.543 171.725 223.751 172.345C225.211 172.805 225.611 173.325 225.171 174.805C224.945 175.334 224.842 175.907 224.872 176.482C224.902 177.056 225.063 177.616 225.343 178.118C225.623 178.62 226.015 179.052 226.488 179.379C226.961 179.706 227.502 179.92 228.071 180.005C229.908 180.427 231.819 180.403 233.646 179.937C235.472 179.471 237.161 178.576 238.571 177.325C237.671 176.865 237.211 177.325 236.691 177.465C231.931 179.005 225.731 179.605 226.791 174.725C227.591 171.065 227.031 172.005 223.651 170.525C212.751 165.785 219.551 148.125 227.451 138.925Z" fill="#333333"/>
<path d="M296.651 363.745C293.987 367.938 291.563 372.278 289.391 376.745C288.111 379.485 281.991 376.166 264.071 372.326C263.691 372.326 263.971 370.765 263.071 371.865C260.931 374.545 267.071 374.046 278.611 377.986C280.632 378.675 282.697 379.23 284.791 379.646C287.711 380.186 290.171 380.486 291.671 377.105C296.291 366.725 300.791 362.885 299.831 362.125C299.705 362.02 299.546 361.962 299.381 361.962C299.216 361.962 299.057 362.02 298.931 362.125C298.13 362.606 297.368 363.147 296.651 363.745Z" fill="#333333"/>
<path d="M286.611 126.446C286.791 126.586 287.131 126.946 287.211 126.706C287.551 125.666 288.951 125.506 289.211 124.446C289.491 122.826 281.931 117.666 273.611 119.846C270.531 120.646 270.371 120.846 270.071 123.846C269.551 128.706 277.591 119.566 286.611 126.446Z" fill="#333333"/>
<path d="M234.531 124.245C237.874 120.764 241.861 117.966 246.271 116.005L244.271 115.845C252.509 111.437 260.145 105.985 266.991 99.6254C267.331 99.2854 268.291 99.0054 267.671 98.3454C267.051 97.6854 267.031 98.3454 263.331 101.145C245.951 114.565 234.631 118.165 232.911 120.065C234.911 120.625 236.291 119.405 237.971 119.105C234.271 123.185 234.271 123.185 234.531 124.245Z" fill="#333333"/>
<path d="M255.851 131.065C256.311 130.885 257.231 131.285 257.031 130.305C256.511 127.905 248.811 132.045 245.191 137.665C243.551 140.185 246.551 142.665 256.191 137.885C256.311 137.829 256.407 137.731 256.462 137.61C256.517 137.49 256.527 137.353 256.491 137.225C256.455 137.097 256.375 136.985 256.266 136.909C256.156 136.832 256.024 136.796 255.891 136.805C253.211 137.045 250.651 138.325 247.651 138.585C247.56 138.59 247.47 138.568 247.392 138.522C247.313 138.476 247.25 138.407 247.211 138.325C247.167 138.249 247.144 138.163 247.144 138.075C247.144 137.988 247.167 137.901 247.211 137.825C249.438 134.844 252.421 132.51 255.851 131.065Z" fill="#333333"/>
<path d="M301.251 107.845C289.731 102.925 290.711 100.145 289.691 100.865C286.691 102.985 307.411 114.005 312.911 112.705C312.671 111.585 310.111 111.625 301.251 107.845Z" fill="#333333"/>
<path d="M242.291 130.666C243.39 128.469 243.952 126.042 243.931 123.586C244.051 122.586 244.091 121.486 242.891 121.166C241.691 120.846 241.191 121.866 240.891 122.786C237.051 132.326 240.631 133.286 242.291 130.666Z" fill="#333333"/>
<path d="M315.851 114.005C315.691 112.285 316.551 111.405 318.371 111.245C320.851 111.025 322.931 114.345 315.291 115.945C314.851 115.945 314.111 115.745 314.171 116.585C314.311 118.725 323.951 116.585 322.171 111.845C320.391 107.105 311.411 112.005 315.851 114.005Z" fill="#333333"/>
<path d="M286.951 113.305C281.36 110.349 274.833 109.703 268.771 111.505C268.311 111.625 267.571 111.765 267.791 112.445C268.191 113.665 279.051 108.905 288.691 115.845C288.671 115.301 288.497 114.773 288.189 114.323C287.881 113.874 287.452 113.521 286.951 113.305Z" fill="#333333"/>
<path d="M247.711 105.685C247.251 104.965 246.511 105.685 245.991 105.865C243.071 107.305 235.331 111.485 234.391 114.665C242.211 109.025 248.571 107.025 247.711 105.685Z" fill="#333333"/>
<path d="M260.651 364.725C253.633 364.149 246.698 362.808 239.971 360.725C242.691 363.345 257.311 365.845 260.651 364.725Z" fill="#333333"/>
<path d="M260.911 360.385C256.651 360.045 252.631 358.605 248.411 358.245C252.326 360.018 256.63 360.755 260.911 360.385Z" fill="#333333"/>
<path d="M277.451 308.266C277.421 309.286 277.709 310.29 278.275 311.139C278.841 311.989 279.658 312.641 280.611 313.006C283.871 314.066 284.611 308.306 283.171 306.266C281.251 303.346 276.991 303.426 277.451 308.266ZM281.911 306.266C283.911 308.626 282.531 311.486 281.311 311.386C280.091 311.286 280.071 310.386 279.631 309.666C279.191 308.946 279.631 308.686 280.131 308.446C280.912 307.884 281.51 307.105 281.851 306.206L281.911 306.266Z" fill="#333333"/>
<path d="M116.631 332.585C116.151 332.265 115.511 331.805 115.091 332.445C114.091 333.925 129.891 343.946 142.191 346.146C142.651 346.146 143.211 346.345 143.371 345.805C143.851 344.165 131.091 342.165 116.631 332.585Z" fill="#333333"/>
<path d="M14.7911 81.4054C11.6711 74.1254 17.5711 73.1254 16.3911 72.0254C14.4911 70.2454 8.67107 78.0054 14.7911 81.4054Z" fill="#333333"/>
<path d="M193.631 136.005C186.871 132.665 178.191 130.105 161.471 133.085C160.891 133.205 160.051 133.085 160.091 133.865C160.251 136.665 159.951 139.485 161.551 142.085C166.011 149.365 172.911 152.085 180.871 151.845C187.811 151.685 192.191 146.945 195.491 141.325C197.271 138.265 196.811 137.545 193.631 136.005ZM193.631 140.425C192.238 142.876 190.325 144.993 188.028 146.627C185.73 148.261 183.104 149.373 180.331 149.885C172.911 151.265 163.091 144.525 161.811 137.225C161.411 134.945 161.691 134.425 163.911 134.365C174.751 134.065 181.651 132.365 192.871 137.825C194.271 138.525 194.351 139.145 193.591 140.405L193.631 140.425Z" fill="#333333"/>
<path d="M185.191 86.9254C187.851 100.005 208.711 113.245 213.311 108.305C210.151 107.95 207.078 107.043 204.231 105.625C184.511 94.5454 187.531 84.0654 185.251 84.7854C184.611 84.9854 185.051 86.2654 185.191 86.9254Z" fill="#333333"/>
<path d="M161.631 100.525C158.631 100.185 158.231 107.065 158.051 108.785C157.871 110.505 158.271 112.665 160.051 112.785C163.531 113.305 165.491 100.965 161.631 100.525Z" fill="#333333"/>
<path d="M176.291 115.385C177.931 115.565 177.111 113.165 174.991 113.685C167.131 115.585 162.571 123.005 168.731 123.685C171.331 123.985 171.531 122.545 173.831 124.765C177.091 127.905 181.351 124.766 180.571 123.446C180.231 122.866 179.771 123.326 179.391 123.446C174.051 125.965 175.671 120.905 170.851 121.785C168.851 121.785 167.091 122.085 167.851 120.205C168.797 118.811 170.049 117.652 171.512 116.817C172.975 115.981 174.61 115.492 176.291 115.385Z" fill="#333333"/>
<path d="M201.191 111.805C201.344 111.257 201.292 110.671 201.044 110.158C200.796 109.645 200.37 109.24 199.845 109.019C199.319 108.798 198.732 108.776 198.191 108.958C197.651 109.139 197.196 109.512 196.911 110.005C191.531 118.845 199.031 121.225 201.191 111.805Z" fill="#333333"/>
<path d="M162.711 90.7854C166.711 94.0054 174.391 93.7654 179.611 93.6654C179.993 93.678 180.373 93.6013 180.72 93.4416C181.067 93.282 181.372 93.0436 181.611 92.7454C180.231 92.4654 181.771 92.7454 177.171 92.4254C164.051 91.8254 163.031 88.4254 162.411 89.7854C162.333 89.9604 162.32 90.1576 162.375 90.3411C162.43 90.5246 162.55 90.6823 162.711 90.7854Z" fill="#333333"/>
<path d="M218.351 107.725C218.346 107.308 218.226 106.901 218.003 106.548C217.781 106.195 217.465 105.91 217.091 105.725C206.711 99.4454 206.591 99.4854 206.171 100.025C204.851 101.885 216.171 106.725 218.351 107.725Z" fill="#333333"/>
<path d="M161.511 97.5254C160.011 95.5254 149.511 95.0855 149.051 92.4455C148.791 91.2255 147.471 91.7255 147.731 92.9455C148.451 96.2855 158.311 97.1054 161.511 97.5254Z" fill="#333333"/>
<path d="M183.111 123.385C184.211 122.085 184.431 119.545 183.111 119.545C182.231 119.545 182.511 120.265 182.551 120.685C182.671 121.545 182.291 122.485 183.111 123.385Z" fill="#333333"/>
<path d="M104.391 215.725C104.324 215.807 104.288 215.91 104.288 216.015C104.288 216.121 104.324 216.224 104.391 216.306C104.439 216.402 104.52 216.477 104.619 216.518C104.719 216.558 104.83 216.561 104.931 216.526C109.791 214.926 120.651 199.585 126.011 177.805C126.099 177.483 126.166 177.156 126.211 176.826C126.236 176.662 126.198 176.495 126.105 176.358C126.013 176.221 125.872 176.124 125.711 176.085C125.555 176.049 125.391 176.07 125.248 176.143C125.105 176.216 124.993 176.338 124.931 176.485C122.291 183.105 116.931 205.405 104.391 215.725Z" fill="#333333"/>
<path d="M50.451 16.0054C55.011 16.8654 59.571 17.6654 64.131 18.4454C67.951 19.1254 70.131 17.2254 70.131 13.3854C70.131 8.4454 69.031 9.0454 52.471 5.8854C47.171 4.7854 43.511 14.6254 50.451 16.0054ZM55.571 7.5054C68.591 10.3854 69.331 9.7454 68.691 13.7054C67.931 18.4254 65.551 17.0854 53.171 15.2054C57.211 13.3454 57.851 11.0454 55.571 7.4254V7.5054ZM53.111 8.6654C54.991 8.6654 55.451 9.7254 55.671 10.8654C55.6691 11.5511 55.412 12.2114 54.9499 12.718C54.4877 13.2245 53.8536 13.5408 53.171 13.6054C52.5053 13.6134 51.8637 13.3565 51.3874 12.8915C50.911 12.4264 50.639 11.7911 50.631 11.1254C50.623 10.4597 50.8799 9.81812 51.3449 9.34178C51.81 8.86544 52.4453 8.59336 53.111 8.5854V8.6654ZM54.651 7.2454C53.6538 7.25352 52.6852 7.57998 51.8865 8.1772C51.0878 8.77442 50.5008 9.61115 50.211 10.5654C50.0425 11.3257 50.1091 12.1192 50.402 12.8407C50.6949 13.5623 51.2002 14.1777 51.851 14.6054C51.0054 14.7716 50.1283 14.6182 49.3893 14.1748C48.6504 13.7315 48.1023 13.0297 47.851 12.2054C47.7827 11.1728 48.0217 10.1432 48.5378 9.24624C49.0539 8.3493 49.824 7.62526 50.751 7.1654C52.0319 6.85017 53.3701 6.85017 54.651 7.1654V7.2454Z" fill="#333333"/>
<path d="M252.271 312.825C241.231 307.485 230.411 304.705 219.671 298.825C219.574 298.733 219.445 298.681 219.311 298.681C219.177 298.681 219.048 298.733 218.951 298.825C219.371 301.945 246.471 311.365 251.511 313.985C252.591 314.645 253.491 313.405 252.271 312.825Z" fill="#333333"/>
<path d="M225.551 314.006C225.071 313.886 224.191 313.146 223.911 314.006C223.631 314.866 224.431 314.726 241.111 319.866C249.111 322.306 249.391 322.986 251.251 322.006C242.941 318.574 234.34 315.897 225.551 314.006Z" fill="#333333"/>
<path d="M247.851 278.965C239.631 274.025 238.491 272.245 231.131 264.965C232.731 269.565 243.371 278.405 247.851 278.965Z" fill="#333333"/>
<path d="M289.551 241.805C288.531 240.905 287.711 237.145 286.391 238.085C285.431 238.765 286.991 245.805 293.211 242.585C299.431 239.365 300.571 245.625 303.051 241.765C306.251 236.765 312.251 241.885 310.411 234.245C308.811 234.825 309.791 236.905 307.691 237.005C301.691 237.325 301.891 241.765 300.471 241.005C294.911 238.445 291.651 243.665 289.551 241.805Z" fill="#333333"/>
<path d="M259.591 314.845C260.571 318.065 266.191 322.545 268.271 322.065C267.851 321.665 260.051 315.205 259.591 314.845Z" fill="#333333"/>
<path d="M60.791 14.8454C61.4706 14.8476 62.126 14.5936 62.6265 14.1339C63.1269 13.6742 63.4357 13.0427 63.491 12.3654C63.4504 11.6649 63.1444 11.0062 62.6355 10.5232C62.1265 10.0403 61.4527 9.76929 60.751 9.76538C56.271 9.78538 57.151 14.8854 60.791 14.8454ZM61.571 12.3654C61.5865 12.4785 61.5763 12.5936 61.5411 12.7022C61.506 12.8109 61.4468 12.9102 61.3681 12.9928C61.2893 13.0754 61.1929 13.1392 61.0861 13.1795C60.9793 13.2198 60.8647 13.2354 60.751 13.2254C57.211 13.1854 61.251 9.20538 61.571 12.3654Z" fill="#333333"/>
</svg>
