<svg width="215" height="194" viewBox="0 0 215 194" fill="none" xmlns="http://www.w3.org/2000/svg">
<path d="M142.595 92.8601C141.441 93.5474 140.239 94.1515 138.999 94.6679C127.955 99.3695 112.851 98.522 101.648 95.7199C98.105 113.035 108.584 184.784 108.584 184.784C118.23 187.233 124.602 184.621 124.602 184.621L122.648 114.976C123.632 130.18 129.842 175.512 129.842 175.512C136.874 180.419 144.226 175.024 144.226 175.024C146.768 146.832 142.797 95.4532 142.595 92.8601Z" fill="#333333"/>
<path d="M36.8112 172.869C36.5364 173.066 36.1975 173.152 35.8621 173.11C35.9604 175.935 36.6169 179.752 38.0937 182.058C38.5886 182.831 39.6756 184.236 38.6507 185.044L38.6225 185.065C38.5981 184.3 38.3635 183.557 37.9445 182.918C37.9123 182.863 37.8697 182.816 37.8191 182.778C37.7686 182.74 37.711 182.712 37.6497 182.696C37.5884 182.681 37.5247 182.677 37.462 182.686C37.3994 182.695 37.3391 182.716 37.2847 182.748C37.2302 182.78 37.1826 182.823 37.1446 182.874C37.1067 182.924 37.079 182.982 37.0633 183.043C37.0475 183.104 37.044 183.168 37.0529 183.231C37.0618 183.293 37.083 183.354 37.1152 183.408C37.5302 183.992 37.7277 184.703 37.6734 185.417C37.4584 185.436 37.2421 185.436 37.0271 185.417C37.0152 184.537 36.8833 183.663 36.635 182.818C36.5972 182.7 36.5149 182.601 36.4054 182.542C36.2959 182.483 36.1678 182.468 36.048 182.502C35.9283 182.535 35.8262 182.614 35.7633 182.721C35.7004 182.829 35.6815 182.956 35.7107 183.077C35.9188 183.763 36.0399 184.473 36.0712 185.189C32.4735 183.875 31.7255 179.087 31.0476 175.231C30.5446 172.318 30.21 169.378 30.0454 166.427C29.7368 166.552 29.4219 166.66 29.1019 166.752C29.338 170.697 30.2905 179.731 32.3515 183.152C35.3265 188.062 40.5399 186.709 39.9795 183.709C39.5919 181.596 36.9977 180.615 36.8112 172.869ZM23.6455 192.377L23.9506 190.199C23.9848 190.076 23.9689 189.946 23.9065 189.835C23.8441 189.724 23.7403 189.643 23.6179 189.609C23.4955 189.574 23.3645 189.59 23.2538 189.653C23.143 189.715 23.0617 189.819 23.0275 189.941L22.6614 192.528C21.9434 192.62 21.2186 192.65 20.4954 192.616C20.2298 190.402 21.6095 189.82 20.8422 189.358C20.7319 189.296 20.6015 189.278 20.4786 189.31C20.3557 189.341 20.2499 189.42 20.1835 189.528C19.6781 190.43 19.4556 191.463 19.5451 192.494C18.8646 192.382 18.2032 192.175 17.5802 191.879C17.5938 191.826 17.596 191.861 17.6107 191.818C18.2423 189.796 19.7903 187.732 22.1303 187.814C24.3269 187.893 26.0104 189.711 27.3697 191.41C26.1466 191.799 24.9034 192.122 23.6455 192.377Z" fill="#333333"/>
<mask id="path-3-inside-1_395_2894" fill="white">
<path d="M35.1499 128.753C37.2414 124.537 41.8424 114.995 43.0909 110.244C43.3252 108.914 43.2898 107.55 42.9868 106.233C42.6838 104.917 42.1194 103.675 41.3271 102.581C37.1182 104.115 34.5906 103.172 33.2528 102.201C25.079 109.847 23.4463 106.524 19.1493 110.159C19.2377 110.117 19.3282 110.079 19.4204 110.046C20.0114 109.842 20.2622 110.773 19.6792 110.969C18.5816 111.406 17.5976 112.086 16.8013 112.958C16.035 114.19 15.4569 115.529 15.0861 116.932C14.606 118.708 14.3801 120.542 14.4149 122.381C14.4217 122.594 14.6262 123.722 14.8127 124.769C17.6454 123.926 19.1628 120.527 20.147 117.757C20.5786 116.667 20.7865 115.501 20.7583 114.329C20.7176 113.711 21.6803 113.718 21.7153 114.329C21.861 116.797 19.5187 124.56 14.9709 125.732L15.2364 127.234C13.0252 129.244 11.2788 131.712 10.119 134.466C5.03444 129.85 2.05487 117.013 7.8513 106.258C7.90448 106.157 7.9205 106.041 7.89655 105.93C7.87259 105.819 7.8102 105.719 7.72033 105.65C7.63047 105.58 7.51889 105.544 7.40521 105.548C7.29153 105.553 7.18303 105.597 7.09878 105.673C2.88309 108.95 0.96225 114.261 0.296733 119.392C-0.846734 128.146 1.19388 137.382 8.53038 141.958C8.41063 145.555 8.76431 149.152 9.58232 152.656C9.16087 162.147 14.4093 171.734 13.7765 181.027C13.7359 181.785 13.7347 181.803 13.0636 182.127C12.2184 182.539 11.5044 183.178 11.0013 183.973C10.4981 184.768 10.2255 185.687 10.2139 186.627C10.4399 188.191 14.007 188.48 15.494 187.951C19.4882 186.528 19.9007 181.297 20.208 177.069C19.9729 176.072 19.7156 175.081 19.4363 174.095C19.3716 175.289 19.2962 176.482 19.2103 177.675C18.9402 181.154 18.5685 185.792 15.2556 187C15.2556 185.27 16.3075 184.839 15.6013 184.455C15.4906 184.395 15.3611 184.378 15.2388 184.41C15.1165 184.441 15.0107 184.517 14.9426 184.624C14.4182 185.382 14.2024 186.311 14.3392 187.222C13.8452 187.293 13.3428 187.279 12.8534 187.182C12.8221 187.149 12.7877 187.12 12.7506 187.094C12.7757 186.211 13.0616 185.356 13.572 184.636C13.6368 184.526 13.6552 184.395 13.6233 184.272C13.5914 184.148 13.5118 184.043 13.402 183.978C13.2922 183.913 13.1611 183.895 13.0377 183.927C12.9142 183.958 12.8085 184.038 12.7438 184.148C12.1757 184.96 11.8444 185.914 11.7868 186.904C11.1472 186.69 11.1393 186.534 11.2162 186.103C11.3242 185.488 11.564 184.904 11.9192 184.391C12.2744 183.878 12.7365 183.447 13.2737 183.13C14.2432 182.565 14.6488 182.578 14.7596 181.175C15.372 172.927 11.3054 164.359 10.6478 156.014C11.7595 159.169 13.717 161.958 16.3064 164.076C15.8544 162.775 15.4115 161.568 15.0635 160.793C14.8115 160.237 15.6398 159.748 15.8917 160.311C16.8454 162.337 18.8996 168.899 19.5368 171.068C21.5514 178.009 22.6497 181.562 21.3006 186.944C23.9412 186.622 25.8654 188.272 27.5795 190.256C28.2938 180.264 28.3527 170.236 27.7558 160.236C27.7162 159.622 28.6778 159.626 28.7196 160.236C28.8145 161.743 28.9636 165.469 28.9772 165.822C29.6994 165.613 30.3892 165.305 31.0269 164.907C31.0616 164.886 31.0999 164.872 31.1399 164.865C29.9625 160.545 29.5105 152.494 33.7059 150.924C34.3132 150.67 34.9837 150.609 35.627 150.749C36.2702 150.888 36.855 151.222 37.3024 151.705C37.6899 152.179 37.012 152.866 36.6244 152.383C36.1872 151.934 35.595 151.67 34.9691 151.643C34.3432 151.617 33.7309 151.83 33.2573 152.24C32.1579 153.325 31.5148 154.789 31.4596 156.332C30.907 160.759 31.7693 165.247 33.9228 169.154C34.4745 170.154 35.1103 171.105 35.8233 171.997C36.2109 172.395 36.5804 171.983 37.038 171.415C36.0208 170.664 35.2657 169.611 34.8798 168.407C34.8455 168.285 34.8613 168.154 34.9236 168.043C34.9859 167.932 35.0896 167.851 35.212 167.816C35.3345 167.782 35.4655 167.798 35.5763 167.86C35.6871 167.922 35.7687 168.026 35.803 168.148C35.8504 168.284 35.8979 168.427 35.9521 168.563C36.3096 169.385 36.8732 170.1 37.5882 170.64C37.8733 170.208 38.1318 169.76 38.3622 169.296C37.4957 168.631 36.7987 167.771 36.3284 166.785C36.0301 166.147 36.9114 165.777 37.1566 166.296C37.5204 167.064 38.4764 168.361 38.7656 168.361C39.3664 166.931 39.4003 165.327 38.8605 163.873C38.3216 162.517 36.1657 159.627 37.1159 154.846C37.2289 154.243 38.1611 154.5 38.0391 155.104C37.9135 155.746 37.8488 156.398 37.8459 157.053C38.4398 155.685 38.8341 154.239 39.0164 152.759C39.3091 148.415 38.3103 137.528 35.3521 132.485L35.3375 132.512C35.3375 132.512 28.062 136 14.9008 132.16C14.9008 132.16 14.7392 129.213 15.7968 128.074C15.7923 128.059 25.7773 132.681 35.1499 128.753ZM38.1814 111.489C38.1814 111.489 37.4176 115.959 35.4561 115.959C33.4946 115.959 32.9477 110.621 32.9477 110.621C33.6987 111.15 34.5594 111.503 35.4656 111.653C36.3718 111.803 37.3002 111.746 38.1814 111.487V111.489ZM27.3931 108.98C27.6306 108.98 27.8627 109.05 28.0601 109.183C28.2574 109.315 28.4112 109.502 28.5019 109.722C28.5927 109.941 28.6163 110.183 28.5698 110.416C28.5233 110.649 28.4089 110.863 28.2408 111.03C28.0728 111.198 27.8588 111.313 27.6259 111.359C27.3929 111.405 27.1515 111.381 26.932 111.29C26.7126 111.199 26.5251 111.045 26.3932 110.848C26.2613 110.65 26.1909 110.418 26.1909 110.181C26.1906 110.023 26.2215 109.866 26.2818 109.72C26.3421 109.574 26.4307 109.442 26.5424 109.33C26.6541 109.219 26.7867 109.13 26.9327 109.07C27.0787 109.01 27.2352 108.979 27.3931 108.98ZM8.588 140.853C3.7294 137.558 0.0854403 130.797 1.13626 120.423C1.58822 115.944 2.94411 111.411 5.93498 108.077C1.32269 119.015 4.52033 130.873 9.74503 135.389C9.10174 137.146 8.71214 138.986 8.588 140.853ZM15.6737 133.855C13.0814 140.433 12.6128 147.657 14.3336 154.515C14.4827 155.112 13.5596 155.369 13.4105 154.773C11.6407 147.747 12.108 140.343 14.7471 133.596C14.972 133.031 15.894 133.285 15.6703 133.855H15.6737Z"/>
</mask>
<path d="M35.1499 128.753C37.2414 124.537 41.8424 114.995 43.0909 110.244C43.3252 108.914 43.2898 107.55 42.9868 106.233C42.6838 104.917 42.1194 103.675 41.3271 102.581C37.1182 104.115 34.5906 103.172 33.2528 102.201C25.079 109.847 23.4463 106.524 19.1493 110.159C19.2377 110.117 19.3282 110.079 19.4204 110.046C20.0114 109.842 20.2622 110.773 19.6792 110.969C18.5816 111.406 17.5976 112.086 16.8013 112.958C16.035 114.19 15.4569 115.529 15.0861 116.932C14.606 118.708 14.3801 120.542 14.4149 122.381C14.4217 122.594 14.6262 123.722 14.8127 124.769C17.6454 123.926 19.1628 120.527 20.147 117.757C20.5786 116.667 20.7865 115.501 20.7583 114.329C20.7176 113.711 21.6803 113.718 21.7153 114.329C21.861 116.797 19.5187 124.56 14.9709 125.732L15.2364 127.234C13.0252 129.244 11.2788 131.712 10.119 134.466C5.03444 129.85 2.05487 117.013 7.8513 106.258C7.90448 106.157 7.9205 106.041 7.89655 105.93C7.87259 105.819 7.8102 105.719 7.72033 105.65C7.63047 105.58 7.51889 105.544 7.40521 105.548C7.29153 105.553 7.18303 105.597 7.09878 105.673C2.88309 108.95 0.96225 114.261 0.296733 119.392C-0.846734 128.146 1.19388 137.382 8.53038 141.958C8.41063 145.555 8.76431 149.152 9.58232 152.656C9.16087 162.147 14.4093 171.734 13.7765 181.027C13.7359 181.785 13.7347 181.803 13.0636 182.127C12.2184 182.539 11.5044 183.178 11.0013 183.973C10.4981 184.768 10.2255 185.687 10.2139 186.627C10.4399 188.191 14.007 188.48 15.494 187.951C19.4882 186.528 19.9007 181.297 20.208 177.069C19.9729 176.072 19.7156 175.081 19.4363 174.095C19.3716 175.289 19.2962 176.482 19.2103 177.675C18.9402 181.154 18.5685 185.792 15.2556 187C15.2556 185.27 16.3075 184.839 15.6013 184.455C15.4906 184.395 15.3611 184.378 15.2388 184.41C15.1165 184.441 15.0107 184.517 14.9426 184.624C14.4182 185.382 14.2024 186.311 14.3392 187.222C13.8452 187.293 13.3428 187.279 12.8534 187.182C12.8221 187.149 12.7877 187.12 12.7506 187.094C12.7757 186.211 13.0616 185.356 13.572 184.636C13.6368 184.526 13.6552 184.395 13.6233 184.272C13.5914 184.148 13.5118 184.043 13.402 183.978C13.2922 183.913 13.1611 183.895 13.0377 183.927C12.9142 183.958 12.8085 184.038 12.7438 184.148C12.1757 184.96 11.8444 185.914 11.7868 186.904C11.1472 186.69 11.1393 186.534 11.2162 186.103C11.3242 185.488 11.564 184.904 11.9192 184.391C12.2744 183.878 12.7365 183.447 13.2737 183.13C14.2432 182.565 14.6488 182.578 14.7596 181.175C15.372 172.927 11.3054 164.359 10.6478 156.014C11.7595 159.169 13.717 161.958 16.3064 164.076C15.8544 162.775 15.4115 161.568 15.0635 160.793C14.8115 160.237 15.6398 159.748 15.8917 160.311C16.8454 162.337 18.8996 168.899 19.5368 171.068C21.5514 178.009 22.6497 181.562 21.3006 186.944C23.9412 186.622 25.8654 188.272 27.5795 190.256C28.2938 180.264 28.3527 170.236 27.7558 160.236C27.7162 159.622 28.6778 159.626 28.7196 160.236C28.8145 161.743 28.9636 165.469 28.9772 165.822C29.6994 165.613 30.3892 165.305 31.0269 164.907C31.0616 164.886 31.0999 164.872 31.1399 164.865C29.9625 160.545 29.5105 152.494 33.7059 150.924C34.3132 150.67 34.9837 150.609 35.627 150.749C36.2702 150.888 36.855 151.222 37.3024 151.705C37.6899 152.179 37.012 152.866 36.6244 152.383C36.1872 151.934 35.595 151.67 34.9691 151.643C34.3432 151.617 33.7309 151.83 33.2573 152.24C32.1579 153.325 31.5148 154.789 31.4596 156.332C30.907 160.759 31.7693 165.247 33.9228 169.154C34.4745 170.154 35.1103 171.105 35.8233 171.997C36.2109 172.395 36.5804 171.983 37.038 171.415C36.0208 170.664 35.2657 169.611 34.8798 168.407C34.8455 168.285 34.8613 168.154 34.9236 168.043C34.9859 167.932 35.0896 167.851 35.212 167.816C35.3345 167.782 35.4655 167.798 35.5763 167.86C35.6871 167.922 35.7687 168.026 35.803 168.148C35.8504 168.284 35.8979 168.427 35.9521 168.563C36.3096 169.385 36.8732 170.1 37.5882 170.64C37.8733 170.208 38.1318 169.76 38.3622 169.296C37.4957 168.631 36.7987 167.771 36.3284 166.785C36.0301 166.147 36.9114 165.777 37.1566 166.296C37.5204 167.064 38.4764 168.361 38.7656 168.361C39.3664 166.931 39.4003 165.327 38.8605 163.873C38.3216 162.517 36.1657 159.627 37.1159 154.846C37.2289 154.243 38.1611 154.5 38.0391 155.104C37.9135 155.746 37.8488 156.398 37.8459 157.053C38.4398 155.685 38.8341 154.239 39.0164 152.759C39.3091 148.415 38.3103 137.528 35.3521 132.485L35.3375 132.512C35.3375 132.512 28.062 136 14.9008 132.16C14.9008 132.16 14.7392 129.213 15.7968 128.074C15.7923 128.059 25.7773 132.681 35.1499 128.753ZM38.1814 111.489C38.1814 111.489 37.4176 115.959 35.4561 115.959C33.4946 115.959 32.9477 110.621 32.9477 110.621C33.6987 111.15 34.5594 111.503 35.4656 111.653C36.3718 111.803 37.3002 111.746 38.1814 111.487V111.489ZM27.3931 108.98C27.6306 108.98 27.8627 109.05 28.0601 109.183C28.2574 109.315 28.4112 109.502 28.5019 109.722C28.5927 109.941 28.6163 110.183 28.5698 110.416C28.5233 110.649 28.4089 110.863 28.2408 111.03C28.0728 111.198 27.8588 111.313 27.6259 111.359C27.3929 111.405 27.1515 111.381 26.932 111.29C26.7126 111.199 26.5251 111.045 26.3932 110.848C26.2613 110.65 26.1909 110.418 26.1909 110.181C26.1906 110.023 26.2215 109.866 26.2818 109.72C26.3421 109.574 26.4307 109.442 26.5424 109.33C26.6541 109.219 26.7867 109.13 26.9327 109.07C27.0787 109.01 27.2352 108.979 27.3931 108.98ZM8.588 140.853C3.7294 137.558 0.0854403 130.797 1.13626 120.423C1.58822 115.944 2.94411 111.411 5.93498 108.077C1.32269 119.015 4.52033 130.873 9.74503 135.389C9.10174 137.146 8.71214 138.986 8.588 140.853ZM15.6737 133.855C13.0814 140.433 12.6128 147.657 14.3336 154.515C14.4827 155.112 13.5596 155.369 13.4105 154.773C11.6407 147.747 12.108 140.343 14.7471 133.596C14.972 133.031 15.894 133.285 15.6703 133.855H15.6737Z" fill="#EAE5D9" stroke="black" stroke-width="2" mask="url(#path-3-inside-1_395_2894)"/>
<path d="M90.4326 85.3893C79.4486 87.9023 68.0443 87.951 57.0393 85.5316C53.2383 95.5019 45.3651 125.316 59.2178 178.568C59.2178 178.568 60.9352 182.003 72.2117 179.552L73.8207 106.698L74.8049 106.644L80.7934 179.933C85.1877 181.655 90.0471 181.78 94.524 180.286C94.524 180.286 103.777 112.505 90.4326 85.3893ZM58.7635 98.8645C57.5932 99.7733 56.1961 100.344 54.7241 100.514C54.6012 100.508 54.4853 100.455 54.4005 100.366C54.3156 100.277 54.2683 100.159 54.2683 100.036C54.2683 99.9127 54.3156 99.7943 54.4005 99.7053C54.4853 99.6162 54.6012 99.5631 54.7241 99.5572C55.3989 99.5293 56.0564 99.3352 56.6382 98.9922C58.2804 98.2645 59.6967 97.1086 60.7386 95.6454C61.9624 93.8303 62.4433 91.6149 62.0821 89.4558C61.9691 88.8513 62.9001 88.5971 63.0086 89.2016C63.3428 91.0518 63.1173 92.9597 62.3611 94.681C61.6049 96.4024 60.3523 97.8591 58.7635 98.8645ZM91.8789 99.9413C89.635 98.704 87.8577 96.7663 86.8185 94.4241C85.7792 92.0819 85.535 89.464 86.1231 86.97C86.2655 86.3666 87.1887 86.6242 87.0463 87.2276C86.4919 89.5171 86.7125 91.9258 87.6735 94.0765C88.6345 96.2273 90.2815 97.9986 92.3568 99.1131C92.9037 99.4046 92.4201 100.235 91.8789 99.9391V99.9413ZM35.0886 128.752C25.7171 132.685 15.731 128.059 15.731 128.059C14.6655 129.207 14.8349 132.146 14.8349 132.146C27.9961 135.988 35.2716 132.499 35.2716 132.499C35.6085 131.921 35.7793 131.262 35.7649 130.593C35.7505 129.925 35.5517 129.274 35.1903 128.711C35.1496 128.722 35.1225 128.736 35.0886 128.752Z" fill="#333333"/>
<path d="M187.275 104.261C173.428 111.674 156.88 106.616 153.392 105.408C153.189 114.015 152.727 145.257 156.074 169.406C156.753 169.717 157.461 169.959 158.188 170.129C161.62 170.992 165.252 170.499 168.331 168.754L170.617 120.694L172.415 121.508L171.765 179.378C171.765 179.378 178.633 181.99 184.843 179.051C186.725 158.752 188.375 125.25 187.275 104.261Z" fill="#333333"/>
<path d="M198.04 89.5458C197.857 89.1108 197.007 87.095 196.946 86.947C196.704 86.3821 195.47 86.8962 205.581 81.4026C206.103 82.6036 206.598 83.8251 207.05 85.0533C204.191 86.8244 201.175 88.3283 198.04 89.5458Z" fill="#219EBC"/>
<mask id="path-7-inside-2_395_2894" fill="white">
<path d="M191.294 58.3757C190.911 59.5305 189.899 61.3463 188.702 61.0977C187.532 60.8468 187.403 58.987 187.698 57.7305C187.147 59.1215 185.934 59.3599 185.309 58.8367C184.474 58.1215 184.839 56.0526 185.248 55.0086C184.934 55.6149 184.497 56.149 183.964 56.5769C183.693 56.784 183.365 56.9028 183.024 56.9173C182.683 56.9319 182.346 56.8414 182.058 56.6583C181.021 55.8481 181.466 53.4165 181.962 52.1929C181.364 52.4368 180.705 52.4889 180.076 52.342C179.866 52.2999 179.672 52.2009 179.514 52.0558C179.356 51.9107 179.241 51.7252 179.181 51.5193C179.122 51.3134 179.12 51.0951 179.176 50.8881C179.231 50.6811 179.343 50.4934 179.498 50.3455C177.587 49.612 175.591 49.1241 173.557 48.8935C173.61 48.9482 173.647 49.016 173.665 49.0899C173.683 49.1638 173.681 49.2411 173.659 49.3138C172.265 54.3634 165.427 56.83 163.644 49.9285C163.634 49.8817 163.632 49.8337 163.636 49.7862C161.88 50.5365 160.238 51.5316 158.761 52.742C155.024 55.082 149.982 58.5848 144.276 63.0513C144.285 64.3642 144.157 70.5358 144.019 76.5887L150.069 72.877C149.98 72.851 149.9 72.7995 149.839 72.7287C149.778 72.6579 149.74 72.5709 149.728 72.4784C149.716 72.3859 149.731 72.2919 149.771 72.208C149.812 72.124 149.876 72.0537 149.956 72.0058C151.324 71.3435 152.648 70.5955 153.921 69.7663C154.038 69.7286 154.164 69.7272 154.282 69.7623C154.4 69.7974 154.505 69.8673 154.582 69.9629C154.848 70.3358 154.511 73.6001 154.469 74.0148C154.467 74.1362 154.42 74.2524 154.336 74.3403C154.252 74.4282 154.139 74.4814 154.017 74.4893C153.695 84.1139 152.728 95.561 152.728 105.178C163.02 109.2 177.712 109.744 188.041 103.874L187.499 70.9618C187.499 70.9618 192.792 79.7649 195.955 86.0099C196.554 85.1478 205.267 80.4654 205.627 80.2847C203.123 74.6848 198.3 65.4207 191.294 58.3757Z"/>
</mask>
<path d="M191.294 58.3757C190.911 59.5305 189.899 61.3463 188.702 61.0977C187.532 60.8468 187.403 58.987 187.698 57.7305C187.147 59.1215 185.934 59.3599 185.309 58.8367C184.474 58.1215 184.839 56.0526 185.248 55.0086C184.934 55.6149 184.497 56.149 183.964 56.5769C183.693 56.784 183.365 56.9028 183.024 56.9173C182.683 56.9319 182.346 56.8414 182.058 56.6583C181.021 55.8481 181.466 53.4165 181.962 52.1929C181.364 52.4368 180.705 52.4889 180.076 52.342C179.866 52.2999 179.672 52.2009 179.514 52.0558C179.356 51.9107 179.241 51.7252 179.181 51.5193C179.122 51.3134 179.12 51.0951 179.176 50.8881C179.231 50.6811 179.343 50.4934 179.498 50.3455C177.587 49.612 175.591 49.1241 173.557 48.8935C173.61 48.9482 173.647 49.016 173.665 49.0899C173.683 49.1638 173.681 49.2411 173.659 49.3138C172.265 54.3634 165.427 56.83 163.644 49.9285C163.634 49.8817 163.632 49.8337 163.636 49.7862C161.88 50.5365 160.238 51.5316 158.761 52.742C155.024 55.082 149.982 58.5848 144.276 63.0513C144.285 64.3642 144.157 70.5358 144.019 76.5887L150.069 72.877C149.98 72.851 149.9 72.7995 149.839 72.7287C149.778 72.6579 149.74 72.5709 149.728 72.4784C149.716 72.3859 149.731 72.2919 149.771 72.208C149.812 72.124 149.876 72.0537 149.956 72.0058C151.324 71.3435 152.648 70.5955 153.921 69.7663C154.038 69.7286 154.164 69.7272 154.282 69.7623C154.4 69.7974 154.505 69.8673 154.582 69.9629C154.848 70.3358 154.511 73.6001 154.469 74.0148C154.467 74.1362 154.42 74.2524 154.336 74.3403C154.252 74.4282 154.139 74.4814 154.017 74.4893C153.695 84.1139 152.728 95.561 152.728 105.178C163.02 109.2 177.712 109.744 188.041 103.874L187.499 70.9618C187.499 70.9618 192.792 79.7649 195.955 86.0099C196.554 85.1478 205.267 80.4654 205.627 80.2847C203.123 74.6848 198.3 65.4207 191.294 58.3757Z" fill="#EAE5D9"/>
<path d="M188.702 61.0977L188.493 62.0755L188.499 62.0768L188.702 61.0977ZM187.698 57.7305L188.671 57.959L186.768 57.3627L187.698 57.7305ZM185.309 58.8367L184.658 59.5962L184.667 59.6035L185.309 58.8367ZM185.248 55.0086L186.179 55.3734L184.36 54.5485L185.248 55.0086ZM183.964 56.5769L184.571 57.3717L184.581 57.3641L184.591 57.3563L183.964 56.5769ZM182.058 56.6583L181.443 57.4464L181.481 57.476L181.521 57.5019L182.058 56.6583ZM181.962 52.1929L182.889 52.5685L183.78 50.3716L181.585 51.2669L181.962 52.1929ZM180.076 52.342L180.304 51.3682L180.289 51.3646L180.273 51.3615L180.076 52.342ZM179.498 50.3455L180.188 51.0689L181.331 49.9781L179.856 49.4119L179.498 50.3455ZM173.557 48.8935L173.67 47.8999L170.903 47.5863L172.838 49.5884L173.557 48.8935ZM173.659 49.3138L172.701 49.0246L172.698 49.0362L172.695 49.0479L173.659 49.3138ZM163.644 49.9285L162.665 50.133L162.67 50.156L162.676 50.1787L163.644 49.9285ZM163.636 49.7862L164.632 49.881L164.791 48.2053L163.243 48.8665L163.636 49.7862ZM158.761 52.742L159.291 53.5895L159.345 53.5558L159.394 53.5156L158.761 52.742ZM144.276 63.0513L143.66 62.2638L143.273 62.5668L143.276 63.0582L144.276 63.0513ZM144.019 76.5887L143.019 76.566L142.977 78.4008L144.542 77.4411L144.019 76.5887ZM150.069 72.877L150.592 73.7294L152.522 72.5458L150.348 71.9164L150.069 72.877ZM149.956 72.0058L149.521 71.1058L149.481 71.1252L149.443 71.148L149.956 72.0058ZM153.921 69.7663L153.615 68.8145L153.488 68.8554L153.376 68.9284L153.921 69.7663ZM154.582 69.9629L155.397 69.3829L155.379 69.3575L155.359 69.3333L154.582 69.9629ZM154.469 74.0148L153.474 73.9145L153.47 73.9563L153.469 73.9982L154.469 74.0148ZM154.017 74.4893L153.952 73.4915L153.048 73.5506L153.018 74.4559L154.017 74.4893ZM152.728 105.178H151.728V105.861L152.364 106.109L152.728 105.178ZM188.041 103.874L188.535 104.743L189.051 104.45L189.041 103.857L188.041 103.874ZM187.499 70.9618L188.356 70.4464L186.438 67.2566L186.499 70.9783L187.499 70.9618ZM195.955 86.0099L195.063 86.4617L195.82 87.957L196.776 86.5804L195.955 86.0099ZM205.627 80.2847L206.075 81.1785L206.93 80.7497L206.54 79.8765L205.627 80.2847ZM190.345 58.0609C190.179 58.5607 189.879 59.1899 189.52 59.641C189.117 60.1492 188.91 60.1195 188.906 60.1186L188.499 62.0768C189.691 62.3244 190.589 61.5112 191.086 60.8849C191.629 60.2016 192.026 59.3455 192.243 58.6906L190.345 58.0609ZM188.912 60.1199C188.907 60.1188 188.739 60.0938 188.628 59.5793C188.524 59.1001 188.55 58.4744 188.671 57.959L186.724 57.502C186.55 58.2432 186.494 59.1756 186.673 60.0031C186.845 60.7954 187.327 61.8257 188.493 62.0755L188.912 60.1199ZM186.768 57.3627C186.579 57.8389 186.325 58.0109 186.182 58.0645C186.023 58.1237 185.952 58.0711 185.951 58.07L184.667 59.6035C185.997 60.7169 187.921 59.8845 188.628 58.0984L186.768 57.3627ZM185.96 58.0772C185.96 58.0772 185.959 58.0767 185.958 58.0754C185.956 58.074 185.954 58.0718 185.952 58.0685C185.946 58.0617 185.938 58.0501 185.928 58.0318C185.908 57.994 185.883 57.9336 185.861 57.8438C185.815 57.6587 185.795 57.4055 185.811 57.0974C185.843 56.4776 186.01 55.8049 186.179 55.3734L184.317 54.6438C184.077 55.2563 183.857 56.1401 183.813 56.9945C183.791 57.4236 183.811 57.8869 183.919 58.3236C184.026 58.7571 184.239 59.2367 184.659 59.5962L185.96 58.0772ZM184.36 54.5485C184.11 55.0314 183.762 55.4568 183.338 55.7975L184.591 57.3563C185.232 56.8413 185.758 56.1984 186.136 55.4687L184.36 54.5485ZM183.358 55.7821C183.249 55.8649 183.118 55.9124 182.982 55.9182L183.067 57.9164C183.612 57.8931 184.137 57.703 184.571 57.3717L183.358 55.7821ZM182.982 55.9182C182.845 55.9241 182.71 55.8879 182.595 55.8146L181.521 57.5019C181.982 57.795 182.521 57.9397 183.067 57.9164L182.982 55.9182ZM182.674 55.8702C182.64 55.8434 182.563 55.7607 182.502 55.5329C182.441 55.3051 182.415 54.9986 182.434 54.6312C182.471 53.8926 182.678 53.0884 182.889 52.5685L181.036 51.8172C180.75 52.521 180.486 53.5444 180.437 54.5301C180.412 55.0248 180.438 55.5546 180.57 56.0488C180.702 56.5429 180.958 57.068 181.443 57.4464L182.674 55.8702ZM181.585 51.2669C181.178 51.4326 180.731 51.468 180.304 51.3682L179.849 53.3158C180.68 53.5098 181.55 53.441 182.34 53.1188L181.585 51.2669ZM180.273 51.3615C180.242 51.3553 180.214 51.3408 180.191 51.3196L178.837 52.792C179.13 53.0609 179.49 53.2444 179.88 53.3225L180.273 51.3615ZM180.191 51.3196C180.168 51.2983 180.151 51.2711 180.142 51.241L178.221 51.7976C178.331 52.1792 178.545 52.5231 178.837 52.792L180.191 51.3196ZM180.142 51.241C180.133 51.2108 180.133 51.1788 180.141 51.1485L178.21 50.6277C178.107 51.0113 178.11 51.416 178.221 51.7976L180.142 51.241ZM180.141 51.1485C180.149 51.1181 180.166 51.0906 180.188 51.0689L178.808 49.622C178.52 49.8963 178.313 50.2441 178.21 50.6277L180.141 51.1485ZM179.856 49.4119C177.866 48.6481 175.787 48.14 173.67 47.8999L173.444 49.8872C175.394 50.1082 177.308 50.5759 179.14 51.279L179.856 49.4119ZM172.838 49.5884C172.767 49.515 172.717 49.424 172.693 49.325L174.637 48.8547C174.577 48.6079 174.453 48.3814 174.276 48.1987L172.838 49.5884ZM172.693 49.325C172.669 49.226 172.672 49.1223 172.701 49.0246L174.616 49.6031C174.689 49.3599 174.697 49.1015 174.637 48.8547L172.693 49.325ZM172.695 49.0479C172.089 51.2426 170.308 52.8101 168.618 53.1191C167.799 53.2688 167.018 53.1255 166.351 52.6437C165.675 52.1551 165.017 51.2443 164.612 49.6784L162.676 50.1787C163.163 52.0634 164.028 53.4324 165.179 54.2646C166.34 55.1035 167.689 55.322 168.977 55.0865C171.5 54.6252 173.835 52.4346 174.623 49.5798L172.695 49.0479ZM164.623 49.724C164.634 49.7758 164.637 49.8287 164.632 49.881L162.641 49.6914C162.627 49.8388 162.635 49.9877 162.665 50.133L164.623 49.724ZM163.243 48.8665C161.4 49.6539 159.678 50.6982 158.127 51.9684L159.394 53.5156C160.799 52.365 162.359 51.419 164.029 50.7058L163.243 48.8665ZM158.23 51.8945C154.46 54.2556 149.389 57.7791 143.66 62.2638L144.893 63.8387C150.576 59.3904 155.589 55.9084 159.291 53.5895L158.23 51.8945ZM143.276 63.0582C143.285 64.3518 143.157 70.5013 143.019 76.566L145.019 76.6115C145.156 70.5703 145.286 64.3767 145.276 63.0444L143.276 63.0582ZM144.542 77.4411L150.592 73.7294L149.547 72.0246L143.496 75.7363L144.542 77.4411ZM150.348 71.9164C150.445 71.9446 150.532 72.0007 150.598 72.0776L149.08 73.3798C149.268 73.5983 149.515 73.7574 149.791 73.8375L150.348 71.9164ZM150.598 72.0776C150.664 72.1546 150.706 72.2491 150.719 72.3498L148.736 72.607C148.773 72.8927 148.893 73.1612 149.08 73.3798L150.598 72.0776ZM150.719 72.3498C150.732 72.4504 150.716 72.5526 150.671 72.6438L148.872 71.7721C148.746 72.0312 148.699 72.3214 148.736 72.607L150.719 72.3498ZM150.671 72.6438C150.627 72.7351 150.557 72.8115 150.47 72.8636L149.443 71.148C149.196 71.296 148.997 71.5129 148.872 71.7721L150.671 72.6438ZM150.392 72.9058C151.798 72.2252 153.159 71.4565 154.467 70.6043L153.376 68.9284C152.138 69.7346 150.85 70.4619 149.521 71.1058L150.392 72.9058ZM154.228 70.7182C154.153 70.7423 154.073 70.7432 153.997 70.7208L154.567 68.8038C154.256 68.7112 153.924 68.7149 153.615 68.8145L154.228 70.7182ZM153.997 70.7208C153.922 70.6984 153.855 70.6537 153.805 70.5926L155.359 69.3333C155.155 69.081 154.879 68.8964 154.567 68.8038L153.997 70.7208ZM153.768 70.543C153.684 70.4254 153.66 70.3282 153.66 70.328C153.656 70.3127 153.659 70.3181 153.664 70.3543C153.673 70.4261 153.68 70.5433 153.683 70.7091C153.687 71.0364 153.671 71.4631 153.643 71.9118C153.588 72.8043 153.495 73.7058 153.474 73.9145L155.464 74.1151C155.485 73.9091 155.582 72.9711 155.639 72.0345C155.668 71.5688 155.688 71.0835 155.682 70.681C155.68 70.4818 155.67 70.2796 155.647 70.0999C155.636 70.0103 155.619 69.907 155.59 69.8027C155.566 69.7135 155.514 69.5471 155.397 69.3829L153.768 70.543ZM153.469 73.9982C153.472 73.8686 153.522 73.7445 153.612 73.6506L155.06 75.03C155.317 74.7602 155.463 74.4038 155.469 74.0313L153.469 73.9982ZM153.612 73.6506C153.701 73.5568 153.823 73.4999 153.952 73.4915L154.083 75.4872C154.454 75.4629 154.803 75.2997 155.06 75.03L153.612 73.6506ZM153.018 74.4559C152.699 83.9887 151.728 95.5548 151.728 105.178H153.728C153.728 95.5673 154.692 84.2391 155.017 74.5228L153.018 74.4559ZM152.364 106.109C162.854 110.209 177.875 110.801 188.535 104.743L187.547 103.004C177.548 108.686 163.187 108.191 153.092 104.246L152.364 106.109ZM189.041 103.857L188.499 70.9453L186.499 70.9783L187.041 103.89L189.041 103.857ZM187.499 70.9618C186.642 71.4771 186.642 71.4771 186.642 71.4772C186.642 71.4772 186.642 71.4773 186.642 71.4774C186.642 71.4777 186.642 71.4781 186.643 71.4786C186.643 71.4796 186.644 71.4811 186.645 71.4832C186.648 71.4873 186.652 71.4936 186.657 71.5019C186.667 71.5185 186.682 71.5434 186.701 71.5761C186.74 71.6416 186.799 71.7388 186.874 71.8647C187.024 72.1165 187.242 72.4837 187.515 72.9438C188.059 73.8643 188.817 75.1566 189.675 76.6434C191.391 79.621 193.494 83.3641 195.063 86.4617L196.847 85.5581C195.253 82.4107 193.128 78.6297 191.407 75.6445C190.546 74.15 189.783 72.8512 189.236 71.9259C188.963 71.4632 188.743 71.0937 188.591 70.8398C188.515 70.7128 188.457 70.6147 188.417 70.5482C188.397 70.515 188.382 70.4896 188.371 70.4726C188.366 70.464 188.362 70.4576 188.36 70.4532C188.359 70.451 188.358 70.4493 188.357 70.4482C188.357 70.4477 188.356 70.4472 188.356 70.4469C188.356 70.4468 188.356 70.4467 188.356 70.4466C188.356 70.4465 188.356 70.4464 187.499 70.9618ZM196.776 86.5804C196.735 86.6402 196.719 86.6413 196.803 86.5697C196.871 86.5124 196.972 86.4354 197.108 86.3385C197.379 86.1452 197.75 85.9035 198.196 85.6266C199.085 85.0742 200.228 84.4102 201.373 83.762C202.516 83.1149 203.653 82.4885 204.527 82.0123C204.963 81.7743 205.334 81.5743 205.606 81.4283C205.742 81.3553 205.852 81.2961 205.934 81.2527C205.975 81.2309 206.008 81.2134 206.033 81.2003C206.046 81.1937 206.056 81.1885 206.064 81.1846C206.067 81.1826 206.07 81.1811 206.073 81.18C206.075 81.1788 206.076 81.1784 206.075 81.1785L205.179 79.3908C204.975 79.4931 202.688 80.7193 200.388 82.0215C199.235 82.6743 198.065 83.3538 197.141 83.9275C196.68 84.2136 196.269 84.4806 195.948 84.7091C195.788 84.8231 195.639 84.9352 195.513 85.0413C195.405 85.1332 195.25 85.2718 195.134 85.4394L196.776 86.5804ZM206.54 79.8765C204.018 74.2372 199.136 64.8432 192.003 57.6706L190.585 59.0808C197.464 65.9982 202.228 75.1324 204.714 80.6928L206.54 79.8765Z" fill="black" mask="url(#path-7-inside-2_395_2894)"/>
<path d="M91.6876 63.7876C91.6114 63.8633 91.5419 63.9332 91.4789 63.9979L90.091 62.6839L88.5737 61.2477L88.4067 63.3302C87.8527 70.2387 88.6966 75.7108 89.6878 79.4703C90.1832 81.3495 90.7153 82.8002 91.1276 83.7884C91.1842 83.9241 91.2385 84.051 91.2902 84.1691C78.2793 87.2754 64.5452 86.717 55.8605 84.2247C58.7332 77.8889 59.8239 70.881 59.0031 63.958L58.6483 60.9648L57.1436 63.5765L55.5747 66.2996C55.5686 66.2958 55.5626 66.2921 55.5567 66.2886C55.3559 66.1676 55.0181 66.0248 54.4838 65.8084C53.965 65.5982 53.1788 65.2874 51.9886 64.8169C50.7775 64.3382 49.1481 63.6941 46.9564 62.8223C48.4325 60.4955 50.0208 58.2417 51.7155 56.0689C51.9848 56.3051 52.2768 56.4874 52.5916 56.602C53.3431 56.8755 54.0906 56.7105 54.6517 56.2321C55.1263 55.8275 55.4224 55.2445 55.573 54.6246C56.2627 54.8265 56.9935 54.7094 57.581 54.2133C58.0121 53.8552 58.2253 53.3683 58.3307 52.9357C58.3749 52.7548 58.4038 52.5692 58.4209 52.3833C58.6643 52.4679 58.9201 52.5171 59.1806 52.5282C59.7276 52.5516 60.2685 52.4055 60.7294 52.11L60.7688 52.0848L60.8057 52.0559C61.6993 51.3571 61.8343 50.1659 61.814 49.3268C61.8034 48.8925 61.7489 48.4517 61.6701 48.0379C62.1363 48.0211 62.5669 47.9103 62.9444 47.7028C63.4059 47.4491 63.746 47.0711 63.9427 46.6336C65.2245 46.1549 66.5423 45.7794 67.8833 45.5107C68.2015 46.581 68.7781 47.4399 69.6192 48.0571C70.6608 48.8215 71.9883 49.1266 73.4306 49.1538C74.1226 49.2856 74.8353 49.2663 75.5198 49.0966C76.2377 48.9187 76.9058 48.58 77.4737 48.1062C78.0416 47.6324 78.4945 47.0358 78.7983 46.3615C78.9352 46.0574 79.0402 45.7412 79.1123 45.4177C81.3974 45.8835 83.6015 46.6907 85.6498 47.814C90.2929 50.4482 94.2738 54.1014 97.295 58.4947C97.1512 58.5632 97.0186 58.6545 96.9027 58.7658L96.9002 58.7682C95.3345 60.2821 94.1819 61.3863 93.3381 62.1947C92.5426 62.9568 92.0215 63.4559 91.6876 63.7876Z" fill="#EAE5D9" stroke="#333333" stroke-width="2"/>
<mask id="path-10-outside-3_395_2894" maskUnits="userSpaceOnUse" x="155.895" y="19.8733" width="59" height="89" fill="black">
<rect fill="white" x="155.895" y="19.8733" width="59" height="89"/>
<path d="M213.152 104.33C212.372 104.29 212.022 103.359 211.761 102.748C211.713 102.667 211.642 102.602 211.558 102.561C211.473 102.52 211.379 102.505 211.286 102.517C211.193 102.529 211.105 102.568 211.034 102.629C210.963 102.69 210.911 102.771 210.885 102.861C210.622 104.389 211.877 105.75 211.048 106.621C210.257 107.449 209.249 104.083 209.134 103.621C208.979 103.018 208.103 103.275 208.211 103.88C208.379 104.795 208.374 105.734 208.197 106.648C207.998 107.665 207.849 108.312 207.199 107.213C206.505 105.527 206.136 103.725 206.113 101.902C206.107 101.78 206.054 101.664 205.965 101.579C205.876 101.494 205.758 101.447 205.635 101.447C205.512 101.447 205.394 101.494 205.305 101.579C205.215 101.664 205.162 101.78 205.156 101.902C205.043 103.913 203.544 105.444 203.107 105.276C202.669 105.109 202.673 104.231 202.673 103.872C202.69 101.871 203.772 99.6404 203.419 97.2337C202.989 94.201 201.775 92.1966 200.664 89.4825C202.603 88.6574 204.49 87.7141 206.313 86.6577C209.466 92.3977 210.07 96.9399 213.197 102.58C213.441 103.02 214.239 104.385 213.152 104.33ZM178.2 29.4177C177.769 26.8677 177.176 24.3478 176.425 21.8733C171.03 27.5138 167.273 25.063 164.249 26.1229C161.226 27.1827 163.353 32.5769 163.353 32.5769C159.984 31.5238 156.895 31.7012 156.895 35.2005C156.895 36.7609 159.698 37.0536 161.257 37.0875C161.063 36.4321 160.254 36.6152 160.404 35.9576C160.62 35.013 162.688 36.2028 162.197 37.805L163.602 43.6138C163.542 45.5446 163.749 47.4744 164.219 49.3481C164.228 49.3832 164.484 49.3979 164.558 49.6871C165.192 52.0949 166.663 53.7763 168.943 53.0768C169.854 52.7615 170.676 52.2299 171.337 51.5276C171.998 50.8253 172.48 49.9731 172.739 49.0442C173.056 47.102 173.007 45.1177 172.595 43.1935C173.209 43.7472 176.584 41.8568 176.857 41.6535C179.996 39.327 178.736 32.6763 178.2 29.4177ZM161.537 35.1666C161.135 34.7423 160.629 34.4306 160.069 34.2627C159.949 34.2243 159.848 34.142 159.786 34.0324C159.725 33.9229 159.707 33.794 159.736 33.6718C159.773 33.5513 159.854 33.4495 159.964 33.3877C160.074 33.3258 160.203 33.3086 160.325 33.3396C161.039 33.5605 161.687 33.9544 162.212 34.4864C162.655 34.9587 161.969 35.6175 161.537 35.1666ZM168.338 31.2606C168.097 31.9023 167.208 31.5487 167.416 31.0029C167.598 30.4493 167.928 29.9562 168.371 29.5776C168.814 29.199 169.352 28.9494 169.927 28.8561C170.047 28.8279 170.174 28.8472 170.28 28.9101C170.387 28.973 170.465 29.0746 170.498 29.1936C170.531 29.3126 170.517 29.4399 170.459 29.5488C170.4 29.6577 170.302 29.7399 170.185 29.7781C169.159 30.1114 168.725 30.2967 168.338 31.2606ZM169.869 31.7453C170.391 31.9091 170.908 32.0786 171.43 32.2481C171.552 32.2837 171.655 32.3651 171.718 32.4753C171.781 32.5855 171.8 32.7158 171.769 32.839C171.734 32.9612 171.652 33.0646 171.542 33.1268C171.431 33.189 171.3 33.205 171.178 33.1712C170.656 33.0074 170.139 32.839 169.617 32.6695C169.503 32.6294 169.408 32.5472 169.351 32.4397C169.295 32.3322 169.281 32.2073 169.313 32.0901C169.345 31.9729 169.42 31.8722 169.523 31.8082C169.627 31.7442 169.75 31.7217 169.869 31.7453ZM175.2 38.9948C174.783 39.2069 174.325 39.3286 173.858 39.3518C173.39 39.375 172.923 39.2992 172.487 39.1294C172.05 38.9596 171.655 38.6996 171.326 38.3665C170.997 38.0333 170.742 37.6344 170.578 37.196C170.513 37.0861 170.495 36.9551 170.527 36.8317C170.558 36.7082 170.638 36.6025 170.748 36.5378C170.858 36.4731 170.989 36.4546 171.112 36.4865C171.236 36.5184 171.341 36.598 171.406 36.7078C171.507 37.0353 171.677 37.3372 171.905 37.5928C172.133 37.8484 172.414 38.0518 172.728 38.189C173.041 38.3262 173.381 38.394 173.724 38.3878C174.066 38.3816 174.403 38.3015 174.712 38.153C174.823 38.0948 174.953 38.0818 175.073 38.1167C175.194 38.1515 175.296 38.2316 175.359 38.3402C175.422 38.4488 175.441 38.5774 175.411 38.6994C175.382 38.8214 175.306 38.9272 175.2 38.9948ZM175.466 26.6788C176.452 25.8494 177.966 26.4923 177.583 27.2143C177.395 27.5691 176.801 27.4482 175.805 27.4991C175.711 27.4972 175.62 27.4681 175.543 27.4153C175.465 27.3625 175.405 27.2883 175.369 27.2018C175.333 27.1153 175.323 27.0202 175.34 26.9282C175.357 26.8361 175.401 26.751 175.466 26.6833V26.6788ZM178.153 29.8922C178.031 30.238 177.909 30.577 177.787 30.9171C177.751 31.04 177.668 31.1439 177.556 31.2061C177.444 31.2683 177.312 31.2838 177.189 31.2492C177.067 31.2115 176.965 31.1283 176.903 31.017C176.841 30.9057 176.825 30.7748 176.857 30.6515C176.979 30.3058 177.096 29.9645 177.223 29.6267C177.259 29.5034 177.342 29.3993 177.454 29.3375C177.567 29.2756 177.7 29.261 177.823 29.2968C177.946 29.3326 178.05 29.4159 178.112 29.5284C178.174 29.6409 178.189 29.7734 178.153 29.8967V29.8922Z"/>
</mask>
<path d="M213.152 104.33C212.372 104.29 212.022 103.359 211.761 102.748C211.713 102.667 211.642 102.602 211.558 102.561C211.473 102.52 211.379 102.505 211.286 102.517C211.193 102.529 211.105 102.568 211.034 102.629C210.963 102.69 210.911 102.771 210.885 102.861C210.622 104.389 211.877 105.75 211.048 106.621C210.257 107.449 209.249 104.083 209.134 103.621C208.979 103.018 208.103 103.275 208.211 103.88C208.379 104.795 208.374 105.734 208.197 106.648C207.998 107.665 207.849 108.312 207.199 107.213C206.505 105.527 206.136 103.725 206.113 101.902C206.107 101.78 206.054 101.664 205.965 101.579C205.876 101.494 205.758 101.447 205.635 101.447C205.512 101.447 205.394 101.494 205.305 101.579C205.215 101.664 205.162 101.78 205.156 101.902C205.043 103.913 203.544 105.444 203.107 105.276C202.669 105.109 202.673 104.231 202.673 103.872C202.69 101.871 203.772 99.6404 203.419 97.2337C202.989 94.201 201.775 92.1966 200.664 89.4825C202.603 88.6574 204.49 87.7141 206.313 86.6577C209.466 92.3977 210.07 96.9399 213.197 102.58C213.441 103.02 214.239 104.385 213.152 104.33ZM178.2 29.4177C177.769 26.8677 177.176 24.3478 176.425 21.8733C171.03 27.5138 167.273 25.063 164.249 26.1229C161.226 27.1827 163.353 32.5769 163.353 32.5769C159.984 31.5238 156.895 31.7012 156.895 35.2005C156.895 36.7609 159.698 37.0536 161.257 37.0875C161.063 36.4321 160.254 36.6152 160.404 35.9576C160.62 35.013 162.688 36.2028 162.197 37.805L163.602 43.6138C163.542 45.5446 163.749 47.4744 164.219 49.3481C164.228 49.3832 164.484 49.3979 164.558 49.6871C165.192 52.0949 166.663 53.7763 168.943 53.0768C169.854 52.7615 170.676 52.2299 171.337 51.5276C171.998 50.8253 172.48 49.9731 172.739 49.0442C173.056 47.102 173.007 45.1177 172.595 43.1935C173.209 43.7472 176.584 41.8568 176.857 41.6535C179.996 39.327 178.736 32.6763 178.2 29.4177ZM161.537 35.1666C161.135 34.7423 160.629 34.4306 160.069 34.2627C159.949 34.2243 159.848 34.142 159.786 34.0324C159.725 33.9229 159.707 33.794 159.736 33.6718C159.773 33.5513 159.854 33.4495 159.964 33.3877C160.074 33.3258 160.203 33.3086 160.325 33.3396C161.039 33.5605 161.687 33.9544 162.212 34.4864C162.655 34.9587 161.969 35.6175 161.537 35.1666ZM168.338 31.2606C168.097 31.9023 167.208 31.5487 167.416 31.0029C167.598 30.4493 167.928 29.9562 168.371 29.5776C168.814 29.199 169.352 28.9494 169.927 28.8561C170.047 28.8279 170.174 28.8472 170.28 28.9101C170.387 28.973 170.465 29.0746 170.498 29.1936C170.531 29.3126 170.517 29.4399 170.459 29.5488C170.4 29.6577 170.302 29.7399 170.185 29.7781C169.159 30.1114 168.725 30.2967 168.338 31.2606ZM169.869 31.7453C170.391 31.9091 170.908 32.0786 171.43 32.2481C171.552 32.2837 171.655 32.3651 171.718 32.4753C171.781 32.5855 171.8 32.7158 171.769 32.839C171.734 32.9612 171.652 33.0646 171.542 33.1268C171.431 33.189 171.3 33.205 171.178 33.1712C170.656 33.0074 170.139 32.839 169.617 32.6695C169.503 32.6294 169.408 32.5472 169.351 32.4397C169.295 32.3322 169.281 32.2073 169.313 32.0901C169.345 31.9729 169.42 31.8722 169.523 31.8082C169.627 31.7442 169.75 31.7217 169.869 31.7453ZM175.2 38.9948C174.783 39.2069 174.325 39.3286 173.858 39.3518C173.39 39.375 172.923 39.2992 172.487 39.1294C172.05 38.9596 171.655 38.6996 171.326 38.3665C170.997 38.0333 170.742 37.6344 170.578 37.196C170.513 37.0861 170.495 36.9551 170.527 36.8317C170.558 36.7082 170.638 36.6025 170.748 36.5378C170.858 36.4731 170.989 36.4546 171.112 36.4865C171.236 36.5184 171.341 36.598 171.406 36.7078C171.507 37.0353 171.677 37.3372 171.905 37.5928C172.133 37.8484 172.414 38.0518 172.728 38.189C173.041 38.3262 173.381 38.394 173.724 38.3878C174.066 38.3816 174.403 38.3015 174.712 38.153C174.823 38.0948 174.953 38.0818 175.073 38.1167C175.194 38.1515 175.296 38.2316 175.359 38.3402C175.422 38.4488 175.441 38.5774 175.411 38.6994C175.382 38.8214 175.306 38.9272 175.2 38.9948ZM175.466 26.6788C176.452 25.8494 177.966 26.4923 177.583 27.2143C177.395 27.5691 176.801 27.4482 175.805 27.4991C175.711 27.4972 175.62 27.4681 175.543 27.4153C175.465 27.3625 175.405 27.2883 175.369 27.2018C175.333 27.1153 175.323 27.0202 175.34 26.9282C175.357 26.8361 175.401 26.751 175.466 26.6833V26.6788ZM178.153 29.8922C178.031 30.238 177.909 30.577 177.787 30.9171C177.751 31.04 177.668 31.1439 177.556 31.2061C177.444 31.2683 177.312 31.2838 177.189 31.2492C177.067 31.2115 176.965 31.1283 176.903 31.017C176.841 30.9057 176.825 30.7748 176.857 30.6515C176.979 30.3058 177.096 29.9645 177.223 29.6267C177.259 29.5034 177.342 29.3993 177.454 29.3375C177.567 29.2756 177.7 29.261 177.823 29.2968C177.946 29.3326 178.05 29.4159 178.112 29.5284C178.174 29.6409 178.189 29.7734 178.153 29.8967V29.8922Z" fill="#EAE5D9"/>
<path d="M213.152 104.33C212.372 104.29 212.022 103.359 211.761 102.748C211.713 102.667 211.642 102.602 211.558 102.561C211.473 102.52 211.379 102.505 211.286 102.517C211.193 102.529 211.105 102.568 211.034 102.629C210.963 102.69 210.911 102.771 210.885 102.861C210.622 104.389 211.877 105.75 211.048 106.621C210.257 107.449 209.249 104.083 209.134 103.621C208.979 103.018 208.103 103.275 208.211 103.88C208.379 104.795 208.374 105.734 208.197 106.648C207.998 107.665 207.849 108.312 207.199 107.213C206.505 105.527 206.136 103.725 206.113 101.902C206.107 101.78 206.054 101.664 205.965 101.579C205.876 101.494 205.758 101.447 205.635 101.447C205.512 101.447 205.394 101.494 205.305 101.579C205.215 101.664 205.162 101.78 205.156 101.902C205.043 103.913 203.544 105.444 203.107 105.276C202.669 105.109 202.673 104.231 202.673 103.872C202.69 101.871 203.772 99.6404 203.419 97.2337C202.989 94.201 201.775 92.1966 200.664 89.4825C202.603 88.6574 204.49 87.7141 206.313 86.6577C209.466 92.3977 210.07 96.9399 213.197 102.58C213.441 103.02 214.239 104.385 213.152 104.33ZM178.2 29.4177C177.769 26.8677 177.176 24.3478 176.425 21.8733C171.03 27.5138 167.273 25.063 164.249 26.1229C161.226 27.1827 163.353 32.5769 163.353 32.5769C159.984 31.5238 156.895 31.7012 156.895 35.2005C156.895 36.7609 159.698 37.0536 161.257 37.0875C161.063 36.4321 160.254 36.6152 160.404 35.9576C160.62 35.013 162.688 36.2028 162.197 37.805L163.602 43.6138C163.542 45.5446 163.749 47.4744 164.219 49.3481C164.228 49.3832 164.484 49.3979 164.558 49.6871C165.192 52.0949 166.663 53.7763 168.943 53.0768C169.854 52.7615 170.676 52.2299 171.337 51.5276C171.998 50.8253 172.48 49.9731 172.739 49.0442C173.056 47.102 173.007 45.1177 172.595 43.1935C173.209 43.7472 176.584 41.8568 176.857 41.6535C179.996 39.327 178.736 32.6763 178.2 29.4177ZM161.537 35.1666C161.135 34.7423 160.629 34.4306 160.069 34.2627C159.949 34.2243 159.848 34.142 159.786 34.0324C159.725 33.9229 159.707 33.794 159.736 33.6718C159.773 33.5513 159.854 33.4495 159.964 33.3877C160.074 33.3258 160.203 33.3086 160.325 33.3396C161.039 33.5605 161.687 33.9544 162.212 34.4864C162.655 34.9587 161.969 35.6175 161.537 35.1666ZM168.338 31.2606C168.097 31.9023 167.208 31.5487 167.416 31.0029C167.598 30.4493 167.928 29.9562 168.371 29.5776C168.814 29.199 169.352 28.9494 169.927 28.8561C170.047 28.8279 170.174 28.8472 170.28 28.9101C170.387 28.973 170.465 29.0746 170.498 29.1936C170.531 29.3126 170.517 29.4399 170.459 29.5488C170.4 29.6577 170.302 29.7399 170.185 29.7781C169.159 30.1114 168.725 30.2967 168.338 31.2606ZM169.869 31.7453C170.391 31.9091 170.908 32.0786 171.43 32.2481C171.552 32.2837 171.655 32.3651 171.718 32.4753C171.781 32.5855 171.8 32.7158 171.769 32.839C171.734 32.9612 171.652 33.0646 171.542 33.1268C171.431 33.189 171.3 33.205 171.178 33.1712C170.656 33.0074 170.139 32.839 169.617 32.6695C169.503 32.6294 169.408 32.5472 169.351 32.4397C169.295 32.3322 169.281 32.2073 169.313 32.0901C169.345 31.9729 169.42 31.8722 169.523 31.8082C169.627 31.7442 169.75 31.7217 169.869 31.7453ZM175.2 38.9948C174.783 39.2069 174.325 39.3286 173.858 39.3518C173.39 39.375 172.923 39.2992 172.487 39.1294C172.05 38.9596 171.655 38.6996 171.326 38.3665C170.997 38.0333 170.742 37.6344 170.578 37.196C170.513 37.0861 170.495 36.9551 170.527 36.8317C170.558 36.7082 170.638 36.6025 170.748 36.5378C170.858 36.4731 170.989 36.4546 171.112 36.4865C171.236 36.5184 171.341 36.598 171.406 36.7078C171.507 37.0353 171.677 37.3372 171.905 37.5928C172.133 37.8484 172.414 38.0518 172.728 38.189C173.041 38.3262 173.381 38.394 173.724 38.3878C174.066 38.3816 174.403 38.3015 174.712 38.153C174.823 38.0948 174.953 38.0818 175.073 38.1167C175.194 38.1515 175.296 38.2316 175.359 38.3402C175.422 38.4488 175.441 38.5774 175.411 38.6994C175.382 38.8214 175.306 38.9272 175.2 38.9948ZM175.466 26.6788C176.452 25.8494 177.966 26.4923 177.583 27.2143C177.395 27.5691 176.801 27.4482 175.805 27.4991C175.711 27.4972 175.62 27.4681 175.543 27.4153C175.465 27.3625 175.405 27.2883 175.369 27.2018C175.333 27.1153 175.323 27.0202 175.34 26.9282C175.357 26.8361 175.401 26.751 175.466 26.6833V26.6788ZM178.153 29.8922C178.031 30.238 177.909 30.577 177.787 30.9171C177.751 31.04 177.668 31.1439 177.556 31.2061C177.444 31.2683 177.312 31.2838 177.189 31.2492C177.067 31.2115 176.965 31.1283 176.903 31.017C176.841 30.9057 176.825 30.7748 176.857 30.6515C176.979 30.3058 177.096 29.9645 177.223 29.6267C177.259 29.5034 177.342 29.3993 177.454 29.3375C177.567 29.2756 177.7 29.261 177.823 29.2968C177.946 29.3326 178.05 29.4159 178.112 29.5284C178.174 29.6409 178.189 29.7734 178.153 29.8967V29.8922Z" stroke="black" stroke-width="2" mask="url(#path-10-outside-3_395_2894)"/>
<path d="M60.3174 184.489C63.2163 187.058 65.8082 189.954 68.0414 193.119C68.0414 193.119 70.8662 189.194 70.1114 185.596C70.1114 185.596 65.2585 182.161 60.3174 184.489Z" fill="#333333"/>
<path d="M97.9228 60.5086C97.8098 60.6216 94.5218 63.7853 93.002 65.2598L98.3646 70.8054C98.4267 67.5841 98.5714 64.2282 98.7375 61.3639L97.9228 60.5086ZM73.7529 47.2028C70.6299 47.2231 68.9904 46.0548 69.7485 41.0538C70.8846 41.594 72.1209 41.8911 73.3784 41.9261C74.6358 41.9611 75.8868 41.7333 77.0511 41.2572C77.6737 44.8096 77.389 47.1655 73.7529 47.2028Z" fill="#EAE5D9"/>
<path d="M81.6503 32.7104C81.2842 32.6629 81.1351 33.029 81.2164 33.3205C80.813 34.9674 80.2089 36.5586 79.4176 38.0582C78.4854 39.3523 77.1471 40.2973 75.6156 40.7427C74.0842 41.188 72.4478 41.1082 70.967 40.5158C65.6994 38.7147 66.548 33.9171 66.2361 32.3432C66.2147 32.2635 66.1728 32.1909 66.1145 32.1326C66.0562 32.0743 65.9836 32.0323 65.9039 32.011C64.4712 31.637 62.8633 30.3749 62.7955 28.7794C62.7797 28.3667 62.8826 27.9582 63.0918 27.6021C63.3011 27.246 63.608 26.9574 63.9763 26.7705C64.8045 26.4179 65.4553 27.5919 65.7683 28.1761C65.8173 28.2553 65.8881 28.3187 65.9722 28.3587C66.0563 28.3988 66.1502 28.4137 66.2426 28.4018C66.335 28.3899 66.422 28.3516 66.4931 28.2915C66.5643 28.2314 66.6167 28.1521 66.644 28.0631C66.8437 26.835 67.1077 25.6183 67.4349 24.418C70.4224 24.4858 73.8155 23.8677 75.9669 21.6689C76.0899 22.7173 76.4197 23.731 76.9372 24.6511C77.4547 25.5712 78.1495 26.3795 78.9815 27.0292C78.6735 26.8168 78.3157 26.6879 77.9431 26.6552C77.8158 26.657 77.6942 26.7084 77.6043 26.7985C77.5144 26.8887 77.4632 27.0104 77.4617 27.1377C77.5024 27.8732 78.5295 27.4258 78.9205 28.3659C79.2594 29.0156 80.6311 28.3083 79.0764 27.1038C79.8199 27.7201 80.6445 28.2314 81.5271 28.6235C81.5 28.9625 81.4797 29.3015 81.4526 29.628C81.4187 30.0901 81.9814 30.2054 82.274 29.967C82.8455 29.4675 83.5033 29.0766 84.2152 28.8133C85.04 28.5512 85.4389 28.7275 85.6739 29.5591C86.2728 31.9364 83.5565 32.9522 81.6503 32.7104ZM36.0936 94.1153C34.4034 95.7429 32.352 96.9474 30.1072 97.6304C27.8624 98.3134 25.4878 98.4555 23.1776 98.0451C21.2375 97.7434 22.2375 97.3435 23.164 97.2983C23.497 97.2965 23.8273 97.2392 24.1414 97.1288C24.2298 97.1007 24.3083 97.048 24.3678 96.9768C24.4272 96.9056 24.4651 96.8189 24.477 96.7269C24.4888 96.635 24.4742 96.5415 24.4348 96.4575C24.3953 96.3736 24.3327 96.3027 24.2544 96.2531C23.3019 95.6147 21.6793 95.8328 21.5528 94.8475C21.4918 94.339 22.5776 94.5221 22.8702 94.5221C23.6431 94.5221 24.4103 94.5153 25.1843 94.5153C25.2987 94.5122 25.4082 94.4686 25.4934 94.3922C25.5786 94.3158 25.6339 94.2116 25.6494 94.0982C25.6649 93.9849 25.6395 93.8697 25.5779 93.7733C25.5163 93.6768 25.4225 93.6054 25.3131 93.5718C24.4318 93.2219 23.6358 92.6871 22.9787 92.0035C22.8024 91.8204 22.2793 91.4069 22.6657 91.2306C25.1812 91.0139 27.7074 91.5002 29.9627 92.6351C30.4146 92.8521 31.0011 92.2487 30.5468 91.8815C28.635 90.3448 28.0475 88.3358 30.0847 89.1866C31.804 90.0605 33.3998 91.1585 34.8303 92.4521C35.2913 92.8656 35.9704 92.1877 35.5083 91.7741C34.1914 90.6051 32.761 89.5706 31.2383 88.6861C46.9079 64.0631 46.4921 64.845 46.517 64.8009C48.8649 65.7241 53.8749 67.6992 54.0376 67.7602C43.8063 83.7439 40.9329 89.8623 36.0936 94.1153Z" fill="#EAE5D9"/>
<path d="M180.366 17.8606C180.467 17.0697 179.841 16.1443 179.069 16.2935C178.73 16.3624 178.73 16.4132 175.764 18.3634C176.296 17.5236 176.59 16.5544 176.612 15.5601C176.544 14.5692 175.708 13.5715 174.725 13.7071C172.872 13.9647 171.592 18.2087 165.582 20.1623C162.479 21.1735 156.987 21.4447 157.234 27.5327C157.37 29.1914 157.765 30.8186 158.405 32.3551C159.389 31.8805 160.937 31.8263 163.353 32.5811C163.353 32.5811 161.229 27.1858 164.249 26.1271C167.269 25.0683 171.036 27.518 176.425 21.8775C176.575 22.3599 176.711 22.8413 176.846 23.3305C177.793 22.3038 178.608 21.1623 179.272 19.9329C179.799 19.3409 180.174 18.6298 180.366 17.8606Z" fill="#333333"/>
<path d="M149.342 56.9635L149.11 57.2559L149.324 57.5619L150.088 58.6512L150.379 59.0664L150.79 58.7694C153.482 56.8244 155.241 55.6391 156.573 54.7582C156.82 54.5945 157.053 54.4409 157.276 54.2944C158.247 53.655 159.01 53.1527 159.822 52.5513L160.217 52.2583L159.931 51.8583L157.939 49.0787L157.628 48.6455L157.215 48.983C154.315 51.356 151.676 54.0313 149.342 56.9635ZM88.103 45.0001L87.7539 44.4513L87.3134 44.9297L85.7733 46.602L85.3438 47.0683L85.8974 47.3773C89.3216 49.2888 92.3897 51.7778 94.9661 54.7345L95.347 55.1716L95.7234 54.7306L96.0127 54.3916L96.35 53.9962L95.9419 53.6744C92.8598 51.2443 90.2096 48.3117 88.103 45.0001ZM55.1256 54.4066C55.1585 54.2447 55.1818 54.0748 55.195 53.8976C55.8796 54.3222 56.6842 54.3186 57.2714 53.8283L57.2715 53.8283L57.2765 53.824C57.5904 53.5547 57.7634 53.1831 57.8552 52.8109C57.9473 52.4372 57.9671 52.0264 57.9465 51.6275C57.9451 51.5991 57.9434 51.5706 57.9415 51.5421C57.9547 51.553 57.968 51.5637 57.9814 51.5745L57.9813 51.5746L57.9917 51.5825C58.3445 51.851 58.7711 52.0051 59.214 52.024C59.657 52.0429 60.0952 51.9257 60.4696 51.6882L60.4902 51.6751L60.5094 51.6601C61.2464 51.0848 61.3701 50.046 61.3213 49.1701C61.2898 48.6043 61.1818 48.0219 61.0453 47.5027C61.4587 47.5526 61.8798 47.5324 62.2907 47.4404C62.6384 47.3659 62.9537 47.1837 63.1921 46.9199C63.4312 46.6552 63.5806 46.3217 63.619 45.9671C63.6574 45.6125 63.5828 45.2548 63.4059 44.9451C63.2348 44.6454 62.9763 44.4055 62.6654 44.257C62.4193 44.1095 62.1158 44.04 61.8372 44.0032C61.5347 43.9631 61.2016 43.9545 60.8802 43.9602C60.425 43.9682 59.9472 44.0069 59.5881 44.0361C59.4494 44.0473 59.3284 44.0571 59.2333 44.0632C59.2329 44.0632 59.2326 44.0632 59.2323 44.0632L59.0957 44.0714C57.7301 43.6763 56.2761 43.7035 54.9251 44.1505C53.5452 44.6071 52.3404 45.4793 51.4757 46.6475C50.611 47.8158 50.1289 49.2229 50.0954 50.6759C50.0619 52.1263 50.4771 53.5515 51.284 54.757C51.7143 55.4433 52.2087 55.9121 52.7423 56.1195C53.3038 56.3377 53.8646 56.2459 54.3064 55.8944C54.7275 55.5595 55.0004 55.024 55.1256 54.4066ZM128.832 15.8773C128.648 15.9576 128.472 16.053 128.306 16.162C128.193 15.3191 128.069 14.4776 127.934 13.6377L127.934 13.6366C127.402 10.3685 124.355 8.93453 121.32 8.71184C118.84 8.40897 116.327 8.5401 113.892 9.09933C112.259 9.36177 110.756 10.1485 109.609 11.341L109.596 11.3543L109.585 11.3686C108.78 12.3398 108.441 13.5102 108.327 14.6958C108.213 15.8765 108.319 17.1107 108.434 18.2333L108.434 18.2362C108.536 19.1729 108.93 22.8342 109.025 23.736L109.044 23.9133L109.17 24.0388C112.213 27.0566 115.617 27.8415 119.008 27.0892C122.328 26.3527 125.593 24.1547 128.502 21.2658C130.818 20.9488 132.111 19.6821 132.422 18.3435C132.577 17.6747 132.481 16.9898 132.121 16.4581C131.755 15.9168 131.147 15.5813 130.389 15.5784C129.854 15.5605 129.322 15.6627 128.832 15.8773ZM190.919 52.2259L190.913 52.2177L190.908 52.2096C190.039 51.012 188.824 50.1092 187.426 49.6229C186.056 49.146 184.574 49.0921 183.174 49.4671C182.904 49.451 182.653 49.434 182.418 49.4181C181.742 49.3725 181.203 49.336 180.773 49.3555C180.126 49.3849 179.631 49.5412 179.157 49.981L179.152 49.9863C178.931 50.1976 178.772 50.4653 178.693 50.7604C178.614 51.0554 178.617 51.3665 178.702 51.6599L179.182 51.5208L178.702 51.66C178.787 51.9534 178.951 52.218 179.176 52.4249C179.398 52.6301 179.673 52.7709 179.969 52.8324C180.377 52.9267 180.795 52.9491 181.205 52.9011C181.069 53.4158 180.965 53.9944 180.936 54.5565C180.913 55.0195 180.938 55.4938 181.052 55.9216C181.166 56.3494 181.378 56.7643 181.751 57.0546L181.768 57.0685L181.787 57.0807C182.162 57.3213 182.601 57.4403 183.045 57.4213C183.49 57.4023 183.917 57.2464 184.269 56.9748L184.276 56.9699C184.29 56.9581 184.305 56.9463 184.32 56.9344C184.318 56.9629 184.316 56.9913 184.314 57.0197C184.293 57.4209 184.311 57.8352 184.403 58.2105C184.494 58.582 184.667 58.9564 184.987 59.2218C185.556 59.7037 186.369 59.7293 187.065 59.299C187.129 60.0666 187.387 60.722 187.816 61.1482C188.195 61.5255 188.707 61.7128 189.268 61.5907C189.804 61.4739 190.306 61.0919 190.75 60.5054L190.756 60.497C191.624 59.2997 192.105 57.8655 192.134 56.387C192.163 54.9085 191.739 53.4564 190.919 52.2259Z" fill="#EAE5D9" stroke="black"/>
<path d="M109.97 11.6866C111.046 10.5689 112.456 9.83265 113.988 9.58949C117.189 8.85053 122.36 8.71607 125.208 10.3906C125.801 10.7471 126.309 11.2298 126.695 11.8045C127.081 12.3792 127.335 13.0318 127.441 13.7159C127.624 14.856 127.788 16.004 127.93 17.1497C128.863 16.0695 130.875 15.595 131.673 16.6921C132.272 16.0675 132.643 15.2591 132.725 14.3979C132.807 13.5366 132.595 12.6728 132.125 11.9465C131.894 11.7133 131.746 11.4103 131.704 11.0844C131.721 10.6686 132.947 8.38727 131.568 6.04157C131.173 5.35253 130.584 4.79444 129.875 4.43621C129.166 4.07799 128.367 3.93532 127.578 4.02582C127.468 3.34964 127.116 2.7366 126.587 2.30158C125.456 1.05647 123.923 0.24921 122.257 0.0214206C121.427 -0.0678567 120.59 0.123567 119.882 0.565131C119.173 1.00669 118.633 1.67294 118.347 2.45751C115.319 -0.560481 110.202 0.492592 109.102 2.61343C108.958 2.87563 108.889 3.17262 108.902 3.47168C108.916 3.77073 109.012 4.06024 109.179 4.30829C108.388 3.36595 106.798 3.60775 105.73 4.27779C103.425 5.72633 103.326 7.93191 104.427 8.98838C104.739 9.28667 105.173 9.53073 105.269 9.95219C105.285 10.1792 105.231 10.4057 105.113 10.6003C104.994 10.7948 104.819 10.9478 104.61 11.038C104.209 11.2493 103.748 11.3295 103.341 11.5273C103.029 11.7121 102.759 11.9598 102.548 12.2546C102.336 12.5495 102.189 12.8851 102.115 13.2401C102.04 13.595 102.04 13.9616 102.115 14.3164C102.19 14.6713 102.338 15.0066 102.55 15.3012C103.025 15.8638 103.679 16.2449 104.403 16.3796C105.126 16.5143 105.874 16.3944 106.519 16.0401C106.032 16.4767 105.706 17.0654 105.595 17.7107C105.484 18.3559 105.595 19.0196 105.909 19.594C106.223 20.1683 106.723 20.6194 107.326 20.8739C107.929 21.1285 108.6 21.1715 109.231 20.9959C108.832 17.3135 108.185 13.8413 109.97 11.6866ZM128.269 20.7914C122.47 26.589 115.388 29.503 109.523 23.6828C109.951 27.6726 109.967 27.8183 110.007 28.6985C110.091 30.5945 110.184 33.1549 111.656 34.0814C113.667 35.3491 118.84 35.3119 121.267 34.8215C123.827 34.3051 127.185 32.9752 128.333 30.4295C128.602 29.8068 128.752 29.1391 128.774 28.4612C128.8 27.8805 128.426 20.7914 128.269 20.7914ZM124.641 28.2307C124.596 28.8399 124.339 29.4138 123.913 29.8519C123.487 30.2899 122.921 30.564 122.313 30.6261C121.508 30.8144 120.664 30.7508 119.896 30.4438C119.128 30.1368 118.473 29.6013 118.02 28.9098C119.27 28.9994 120.523 28.7821 121.671 28.2768C122.818 27.7715 123.824 26.9935 124.602 26.0105C124.743 26.7429 124.756 27.4939 124.641 28.2307Z" fill="#333333"/>
<path d="M158.188 170.131C157.117 171.649 154.847 179.257 157.078 184.401C158.321 187.265 161.395 188.827 163.56 185.881C164.706 184.319 164.577 182.426 164.69 180.586C165.236 171.988 165.43 171.311 164.948 170.134C162.728 170.684 160.408 170.683 158.188 170.131ZM135.278 178.999C133.31 180.509 133.018 183.287 133.357 183.885C130.237 185.067 129.482 188.111 131.185 188.928C131.944 189.291 135.921 189.154 136.684 189.132C143.996 188.929 144.758 189.019 144.726 185.454C144.647 178.979 138.921 176.21 135.278 178.999ZM138.209 188.12C136.593 188.196 134.978 188.225 133.363 188.209C132.31 188.19 131.65 188.258 131.394 187.876C131.3 187.657 131.262 187.418 131.286 187.181C131.31 186.943 131.394 186.716 131.53 186.52C131.922 185.958 132.427 185.484 133.013 185.127C133.598 184.77 134.252 184.54 134.931 184.449C136.683 184.217 138.462 184.303 140.184 184.701C140.287 184.719 140.392 184.705 140.487 184.66C140.581 184.615 140.658 184.542 140.709 184.451C140.76 184.36 140.781 184.255 140.769 184.152C140.758 184.048 140.714 183.951 140.645 183.873C140.983 183.863 141.319 183.916 141.637 184.029C141.759 184.061 141.889 184.044 141.999 183.982C142.109 183.92 142.191 183.818 142.227 183.697C142.54 182.586 139.473 182.832 138.053 183.471C136.794 183.326 135.521 183.381 134.279 183.634C134.205 182.992 134.276 182.342 134.488 181.732C134.7 181.122 135.046 180.568 135.502 180.11C138.173 177.499 142.948 179.199 143.694 184.265C144.269 188.47 143.095 187.876 138.209 188.12ZM130.505 145.578C133.914 146.438 137.48 146.461 140.9 145.646C141.505 145.504 141.25 144.574 140.646 144.722C137.393 145.501 133.999 145.479 130.757 144.655C130.637 144.629 130.512 144.65 130.407 144.713C130.302 144.777 130.225 144.878 130.193 144.997C130.16 145.115 130.175 145.242 130.233 145.35C130.291 145.458 130.389 145.54 130.505 145.578ZM121.221 17.2567C121.322 17.3041 121.432 17.3309 121.544 17.3356C121.656 17.3402 121.768 17.3226 121.873 17.2838C122.356 17.2058 122.852 17.2657 123.304 17.4565C123.755 17.6474 124.143 17.9615 124.424 18.3628C124.492 18.4674 124.597 18.5417 124.718 18.5703C124.839 18.5989 124.966 18.5796 125.073 18.5163C125.18 18.4531 125.259 18.3508 125.292 18.231C125.326 18.1112 125.311 17.9831 125.252 17.8736C124.807 17.247 124.189 16.7636 123.474 16.4827C123.089 16.3122 122.67 16.2337 122.249 16.2533C121.829 16.2729 121.419 16.3901 121.051 16.5957C120.986 16.7059 120.968 16.8373 121 16.9612C121.031 17.085 121.111 17.1913 121.221 17.2567ZM110.856 20.182C111.063 20.0961 112.012 18.3425 113.849 18.3425C113.976 18.3396 114.097 18.2879 114.187 18.198C114.277 18.1082 114.329 17.9871 114.332 17.86C114.332 16.9685 111.885 17.3945 110.611 18.9899C110.191 19.4995 110.021 19.7176 110.184 19.9944C110.253 20.1026 110.36 20.1814 110.484 20.216C110.608 20.2506 110.741 20.2385 110.856 20.182ZM113.653 22.1842C113.645 22.0019 113.568 21.8296 113.436 21.7032C113.305 21.5768 113.129 21.5063 112.947 21.5063C112.765 21.5063 112.589 21.5768 112.458 21.7032C112.326 21.8296 112.249 22.0019 112.241 22.1842C112.249 22.3665 112.326 22.5388 112.458 22.6652C112.589 22.7916 112.765 22.8622 112.947 22.8622C113.129 22.8622 113.305 22.7916 113.436 22.6652C113.568 22.5388 113.645 22.3665 113.653 22.1842ZM122.042 19.73C121.855 19.73 121.675 19.8044 121.543 19.9369C121.41 20.0693 121.336 20.2489 121.336 20.4362C121.336 20.6235 121.41 20.8031 121.543 20.9356C121.675 21.068 121.855 21.1424 122.042 21.1424C122.23 21.1424 122.409 21.068 122.542 20.9356C122.674 20.8031 122.748 20.6235 122.748 20.4362C122.748 20.2489 122.674 20.0693 122.542 19.9369C122.409 19.8044 122.23 19.73 122.042 19.73ZM119.076 23.8666C119.425 23.7502 119.746 23.5629 120.019 23.3166C120.293 23.0702 120.512 22.7701 120.664 22.435C120.697 22.3122 120.681 22.181 120.618 22.0702C120.555 21.9595 120.45 21.8784 120.328 21.8447C120.205 21.811 120.073 21.8274 119.963 21.8905C119.852 21.9535 119.771 22.0579 119.737 22.1808C119.654 22.3623 119.516 22.5138 119.344 22.6147C118.606 23.122 118.344 23.2859 117.932 22.1627C117.471 20.9197 117.192 19.6167 117.105 18.2939C117.064 17.6826 116.1 17.6759 116.147 18.2939C116.286 20.4859 117.022 24.6892 119.076 23.8666ZM158.625 47.1269C155.089 42.6954 148.645 31.5647 136.627 28.6043C134.036 28.0426 131.406 27.6729 128.761 27.4982C128.78 27.8169 128.78 28.1365 128.761 28.4552C137.085 29.1151 142.672 30.6167 149.49 37.3126C152.357 40.1283 152.911 41.0898 156.141 45.4784C151.525 47.7999 147.672 51.3966 145.038 55.8419C143.512 53.8341 143.873 53.6341 139.676 46.5846C139.61 46.4777 139.506 46.4006 139.384 46.3698C139.263 46.3391 139.134 46.3571 139.026 46.42C138.918 46.483 138.838 46.5858 138.805 46.7066C138.772 46.8273 138.787 46.9563 138.847 47.0659C140.252 49.4214 141.594 51.8131 142.872 54.2408C142.808 54.6261 143.39 56.2871 143.287 68.3173C143.287 68.9331 142.812 90.7392 142.628 91.32C142.228 92.5493 137.042 94.4295 136.031 94.7673C125.938 98.1322 113.158 97.3989 102.908 95.0532C101.487 94.7142 101.221 94.7775 100.825 92.9142C98.9469 84.1823 99.1299 71.2901 99.6497 62.3174C100.162 54.1301 100.258 53.7663 101.171 45.4445C101.238 44.8332 100.275 44.8332 100.214 45.4445C100.024 47.1812 99.8271 48.9258 99.6361 50.6636C96.5131 48.2987 91.0884 43.5146 89.5234 39.8854C95.4984 34.9607 102.514 31.4583 110.041 29.6427C110.032 29.5297 109.993 28.8077 109.987 28.6925C102.984 30.3252 96.4035 33.4178 90.6771 37.7679C89.245 38.6528 88.0135 39.827 87.0614 41.2153C86.8016 41.5904 86.638 42.0235 86.5848 42.4766C86.5316 42.9297 86.5905 43.389 86.7563 43.8141C89.4568 48.3337 94.0781 54.0194 99.0418 55.9561C99.0181 56.1481 98.9898 56.2498 99.0893 56.408C98.9763 57.6227 98.8859 58.8305 98.8045 60.0463C98.6203 59.8554 98.4441 59.6655 98.261 59.4757C98.1685 59.3909 98.0476 59.3439 97.9221 59.3439C97.7966 59.3439 97.6756 59.3909 97.5831 59.4757C91.4872 65.3693 91.7381 64.9671 91.8409 65.3264C91.9211 65.645 95.2645 68.9342 98.33 72.1612C98.2531 78.5181 98.5345 87.415 99.9864 93.6227C100.027 94.0941 100.204 94.5434 100.497 94.9149C100.79 95.2864 101.186 95.5639 101.635 95.713C103.629 96.461 110.78 97.4768 114.579 97.7762C121.113 98.4064 127.707 97.9223 134.079 96.3447C137.06 95.5725 139.922 94.3963 142.584 92.8487C143.817 91.9821 143.643 90.955 143.704 89.4895C143.738 88.5856 144.294 65.6043 144.269 63.0395C144.256 60.697 144.159 58.3558 143.977 56.0205C144.934 57.301 145.891 58.5748 146.848 59.8418C146.892 59.9121 146.953 59.9701 147.026 60.0102C147.098 60.0504 147.18 60.0715 147.262 60.0715C147.345 60.0715 147.427 60.0504 147.499 60.0102C147.572 59.9701 147.633 59.9121 147.676 59.8418C150.534 55.9721 153.837 52.4527 157.518 49.3563C159.357 47.9484 159.628 48.3359 158.625 47.1269ZM98.365 70.8019C96.5754 68.9553 94.7879 67.1068 93.0024 65.2563C94.5289 63.7875 97.8079 60.6237 97.9232 60.5051L98.7379 61.3604C98.5548 64.505 98.4305 67.6527 98.365 70.8019ZM88.0207 44.0107C87.5687 43.2853 87.2862 43.0525 87.7766 41.9881C88.0285 41.4589 88.3786 40.9823 88.8082 40.5836C91.1042 45.5903 99.4135 51.6488 99.5265 51.7618C99.4135 52.8341 99.2881 53.9087 99.174 54.9787C94.7086 53.1369 90.5765 48.0874 88.0207 44.0107ZM147.281 58.8271C146.745 58.1085 146.209 57.3956 145.666 56.6803C148.243 52.1922 152.093 48.5688 156.729 46.2682C157.136 46.8117 157.558 47.3484 157.993 47.8704C154.279 50.3381 150 55.277 147.276 58.8283L147.281 58.8271Z" fill="#1D1D1B"/>
<path d="M104.131 46.8145C103.905 46.7513 103.34 46.9829 103.349 47.3795C103.525 53.4595 103.027 58.6017 106.729 61.3542C109.873 63.6999 114.686 61.9881 116.108 55.6866C116.673 53.2008 117.154 49.6314 116.366 47.2123C116.333 47.1171 116.272 47.0344 116.19 46.9754C116.109 46.9163 116.011 46.8838 115.91 46.8822C115.809 46.8806 115.71 46.91 115.627 46.9664C115.544 47.0228 115.479 47.1035 115.443 47.1976C106.325 47.1298 105.873 47.2981 104.131 46.8145ZM112.798 60.091C112.132 60.7713 111.258 61.2096 110.315 61.3361C109.372 61.4627 108.413 61.2702 107.592 60.7892C104.001 58.5554 104.583 52.8223 104.421 51.5048C108.181 52.1091 112.011 52.1502 115.783 51.6268C115.495 54.6312 114.894 58.178 112.798 60.091ZM115.607 48.1241C115.792 48.9617 115.867 49.8196 115.833 50.6766C112.033 51.2061 108.175 51.1581 104.389 50.5342C104.362 49.6382 104.342 48.7354 104.316 47.8394C106.039 48.1109 107.786 48.2063 109.528 48.1241C113.818 48.1535 115.469 48.184 115.607 48.1241ZM54.4192 182.548C49.8442 184.944 56.8157 192.681 59.9783 193.557C62.6487 194.228 65.4596 194.075 68.0414 193.118C65.5465 189.542 58.2801 180.527 54.4192 182.548ZM86.4623 182.876C81.4466 183.745 78.5077 190.071 78.5077 190.071C83.956 191.027 89.5324 190.989 94.9671 189.958C94.9671 189.958 91.4712 182.006 86.4623 182.876ZM121.282 187.835C114.99 185.105 108.544 187.051 106.831 189.336C105.781 190.731 106.019 192.459 108.318 193.36C111.482 194.533 117.801 193.86 121.119 193.19C126.184 192.169 125.646 189.727 121.282 187.835ZM117.25 192.807C98.506 194.755 109.619 184.033 120.589 188.573C123.702 189.867 123.833 190.913 123.711 190.67C124.266 192.042 118.754 192.644 117.25 192.802V192.807ZM41.3269 102.579C40.211 100.865 38.8604 99.3159 37.3146 97.9768C36.0326 99.4518 34.6769 100.861 33.2526 102.199C34.5757 103.17 37.118 104.121 41.3269 102.579ZM19.0474 122.435C20.0643 120.844 21.862 116.814 21.7151 114.324C21.6801 113.714 20.7174 113.707 20.7581 114.324C20.8711 116.287 19.7547 119.037 18.8711 120.793C16.4079 125.721 11.2284 126.638 11.9584 121.238C12.3405 119.175 13.2366 117.242 14.5639 115.617C15.8385 113.905 17.6712 111.653 19.679 110.965C20.2621 110.769 20.0112 109.835 19.4203 110.042C17.2045 110.818 15.5899 112.728 14.1775 114.545C12.6234 116.352 11.5477 118.52 11.0488 120.851C10.0567 127.106 15.9029 127.366 19.0474 122.435ZM15.6701 133.855C15.8961 133.279 14.9718 133.03 14.747 133.601C12.1078 140.348 11.6405 147.751 13.4103 154.777C13.4445 154.9 13.5258 155.004 13.6366 155.066C13.7473 155.128 13.8783 155.144 14.0007 155.11C14.1231 155.076 14.2269 154.995 14.2893 154.884C14.3517 154.773 14.3676 154.642 14.3334 154.52C12.6103 147.661 13.0777 140.435 15.6701 133.855ZM38.5643 161.004C37.8353 159.123 37.6516 157.074 38.0344 155.093C38.1564 154.489 37.2276 154.232 37.1113 154.835C36.8114 156.398 36.8183 158.004 37.1316 159.565C37.5306 161.06 38.1096 162.502 38.8558 163.858C39.3957 165.312 39.3617 166.917 38.7609 168.346C38.4717 168.346 37.518 167.049 37.1519 166.282C36.9056 165.759 36.022 166.134 36.3237 166.77C36.7937 167.756 37.4907 168.617 38.3575 169.282C38.1268 169.745 37.8683 170.194 37.5836 170.625C36.8687 170.096 36.3065 169.387 35.9542 168.57C35.9497 168.564 35.9473 168.556 35.9474 168.549C35.8932 168.413 35.8458 168.27 35.7983 168.134C35.7813 168.073 35.7525 168.017 35.7137 167.967C35.6748 167.918 35.6265 167.876 35.5716 167.845C35.5168 167.815 35.4563 167.795 35.3938 167.787C35.3313 167.78 35.268 167.785 35.2074 167.802C35.1467 167.819 35.0901 167.848 35.0406 167.886C34.9911 167.925 34.9497 167.974 34.9189 168.028C34.888 168.083 34.8683 168.144 34.8608 168.206C34.8533 168.269 34.8582 168.332 34.8752 168.393C35.2602 169.597 36.0154 170.65 37.0333 171.401C36.8992 171.57 36.7543 171.731 36.5994 171.882C36.335 172.133 36.1034 172.275 35.8186 171.982C35.1053 171.091 34.4695 170.14 33.9181 169.14C31.7652 165.232 30.9031 160.744 31.4549 156.317C31.5101 154.774 32.1533 153.31 33.2526 152.226C33.7263 151.816 34.3386 151.603 34.9644 151.629C35.5902 151.656 36.1823 151.92 36.6197 152.368C37.0062 152.85 37.6852 152.165 37.2977 151.69C35.8378 149.883 32.2312 150.315 30.9702 154.052C29.9284 157.103 30.264 161.664 31.1329 164.85C31.093 164.857 31.0546 164.871 31.0199 164.892C30.3823 165.291 29.6925 165.599 28.9703 165.807C28.9567 165.455 28.8076 161.729 28.7126 160.221C28.7051 160.142 28.6793 160.066 28.6372 159.998C28.595 159.931 28.5377 159.874 28.4698 159.833C28.402 159.791 28.3253 159.766 28.2461 159.759C28.1668 159.753 28.0871 159.765 28.0132 159.794C27.5432 159.978 27.8392 159.828 28.0336 166.724C28.3205 174.566 28.1666 182.417 27.5726 190.242C25.8472 188.244 23.9241 186.608 21.2937 186.93C22.4394 182.361 21.775 179.353 20.7287 175.351C19.3899 170.248 17.7724 165.223 15.8837 160.297C15.6328 159.732 14.8035 160.222 15.0554 160.778C16.313 163.595 20.8564 177.292 20.9197 181.969C20.9762 185.38 20.1558 186.714 20.3762 187.155C19.4634 187.57 18.6543 188.183 18.0075 188.95C17.3606 189.716 16.8922 190.617 16.6362 191.586C16.7525 191.949 16.8546 192.315 16.9424 192.686C20.3558 194.355 24.1365 193.364 27.585 192.347C27.6483 192.329 28.3759 191.79 28.4053 191.54C28.4053 190.504 28.8821 188.884 29.0573 179.614C29.246 169.272 28.8415 166.772 29.0369 166.772C29.8579 166.541 30.6452 166.204 31.3792 165.769C31.9815 167.655 34.2899 172.742 35.7972 173.099C36.8695 173.343 37.9078 171.824 38.4988 170.906C41.7936 165.794 39.2976 162.883 38.5643 161.004ZM23.6495 192.378L23.9546 190.2C23.9888 190.078 23.9729 189.947 23.9105 189.836C23.8481 189.725 23.7443 189.644 23.6218 189.61C23.4994 189.575 23.3685 189.591 23.2577 189.654C23.147 189.716 23.0656 189.82 23.0315 189.942L22.6654 192.529C21.9473 192.621 21.2225 192.651 20.4993 192.617C20.2338 190.403 21.6134 189.821 20.8462 189.359C20.7359 189.297 20.6055 189.279 20.4826 189.311C20.3597 189.342 20.2539 189.421 20.1875 189.529C19.682 190.431 19.4596 191.464 19.5491 192.495C18.8686 192.383 18.2072 192.176 17.5842 191.88C17.5977 191.827 17.6 191.862 17.6147 191.819C18.2463 189.797 19.7943 187.733 22.1343 187.815C24.3309 187.894 26.0144 189.712 27.3737 191.411C26.1495 191.8 24.9052 192.123 23.6461 192.378H23.6495ZM27.3929 108.98C27.6304 108.98 27.8625 109.051 28.0599 109.183C28.2573 109.315 28.411 109.503 28.5018 109.722C28.5925 109.942 28.6161 110.183 28.5697 110.416C28.5232 110.649 28.4087 110.863 28.2407 111.031C28.0727 111.199 27.8586 111.313 27.6257 111.359C27.3927 111.405 27.1513 111.381 26.9319 111.291C26.7125 111.2 26.525 111.046 26.393 110.848C26.2611 110.651 26.1907 110.418 26.1907 110.181C26.1907 110.023 26.2218 109.867 26.2822 109.721C26.3427 109.575 26.4312 109.443 26.5429 109.331C26.6545 109.22 26.7871 109.131 26.9329 109.071C27.0788 109.011 27.2351 108.98 27.3929 108.98ZM35.4559 115.957C37.4175 115.957 38.1813 111.487 38.1813 111.487C37.2997 111.744 36.3715 111.8 35.4656 111.649C34.5596 111.499 33.699 111.147 32.9475 110.619C32.9475 110.619 33.4944 115.957 35.4559 115.957ZM55.1593 67.7461C55.1939 67.6823 55.2139 67.6115 55.2179 67.539C55.2218 67.4665 55.2095 67.394 55.1819 67.3268C55.1543 67.2596 55.1121 67.1994 55.0584 67.1506C55.0046 67.1017 54.9407 67.0655 54.8712 67.0444C52.8848 66.2637 46.5098 63.7507 46.424 63.7146C46.3211 63.6864 46.2119 63.6933 46.1134 63.7343C46.015 63.7752 45.933 63.8478 45.8805 63.9406C45.3585 64.7541 30.8877 87.3432 30.351 88.2517C28.6494 87.6133 27.6189 88.5534 27.8539 89.7206C28.2064 91.4572 29.4019 91.0765 26.646 90.5115C25.383 90.2359 24.0883 90.1332 22.7976 90.2064C21.3163 90.4324 20.7716 91.7284 23.3264 93.5589C22.9332 93.5589 22.5354 93.5589 22.1456 93.5656C19.9626 93.586 20.1897 95.9588 22.0326 96.5249C20.8801 96.909 20.5965 98.5734 22.3919 98.8977C32.9136 100.737 38.5734 94.195 44.1393 85.3919C44.7856 84.358 54.7875 68.4896 55.1593 67.7461ZM36.0932 94.1159C34.403 95.7435 32.3517 96.948 30.1069 97.631C27.8621 98.314 25.4875 98.4561 23.1772 98.0457C21.2372 97.744 22.2371 97.3441 23.1637 97.2989C23.4966 97.2971 23.8269 97.2398 24.141 97.1294C24.2294 97.1013 24.308 97.0486 24.3674 96.9774C24.4269 96.9062 24.4648 96.8195 24.4766 96.7275C24.4885 96.6356 24.4738 96.5421 24.4344 96.4582C24.395 96.3742 24.3324 96.3033 24.254 96.2537C23.3015 95.6153 21.679 95.8334 21.5524 94.8481C21.4914 94.3396 22.5772 94.5227 22.8699 94.5227C23.6427 94.5227 24.41 94.5159 25.1839 94.5159C25.2983 94.5128 25.4079 94.4692 25.4931 94.3928C25.5783 94.3164 25.6335 94.2122 25.649 94.0989C25.6645 93.9855 25.6392 93.8703 25.5776 93.7739C25.516 93.6774 25.4221 93.606 25.3127 93.5724C24.4315 93.2225 23.6354 92.6877 22.9784 92.0041C22.8021 91.8211 22.2789 91.4075 22.6654 91.2312C25.1808 91.0145 27.707 91.5008 29.9623 92.6357C30.4143 92.8527 31.0007 92.2493 30.5465 91.8821C28.6347 90.3454 28.0471 88.3364 30.0844 89.1872C31.8037 90.0611 33.3995 91.1591 34.83 92.4527C35.291 92.8662 35.97 92.1883 35.5079 91.7747C34.1911 90.6057 32.7606 89.5712 31.238 88.6867C46.9076 64.0637 46.4918 64.8456 46.5166 64.8016C48.8646 65.7247 53.8746 67.6998 54.0373 67.7608C43.806 83.7445 40.9326 89.8629 36.0932 94.1159ZM170.184 29.7733C170.301 29.735 170.4 29.6529 170.458 29.544C170.516 29.435 170.53 29.3078 170.497 29.1887C170.464 29.0697 170.386 28.9681 170.28 28.9052C170.173 28.8424 170.047 28.823 169.926 28.8512C169.351 28.9445 168.813 29.1941 168.37 29.5727C167.927 29.9514 167.597 30.4444 167.416 30.9981C167.211 31.5472 168.094 31.902 168.338 31.2557C168.723 30.2975 169.164 30.1348 170.184 29.7733ZM171.762 32.8398C171.793 32.7166 171.775 32.5863 171.712 32.4761C171.649 32.3659 171.545 32.2845 171.423 32.2489C170.901 32.0794 170.385 31.9099 169.863 31.7461C169.743 31.7181 169.616 31.7378 169.51 31.8009C169.403 31.864 169.325 31.9658 169.292 32.0849C169.259 32.2041 169.273 32.3315 169.331 32.4405C169.39 32.5496 169.488 32.6319 169.605 32.6703C170.127 32.8398 170.644 33.0093 171.166 33.172C171.227 33.1896 171.291 33.1949 171.354 33.1877C171.417 33.1805 171.478 33.1609 171.533 33.13C171.589 33.0992 171.638 33.0576 171.677 33.0078C171.716 32.958 171.745 32.9009 171.762 32.8398ZM177.82 29.2998C177.239 29.171 177.17 29.7687 176.856 30.6557C176.823 30.7783 176.84 30.9089 176.902 31.0194C176.965 31.1299 177.068 31.2113 177.19 31.2462C177.312 31.281 177.443 31.2665 177.555 31.2057C177.666 31.1449 177.749 31.0427 177.786 30.9212C177.908 30.5823 178.03 30.2433 178.152 29.8964C178.185 29.7733 178.168 29.6423 178.107 29.531C178.045 29.4197 177.942 29.3368 177.82 29.2998ZM177.583 27.2197C177.979 26.5146 176.463 25.8491 175.465 26.6841C175.399 26.7518 175.355 26.8372 175.337 26.9299C175.32 27.0225 175.329 27.1184 175.365 27.2055C175.401 27.2927 175.462 27.3675 175.54 27.4206C175.618 27.4737 175.71 27.5028 175.804 27.5044C176.802 27.4547 177.403 27.579 177.583 27.2197ZM174.712 38.1538C174.403 38.3023 174.066 38.3824 173.723 38.3886C173.381 38.3948 173.041 38.327 172.727 38.1898C172.413 38.0526 172.132 37.8492 171.904 37.5936C171.676 37.338 171.506 37.0361 171.405 36.7086C171.19 36.2047 170.275 36.529 170.577 37.1968C170.742 37.6351 170.997 38.0338 171.325 38.3669C171.654 38.7 172.05 38.9599 172.486 39.1297C172.922 39.2994 173.39 39.3752 173.857 39.3521C174.325 39.329 174.782 39.2075 175.2 38.9956C175.305 38.928 175.381 38.8221 175.411 38.7002C175.44 38.5782 175.422 38.4495 175.359 38.341C175.296 38.2324 175.193 38.1523 175.073 38.1175C174.952 38.0826 174.823 38.0956 174.712 38.1538ZM160.328 33.3415C160.206 33.3093 160.076 33.326 159.966 33.3881C159.856 33.4501 159.775 33.5526 159.739 33.6737C159.709 33.796 159.726 33.9252 159.788 34.035C159.85 34.1448 159.951 34.2269 160.071 34.2646C160.632 34.4321 161.138 34.7438 161.54 35.1686C161.63 35.2583 161.752 35.3086 161.879 35.3086C162.006 35.3086 162.128 35.2583 162.218 35.1686C162.846 34.4918 161.105 33.5833 160.328 33.3415ZM161.748 38.6024C161.963 38.3823 162.119 38.1105 162.199 37.8132C162.279 37.5159 162.281 37.203 162.205 36.9045C162.13 36.606 161.979 36.332 161.767 36.1088C161.554 35.8855 161.289 35.7205 160.994 35.6296C160.872 35.597 160.742 35.6135 160.631 35.6756C160.521 35.7376 160.439 35.8403 160.403 35.9618C160.244 36.6555 161.164 36.4069 161.286 37.2171C161.286 38.2758 160.036 38.3108 160.036 37.0001C159.722 36.9688 159.41 36.9213 159.101 36.8578C159.025 37.1936 159.054 37.5444 159.183 37.8636C159.311 38.1828 159.534 38.4552 159.822 38.6446C160.109 38.834 160.447 38.9314 160.792 38.9239C161.136 38.9163 161.469 38.8042 161.748 38.6024ZM212.944 100.007C210.727 95.3938 210.106 91.5013 207.141 86.1399C207.706 85.7727 208.283 85.5399 208.051 85.0201C207.878 84.3286 206.695 81.5174 206.233 80.4802C206.173 80.3789 206.079 80.3031 205.967 80.2673C205.855 80.2314 205.734 80.238 205.627 80.2858C205.514 80.3254 196.549 85.1173 195.941 85.9975C195.571 86.5433 195.748 86.5625 197.286 90.22C197.335 90.3423 197.423 90.4449 197.537 90.5115C197.78 90.7544 197.929 90.6301 199.784 89.8595C200.889 92.5069 202.39 95.1001 202.532 97.9949C202.613 99.6976 201.956 101.354 201.758 103.031C201.339 106.518 203.551 107.52 205.39 104.368C205.616 105.707 206.027 107.709 207.019 108.453C207.184 108.592 207.384 108.683 207.597 108.716C207.81 108.748 208.028 108.721 208.227 108.637C208.446 108.495 208.631 108.305 208.768 108.081C208.904 107.858 208.99 107.607 209.018 107.347C209.299 106.23 209.081 106.32 209.357 106.751C210.611 108.832 212.839 107.304 212.148 104.965C212.461 105.196 212.844 105.312 213.233 105.295C213.621 105.277 213.992 105.128 214.284 104.87C215.372 103.782 214.015 102.252 212.944 100.007ZM198.04 89.5454C197.857 89.1104 197.007 87.0946 196.946 86.9466C196.704 86.3817 195.47 86.8958 205.581 81.4022C206.103 82.6033 206.598 83.8247 207.05 85.0529C204.191 86.8241 201.175 88.3279 198.04 89.5454ZM213.151 104.335C212.371 104.295 212.021 103.364 211.76 102.753C211.712 102.672 211.641 102.608 211.557 102.567C211.473 102.526 211.378 102.51 211.285 102.522C211.192 102.534 211.105 102.573 211.034 102.634C210.962 102.695 210.91 102.776 210.884 102.866C210.621 104.395 211.876 105.755 211.047 106.626C210.256 107.454 209.248 104.088 209.133 103.626C208.978 103.023 208.103 103.281 208.21 103.885C208.378 104.801 208.374 105.74 208.196 106.653C207.997 107.67 207.848 108.318 207.199 107.218C206.504 105.533 206.136 103.731 206.113 101.908C206.107 101.785 206.054 101.669 205.965 101.584C205.876 101.499 205.757 101.452 205.634 101.452C205.511 101.452 205.393 101.499 205.304 101.584C205.215 101.669 205.162 101.785 205.156 101.908C205.043 103.918 203.543 105.449 203.106 105.282C202.669 105.114 202.672 104.236 202.672 103.877C202.689 101.876 203.772 99.6457 203.418 97.239C202.989 94.2063 201.774 92.2018 200.663 89.4878C202.602 88.6627 204.489 87.7193 206.313 86.663C209.465 92.403 210.07 96.9452 213.196 102.586C213.44 103.021 214.238 104.386 213.151 104.33V104.335ZM165.039 54.681C164.377 54.9781 161.951 56.0459 161.897 56.0662C162.332 54.8557 162.668 53.6117 162.902 52.3466C162.936 52.2242 162.92 52.0931 162.858 51.9823C162.796 51.8715 162.692 51.7899 162.57 51.7556C162.447 51.7213 162.316 51.737 162.205 51.7993C162.094 51.8616 162.013 51.9654 161.979 52.0878C161.231 56.212 160.321 56.4075 161.008 56.8933C161.753 57.4176 162.492 56.847 165.541 55.5092C166.03 55.3001 165.724 54.3736 165.039 54.681ZM174.867 52.3194C175.161 53.5505 175.219 54.8262 175.037 56.0787C173.998 55.6928 173.002 55.2006 172.064 54.6098C171.542 54.2776 171.06 55.1115 171.582 55.438C172.749 56.1672 173.997 56.7572 175.301 57.1961C175.425 57.2284 175.556 57.211 175.666 57.1476C175.777 57.0842 175.858 56.9799 175.892 56.8572C176.202 55.2676 176.167 53.6301 175.791 52.0551C175.648 51.4607 174.722 51.7206 174.867 52.3194ZM173.656 49.3207C173.682 49.202 173.661 49.0781 173.599 48.974C173.536 48.8699 173.437 48.7935 173.32 48.7603C173.203 48.7271 173.078 48.7395 172.97 48.7951C172.862 48.8507 172.779 48.9453 172.739 49.0597C172.479 49.9886 171.998 50.8407 171.337 51.543C170.675 52.2454 169.854 52.777 168.942 53.0923C166.619 53.8008 165.174 52.0415 164.557 49.7026C164.518 49.5861 164.436 49.489 164.327 49.431C164.219 49.373 164.093 49.3585 163.974 49.3905C163.855 49.4225 163.753 49.4986 163.689 49.6032C163.625 49.7078 163.602 49.8331 163.627 49.9534C165.419 56.8312 172.292 54.3849 173.656 49.3207Z" fill="#1D1D1B"/>
<path d="M198.073 86.9991C197.997 87.0457 197.932 87.1084 197.882 87.1827C197.832 87.257 197.799 87.3413 197.784 87.4297C197.77 87.5181 197.775 87.6085 197.8 87.6947C197.824 87.7809 197.866 87.8608 197.924 87.929C198.021 88.0109 198.138 88.0642 198.263 88.0828C198.389 88.1013 198.517 88.0845 198.633 88.0341C199.347 87.3573 198.506 86.7358 198.073 86.9991ZM169.117 58.2825C169.528 58.2531 169.707 57.5718 169.313 57.2452C169.243 57.2012 169.165 57.1721 169.083 57.1596C169.002 57.1472 168.918 57.1517 168.839 57.173C168.759 57.1942 168.684 57.2316 168.62 57.2829C168.555 57.3342 168.502 57.3983 168.463 57.4712C168.244 57.9842 168.643 58.3152 169.117 58.2825ZM169.374 63.4168C169.785 63.3885 169.963 62.7072 169.569 62.3795C169.499 62.3355 169.421 62.3064 169.34 62.294C169.258 62.2815 169.175 62.2861 169.095 62.3073C169.015 62.3285 168.941 62.3659 168.876 62.4172C168.812 62.4685 168.758 62.5326 168.719 62.6055C168.49 63.1185 168.895 63.445 169.374 63.4168ZM153.921 69.7725C152.65 70.6055 151.326 71.3536 149.956 72.012C149.414 72.3103 149.895 73.1419 150.439 72.8402C151.134 72.4583 153.631 71.1092 153.721 71.0448C153.721 71.7465 153.588 73.2741 153.507 74.0176C153.507 74.1449 153.558 74.2671 153.648 74.3571C153.738 74.4472 153.86 74.4978 153.988 74.4978C154.115 74.4978 154.237 74.4472 154.327 74.3571C154.417 74.2671 154.468 74.1449 154.468 74.0176C154.512 73.5939 154.849 70.3397 154.581 69.9657C154.503 69.8712 154.398 69.8022 154.281 69.7678C154.163 69.7333 154.038 69.735 153.921 69.7725ZM177.982 182.813C176.18 183.056 174.461 183.726 172.97 184.768C171.479 185.809 170.258 187.193 169.41 188.802C175.399 188.455 181.407 188.584 187.375 189.188C185.049 186.098 181.351 182.548 177.982 182.813ZM157.878 144.479C159.81 144.981 161.822 145.094 163.798 144.81C163.916 144.772 164.015 144.69 164.074 144.581C164.133 144.471 164.148 144.343 164.114 144.224C164.08 144.104 164.002 144.002 163.894 143.939C163.787 143.877 163.66 143.858 163.539 143.888C161.734 144.137 159.897 144.024 158.137 143.554C158.016 143.525 157.888 143.544 157.781 143.607C157.674 143.67 157.595 143.772 157.562 143.892C157.528 144.012 157.542 144.14 157.601 144.249C157.66 144.359 157.759 144.441 157.878 144.479Z" fill="#1D1D1B"/>
<path d="M92.3609 99.1143C90.2866 97.9986 88.6405 96.2271 87.6797 94.0767C86.7189 91.9264 86.4976 89.5183 87.0503 87.2288C87.1927 86.6254 86.2695 86.3746 86.1272 86.9712C85.5415 89.4651 85.7869 92.0822 86.8259 94.4238C87.865 96.7654 89.6408 98.7033 91.8829 99.9425C92.4275 100.24 92.9044 99.4115 92.3609 99.1143ZM62.0827 89.4592C62.3565 91.0797 62.1547 92.7449 61.5018 94.2531C60.8489 95.7613 59.7728 97.048 58.4037 97.9573C57.3327 98.7937 56.0668 99.3446 54.7247 99.5583C54.6019 99.5643 54.486 99.6173 54.4011 99.7064C54.3163 99.7955 54.2689 99.9138 54.2689 100.037C54.2689 100.16 54.3163 100.278 54.4011 100.367C54.486 100.456 54.6019 100.509 54.7247 100.515C56.197 100.346 57.5945 99.7756 58.7642 98.8657C60.3534 97.8612 61.6064 96.4051 62.3627 94.6839C63.1191 92.9628 63.3442 91.0549 63.0092 89.205C62.894 88.5937 61.9708 88.8547 62.0827 89.4592Z" fill="#219EBC"/>
<path d="M88.8457 27.2943C88.3643 25.2553 87.4446 23.3457 86.1505 21.6981C84.8565 20.0506 83.2191 18.7046 81.3523 17.7538C79.4855 16.8031 77.434 16.2703 75.3404 16.1925C73.2469 16.1148 71.1615 16.4939 69.2293 17.3036C59.2861 21.4956 53.2558 38.799 68.6395 42.2328C68.4795 43.0641 68.5073 43.9206 68.721 44.7398C68.9347 45.5589 69.3288 46.3199 69.8745 46.9671C71.5694 48.5897 75.9918 48.7004 77.5443 46.5298C78.1409 48.8122 79.5443 48.7783 78.2709 49.6043C77.7496 49.9514 77.3366 50.4383 77.0792 51.0092C76.8218 51.5801 76.7304 52.2119 76.8154 52.8323C76.9004 53.4528 77.1584 54.0368 77.5599 54.5174C77.9614 54.998 78.4901 55.3558 79.0855 55.5499C78.5265 56.0458 78.0874 56.6624 77.8016 57.3529C77.5159 58.0434 77.3908 58.7899 77.4358 59.5359C77.4809 60.2818 77.6949 61.0078 78.0617 61.6589C78.4286 62.31 78.9386 62.8692 79.5533 63.2943C79.0562 63.9965 78.7472 64.8142 78.6556 65.6696C78.564 66.525 78.693 67.3897 79.0301 68.1811C79.438 69.1111 80.1442 70.1427 79.6618 71.0319C81.1928 71.5969 83.317 68.8614 82.6888 65.7507C82.575 65.421 82.5521 65.0666 82.6227 64.725C82.6933 64.3834 82.8547 64.0671 83.0899 63.8095C84.1464 62.1327 84.9622 60.143 83.9385 58.4345C83.7505 58.2374 83.6377 57.9806 83.6198 57.7089C83.6018 57.4371 83.6798 57.1677 83.8402 56.9476C84.7317 55.038 85.1531 52.7669 83.7114 51.2269C83.0334 50.515 82.856 50.3806 83.352 49.2857C83.6953 48.6826 83.8609 47.9947 83.8298 47.3015C83.7986 46.6083 83.5718 45.9381 83.1758 45.3683C82.8854 45.0474 82.7871 44.957 82.9498 44.5344C83.4075 43.6915 83.6391 42.7444 83.6221 41.7853C87.4322 39.3606 90.2467 33.2907 88.8457 27.2943ZM73.7535 47.201C70.6304 47.2213 68.9909 46.053 69.7491 41.052C70.8851 41.5922 72.1215 41.8893 73.3789 41.9243C74.6364 41.9593 75.8873 41.7315 77.0517 41.2554C77.6743 44.8078 77.3895 47.1637 73.7535 47.201ZM81.6504 32.711C81.2843 32.6636 81.1352 33.0297 81.2165 33.3212C80.8131 34.9681 80.209 36.5592 79.4177 38.0589C78.4855 39.353 77.1472 40.298 75.6157 40.7433C74.0843 41.1887 72.4479 41.1088 70.9671 40.5165C65.6995 38.7154 66.548 33.9178 66.2362 32.3438C66.2148 32.2642 66.1729 32.1916 66.1146 32.1332C66.0563 32.0749 65.9836 32.033 65.904 32.0116C64.4713 31.6376 62.8634 30.3755 62.7956 28.7801C62.7798 28.3674 62.8826 27.9588 63.0919 27.6028C63.3012 27.2467 63.6081 26.9581 63.9764 26.7711C64.8046 26.4186 65.4554 27.5926 65.7684 28.1767C65.8174 28.2559 65.8882 28.3193 65.9723 28.3594C66.0564 28.3994 66.1503 28.4144 66.2427 28.4024C66.335 28.3905 66.422 28.3522 66.4932 28.2922C66.5644 28.2321 66.6168 28.1528 66.6441 28.0637C66.8438 26.8357 67.1078 25.619 67.435 24.4186C70.4225 24.4864 73.8156 23.8684 75.967 21.6696C76.09 22.718 76.4198 23.7316 76.9373 24.6517C77.4547 25.5718 78.1496 26.3801 78.9816 27.0299C78.6736 26.8174 78.3158 26.6886 77.9432 26.6559C77.8159 26.6576 77.6943 26.7091 77.6044 26.7992C77.5144 26.8893 77.4633 27.011 77.4618 27.1383C77.5025 27.8739 78.5296 27.4265 78.9205 28.3665C79.2595 29.0162 80.6312 28.3089 79.0765 27.1044C79.82 27.7208 80.6446 28.2321 81.5272 28.6242C81.5001 28.9631 81.4798 29.3021 81.4527 29.6287C81.4188 30.0908 81.9815 30.206 82.2741 29.9676C82.8456 29.4682 83.5034 29.0772 84.2153 28.814C85.0401 28.5518 85.439 28.7281 85.674 29.5597C86.2729 31.9371 83.5566 32.9528 81.6504 32.711Z" fill="#1D1D1B"/>
<path d="M70.4929 29.7093C70.4929 29.522 70.4185 29.3424 70.286 29.21C70.1536 29.0775 69.974 29.0031 69.7867 29.0031C69.5994 29.0031 69.4198 29.0775 69.2873 29.21C69.1549 29.3424 69.0805 29.522 69.0805 29.7093C69.0805 29.8966 69.1549 30.0762 69.2873 30.2087C69.4198 30.3411 69.5994 30.4155 69.7867 30.4155C69.974 30.4155 70.1536 30.3411 70.286 30.2087C70.4185 30.0762 70.4929 29.8966 70.4929 29.7093ZM77.7141 30.1918C77.5319 30.1991 77.3595 30.2766 77.2331 30.4081C77.1068 30.5397 77.0362 30.715 77.0362 30.8974C77.0362 31.0798 77.1068 31.2551 77.2331 31.3867C77.3595 31.5182 77.5319 31.5957 77.7141 31.603C77.8964 31.5957 78.0688 31.5182 78.1951 31.3867C78.3215 31.2551 78.3921 31.0798 78.3921 30.8974C78.3921 30.715 78.3215 30.5397 78.1951 30.4081C78.0688 30.2766 77.8964 30.1991 77.7141 30.1918ZM70.4929 26.6823C70.6167 26.6763 70.7334 26.6229 70.8189 26.5332C70.9043 26.4435 70.952 26.3243 70.952 26.2004C70.952 26.0765 70.9043 25.9573 70.8189 25.8676C70.7334 25.7779 70.6167 25.7245 70.4929 25.7185C70.112 25.7379 69.7416 25.85 69.4139 26.0451C69.0862 26.2403 68.8112 26.5125 68.6127 26.8382C68.55 26.9486 68.5326 27.0789 68.5643 27.2019C68.5959 27.3248 68.674 27.4306 68.7822 27.497C69.45 27.8597 69.5664 26.6823 70.4929 26.6823ZM76.4317 33.8572C75.2069 35.6041 71.6375 35.3453 71.1708 33.3883C71.0285 32.7849 70.1053 33.0425 70.2477 33.6459C70.8737 36.3215 75.4792 36.9091 77.2599 34.3521C77.6192 33.8301 76.7842 33.3544 76.4317 33.8572ZM79.9604 72.2933C80.3943 71.8515 79.7163 71.1736 79.2824 71.6154C78.6179 72.3003 78.1213 73.1301 77.8315 74.0393C77.5417 74.9486 77.4667 75.9127 77.6124 76.8559C77.6294 76.9165 77.6582 76.9732 77.6971 77.0227C77.736 77.0722 77.7842 77.1135 77.8391 77.1444C77.894 77.1752 77.9544 77.195 78.0169 77.2025C78.0794 77.21 78.1428 77.2051 78.2034 77.1881C78.264 77.1711 78.3207 77.1423 78.3702 77.1034C78.4197 77.0645 78.461 77.0163 78.4919 76.9614C78.5227 76.9065 78.5424 76.8461 78.5499 76.7836C78.5574 76.7211 78.5526 76.6578 78.5356 76.5971C78.4309 75.8187 78.5049 75.0266 78.7517 74.2809C78.9986 73.5353 79.4119 72.8556 79.9604 72.2933ZM80.6056 72.1306C80.5431 72.1439 80.4845 72.1712 80.434 72.2103C80.3835 72.2494 80.3425 72.2994 80.3141 72.3566C79.4277 73.9765 79.1473 75.8592 79.5231 77.6672C79.5574 77.7896 79.639 77.8934 79.7498 77.9557C79.8606 78.0179 79.9916 78.0337 80.1141 77.9994C80.2365 77.965 80.3402 77.8835 80.4025 77.7727C80.4648 77.6619 80.4806 77.5308 80.4462 77.4084C80.187 76.1252 80.312 74.794 80.8056 73.5814C81.1997 74.5528 81.392 75.5943 81.3705 76.6423C81.3765 76.7652 81.4295 76.8811 81.5186 76.966C81.6077 77.0508 81.726 77.0982 81.849 77.0982C81.9721 77.0982 82.0904 77.0508 82.1795 76.966C82.2685 76.8811 82.3216 76.7652 82.3275 76.6423C82.3522 75.1215 81.9828 73.6201 81.2553 72.2843C81.2266 72.2275 81.1859 72.1776 81.136 72.1382C81.086 72.0988 81.0281 72.0708 80.9662 72.0562C80.9043 72.0415 80.8399 72.0406 80.7776 72.0535C80.7153 72.0663 80.6566 72.0927 80.6056 72.1306ZM81.4812 71.7103C82.3925 72.8647 82.9238 74.2731 83.0021 75.7418C83.0081 75.8656 83.0615 75.9823 83.1512 76.0678C83.2409 76.1533 83.3601 76.2009 83.484 76.2009C83.6079 76.2009 83.7271 76.1533 83.8168 76.0678C83.9065 75.9823 83.9599 75.8656 83.9659 75.7418C83.8735 74.0222 83.2444 72.3748 82.1671 71.0312C81.8247 70.603 81.0157 71.134 81.4812 71.7103Z" fill="#1D1D1B"/>
</svg>
