<svg width="81" height="93" viewBox="0 0 81 93" fill="none" xmlns="http://www.w3.org/2000/svg">
<path d="M15.3759 42.0776C14.8586 41.782 14.637 41.6342 14.3414 41.5603C8.87333 39.4174 6.36098 34.91 5.17869 29.5897C4.0703 24.6389 8.1344 18.8753 13.3069 17.693C15.3759 17.1758 17.371 17.3236 19.44 17.9147C23.7996 19.2448 27.1987 21.831 29.8588 25.5256C30.3761 26.2646 30.9672 27.0774 31.5584 27.8902C32.1495 27.2252 31.9278 26.5601 31.9278 25.969C32.1495 21.6832 32.3712 17.3236 33.3318 13.1117C33.9968 10.156 34.8835 7.27416 36.657 4.76181C38.4304 2.32335 40.6472 0.623824 43.6768 0.106576C45.9674 -0.262887 47.8886 0.328254 49.5143 1.88C51.2877 3.50564 52.3961 5.57463 53.135 7.8653C54.9084 13.4072 54.9084 18.8753 53.2089 24.4172C53.0611 25.0084 52.9133 25.6734 52.9872 26.4123C53.5045 26.0429 53.9478 25.5995 54.4651 25.2301C56.7557 23.5305 58.9725 21.7571 61.3371 20.2054C63.9233 18.4319 66.879 17.693 70.0564 17.9147C77.0023 18.2842 83.1354 26.2646 79.8841 33.506C77.8151 38.2352 74.3422 41.4864 69.8347 43.7771C68.8741 44.2944 67.9135 44.7377 66.9529 45.1811C66.879 45.1811 66.879 45.255 66.8052 45.4766C67.4702 45.6244 68.1352 45.8461 68.8002 45.9939C71.8298 46.6589 74.6378 47.8412 77.1501 49.6885C78.4802 50.723 79.5886 51.9053 80.2536 53.457C81.7315 57.0039 80.9186 60.3291 77.8152 62.6197C74.7117 64.9104 71.2387 66.3144 67.3963 66.8316C65.4012 67.1272 63.4061 67.3489 61.411 67.5705C58.0119 67.8661 54.8345 67.1272 51.5094 65.7971C51.4355 66.4621 51.3616 66.9794 51.2877 67.4966C50.9182 73.7036 49.5143 79.7628 47.3714 85.6003C47.1497 86.2654 46.8541 86.9304 46.5586 87.5954C45.3024 90.3295 43.2334 91.9551 40.3516 92.694C37.322 93.5068 34.8096 92.694 32.8884 90.3295C31.2628 88.4082 30.1544 86.1915 29.6372 83.753C28.4549 77.3983 28.5288 71.0435 29.7849 64.7626C29.9327 64.0237 30.0066 63.2848 30.1544 62.3242C29.6372 62.5458 29.2677 62.6197 28.8982 62.8414C24.8341 64.9104 20.77 66.9794 16.7059 68.9745C15.302 69.6395 13.9719 70.3785 12.568 70.9696C11.2379 71.4868 9.98172 72.078 8.57775 72.3736C3.84863 73.4081 0.153995 70.4523 0.00620936 65.3538C-0.0676833 62.9153 0.523458 60.6246 1.48406 58.4817C4.21809 51.9792 8.28218 46.6589 14.2675 42.8165C14.5631 42.5948 14.8586 42.447 15.3759 42.0776Z" fill="#219EBC"/>
<path d="M53.209 47.4418C53.0493 51.4269 51.2293 55.2834 47.6213 58.1437C45.2266 60.0398 42.3849 60.8112 39.3516 60.5862C37.4997 60.4576 35.7755 59.7506 34.2429 58.6901C30.4114 56.0869 28.2082 52.4874 27.5377 47.9239C27.2503 46.0599 27.2823 44.228 27.6654 42.3961C28.2082 39.7608 29.4535 37.5433 31.497 35.8079C33.6362 33.976 36.1267 32.8833 38.9046 32.5941C40.7565 32.4012 42.5126 32.7869 44.2049 33.5582C46.0248 34.3938 47.6852 35.4865 49.122 36.9005C51.8679 39.6001 53.1451 42.9425 53.209 47.4418Z" fill="black"/>
</svg>
