<svg width="81" height="83" viewBox="0 0 81 83" fill="none" xmlns="http://www.w3.org/2000/svg">
<path d="M34.539 40.4459C34.6975 39.9056 34.8559 39.4102 34.9918 38.9149C35.6484 36.3706 36.2823 33.8264 37.1427 31.3272C38.7049 26.8016 40.5162 22.3661 42.3728 17.9531C44.4331 13.0672 46.4482 8.18139 48.4859 3.29556C48.8029 2.50752 49.1878 1.76451 49.5727 0.998988C49.7085 0.706288 49.9123 0.436104 50.1387 0.21095C50.5236 -0.171811 51.0217 -0.0142038 51.067 0.526165C51.1122 0.976473 51.1122 1.42678 51.0217 1.87709C50.6821 3.7909 50.3424 5.7047 49.9349 7.59599C48.8481 12.752 47.7387 17.908 46.8784 23.1091C46.3803 26.1712 45.9501 29.2333 45.5199 32.2954C45.135 34.9972 44.818 37.6765 44.4784 40.3784C44.4331 40.7837 44.4105 41.1889 44.3652 41.7068C44.5916 41.5717 44.7048 41.5042 44.818 41.4141C45.2708 41.0088 45.7463 40.6035 46.1538 40.1532C50.5462 35.6051 55.5046 31.71 60.7347 28.1525C61.0517 27.9499 61.3687 27.7473 61.7083 27.5671C61.8894 27.4771 62.0932 27.432 62.2743 27.4095C62.6366 27.387 62.9082 27.6347 62.9082 27.9949C62.9082 28.2651 62.863 28.5803 62.7271 28.828C62.4101 29.4809 62.0932 30.1339 61.6856 30.7193C60.3272 32.6106 58.9687 34.5019 57.565 36.3481C55.4593 39.1175 53.3084 41.8644 51.1802 44.6338C50.7726 45.1516 50.4104 45.7145 50.0708 46.2999C49.5727 47.133 49.6632 47.5383 50.5009 48.0561C51.1349 48.4389 51.7915 48.7766 52.4707 49.0693C54.9159 50.105 57.4518 50.9156 59.9876 51.6811C66.4403 53.6625 72.825 55.8465 79.074 58.3907C79.4589 58.5483 79.8664 58.6834 80.2513 58.841C80.4098 58.9085 80.5457 58.9761 80.6815 59.0887C80.9758 59.3589 80.8853 59.8317 80.5004 59.9668C80.3645 60.0118 80.206 60.0343 80.0702 60.0343C78.5532 60.0568 77.0363 60.1019 75.5193 60.0568C71.6704 59.8992 67.8214 59.4939 63.995 59.0211C58.38 58.3457 52.8103 57.4225 47.2859 56.2742C46.5387 56.1166 45.7916 56.0041 45.0444 55.869C44.8859 55.8465 44.7275 55.8239 44.5463 55.8465C43.9577 55.8465 43.7086 55.9815 43.5501 56.5669C43.3464 57.355 43.1652 58.143 43.0294 58.9311C42.4181 62.3309 41.92 65.7532 41.5351 69.1981C41.286 71.4271 41.1049 73.6786 40.8332 75.9077C40.6294 77.6639 40.3351 79.3975 40.086 81.1537C40.0181 81.5365 39.8823 81.9193 39.7464 82.2795C39.6106 82.6623 39.3615 83 38.8861 83C38.4559 82.9775 38.2068 82.6623 38.0936 82.2795C37.8899 81.6716 37.6861 81.0412 37.5955 80.4107C37.3691 78.9022 37.1427 77.3712 37.0521 75.8626C36.8257 72.1701 36.6446 68.5001 36.5314 64.8076C36.4635 62.5785 36.5314 60.3495 36.554 58.1205C36.554 57.9179 36.554 57.6927 36.554 57.4C36.2144 57.445 35.9201 57.445 35.6257 57.4901C32.3654 58.0304 29.173 58.7735 25.958 59.539C20.4789 60.7998 14.9997 62.1733 9.45264 63.2765C7.09797 63.7494 4.72065 64.1546 2.34334 64.5824C1.9358 64.65 1.50562 64.6725 1.09808 64.7175C0.984875 64.7175 0.87167 64.74 0.781105 64.7175C0.305642 64.695 0.0565905 64.5599 0.0113083 64.2672C-0.056615 63.8844 0.192437 63.7043 0.46413 63.5467C1.07544 63.209 1.66411 62.8938 2.27542 62.5786C8.04889 59.539 13.9582 56.7696 19.8223 53.9326C22.5618 52.6042 25.2561 51.1407 27.9504 49.7223C28.29 49.5421 28.5844 49.3395 28.9919 49.0918C28.7881 48.8217 28.6296 48.5515 28.4259 48.3488C27.2938 47.133 26.207 45.8721 24.9844 44.7464C22.5392 42.4948 20.0487 40.3108 17.5355 38.1268C14.479 35.47 11.4677 32.7682 8.70549 29.8187C8.09418 29.1657 7.50551 28.4678 6.93948 27.7698C6.78099 27.5897 6.64515 27.3645 6.5093 27.1393C6.32817 26.8241 6.35081 26.5314 6.55458 26.3288C6.73571 26.1262 7.03005 26.1036 7.34702 26.2612C7.46023 26.3063 7.57343 26.3963 7.68664 26.4414C9.20359 27.297 10.6753 28.1976 12.2149 29.0081C16.7884 31.3947 21.3845 33.7814 25.8674 36.3706C28.0183 37.609 30.2598 38.6447 32.6145 39.4778C32.9767 39.6129 33.2937 39.793 33.6333 39.9731C33.9277 40.1082 34.1994 40.2658 34.539 40.4459Z" fill="#EA552B"/>
</svg>
