<svg width="132" height="135" viewBox="0 0 132 135" fill="none" xmlns="http://www.w3.org/2000/svg">
<path d="M56.1778 65.7856C56.4356 64.9066 56.6934 64.101 56.9143 63.2953C57.9823 59.1571 59.0134 55.0189 60.4128 50.9539C62.9538 43.593 65.8999 36.3786 68.9196 29.2008C72.2707 21.2539 75.5482 13.3071 78.8626 5.36024C79.3781 4.07849 80.0042 2.86999 80.6302 1.62486C80.8512 1.14878 81.1826 0.709325 81.5508 0.343111C82.1769 -0.279452 82.9871 -0.0231026 83.0607 0.855811C83.1344 1.58824 83.1344 2.32067 82.9871 3.05309C82.4347 6.16591 81.8823 9.27873 81.2194 12.3549C79.4518 20.7412 77.6473 29.1275 76.2479 37.5871C75.4378 42.5676 74.7381 47.5481 74.0384 52.5286C73.4123 56.9232 72.8968 61.2811 72.3444 65.6757C72.2707 66.3349 72.2339 66.994 72.1603 67.8363C72.5285 67.6166 72.7126 67.5068 72.8968 67.3603C73.6333 66.7011 74.4066 66.0419 75.0695 65.3095C82.2137 57.9119 90.2786 51.5764 98.7853 45.7903C99.3009 45.4607 99.8165 45.1311 100.369 44.8381C100.663 44.6916 100.995 44.6184 101.29 44.5818C101.879 44.5451 102.321 44.948 102.321 45.5339C102.321 45.9734 102.247 46.4861 102.026 46.8889C101.51 47.9509 100.995 49.0129 100.332 49.9651C98.1225 53.0413 95.9129 56.1175 93.6297 59.1205C90.2049 63.6249 86.7065 68.0927 83.2448 72.5971C82.582 73.4394 81.9928 74.355 81.4404 75.3071C80.6302 76.6621 80.7775 77.3213 82.1401 78.1636C83.1712 78.7861 84.2391 79.3355 85.3439 79.8115C89.3211 81.4961 93.4456 82.8145 97.5701 84.0596C108.065 87.2823 118.45 90.8346 128.614 94.9728C129.24 95.2291 129.903 95.4489 130.529 95.7052C130.787 95.8151 131.008 95.925 131.229 96.1081C131.708 96.5475 131.56 97.3166 130.934 97.5363C130.713 97.6095 130.456 97.6462 130.235 97.6462C127.767 97.6828 125.3 97.756 122.833 97.6828C116.572 97.4264 110.312 96.7673 104.088 95.9982C94.9555 94.8996 85.8963 93.3981 76.9108 91.5304C75.6955 91.274 74.4803 91.0909 73.265 90.8712C73.0072 90.8346 72.7495 90.798 72.4549 90.8346C71.4974 90.8346 71.0923 91.0543 70.8345 92.0065C70.5031 93.2882 70.2085 94.57 69.9875 95.8517C68.9932 101.382 68.1831 106.948 67.557 112.551C67.1519 116.177 66.8573 119.839 66.4154 123.464C66.084 126.321 65.6053 129.141 65.2002 131.997C65.0897 132.62 64.8687 133.242 64.6478 133.828C64.4268 134.451 64.0217 135 63.2484 135C62.5487 134.963 62.1436 134.451 61.9595 133.828C61.6281 132.839 61.2966 131.814 61.1493 130.789C60.7811 128.335 60.4128 125.845 60.2655 123.391C59.8972 117.385 59.6026 111.416 59.4185 105.41C59.308 101.784 59.4185 98.1589 59.4553 94.5334C59.4553 94.2038 59.4553 93.8375 59.4553 93.3615C58.9029 93.4347 58.4242 93.4347 57.9455 93.5079C52.6425 94.3869 47.4501 95.5954 42.2208 96.8405C33.309 98.8913 24.3971 101.125 15.3748 102.92C11.5449 103.689 7.67817 104.348 3.81146 105.044C3.14859 105.154 2.4489 105.19 1.78603 105.263C1.6019 105.263 1.41778 105.3 1.27047 105.263C0.497129 105.227 0.0920448 105.007 0.018393 104.531C-0.0920845 103.908 0.313 103.615 0.75491 103.359C1.74921 102.81 2.70668 102.297 3.70098 101.784C13.0916 96.8405 22.7031 92.3361 32.241 87.7218C36.6969 85.5611 41.0792 83.1807 45.4615 80.8736C46.0139 80.5806 46.4926 80.251 47.1555 79.8482C46.8241 79.4087 46.5663 78.9692 46.2348 78.6397C44.3936 76.6621 42.6259 74.6113 40.6373 72.7802C36.6601 69.1181 32.6093 65.5658 28.5216 62.0135C23.5501 57.6922 18.6523 53.2976 14.1595 48.5002C13.1652 47.4382 12.2078 46.303 11.2871 45.1677C11.0293 44.8747 10.8084 44.5085 10.5874 44.1423C10.2928 43.6296 10.3296 43.1535 10.6611 42.8239C10.9557 42.4943 11.4344 42.4577 11.95 42.7141C12.1341 42.7873 12.3182 42.9338 12.5024 43.007C14.9697 44.3987 17.3634 45.8635 19.8675 47.1819C27.3064 51.0637 34.782 54.9456 42.0735 59.1571C45.572 61.1713 49.2177 62.8558 53.0476 64.2108C53.6368 64.4306 54.1524 64.7235 54.7048 65.0165C55.1835 65.2362 55.6254 65.4926 56.1778 65.7856Z" fill="#EA552B"/>
</svg>
