<svg width="227" height="128" viewBox="0 0 227 128" fill="none" xmlns="http://www.w3.org/2000/svg">
<path d="M114.344 29.2177C124.107 26.2436 133.804 23.2351 143.622 20.4124C151.756 18.0482 159.999 15.9866 168.36 14.3948C174.098 13.2972 179.861 12.4173 185.785 12.5595C188.291 12.6152 190.871 12.8726 193.412 13.3133C197.594 14.0469 201.399 15.9281 204.755 18.7551C207.795 21.293 209.814 24.5171 210.512 28.4728C211.006 31.1383 210.581 33.6056 209.593 35.9806C208.232 39.219 206.357 42.065 204.072 44.6538C199.454 49.8475 194.308 54.3141 188.585 58.0698C180.851 63.1314 172.876 67.8216 164.661 72.1402C156.633 76.3949 148.587 80.5992 140.421 84.6178C134.716 87.4042 128.799 89.7527 123.002 92.2869C121.174 93.0776 119.346 93.8682 117.564 94.6429C115.453 95.5294 113.361 96.4664 111.203 97.369C105.322 99.8183 99.3947 102.284 93.4959 104.683C87.5318 107.047 81.4679 108.992 75.2286 110.6C69.2901 112.163 63.3253 113.508 57.1955 114.398C51.2252 115.292 45.1736 115.816 39.0456 115.403C36.0522 115.173 33.0796 114.709 30.1303 113.727C27.8456 112.973 25.676 111.953 23.6892 110.417C19.8648 107.466 17.8321 103.623 17.6487 98.7563C17.5711 95.7797 18.0927 92.9962 19.0645 90.2867C20.5376 86.0471 22.7673 82.2873 25.4262 78.835C28.9688 74.1763 33.1161 70.1621 37.5619 66.3866C43.6918 61.1329 50.4241 56.8079 57.3789 52.8039C66.1359 47.7916 75.299 43.6047 84.6926 39.9061C94.5283 36.1141 104.464 32.7416 114.344 29.2177Z" fill="#EE8DB9"/>
<mask id="mask0_96_1392" style="mask-type:alpha" maskUnits="userSpaceOnUse" x="17" y="12" width="194" height="104">
<path d="M114.344 29.2177C124.107 26.2436 133.804 23.2351 143.622 20.4124C151.756 18.0482 159.999 15.9866 168.36 14.3948C174.098 13.2972 179.861 12.4173 185.785 12.5595C188.291 12.6152 190.871 12.8726 193.412 13.3133C197.594 14.0469 201.399 15.9281 204.755 18.7551C207.795 21.293 209.814 24.5171 210.512 28.4728C211.006 31.1383 210.581 33.6056 209.593 35.9806C208.232 39.219 206.357 42.065 204.072 44.6538C199.454 49.8475 194.308 54.3141 188.585 58.0698C180.851 63.1314 172.876 67.8216 164.661 72.1402C156.633 76.3949 148.587 80.5992 140.421 84.6178C134.716 87.4042 128.799 89.7527 123.002 92.2869C121.174 93.0776 119.346 93.8682 117.564 94.6429C115.453 95.5294 113.361 96.4664 111.203 97.369C105.322 99.8183 99.3947 102.284 93.4959 104.683C87.5318 107.047 81.4679 108.992 75.2286 110.6C69.2901 112.163 63.3253 113.508 57.1955 114.398C51.2252 115.292 45.1736 115.816 39.0456 115.403C36.0522 115.173 33.0796 114.709 30.1303 113.727C27.8456 112.973 25.676 111.953 23.6892 110.417C19.8648 107.466 17.8321 103.623 17.6487 98.7563C17.5711 95.7797 18.0927 92.9962 19.0645 90.2867C20.5376 86.0471 22.7673 82.2873 25.4262 78.835C28.9688 74.1763 33.1161 70.1621 37.5619 66.3866C43.6918 61.1329 50.4241 56.8079 57.3789 52.8039C66.1359 47.7916 75.299 43.6047 84.6926 39.9061C94.5283 36.1141 104.464 32.7416 114.344 29.2177Z" fill="black"/>
</mask>
<g mask="url(#mask0_96_1392)">
<path fill-rule="evenodd" clip-rule="evenodd" d="M158.199 -0.346003C157.677 0.704169 157.15 1.74389 156.624 2.78362C156.098 3.82334 155.571 4.86305 155.049 5.91322C150.764 14.5385 146.144 22.9985 140.576 30.8503C138.624 33.6173 136.544 36.2755 134.469 38.9276C133.979 39.5545 133.488 40.181 133 40.8086C132.03 42.0849 130.904 43.1808 129.496 43.9993C127.168 45.3262 124.755 44.9926 122.864 43.0226C121.833 41.9264 121.1 40.633 120.489 39.2969C119.092 36.263 118.242 33.086 117.692 29.8512C117.358 27.9097 117.071 25.9679 116.785 24.0232C116.587 22.686 116.39 21.3474 116.177 20.0066C115.996 18.8492 115.693 17.7345 115.334 16.5922C114.904 15.3806 114.322 15.161 113.267 15.8098C112.632 16.2186 112.011 16.6692 111.532 17.2584C111.368 17.4518 111.203 17.6445 111.039 17.837C109.843 19.2371 108.659 20.623 107.659 22.1265C104.551 26.8221 101.513 31.5871 98.572 36.3655C94.0906 43.6682 89.6475 51.0086 85.2085 58.3422L85.2081 58.3428C83.6253 60.9578 82.043 63.5719 80.4596 66.1831C79.2587 68.103 77.9872 69.9535 76.6749 71.8182C75.9984 72.7577 75.2513 73.6279 74.4895 74.4562C73.9544 75.0179 73.308 75.5245 72.6171 75.9058C70.6263 77.0211 68.8674 76.46 67.6482 74.4439C66.7589 72.97 66.3745 71.3673 66.1126 69.7219C65.4302 65.8411 65.3591 61.9565 65.2883 58.0836L65.2754 57.3884C65.2659 57.0172 65.2569 56.6471 65.2478 56.2776L65.2477 56.2732L65.2477 56.2729C65.2023 54.4219 65.1573 52.5869 65.0634 50.7039C65.0579 50.6243 65.0535 50.5436 65.0491 50.4623C65.0176 49.8881 64.9845 49.2829 64.5753 48.8087C63.9182 48.8966 63.5169 49.3179 63.1564 49.725C62.1827 50.8618 61.2089 51.9986 60.4169 53.2598C58.041 57.0436 55.7059 60.8131 53.4561 64.6937C51.0296 68.9175 48.6244 73.1691 46.2191 77.4207C43.814 81.6722 41.4089 85.9236 38.9824 90.1473C37.3647 92.9631 35.5949 95.738 33.7695 98.4854C33.0409 99.5866 32.143 100.632 31.2587 101.661L31.2586 101.661L31.256 101.664C31.1619 101.774 31.0679 101.883 30.9744 101.993C30.5878 102.456 30.0343 102.836 29.4921 103.119C28.597 103.571 27.8179 103.185 27.5182 102.21C27.3518 101.611 27.2523 100.942 27.3049 100.313C27.3657 98.9309 27.4526 97.4927 27.6916 96.0953C27.7646 95.6813 27.8369 95.2675 27.9091 94.854C28.395 92.0719 28.8783 89.3045 29.5501 86.5782C30.745 81.8392 31.9762 77.1052 33.2086 72.3667L33.2086 72.3665L33.2086 72.3665C33.9831 69.3888 34.758 66.4094 35.5246 63.4259C35.6477 62.8668 35.8264 62.3352 36.0199 61.8455C36.1022 61.6685 36.223 61.4969 36.3374 61.3345L36.3374 61.3345L36.3374 61.3344C36.4041 61.2398 36.4685 61.1483 36.5219 61.0606C36.5775 61.0882 36.6332 61.1158 36.7036 61.1851C36.685 61.262 36.6803 61.3458 36.6755 61.4295C36.6708 61.5133 36.6661 61.5971 36.6474 61.674C34.1288 70.6231 31.9293 79.6958 30.034 88.8502C29.4767 91.5631 29.0529 94.3422 28.6327 97.0984C28.5831 97.4234 28.5336 97.7481 28.4839 98.0723C28.3669 98.8092 28.381 99.5641 28.3952 100.33L28.3952 100.33C28.3983 100.494 28.4013 100.658 28.4031 100.823C28.3901 101.054 28.4425 101.285 28.5128 101.594C28.5442 101.733 28.5792 101.887 28.6134 102.063C28.7427 101.967 28.868 101.879 28.987 101.795L28.9871 101.795C29.3026 101.574 29.5742 101.383 29.7577 101.149C29.9705 100.896 30.1895 100.645 30.4096 100.392C31.0579 99.6474 31.715 98.8926 32.2479 98.0763C32.5594 97.5883 32.8711 97.101 33.1826 96.6141C35.1433 93.5496 37.0948 90.4992 38.9111 87.3562C41.8543 82.2618 44.7603 77.1489 47.6692 72.0309L47.6694 72.0307L47.6708 72.0283C49.793 68.2944 51.9168 64.5578 54.0578 60.8236C55.4749 58.3476 57.0272 55.9641 58.5886 53.5666L58.5893 53.5655C58.8387 53.1826 59.0883 52.7993 59.3376 52.4152C60.0106 51.3362 60.8506 50.3399 61.6905 49.3435C62.144 48.8102 62.6678 48.3463 63.2065 47.9241C64.4064 47.0371 65.5159 47.4488 65.9784 48.8835C66.2005 49.5102 66.3 50.1796 66.3587 50.8632C66.43 52.3747 66.4869 53.8914 66.5434 55.3982C66.5818 56.423 66.6201 57.4433 66.6626 58.4543C66.6815 58.9059 66.6989 59.358 66.7164 59.8104C66.8294 62.7412 66.9429 65.6859 67.4576 68.5967C67.7123 69.963 68.0783 71.3843 68.5781 72.6653C69.4332 74.949 70.8026 75.3171 72.5749 73.7147C73.6895 72.7166 74.7449 71.5513 75.5926 70.3177C77.5814 67.5134 79.4998 64.6399 81.3069 61.7112C84.365 56.754 87.4194 51.7863 90.4738 46.8187L90.4806 46.8077C93.5368 41.837 96.5931 36.8663 99.6531 31.906C101.936 28.2485 104.275 24.6185 106.684 21.0579C107.795 19.4038 109.048 17.8884 110.356 16.4005C111.01 15.6566 111.79 15.0096 112.656 14.4737C114.346 13.4161 115.801 13.8954 116.686 15.7462C117.42 17.3435 117.682 19.0261 117.949 20.7371C117.972 20.8896 117.996 21.0423 118.02 21.1952C118.141 21.913 118.259 22.6337 118.379 23.3555L118.379 23.3557C118.789 25.8448 119.203 28.3486 119.681 30.8017C120.294 33.8267 121.208 36.7939 122.638 39.5345C122.956 40.1746 123.342 40.7444 123.809 41.2858C125.284 43.1188 127.121 43.5119 129.068 42.2713C130.123 41.6225 131.118 40.8066 131.891 39.8805C133.813 37.6629 135.719 35.4036 137.5 33.0473C142.853 25.8808 147.586 18.132 152.027 10.2035L157.583 0.24415C157.626 0.172581 157.673 0.0997346 157.722 0.0252396L157.722 0.0250079C157.834 -0.148385 157.953 -0.33069 158.044 -0.526471C158.063 -0.507957 158.08 -0.492425 158.097 -0.478005L158.097 -0.477857C158.142 -0.43834 158.178 -0.407176 158.199 -0.346003ZM58.7153 91.2451C58.636 91.3666 58.555 91.4834 58.4741 91.6002C58.3121 91.8338 58.1502 92.0675 58.0015 92.3383L58.001 92.3391L58.0009 92.3393C56.1899 95.6442 54.379 98.949 52.6237 102.281C51.5505 104.321 50.4865 106.366 49.4215 108.412L49.4212 108.413C47.8471 111.437 46.271 114.465 44.6606 117.489C42.2357 122.04 39.5177 126.411 36.3397 130.521C35.8788 131.134 35.3719 131.724 34.8209 132.365L34.8209 132.365L34.8204 132.365C34.514 132.722 34.1941 133.094 33.8608 133.495C33.838 133.343 33.8144 133.218 33.7947 133.113C33.7568 132.913 33.7332 132.788 33.7577 132.687C33.821 132.477 33.966 132.239 34.1258 132.042C39.8241 124.428 44.3206 116.011 48.665 107.554C50.987 103.061 53.3893 98.6724 55.8176 94.2359L56.0474 93.8161C56.7429 92.5417 57.5497 91.3223 58.3564 90.103C58.8731 89.36 59.3745 89.0917 59.7789 89.3264C60.3647 89.7172 60.2765 90.2979 60.1956 90.8316L60.1893 90.8729C60.0188 91.8301 59.8115 92.7822 59.6032 93.7388L59.6032 93.7389C59.474 94.3322 59.3445 94.9273 59.2231 95.5265C58.9024 96.9518 58.5711 98.3756 58.2397 99.7994L58.2395 99.8002C57.5767 102.648 56.9138 105.497 56.3367 108.357C55.8367 110.83 55.5446 113.372 55.2784 115.858C55.2017 116.645 55.2559 117.481 55.3098 118.31C55.3323 118.658 55.3548 119.005 55.3676 119.347C55.3724 119.379 55.3769 119.41 55.3813 119.441L55.3814 119.442C55.4073 119.623 55.4299 119.781 55.4932 119.96C55.8337 120.921 56.3345 121.169 57.1887 120.731C57.7718 120.434 58.3253 120.053 58.7527 119.576C60.0087 118.201 61.25 116.783 62.3651 115.269C65.2197 111.353 67.6516 107.167 70.0721 103.001L70.0722 103.001L70.5078 102.251C76.7475 91.633 83.195 81.0829 90.2729 71.0173C94.8454 64.4985 99.6144 58.146 105.07 52.3055C106.861 50.3681 108.737 48.5419 110.84 46.9654C111.824 46.2474 112.823 45.5711 113.982 45.2149C115.605 44.744 116.758 45.281 117.213 46.9528C117.454 47.7608 117.572 48.6114 117.511 49.477L117.474 49.9236C117.33 51.6655 117.183 53.4355 116.86 55.1474C116.008 59.3456 115.072 63.5443 114.137 67.7363L114.137 67.7376C113.88 68.8895 113.623 70.0408 113.368 71.1915C111.832 78.2492 110.406 85.362 109.712 92.5958C109.45 95.2212 109.284 97.86 109.489 100.51C109.551 101.333 109.669 102.184 109.868 103.006C109.99 103.48 110.194 103.925 110.439 104.356C110.683 104.787 111.058 104.939 111.492 104.74C111.542 104.714 111.592 104.688 111.642 104.662C111.687 104.638 111.733 104.615 111.778 104.591C112.184 104.381 112.581 104.176 112.885 103.88C113.889 102.827 114.892 101.774 115.754 100.582C117.854 97.8335 119.535 94.8082 121.176 91.7972C124.64 85.5153 127.788 79.017 130.927 72.5379L130.927 72.5377L131.609 71.1314C132.164 69.9852 132.716 68.8376 133.268 67.6902L133.268 67.69L133.268 67.6897C136.169 61.6615 139.068 55.6365 142.37 49.8354C143.5 47.8464 144.727 45.8708 145.969 43.9369C146.631 42.9558 147.404 42.0298 148.151 41.1597C148.511 40.7527 148.983 40.4008 149.444 40.1466C150.472 39.5539 151.359 39.8553 151.815 41.0108C152.092 41.665 152.207 42.3761 152.265 43.0595C152.424 45.1307 152.535 47.1953 152.646 49.2532L152.646 49.2538C152.694 50.1479 152.743 51.0408 152.794 51.9324C152.966 54.8761 153.219 57.7914 153.828 60.6764C154.504 64.0077 155.956 67.0689 157.597 70.0172C159.398 73.2855 161.563 76.2863 164.307 78.8507C166.039 80.5005 167.997 81.8837 170.246 82.7905C173.507 84.0957 176.603 83.7689 179.585 82.2148C180.261 81.8672 180.92 81.4745 181.579 81.0817C182.018 80.8199 182.458 80.5581 182.902 80.3096C182.958 80.3372 183.003 80.3683 183.049 80.3994C183.094 80.4305 183.14 80.4616 183.195 80.4892C183.146 80.5279 183.093 80.5578 183.044 80.5857C182.987 80.6185 182.934 80.6485 182.898 80.6865C182.439 80.991 181.991 81.3086 181.543 81.6253L181.543 81.6255C180.686 82.2319 179.835 82.8347 178.927 83.3355C175.135 85.453 171.32 85.0446 167.573 83.0169C164.69 81.486 162.298 79.2682 160.241 76.6994C156.893 72.5617 154.303 67.9726 152.716 62.8467C151.939 60.3954 151.641 57.8712 151.521 55.3319C151.443 53.6226 151.389 51.9166 151.336 50.2107C151.282 48.505 151.228 46.7993 151.15 45.0903C151.125 44.1135 151.033 43.2069 150.926 42.2586C150.904 42.037 150.83 41.8158 150.742 41.5502C150.685 41.381 150.623 41.1937 150.564 40.9769C150.425 41.0762 150.293 41.1661 150.167 41.2516C149.83 41.4813 149.541 41.6781 149.297 41.934C149.11 42.1663 148.918 42.3978 148.724 42.6304L148.723 42.6309L148.723 42.6311C148.157 43.3113 147.582 44.0015 147.13 44.753C146.979 45.0033 146.828 45.2537 146.677 45.5044C145.32 47.7513 143.952 50.0175 142.764 52.373C140.516 56.8393 138.299 61.3298 136.082 65.8204C133.865 70.311 131.648 74.8016 129.399 79.268C126.431 85.1345 123.392 90.9318 120.298 96.7014C119.544 98.1003 118.639 99.4441 117.739 100.78L117.739 100.781C117.449 101.21 117.161 101.639 116.878 102.068C116.242 102.994 115.48 103.822 114.744 104.594C114.276 105.086 113.711 105.564 113.143 105.902C111.223 107.087 109.642 106.511 108.805 104.409C108.306 103.128 108.121 101.831 108.045 100.45C107.844 97.4226 108.055 94.3927 108.362 91.3762C109.108 84.5468 110.448 77.8393 111.98 71.1584C112.308 69.706 112.64 68.2524 112.971 66.7978C113.849 62.9476 114.728 59.0901 115.557 55.2255C115.963 53.3946 116.162 51.4953 116.36 49.596C116.424 48.8699 116.377 48.0886 116.263 47.3776C116.056 46.2763 115.455 45.8754 114.489 46.2584C113.672 46.5427 112.9 46.9523 112.198 47.4313C110.24 48.7696 108.579 50.427 106.933 52.1262C102.426 56.886 98.4522 62.117 94.6048 67.4448C87.2148 77.6659 80.511 88.3991 74.1003 99.3118C71.4676 103.795 68.794 108.292 66.0092 112.733C64.7153 114.779 63.2545 116.742 61.7788 118.664C61.2182 119.425 60.5117 120.063 59.7944 120.71L59.7931 120.712C59.6785 120.815 59.5636 120.919 59.449 121.023C59.0329 121.403 58.5871 121.699 58.0709 121.925C56.2808 122.83 54.7114 122.156 54.2198 120.121C53.9758 119.174 53.8395 118.142 53.8702 117.193C53.9464 115.336 54.1042 113.451 54.3734 111.621C54.9014 107.789 55.8264 104.044 56.7541 100.289C56.8646 99.8412 56.9752 99.3935 57.0852 98.9454C57.3719 97.8142 57.6521 96.697 57.9323 95.5798L57.9332 95.5761L57.9339 95.5736C58.2141 94.4563 58.4943 93.339 58.7811 92.2077C58.8557 91.9002 58.9154 91.5509 58.9752 91.2016C58.8266 91.3003 58.7709 91.2727 58.7153 91.2451ZM196.233 -9.44688C196.51 -10.0961 196.788 -10.7469 197.073 -11.3966C197.002 -11.4655 196.906 -11.4788 196.784 -11.4364C196.639 -11.1998 196.509 -10.9217 196.379 -10.6437C196.256 -10.3803 196.134 -10.1144 196.011 -9.84754C195.642 -9.04384 195.269 -8.23226 194.857 -7.45949C190.797 0.426321 186.192 7.94128 181.35 15.3052C177.922 20.5947 174.312 25.7606 170.381 30.6651C169.609 31.5849 168.797 32.5189 167.941 33.3283C167.433 33.8306 166.758 34.2507 166.11 34.6153C165.135 35.0928 164.416 34.8755 163.832 34.0059C163.547 33.5918 163.303 33.1636 163.141 32.7071C162.439 30.9926 162.159 29.1784 162.016 27.3633C161.69 23.7472 161.887 20.1832 162.109 16.5636L162.109 16.5634C162.139 16.1336 162.169 15.7037 162.118 15.3021C162.099 15.122 161.888 14.9154 161.737 14.8748C161.585 14.8341 161.273 14.9886 161.222 15.0998C161.04 15.4891 160.913 15.9058 160.868 16.2942C160.356 20.8999 160.229 25.5585 160.965 30.1979C161.212 31.7905 161.54 33.3549 162.453 34.7632C163.581 36.5166 165.307 36.9909 167.064 36.0094C167.861 35.5469 168.654 34.9457 169.321 34.2484C170.297 33.258 171.161 32.2128 171.996 31.0847C180.33 19.9002 187.733 8.15334 193.935 -4.39001C194.778 -6.03367 195.503 -7.73489 196.233 -9.44688Z" fill="black"/>
</g>
</svg>
