<svg width="45" height="51" viewBox="0 0 45 51" fill="none" xmlns="http://www.w3.org/2000/svg">
<path d="M8.43193 23.0748C8.14828 22.9127 8.02671 22.8317 7.86463 22.7912C4.86602 21.616 3.48828 19.1442 2.83993 16.2266C2.2321 13.5117 4.4608 10.351 7.29732 9.70262C8.43193 9.41897 9.52602 9.50002 10.6606 9.82419C13.0514 10.5536 14.9154 11.9718 16.3742 13.9979C16.6579 14.4031 16.982 14.8489 17.3062 15.2946C17.6304 14.9299 17.5088 14.5652 17.5088 14.2411C17.6304 11.8908 17.7519 9.50002 18.2787 7.19028C18.6434 5.5694 19.1297 3.98906 20.1022 2.61132C21.0747 1.2741 22.2904 0.342097 23.9518 0.0584448C25.2079 -0.144164 26.2615 0.18001 27.153 1.03097C28.1255 1.92245 28.7333 3.05705 29.1386 4.31323C30.1111 7.35236 30.1111 10.351 29.1791 13.3901C29.098 13.7143 29.017 14.079 29.0575 14.4842C29.3412 14.2816 29.5843 14.0385 29.8679 13.8358C31.1241 12.9038 32.3398 11.9313 33.6365 11.0804C35.0547 10.1078 36.6756 9.70262 38.418 9.82419C42.2271 10.0268 45.5904 14.4031 43.8074 18.3743C42.6728 20.9677 40.7683 22.7506 38.2965 24.0068C37.7697 24.2905 37.2429 24.5336 36.7161 24.7767C36.6756 24.7767 36.6756 24.8172 36.6351 24.9388C36.9998 25.0198 37.3645 25.1414 37.7292 25.2225C39.3906 25.5872 40.9304 26.2355 42.3081 27.2485C43.0375 27.8158 43.6453 28.4642 44.01 29.3152C44.8205 31.2602 44.3747 33.0837 42.6728 34.3399C40.9709 35.596 39.0664 36.3659 36.9593 36.6496C35.8652 36.8117 34.7711 36.9332 33.677 37.0548C31.813 37.2169 30.0706 36.8117 28.2471 36.0823C28.2066 36.447 28.166 36.7306 28.1255 37.0143C27.9229 40.4181 27.153 43.7409 25.9779 46.9421C25.8563 47.3068 25.6942 47.6715 25.5321 48.0362C24.8432 49.5355 23.7086 50.427 22.1283 50.8322C20.4669 51.2779 19.0892 50.8322 18.0356 49.5355C17.1441 48.4819 16.5363 47.2663 16.2526 45.9291C15.6043 42.4442 15.6448 38.9593 16.3337 35.515C16.4147 35.1098 16.4552 34.7045 16.5363 34.1778C16.2526 34.2993 16.05 34.3399 15.8474 34.4614C13.6187 35.596 11.39 36.7306 9.16132 37.8247C8.39141 38.1894 7.66202 38.5946 6.89211 38.9188C6.16271 39.2025 5.47384 39.5266 4.70393 39.6887C2.11054 40.256 0.0844487 38.6352 0.00340513 35.8392C-0.0371166 34.5019 0.287058 33.2458 0.81384 32.0706C2.31315 28.5047 4.54184 25.5872 7.82411 23.48C7.98619 23.3585 8.14828 23.2774 8.43193 23.0748Z" fill="#F7D046"/>
<path d="M29.179 26.0163C29.0914 28.2017 28.0934 30.3166 26.1148 31.8851C24.8015 32.925 23.2432 33.3479 21.5797 33.2246C20.5642 33.1541 19.6187 32.7663 18.7782 32.1848C16.677 30.7572 15.4689 28.7833 15.1012 26.2807C14.9436 25.2585 14.9611 24.2539 15.1712 23.2494C15.4689 21.8042 16.1517 20.5882 17.2724 19.6365C18.4455 18.6319 19.8113 18.0327 21.3346 17.8741C22.3502 17.7683 23.3132 17.9798 24.2412 18.4028C25.2393 18.861 26.1498 19.4602 26.9377 20.2357C28.4435 21.7161 29.1439 23.549 29.179 26.0163Z" fill="black"/>
</svg>
