<svg width="66" height="119" viewBox="0 0 66 119" fill="none" xmlns="http://www.w3.org/2000/svg">
<path fill-rule="evenodd" clip-rule="evenodd" d="M21.2171 40.6314L21.1609 41.3029L21.1189 41.2242C21.1129 42.5787 20.9123 43.948 20.691 45.2995C20.1125 44.8237 19.637 44.4042 19.7743 43.592C20.1222 42.4346 20.5683 41.3055 20.929 40.1543L20.9894 40.4561L21.2275 40.5041L21.2171 40.6314ZM62.5287 111.988C62.4222 111.517 62.306 111.019 62.1971 110.547C62.1863 110.507 62.0866 110.498 62.0545 110.487C61.4787 109.077 60.9748 108.756 59.8596 108.564C58.0612 108.238 56.2865 107.533 54.5877 106.487C54.6273 106.332 54.7357 106.063 54.8343 105.776C54.8214 105.781 54.8085 105.784 54.7951 105.787C54.7723 105.791 54.7509 105.792 54.7304 105.791C54.6152 106.062 54.4898 106.299 54.4235 106.387C54.2113 106.25 53.9752 106.1 53.7672 105.954L53.7681 105.952C53.5831 105.823 53.3543 105.665 53.1731 105.566C53.1392 105.378 52.8643 105.32 52.7208 105.196C52.442 104.997 52.2874 104.894 52.0318 105.149C51.4804 104.432 51.0362 103.675 50.5996 102.696C50.3264 102.123 50.1921 101.49 49.8248 100.978C49.8318 100.974 50.0653 100.902 50.0711 100.895C45.8962 91.6443 45.2273 81.3506 44.3368 71.4622C44.1403 69.2509 43.9348 67.0192 43.5519 64.8727C43.4994 64.5477 43.4522 64.2276 43.2567 63.9684C45.6028 62.0348 45.6257 58.2868 44.4893 55.507C47.1021 48.457 41.9805 40.9692 42.3584 33.7741C42.5703 28.8936 41.692 23.2386 36.1802 22.0676C35.4967 21.6741 34.6772 21.6153 34.025 21.6047C33.4378 21.308 33.3453 20.6529 33.1362 20.1144L32.932 20.1157C32.872 19.872 32.8127 19.6048 32.7611 19.3592C32.6836 19.2035 32.7296 19.0006 32.4854 19.0437C31.9319 18.2422 27.5025 17.8393 27.4522 19.1298C27.2923 19.2241 27.2607 19.4082 27.2235 19.6317C26.9779 21.2167 25.2857 22.4807 23.7609 22.2258L23.7362 22.2035C17.245 21.9629 14.6896 26.5818 13.4211 32.8768C12.43 37.7679 11.8001 43.0685 12.5762 47.9676C13.3345 50.1879 15.6312 51.2562 17.408 52.6239C17.2032 53.1402 17.1841 53.7098 17.1778 54.2684C17.1544 54.9133 17.1075 55.5634 17.0505 56.1996C16.9336 57.006 16.7445 58.394 17.8419 58.4881C18.267 68.1254 19.1549 77.7375 17.7981 87.403C16.6717 92.7483 17.1029 99.216 18.4956 104.446C18.576 104.704 18.7823 104.937 19.046 104.854C19.1798 104.941 19.2844 104.995 19.3951 104.913C19.4603 105.034 19.5318 105.15 19.609 105.263C19.6383 106.7 19.8011 108.109 19.727 109.556C19.6164 109.543 19.3732 109.421 19.2787 109.501L19.2652 109.611L19.1753 109.642C18.9869 110.173 18.8688 110.731 18.7814 111.181C18.4003 111.952 17.9134 113.317 18.1849 114.177C18.1718 114.192 18.0987 114.277 18.0872 114.29C18.0223 114.327 18.0103 114.377 17.9945 114.434C17.8096 114.503 17.7906 114.714 17.7715 114.931C17.6789 115.454 17.8165 115.93 17.8638 116.443L17.8666 116.439C17.8666 116.439 18.0219 116.619 18.0221 116.62C19.9735 116.738 21.8951 116.769 23.8378 116.839C23.9844 116.558 24.0286 116.178 24.1388 115.87C26.442 117.555 30.4325 116.91 33.3255 116.496C34.5003 116.327 35.6103 116.167 36.5944 116.114C36.6584 116.105 36.663 116.077 36.6646 116.052C36.6743 115.666 36.7468 115.27 36.7107 114.896C36.9139 114.699 36.8212 114.339 36.6816 114.023C36.1681 112.91 34.7724 112.789 33.6416 112.599C31.5142 112.186 29.8035 111.409 28.4196 110.222C28.5127 110.137 28.5972 110.055 28.6742 109.974C28.6442 109.954 28.6141 109.934 28.5841 109.913C28.5113 109.881 28.4417 109.849 28.3778 109.807C28.3452 109.826 28.3045 109.829 28.2642 109.807C28.1251 109.729 28.0118 109.614 27.8797 109.526C27.8535 109.564 27.8271 109.602 27.8007 109.642C27.6739 109.509 27.5305 109.357 27.4052 109.217C27.4007 109.179 27.4109 109.082 27.3637 109.072C27.0074 109.108 26.5947 109.228 26.222 109.361C25.8008 107.977 25.5568 106.478 25.5849 105.063C25.9992 105.063 26.362 105.059 26.6709 104.862C26.7554 104.885 26.873 104.934 26.8948 104.801C27.0202 104.259 27.0528 103.685 27.0843 103.13C27.7255 92.6344 28.7025 84.2004 31.9429 75.3092C32.254 76.5437 32.7765 77.8277 33.2519 79.0567C35.4149 84.1927 36.9732 89.7317 38.3089 95.1226C38.8344 97.1405 39.4057 99.3578 39.97 101.355C40.1888 102.315 40.6336 102.666 41.5657 102.658C42.284 102.692 43.0048 102.682 43.726 102.631C44.7092 103.528 45.1123 104.738 45.3996 105.828C45.1603 106.006 44.7804 105.938 44.5006 105.997C44.2594 106.386 44.3429 106.93 44.3485 107.41C44.3864 108.033 44.3541 108.702 44.5356 109.291C44.568 109.934 44.572 110.64 44.6204 111.388C44.0874 111.697 44.185 112.38 44.362 113.034C44.4411 113.2 47.3059 113.167 48.0166 113.16C48.8516 113.112 50.0424 113.325 50.3163 112.409C52.3044 113.514 55.3289 113.141 57.6451 112.816C59.3261 112.611 60.8489 112.42 62.4997 112.073C62.5167 112.065 62.5407 112.012 62.5287 111.988Z" fill="#EAE5D9"/>
<path fill-rule="evenodd" clip-rule="evenodd" d="M44.502 105.979C44.95 106.227 45.3084 106.616 45.7787 106.831C47.8141 107.851 50.3908 107.302 51.9418 105.666C52.1605 105.67 52.3361 105.431 52.2898 105.215C52.7551 105.256 53.1219 105.615 53.4682 105.898C53.4209 106.226 53.4428 106.555 53.5752 106.869C53.5855 106.894 53.6305 106.904 53.636 106.869C53.6762 106.63 53.7176 106.39 53.7717 106.154C53.8693 106.234 53.9686 106.31 54.0696 106.386C54.0783 106.582 54.2827 106.725 54.4498 106.657C55.8202 107.588 57.3692 108.248 58.9778 108.634C60.2365 108.897 60.8902 108.87 61.4485 110.196C61.2416 110.238 61.038 110.338 60.727 110.414C55.4645 111.029 50.1535 110.367 44.8826 110.815C44.8121 109.655 44.7491 108.497 44.6694 107.338C44.6414 106.921 44.6292 106.5 44.4674 106.111C44.4706 106.063 44.4781 106.016 44.4933 105.979C44.496 105.979 44.4988 105.979 44.502 105.979ZM44.6985 103.124C44.7155 103.047 44.655 102.982 44.5951 102.931C44.5263 102.815 44.4479 102.705 44.3548 102.613C46.1826 102.451 47.9351 101.889 49.6521 101.309C49.8595 102.785 50.5958 104.127 51.4255 105.345C50.0172 106.814 47.724 107.171 45.8805 106.368C46.0035 106.097 45.7396 105.705 45.6725 105.425C45.4413 104.753 45.1247 104.111 44.8504 103.459C44.8035 103.351 44.7542 103.237 44.6985 103.124ZM44.3222 103.099C44.3346 103.108 44.3473 103.117 44.3596 103.125C44.3672 103.143 44.3743 103.161 44.3819 103.18C44.3628 103.159 44.3433 103.139 44.3238 103.119C44.3234 103.112 44.323 103.105 44.3222 103.099ZM27.4251 109.19C27.4617 109.255 27.4999 109.319 27.5396 109.382C27.4631 109.429 26.8864 110.654 27.2087 110.459C27.3877 110.204 27.5667 109.947 27.7596 109.701C27.8133 109.773 27.8685 109.843 27.9258 109.912C27.7274 110.055 27.8045 110.389 28.0674 110.39C28.1614 110.391 28.2343 110.371 28.3219 110.338C29.4984 111.465 31.0452 112.131 32.6022 112.544C33.8923 112.948 36.3224 112.742 36.3881 114.581C36.2569 114.578 36.1162 114.621 36.0162 114.715C30.3203 116.643 24.4355 114.611 18.6904 114.048C18.7696 113.889 18.6687 113.601 18.4585 113.614C18.4565 112.325 18.8125 111.046 19.3279 109.874C22.251 112.663 24.344 109.934 27.2927 109.267C27.3495 109.255 27.3933 109.227 27.4251 109.19ZM28.9321 108.689C28.9236 108.689 28.9021 108.686 28.8939 108.689C28.7752 109.089 28.523 109.45 28.2018 109.709C28.1163 109.631 28.0324 109.551 27.9501 109.469C28.1645 109.22 28.3991 108.99 28.6708 108.796C28.7469 108.744 28.8359 108.683 28.9321 108.689ZM17.566 57.143C17.4899 56.8646 17.576 56.5733 17.5847 56.2903C17.6499 55.5199 17.7386 54.7436 17.7215 53.9696C17.7005 53.6911 17.6946 53.4219 17.7565 53.1499C17.7377 53.0769 17.6725 53.2495 17.6531 53.2657C17.6491 53.2438 17.644 53.2219 17.6396 53.2C17.6706 53.1646 17.7036 53.1336 17.7394 53.1038C19.267 54.3674 20.7475 55.6881 22.1752 57.0639C22.3231 57.2059 22.5415 57.1971 22.6906 57.0639C23.0001 56.7871 23.3206 56.5274 23.6507 56.2828C23.7649 56.6558 23.9395 57.0014 24.1391 57.3355C22.8342 57.4948 21.5467 57.148 20.251 57.0468C19.3822 56.98 18.5101 57.021 17.6471 57.1359C17.6249 57.139 17.5899 57.139 17.566 57.143ZM20.4427 44.77C19.9871 44.3762 19.7961 44.1188 19.8521 43.4984C20.1216 42.5818 20.471 41.6907 20.7692 40.7836C20.8076 40.9752 20.8109 41.1715 20.8269 41.3658C20.7215 42.5033 20.6399 43.6446 20.4427 44.77ZM20.9061 40.465C20.8997 40.4531 20.8933 40.4411 20.8866 40.4296C20.8965 40.399 20.9065 40.3683 20.9164 40.3378C20.9128 40.3803 20.9096 40.4225 20.9061 40.465ZM12.6904 47.4665C12.6931 46.9801 12.6295 46.4905 12.6013 46.0053C12.3682 41.9237 12.654 37.8125 13.4528 33.8028C14.5063 28.1338 16.4579 22.441 23.2017 22.3254C23.4383 22.5396 23.5213 22.87 23.6531 23.1539C24.0506 23.9406 24.6343 24.6219 25.3037 25.191C28.0778 27.449 35.4141 30.0267 36.0585 24.5563C36.06 24.3864 36.0485 24.207 36.021 24.0277C36.0819 23.8395 36.0536 23.6037 36.0107 23.3921C36.0397 23.2406 35.9952 23.0668 35.9184 22.9033C35.9311 22.8926 35.9431 22.8806 35.9534 22.8675C35.6507 22.2895 35.1317 22.1004 34.5554 21.8828C34.4759 21.8032 34.5463 21.6386 34.6684 21.6815C34.9368 21.7758 35.2129 21.8394 35.4928 21.8875C35.5318 21.8943 35.5565 21.9146 35.5688 21.9404C42.1089 23.9201 41.8951 29.307 41.7946 35.0008C41.8936 41.1353 45.4475 46.8946 44.4105 53.0926C43.1865 45.6134 40.7787 38.3396 40.2322 30.7448C40.1912 30.0637 40.0901 29.3911 40.0133 28.7136C39.9741 28.4282 39.9313 27.6289 39.8336 27.7626C39.3668 30.3747 39.7314 33.0584 40.1231 35.659C40.9866 40.9438 42.4133 46.1148 43.3788 51.3797C43.9116 53.7202 43.9688 56.1813 41.6212 57.5347C39.0837 58.9311 35.9266 58.6505 33.1849 58.0845C32.9661 58.0331 32.8007 58.1469 32.7219 58.3036C32.1867 57.182 30.9854 56.63 30.2036 55.71C29.4206 54.7063 28.9083 53.5196 28.1883 52.471C28.2615 51.833 27.6683 50.8272 26.9912 50.8137C25.2813 49.0286 23.432 47.3763 21.4334 45.9206C21.4044 45.8287 21.3265 45.777 21.2716 45.6947C21.19 45.5559 21.137 45.3829 21.1498 45.223C21.4532 43.4701 21.5241 41.6514 21.0496 39.9213C21.8957 37.2924 22.4105 34.5776 22.8935 31.8647C22.9386 31.7335 22.7189 31.672 22.6863 31.8075C22.6294 32.0954 22.5749 32.3838 22.5216 32.6721C21.5464 36.2715 20.3847 39.8112 19.1174 43.317C18.9696 43.8059 18.8312 44.2939 18.9147 44.8057C18.987 45.1042 19.4396 45.0755 19.4914 44.7695C19.5926 44.7399 19.6822 44.7662 19.7614 44.8264C19.7622 44.8252 19.7626 44.824 19.7634 44.8232C20.3698 45.6902 21.1734 46.4069 21.991 47.0854C23.3917 48.2762 24.7655 49.4988 26.0593 50.8058C26.3667 51.2031 27.3987 51.9124 27.4717 52.4495C27.3364 53.4061 26.3463 53.8597 25.5689 54.2337C24.4381 54.7831 23.3775 55.4789 22.4369 56.3133C20.3893 54.4201 18.2559 52.6148 16.0014 50.972C14.7084 50.0413 13.1068 49.1187 12.6904 47.4665ZM35.6392 22.9546C35.6448 22.9852 35.6499 23.0159 35.6551 23.0461C35.6309 23.0123 35.6058 22.9789 35.5792 22.9471C35.599 22.9498 35.6189 22.9522 35.6392 22.9546ZM43.0241 63.365C43.0022 63.3001 42.9791 63.2357 42.9561 63.1713C43.0159 62.8838 43.1061 62.6141 43.1334 62.3118C43.7133 61.7225 44.0733 60.9199 44.1695 60.1013C44.1981 59.8606 44.2149 59.63 44.0383 59.4418C43.9734 59.3726 43.8358 59.3651 43.7722 59.4418C43.5558 59.7024 43.6119 60.0949 43.5347 60.4127C43.3724 61.0857 42.9968 61.7203 42.4585 62.1487C42.1554 62.3965 41.7683 62.7093 41.4213 62.8046C41.6921 61.7461 42.288 60.7386 42.367 59.6232C42.3897 59.2962 42.369 58.9904 42.2891 58.6723C42.2297 58.4741 42.1403 58.3019 42.2107 58.0956C43.0296 57.5668 43.7531 56.8055 44.1206 55.8858C44.2513 55.9002 44.3857 55.8422 44.4447 55.6965C44.7386 57.8716 45.1352 60.1685 43.9997 62.163C43.7453 62.6152 43.4169 63.0255 43.0241 63.365ZM31.3466 58.3286C31.0269 58.0006 30.739 57.6462 30.445 57.2957C30.1328 56.972 29.6004 57.4766 30.1515 57.9504C31.1118 59.1506 31.0777 60.6471 30.6216 62.037C30.5428 61.6798 30.48 61.3251 30.3619 60.9747C30.0687 60.1056 29.6241 59.2959 29.0693 58.5672C28.9356 58.3919 28.5896 58.4809 28.6775 58.7323C28.9547 59.5242 29.08 60.4004 28.9543 61.2356C28.8955 61.6249 28.7276 61.9952 28.705 62.3905C28.6974 62.5274 28.7785 62.8734 28.5626 62.795C28.4795 62.7648 28.4055 62.5886 28.3701 62.4764C28.1937 61.8974 28.2308 61.2838 28.1633 60.6883C28.0793 59.9143 27.9501 59.1193 27.3953 58.5315C27.2736 58.4022 27.0938 58.4853 27.0361 58.6261C26.5975 59.6845 27.0513 60.9972 26.2713 61.9256C26.2323 61.9686 26.0096 62.1861 25.9734 62.1575C25.9122 62.109 25.9782 61.8349 25.9885 61.7713C26.5248 59.5548 24.7021 57.7147 24.0508 55.9964C25.3474 54.93 27.567 54.589 28.1303 52.8409C28.6557 54.0015 29.1111 55.2294 29.9439 56.2139C30.7607 57.1916 32.2923 57.8366 32.3556 59.2645C31.9657 59.0376 31.6618 58.6464 31.3466 58.3286ZM19.5936 104.677C20.5956 104.693 21.6025 105.004 22.596 104.987C23.5135 105.02 24.4322 104.977 25.3482 104.922C25.0021 106.288 25.1355 107.889 25.5932 109.214C23.8124 110.047 22.191 111.236 20.2379 110.075C20.2164 109.903 20.1579 109.732 20.1015 109.565C20.1239 109.473 20.141 109.352 20.0565 109.279C20.0612 107.735 19.9019 106.19 19.5936 104.677ZM54.6522 104.698C54.7705 104.823 54.3491 105.795 54.2477 105.96C54.1276 105.882 54.0086 105.806 53.8906 105.725C53.9844 105.445 54.1109 105.178 54.2947 104.933C54.3444 104.867 54.5405 104.601 54.6522 104.698ZM62.2777 110.352C62.2582 110.267 62.1775 110.191 62.0896 110.169C61.8364 109.515 61.4319 108.861 60.8054 108.517C60.4271 108.321 60.0079 108.264 59.5955 108.182C57.8645 107.845 56.2193 107.159 54.7163 106.251C54.8639 105.833 55.0023 105.419 55.0909 104.986C55.2355 104.501 54.8501 104.096 54.367 104.299C53.9422 104.49 53.6853 105.075 53.5589 105.494C53.4519 105.421 53.3389 105.347 53.2228 105.28C53.1624 105.111 52.9627 105.039 52.8088 104.943C52.569 104.783 52.2468 104.503 51.9585 104.72C51.4371 104.025 51.0193 103.254 50.6667 102.461C50.3897 101.903 50.2841 101.268 49.8959 100.769C49.9504 100.423 49.7391 100.079 49.598 99.7719C49.4671 99.4915 49.3423 99.2079 49.2245 98.9215C46.7817 92.273 45.9126 85.1447 44.8872 78.1685C44.1497 73.4717 44.2617 68.6528 43.2209 64.0097C45.7491 61.9536 45.6892 58.159 44.5887 55.3541C46.9395 48.7843 42.9537 42.2447 42.472 35.7007C42.3174 30.9251 43.1119 25.1906 38.1474 22.4945C37.5188 22.1476 36.8436 21.8677 36.1372 21.7288C35.4835 21.3612 34.7045 21.2717 33.9644 21.2571C33.5468 21.0303 33.4282 20.5097 33.2783 20.0914C33.2374 19.9407 33.1455 19.7709 33.1292 19.6165C33.1276 19.603 33.1069 19.5975 33.1033 19.613C32.5237 21.1409 33.9854 22.7375 35.4726 22.93C36.143 25.2947 34.7328 27.4029 32.1913 27.269C29.2486 27.0483 25.0887 25.4245 24.025 22.4356C24.494 22.4268 24.9404 22.2805 25.3828 22.1412C25.485 22.0945 25.6273 22.1015 25.6902 21.9977C26.7071 21.4866 27.4915 20.5252 27.6609 19.395C27.6538 19.4006 27.6415 19.4089 27.622 19.4213C27.6395 19.4101 27.6554 19.3982 27.6697 19.3859C27.684 19.2125 27.686 19.0391 27.6693 18.8653C27.5913 18.7949 27.4808 18.7567 27.3523 18.7825C26.961 18.8613 26.953 19.2737 26.8902 19.5831C26.8337 19.8619 26.7279 20.1185 26.5855 20.3643C26.0055 21.35 24.8959 22.0358 23.735 21.8867C23.6821 21.839 23.6078 21.8155 23.5358 21.8394C23.541 21.8438 23.5465 21.8482 23.5517 21.8521C16.7338 21.6019 14.3013 26.8394 13.114 32.6842C12.1652 36.9732 11.7909 41.3898 12.0118 45.7773C12.0659 46.2846 11.9992 47.6673 12.3304 47.9656C13.0584 50.1795 15.3398 51.2199 17.0601 52.5442C16.8786 53.0646 16.8746 53.6189 16.8652 54.1641C16.8382 54.7873 16.7964 55.4102 16.7395 56.0317C16.6882 56.5926 16.5415 57.2222 16.7447 57.7678C16.8744 58.1121 17.1646 58.4714 17.5485 58.5171C17.6518 59.4582 17.6853 60.4101 17.7665 61.3517C17.8635 69.9759 18.8494 78.6458 17.4883 87.2229C16.9868 90.4804 16.5741 93.7793 16.9157 97.0753C17.1721 99.524 17.6571 101.946 18.19 104.347C18.2871 104.665 18.538 104.966 18.892 104.912C19.014 104.986 19.1626 105.043 19.2949 104.978C19.3135 106.512 19.5122 108.044 19.4023 109.578C19.3287 109.534 19.2543 109.491 19.1796 109.449C19.1366 109.357 19.0505 109.268 18.9469 109.323C18.9242 109.313 18.8948 109.333 18.9 109.356C18.7109 109.869 18.5836 110.426 18.4787 110.965C18.1106 111.673 17.8873 112.463 17.813 113.261C17.7765 113.572 17.7233 113.974 17.9967 114.197C17.9018 114.2 17.7838 114.208 17.7553 114.319C17.6208 114.649 17.401 116.678 17.9005 116.669C19.8358 116.787 21.7799 116.818 23.7175 116.888C23.8229 116.892 23.9236 116.81 23.9506 116.71C24.0123 116.484 24.0787 116.259 24.1431 116.033C27.2195 117.722 34.5661 116.738 36.4195 116.361C36.8013 116.361 36.8261 115.172 36.8013 114.809C37.0169 114.536 36.8817 114.079 36.7492 113.79C36.1904 112.577 34.7266 112.448 33.5663 112.254C31.7758 111.909 30.0217 111.233 28.6063 110.062C28.9883 109.699 29.4411 109.1 29.3923 108.554C29.3413 108.316 29.1277 108.184 28.8939 108.198C28.3613 108.243 27.9735 108.803 27.6733 109.188C27.6104 109.121 27.5488 109.055 27.4875 108.987C27.4808 108.844 27.3857 108.705 27.2195 108.725C26.8902 108.764 26.57 108.845 26.2566 108.951C26.179 108.59 26.0359 108.238 25.9559 107.876C25.7448 106.968 25.6951 106.039 25.6751 105.109C26.0598 105.103 26.2807 105.084 26.5795 104.926C26.7418 104.974 26.9256 104.914 26.9757 104.696C27.1391 103.989 27.1479 103.259 27.1976 102.537C27.7503 93.3785 28.7463 84.1547 31.9241 75.4875C32.2556 76.5322 32.692 77.5395 33.0652 78.5698C35.672 85.3633 37.2928 92.4712 39.1761 99.4855C39.3356 100.075 39.4975 100.663 39.6633 101.25C39.8949 102.251 40.38 102.712 41.4436 102.707C42.1419 102.74 42.8417 102.732 43.5395 102.686C44.364 103.465 44.7632 104.507 45.0521 105.573C44.8416 105.678 44.2189 105.523 44.1914 105.808C43.9303 106.236 44.0416 106.787 44.0366 107.265C44.0754 107.906 44.0423 108.586 44.2327 109.2C44.2434 109.847 44.2688 110.494 44.3031 111.141C43.7337 111.552 43.9042 112.37 44.0605 112.949C44.0282 113.359 47.4215 113.174 47.9049 113.21C48.7008 113.145 49.8736 113.393 50.2948 112.526C52.9346 113.826 56.5923 112.9 59.4352 112.637C60.4367 112.49 61.4337 112.316 62.4261 112.118C62.57 112.089 62.6396 111.925 62.6098 111.794C62.5008 111.313 62.3887 110.832 62.2777 110.352Z" fill="#333333"/>
<path fill-rule="evenodd" clip-rule="evenodd" d="M37.2082 8.91794C36.8482 7.4005 36.0613 5.98835 34.8013 4.84708C31.0099 1.09873 24.0473 3.13327 24.0789 8.78177C23.9429 9.44151 23.8877 10.1199 23.9327 10.7927C23.9513 11.0798 24.0756 11.4804 23.9087 11.7387C23.5321 12.2221 23.3133 12.5784 23.4415 13.2213C23.5485 13.7827 23.9306 14.1804 24.4462 14.3918C24.7554 14.4806 25.0488 14.6739 25.1633 14.9685C25.8516 16.2286 26.3616 17.2768 27.4467 18.1356C27.7266 18.3567 30.5984 19.6828 31.5446 19.6828C34.3148 19.6828 37.8062 18.6793 37.8642 15.585C37.8742 14.9054 37.7549 14.2179 37.6801 13.5436C37.498 12.0049 37.5623 10.4105 37.2082 8.91794Z" fill="#EAE5D9"/>
<path fill-rule="evenodd" clip-rule="evenodd" d="M37.1458 8.15848C37.1466 8.13971 37.1735 8.13549 37.1787 8.15403C37.2817 8.51933 37.34 8.89148 37.4206 9.26247C37.4981 9.61983 37.5714 9.97821 37.6323 10.3387C37.7473 11.0191 37.8442 11.7012 37.9343 12.3851L37.9567 12.5561C38.1133 13.7595 38.372 15.0131 38.1458 16.2236C37.9528 17.2564 37.3056 18.0888 36.4717 18.6991C35.682 19.277 34.7246 19.6478 33.7739 19.8587C32.7536 20.085 31.5442 20.1525 30.7141 19.4043C30.3817 19.1047 30.8348 18.5103 31.1953 18.7807C32.0419 19.4154 33.1189 19.2283 34.0741 18.9757L34.103 18.968C34.9415 18.7447 35.7855 18.4062 36.4511 17.8352C37.187 17.2038 37.5509 16.3275 37.5929 15.3665C37.6165 14.8265 37.5662 14.2872 37.5119 13.7504L37.5058 13.6908C37.4435 13.077 37.3781 12.4634 37.3178 11.8493C37.2627 11.2894 37.2152 10.7261 37.1901 10.1637L37.1784 9.87998C37.154 9.30802 37.1212 8.7277 37.1458 8.15848ZM27.217 3.40605C28.5946 2.68884 30.1778 2.43215 31.711 2.67285C33.1848 2.90425 34.5375 3.66477 35.5485 4.75527C36.0421 5.2877 36.4803 5.90357 36.7603 6.57639C36.8994 6.91064 37.0082 7.25932 37.0662 7.61743C37.0961 7.80153 37.1254 7.99228 37.131 8.17893C37.1362 8.35174 37.0854 8.51381 37.0914 8.68948C37.0923 8.71696 37.0502 8.72225 37.0438 8.69592C36.9959 8.50005 36.8805 8.35194 36.8082 8.16588C36.7541 8.02696 36.6927 7.89133 36.6302 7.75612L36.5765 7.64026C36.4207 7.30351 36.2344 6.9806 36.0502 6.65884C35.6791 6.0108 35.2031 5.42185 34.6456 4.9249C33.6669 4.05238 32.4112 3.48917 31.1007 3.38775C29.7405 3.28244 28.3608 3.60666 27.1991 4.32486C26.0375 5.04302 25.1592 6.15943 24.7032 7.44482C24.4731 8.09346 24.346 8.7693 24.3165 9.45648C24.3015 9.80433 24.3155 10.1551 24.3399 10.5023L24.352 10.6678C24.3662 10.8663 24.3759 11.0641 24.3462 11.2578C24.5557 11.1925 24.7754 11.1654 24.9958 11.1977C25.3233 11.2458 25.519 11.3801 25.6659 11.6727C25.6736 11.688 25.6582 11.7032 25.643 11.6956C25.4525 11.6006 25.1443 11.6506 24.9426 11.7005C24.7327 11.7523 24.5436 11.8425 24.3652 11.9645C24.0353 12.1899 23.7766 12.5393 23.7131 12.9402C23.6517 13.3274 23.8107 13.7195 24.0777 13.997C24.2152 14.14 24.3795 14.2635 24.5634 14.3405C24.7867 14.434 25.0076 14.4311 25.2051 14.5855C25.3272 14.6809 25.2977 14.8442 25.2149 14.9501C25.6316 15.407 26.0011 15.9069 26.4178 16.3656C26.6109 16.5782 26.8025 16.791 26.9876 17.0105L27.0567 17.0931C27.2414 17.3161 27.5354 17.5517 27.6199 17.8322C27.6724 18.0066 27.4856 18.2348 27.2967 18.1553C27.007 18.0333 26.8001 17.716 26.6044 17.4725L26.5916 17.4567C26.3863 17.2045 26.204 16.9382 26.0374 16.6591L25.9826 16.5671C25.6812 16.0604 25.3825 15.5347 25.1903 14.978C25.1777 14.991 25.1642 15.0029 25.1501 15.013C24.8732 15.2098 24.4708 15.0585 24.1944 14.9307C23.9334 14.81 23.6941 14.6285 23.5076 14.4097C23.102 13.934 22.9151 13.3178 23.0505 12.7004C23.1653 12.1773 23.5278 11.6686 24.0031 11.404C23.7837 11.1514 23.6929 10.811 23.6324 10.4781C23.5552 10.0533 23.5399 9.61784 23.5608 9.18699C23.6026 8.32883 23.8235 7.48292 24.1649 6.6971C24.7757 5.29104 25.8556 4.11491 27.217 3.40605ZM24.3175 12.7887C24.6067 12.7345 24.8761 12.7214 25.155 12.8438C25.4575 12.9766 25.6704 13.1958 25.8683 13.4527C26.0935 13.7448 25.5164 14.064 25.3709 13.6761L25.3666 13.6642C25.3276 13.5493 25.2578 13.4383 25.1694 13.3362C25.1429 13.3768 25.1074 13.4126 25.0657 13.4331C25.0153 13.4579 24.9382 13.4407 24.9261 13.3763C24.9126 13.3047 24.9275 13.218 24.9688 13.1574L24.9744 13.1492C24.7738 12.9877 24.5325 12.8698 24.3175 12.8319C24.2961 12.828 24.2963 12.7927 24.3175 12.7887Z" fill="#333333"/>
<path fill-rule="evenodd" clip-rule="evenodd" d="M32.9708 14.5281C33.1073 14.2873 33.5144 14.3265 33.5767 14.6073C33.703 15.1766 33.0241 15.7023 32.5085 15.7154C31.9961 15.7284 31.4212 15.2923 31.4954 14.7415C31.5137 14.6052 31.6957 14.6218 31.7577 14.7072L31.7818 14.74C31.9504 14.9664 32.1727 15.2007 32.4855 15.1455C32.6151 15.1227 32.7328 15.0417 32.8111 14.9375C32.9056 14.8117 32.8953 14.6614 32.9708 14.5281ZM29.7127 10.3632C29.7822 10.344 29.8522 10.3514 29.9138 10.3776C30.0511 10.4028 30.1659 10.5173 30.2062 10.6481C30.2094 10.6594 30.2129 10.6706 30.2169 10.6817L30.223 10.6982L30.2065 10.6563C30.2141 10.6975 30.2477 10.7409 30.2598 10.7824C30.2747 10.8333 30.2783 10.8912 30.2733 10.9473C30.317 10.9477 30.3606 10.9492 30.4042 10.953L30.4464 10.9567C30.6819 10.9786 30.9406 11.0188 31.0802 11.2223C31.1586 11.3367 31.085 11.5427 30.9409 11.5647C30.7191 11.5986 30.528 11.4759 30.307 11.4513C30.098 11.428 29.8794 11.4414 29.6731 11.4791C29.2473 11.5569 28.856 11.7295 28.441 11.8379L28.3845 11.8522L28.3846 11.8519C28.3135 11.8691 28.2327 11.7702 28.3031 11.7124C28.6355 11.4393 29.0612 11.218 29.4805 11.0832C29.4194 10.986 29.4005 10.858 29.4423 10.7537C29.4487 10.7321 29.4568 10.7111 29.4652 10.6901L29.4829 10.647C29.4846 10.6267 29.4885 10.6066 29.4941 10.5869L29.495 10.5809L29.4956 10.5812C29.5268 10.4798 29.6083 10.392 29.7127 10.3632ZM33.9542 10.3789C34.0451 10.2879 34.1729 10.3014 34.2678 10.3729L34.2804 10.3828C34.3698 10.4225 34.4438 10.5094 34.4924 10.5898C34.5429 10.6734 34.5764 10.7585 34.5778 10.8505C34.7979 10.8512 35.0087 10.9172 35.1703 11.0949C35.2225 11.1523 35.2581 11.2407 35.2294 11.3185L35.2123 11.3647C35.158 11.5116 34.9141 11.5961 34.8311 11.4234L34.8273 11.415C34.7392 11.21 34.401 11.2315 34.2213 11.2524C34.096 11.2671 33.9723 11.2982 33.8513 11.3331C33.8087 11.3454 33.7664 11.3588 33.7242 11.3724L33.682 11.3861C33.6595 11.3933 33.5423 11.457 33.6152 11.4419C33.6348 11.4379 33.6496 11.4664 33.6296 11.476C33.5426 11.5176 33.4499 11.4348 33.4557 11.3414C33.4658 11.1793 33.7232 11.0905 33.847 11.0346L33.8545 11.0312C33.9019 11.0092 33.9517 10.9882 34.003 10.9687C33.9742 10.9257 33.9503 10.878 33.9305 10.8267C33.9117 10.7784 33.8992 10.7314 33.8923 10.6799C33.8855 10.6548 33.8855 10.6297 33.8923 10.6045L33.8933 10.5973C33.8898 10.5807 33.8881 10.5635 33.8884 10.5462L33.8877 10.5395H33.8884C33.8908 10.4789 33.9149 10.4182 33.9542 10.3789ZM32.5014 12.1052C32.8507 12.2131 33.427 12.5071 33.245 12.961C32.9908 13.3778 32.3167 13.0715 31.9901 12.9368C31.6966 12.8396 31.5438 13.2509 31.8276 13.3749C34.1725 14.3025 34.1638 11.8542 32.5864 11.8902C32.4128 11.8941 32.4073 12.0693 32.5014 12.1052ZM29.399 8.91278L29.4586 8.89539C29.7682 8.80571 30.0843 8.65084 30.3592 8.89249C30.4671 8.98739 30.4894 9.18458 30.4121 9.30294C30.2362 9.57263 29.9752 9.53143 29.6911 9.55442C29.4747 9.57192 29.2616 9.63547 29.0596 9.7149C28.8945 9.77984 28.7415 9.87128 28.5969 9.97326C28.4549 10.0735 28.3579 10.2303 28.2123 10.3205C28.1589 10.3536 28.0973 10.3196 28.0781 10.2659C28.0102 10.0756 28.1249 9.83851 28.2221 9.67636C28.3406 9.47853 28.5207 9.31674 28.7144 9.19432C28.9264 9.06025 29.1609 8.98283 29.399 8.91278ZM33.9106 8.70801C34.434 8.70785 34.9376 8.99894 35.2303 9.42565C35.3298 9.57062 35.2569 9.78539 35.1141 9.86887C34.9539 9.96257 34.7827 9.8951 34.6771 9.76084L34.6708 9.7527C34.503 9.52914 34.2866 9.35307 34.03 9.23845C33.9049 9.18249 33.7665 9.13711 33.6311 9.11408L33.5873 9.10658C33.526 9.09631 33.4549 9.08649 33.3994 9.0961C33.3697 9.1 33.3424 9.10982 33.3173 9.12478C33.3294 9.15119 33.2982 9.18301 33.2693 9.16718C33.1393 9.09575 33.1552 8.96832 33.2626 8.86928C33.4146 8.72917 33.7144 8.70805 33.9106 8.70801Z" fill="#333333"/>
<path fill-rule="evenodd" clip-rule="evenodd" d="M34.2452 14.473C34.3542 14.5848 34.4588 14.7045 34.5574 14.8282C34.5849 15.0247 34.5912 15.2235 34.5662 15.4288C34.5296 15.7263 34.4485 16.017 34.3387 16.2962C34.2739 16.287 34.2098 16.2688 34.1474 16.2401C33.9493 16.149 33.8388 15.9657 33.7047 15.8038C33.4379 15.4821 32.951 15.292 32.6106 15.6256C32.4626 15.7708 32.368 15.9717 32.2359 16.1311C32.0908 16.3065 31.9277 16.4732 31.7575 16.6243C31.7364 16.6434 31.7145 16.6641 31.6919 16.6844C31.5972 16.5762 31.5041 16.4672 31.4131 16.3566C31.1422 16.0273 30.9084 15.6626 30.7855 15.2514C30.7465 15.1209 30.7222 14.9849 30.7127 14.8477C30.8332 14.6982 30.9708 14.5621 31.1271 14.4496C31.5984 14.1095 32.1413 14.0542 32.7061 14.0248C33.2903 13.9946 33.8165 14.0344 34.2452 14.473ZM35.6707 16.0508C35.648 15.8233 35.613 15.5867 35.5613 15.3504C35.3724 14.4738 34.9631 13.6001 34.1426 13.1995C33.7544 13.0098 33.3134 12.943 32.895 13.0345C32.1608 12.7597 31.3455 13.0401 30.7676 13.5428C30.0859 14.1358 29.7713 15.0664 29.6655 15.9382C29.5919 16.5448 29.5642 17.3551 29.7363 17.7952C29.9084 18.2353 31.0021 19.4121 32.5633 19.4203C34.7869 19.4319 35.3274 17.9324 35.393 17.8012C35.6671 17.2555 35.7307 16.653 35.6707 16.0508Z" fill="#333333"/>
<path fill-rule="evenodd" clip-rule="evenodd" d="M36.6208 12.91C36.1379 13.409 35.3318 13.5521 34.6894 13.2846C33.0398 12.5953 33.8472 10.4457 35.1194 9.86837C35.2783 9.82876 35.4906 9.73478 35.6841 9.71346C35.7016 9.70487 35.7397 9.72973 35.7859 9.70622C37.1887 9.86285 37.5082 12.0404 36.6208 12.91ZM31.3001 13.0377C30.7586 13.7561 29.7517 13.9777 28.9291 13.6437C27.3039 13.0037 27.8803 11.0975 28.9922 10.3502C31.341 9.46759 32.311 11.7133 31.3001 13.0377ZM27.7771 11.4461C27.7756 11.4454 27.7741 11.4451 27.7726 11.4443C27.7812 11.4406 27.7897 11.4368 27.7983 11.4329C27.7955 11.4402 27.7925 11.4474 27.7898 11.4547C27.7856 11.4518 27.7819 11.4484 27.7771 11.4461ZM37.7388 10.6697C37.6062 10.6699 37.4147 10.6917 37.3049 10.7837C37.0342 9.87084 36.0351 9.02596 35.1661 9.64203C34.4819 9.86209 33.9741 10.3501 33.6855 10.999C33.1652 10.6895 32.347 10.8216 31.8958 11.2309C31.6003 10.2545 30.873 9.91256 30.0074 9.86209C29.0625 9.70734 28.1208 10.6249 27.827 11.361C27.5827 11.3332 27.2176 11.2555 26.9877 11.4062C25.496 11.015 22.888 10.7994 22.5847 11.0167C22.3686 11.0996 22.25 11.6098 22.5518 11.6373C22.8149 11.5999 22.5211 11.2635 22.7863 11.2268C24.1991 11.1392 25.5707 11.4237 26.9685 11.5431C27.0933 11.711 27.4966 11.7672 27.7117 11.6997C27.3729 12.9484 28.1043 13.7979 29.2002 14.0524C30.8972 14.4422 32.3736 12.9242 31.9298 11.3452C32.4439 11.0895 33.0352 11.1005 33.5952 11.2352C32.6594 14.679 38.2059 14.5245 37.3396 10.9017C37.9161 11.1885 38.0413 10.7275 37.7388 10.6697Z" fill="#333333"/>
</svg>
