<svg width="66" height="124" viewBox="0 0 66 124" fill="none" xmlns="http://www.w3.org/2000/svg">
<path fill-rule="evenodd" clip-rule="evenodd" d="M21.4654 54.9189C21.8803 51.1598 22.5079 47.304 24.0928 43.8223C24.6374 39.3198 23.7199 32.8714 27.8897 29.8352C27.8364 29.2962 28.8021 28.8316 29.2498 28.5439C29.977 28.0673 30.9607 27.1309 31.8215 27.6555C32.093 27.5726 32.7627 27.9119 33.071 27.1759C33.3868 26.422 33.3409 24.9102 33.5927 24.7722C33.4816 23.6828 38.3771 22.9538 39.6549 24.4938C40.2616 25.6749 39.5647 26.0509 40.9327 27.6035C41.5368 27.6407 42.1131 27.7939 42.6702 28.0039C43.1303 28.0676 43.5878 28.145 44.0434 28.2256C49.8535 28.7635 50.2927 33.0645 50.8077 37.6832C51.2486 43.8875 53.1638 50.0686 52.3358 56.3218C52.7934 58.5578 52.8235 60.9437 52.2771 63.1584C54.0688 65.7762 52.77 67.2247 51.6525 69.7137C51.4634 70.1615 51.2988 70.6227 51.2151 71.1004C51.2372 71.4705 51.2347 71.8411 51.1697 72.2085C50.98 73.0456 49.5851 72.9285 49.523 72.0827C49.4139 71.5272 49.4477 70.951 49.3631 70.3927C49.368 70.4218 49.3766 70.4776 49.3766 70.4819C49.172 69.0772 48.8422 68.5326 47.9313 67.4607C46.7618 65.7693 47.481 63.6439 47.2141 61.7509C47.1409 61.1184 47.0442 60.4943 46.9795 59.8605C46.5851 60.0926 46.1564 60.2862 45.7085 60.4071C45.9907 62.5854 45.4998 64.774 44.9541 66.8811C43.477 72.309 41.5187 77.8826 42.3693 83.5787C42.3688 83.5759 43.2967 88.234 44.0296 90.5332C44.9157 93.4491 45.6291 96.37 46.8827 99.1659C47.5541 101.178 48.9746 103.088 48.9194 105.254C49.4098 105.98 48.5268 106.851 47.7486 106.849C47.7486 107.831 48.2672 109.682 48.2672 109.682C48.3486 110.368 48.6995 111.242 48.169 111.825C48.8902 113.662 49.1435 115.65 49.3414 117.594C49.417 118.516 49.5037 119.628 48.5166 120.151C47.5969 120.548 46.5262 120.373 45.5441 120.492C44.594 120.493 43.6108 120.743 42.6764 120.527C41.6031 120.222 41.387 119.059 41.5891 118.129C41.7195 117.161 41.8757 116.196 42.0466 115.234C42.5538 113.139 42.6957 110.814 43.3454 108.798C42.9814 108.73 42.6162 108.546 42.3693 108.279C41.7419 108.258 41.2794 107.791 41.1257 107.239C41.0148 106.883 40.5372 106.81 40.2155 106.697C40.1553 107.004 39.9795 107.263 39.8364 107.542C39.9586 108.136 39.5506 108.829 38.877 108.843C38.7797 108.937 38.6894 109.032 38.59 109.121C39.3559 110.249 39.9239 111.522 40.0678 112.864C40.2412 113.894 40.4226 115.545 39.0594 115.849C38.5448 115.917 37.991 116.049 37.4867 115.862C36.9245 116.114 36.3267 116.235 35.7214 116.343C33.127 116.781 30.6248 116.744 28.0087 117.038C27.3185 117.134 24.5531 117.418 24.0928 117.038C23.5314 117.153 23.8709 116.734 23.6347 116.343C23.4465 116.049 22.9442 115.486 23.2684 115.323C23.9489 115.03 24.552 114.452 25.1745 114.124C28.0837 112.468 34.3587 109.648 34.3151 109.569C34.3237 109.625 34.2771 108.207 34.0445 107.831C33.7173 107.507 33.0652 107.564 32.7237 107.254C32.507 107.264 30.8808 106.796 31.02 106.012C31.1984 105.387 30.6157 104.62 31.02 104.092C29.6814 91.8639 26.5664 80.0039 24.8473 67.8406C24.8093 67.8072 24.7716 67.7734 24.7336 67.74C23.8472 67.8883 23.1585 66.998 22.8894 66.2968C22.7597 66.1652 22.635 66.0296 22.5205 65.8826C21.7982 64.9432 21.7852 63.7197 21.7031 62.602C21.5244 62.4708 21.4095 62.2669 21.3997 62.0256C21.3711 61.3072 21.3406 60.5888 21.3105 59.8708C21.3101 59.8708 21.3101 59.8708 21.3101 59.8704C21.0877 59.5132 21.0574 59.1112 21.1208 58.7018C21.0974 57.3776 20.8934 56.1371 21.4654 54.9189Z" fill="#EAE5D9"/>
<path fill-rule="evenodd" clip-rule="evenodd" d="M39.6842 24.3636C39.6708 24.2464 39.5144 24.2482 39.4994 24.3636C39.335 25.759 39.8859 27.3609 41.241 28.0112C40.2249 28.9087 39.5098 30.1086 38.2905 30.7862C35.7323 32.4529 32.0353 30.8934 31.4664 27.954C32.0978 27.8092 33.2743 27.8215 33.466 27.0838C33.5587 26.9888 33.6064 26.175 33.6007 25.5747C33.6065 25.4631 33.6101 25.3514 33.6138 25.2406C33.6235 25.1507 33.6263 25.0592 33.6253 24.9671C33.6233 24.7672 33.3242 24.7712 33.3116 24.9671C33.3064 25.0474 33.303 25.1287 33.2997 25.2105C33.2976 25.232 33.2946 25.2535 33.2919 25.2751C33.2508 25.4245 33.2223 25.5807 33.1887 25.7226C33.1706 25.7989 33.1519 25.8762 33.1318 25.9533C33.103 26.1554 33.0514 26.3529 32.963 26.5398C32.728 27.037 32.1485 27.4639 31.5772 27.4685C31.4548 27.4695 31.3331 27.4515 31.2106 27.4546C31.0112 27.4596 30.8482 27.5387 30.6702 27.6192C30.5095 27.6918 30.3586 27.741 30.2036 27.7407C23.8084 29.9097 24.6889 37.8496 23.7149 43.2177C22.7221 48.5488 20.6713 53.6885 20.3694 59.1368C20.2789 59.7017 20.9029 59.9113 21.2899 60.1786C21.3931 61.6001 20.795 63.0388 21.2098 64.4454C21.5935 65.5955 23.1405 68.3608 24.6186 67.9252C26.2948 80.6646 30.1905 92.4711 30.5591 105.366C30.1859 106.444 31.2574 107.226 32.2457 107.384L32.3804 107.462C32.831 107.72 33.2965 107.974 33.7895 108.134C33.8018 108.141 33.8141 108.148 33.8267 108.155C33.8507 108.168 33.8764 108.176 33.9027 108.18C33.8752 108.51 33.7709 108.82 33.6364 109.121C31.5859 109.594 29.7849 110.836 27.8567 111.648C26.6129 112.414 22.816 113.519 22.5277 114.863L22.52 114.904C22.4041 115.507 22.728 116.25 23.4137 116.307C23.0558 116.572 23.2902 117.107 23.6801 117.21C24.1487 117.335 24.6573 117.282 25.1396 117.32C29.6895 117.463 34.2795 117.061 38.7144 116.041C39.0869 115.955 39.4748 115.843 39.7887 115.62C41.7133 114.097 39.71 110.872 39.2369 108.896C39.4087 108.868 39.5786 108.831 39.7455 108.781L39.7828 108.77C39.945 108.721 40.1126 108.662 40.2386 108.548C40.2437 108.543 40.2481 108.538 40.253 108.533C41.0638 108.521 40.238 106.735 40.1651 106.258C40.4946 106.959 40.7636 107.709 41.1583 108.377C41.43 108.789 42.0259 108.503 42.4261 108.474C42.293 110.917 41.7101 113.299 41.1114 115.665C40.6252 117.631 39.7906 119.993 42.5448 120.59C44.4419 121.087 48.9625 120.897 49.7711 118.82C50.0096 117.128 49.4873 115.414 49.229 113.747L49.1837 113.51C48.8754 111.889 48.5903 110.261 48.1432 108.671C48.0817 108.412 48.0059 108.158 47.9244 107.906C47.9138 107.759 47.906 107.612 47.9156 107.464C47.928 107.271 47.9646 107.081 48.0034 106.892C48.0083 106.867 48.0128 106.839 48.0174 106.81C48.8162 106.441 49.4094 106.024 49.4859 105.574C49.5642 105.147 49.4059 104.715 49.2885 104.307L49.2816 104.283C46.7091 95.2473 41.8156 87.1046 42.6496 77.4661C42.9563 72.7254 45.2009 68.3653 45.5796 63.637C45.7975 62.6938 45.9942 61.7408 46.0259 60.7685C46.1604 60.7368 46.296 60.708 46.4299 60.6732C46.5084 61.0937 46.6077 61.5106 46.7706 61.903C46.8333 62.6788 46.7932 63.4632 46.6582 64.2305C46.6271 64.4072 46.7132 64.5611 46.8589 64.6176C46.5088 65.7088 46.4398 67.0772 47.3425 67.9225L47.4173 67.972C48.2016 68.4942 48.2835 68.642 48.466 69.615L49.0664 72.074C49.1417 72.3784 49.2319 72.6884 49.4489 72.9274C50.0246 73.5614 50.941 73.1476 51.2379 72.4718C51.5089 71.7794 51.5069 71.0172 51.7047 70.3042C51.8551 69.5676 52.2722 68.9385 52.6855 68.321C53.6096 66.9033 53.6833 64.9293 52.653 63.5408C52.563 63.311 52.4806 63.0849 52.385 62.859C52.7415 62.4406 52.5121 61.7817 52.553 61.2697C52.5537 60.8471 52.5615 60.4244 52.5743 60.002C52.6495 57.5068 52.9065 55.0271 52.9158 52.5317C53.0157 49.1684 52.1309 45.9105 51.6179 42.6118C51.1767 39.3543 51.2002 36.0332 50.4786 32.8137C49.1355 26.4943 41.599 28.9035 40.3239 26.4132C39.9387 25.7901 39.7662 25.081 39.6842 24.3636ZM48.8901 118.045C49.0041 118.885 48.414 119.087 47.7374 119.343C46.0123 119.975 44.0204 120.126 42.267 119.522C41.9562 119.391 41.7339 119.194 41.6235 118.906C44.057 119.128 46.6124 118.966 48.8901 118.045ZM39.6123 114.303C39.4596 115.058 38.4874 115.147 37.8364 115.273C36.2818 115.599 34.712 115.86 33.1335 116.045C30.0745 116.414 26.9799 116.478 23.906 116.338C23.8229 116.302 23.7696 116.233 23.6648 116.233L23.652 116.233C23.6461 116.233 23.6405 116.234 23.6347 116.234C23.6858 116.2 23.7296 116.156 23.762 116.104C29.0458 115.523 34.3615 115.127 39.6123 114.303ZM34.4468 107.832C35.7158 108.052 37.0111 108.168 38.2925 107.968C38.3789 109.029 38.7894 110.059 39.1123 111.074C37.3419 111.542 36.1702 109.577 34.5867 109.203C34.6764 108.734 34.6446 108.241 34.4468 107.832ZM47.5268 107.021C47.5225 107.028 47.5203 107.037 47.5211 107.048C47.5273 108.283 47.6525 109.515 47.8346 110.738C46.7097 109.525 44.8271 109.218 43.2766 109.723L43.2834 109.644C43.3232 109.196 43.3828 108.737 43.3098 108.294L43.3809 108.274C44.1806 108.053 46.061 107.61 47.5268 107.021ZM24.3569 60.4127C31.2836 62.2727 38.6568 62.3893 45.6558 60.8514C45.3068 61.9711 45.0447 63.1112 44.8595 64.2667C44.4626 67.2389 43.3694 70.0477 42.6329 72.9435C41.7833 76.3612 41.5808 79.2391 42.0037 82.7301L42.0167 82.8359C42.9478 90.6645 46.7606 97.8112 48.5519 105.412C46.4439 106.692 43.8397 107.192 41.4225 107.721C39.9034 104.587 38.6197 101.372 37.7785 97.997C34.7482 87.403 30.7551 77.4279 31.642 66.2427C31.8398 66.1128 31.7754 65.839 31.6668 65.6641C31.7043 64.8572 31.7563 64.051 31.8413 63.2485C31.8442 63.2214 31.7988 63.216 31.7932 63.2421C31.6526 63.9295 31.5049 64.6151 31.3814 65.3058C30.5298 64.4387 29.979 63.3551 29.2301 62.4144C29.1235 63.1168 30.5835 65.8376 31.2258 66.2586C29.8571 74.6694 32.1364 82.3689 34.5983 90.3681C36.255 96.1117 37.8646 101.872 39.5738 107.6C39.553 107.6 39.5323 107.601 39.5115 107.601C39.6143 107.412 37.439 107.543 37.2604 107.447C35.6584 107.296 34.0905 106.916 32.5323 106.535L32.3411 106.486C31.9528 106.384 31.5021 106.237 31.4323 105.822L31.4313 105.769C31.4308 105.754 31.4301 105.742 31.4288 105.74L31.44 105.694C31.4424 105.683 31.4441 105.675 31.4438 105.672L31.4592 105.649C31.4771 105.623 31.4938 105.6 31.47 105.627C31.6461 105.434 31.662 105.137 31.4589 104.953C31.0781 90.9623 26.5746 78.1578 24.9067 64.3239C24.7414 63.0177 24.5396 61.7165 24.3569 60.4127ZM51.9482 63.1213C52.7491 64.1166 52.8866 65.5055 52.5709 66.7185C52.4051 67.3205 52.0699 67.8273 51.7242 68.3436C51.1182 69.2042 50.8355 70.2041 50.6813 71.2288L50.677 71.2483C50.6066 71.5777 50.563 72.4865 50.0979 72.3842C49.9757 72.3056 49.9172 71.9603 49.8742 71.7797L49.3373 69.5806C49.1818 68.9438 49.0886 68.1872 48.5379 67.7464L48.4728 67.7049C48.0229 67.4154 47.5841 67.0797 47.5135 66.5157C47.3585 65.8244 47.6467 65.155 47.7544 64.483C49.1906 64.1543 50.5928 63.6904 51.9482 63.1213ZM21.4655 60.2799L21.5135 60.3036C22.066 60.579 23.7142 61.4701 24.1393 61.1279C24.1292 63.165 24.2923 65.192 24.5313 67.2126C24.4702 67.1992 24.4072 67.2007 24.3507 67.2214C23.1523 66.8896 21.8503 64.6233 21.7498 63.4587C21.6678 62.3987 21.8783 61.2929 21.4655 60.2799ZM41.1679 29.0585L41.229 28.9778C41.8777 28.1239 42.2418 27.8189 43.3637 28.2745C43.2129 28.4612 43.1419 28.7113 43.2062 28.9704L43.2104 28.9869C43.5644 30.4434 45.3801 31.2873 46.709 30.4948C47.1733 30.6157 47.6575 30.2819 47.6762 29.8087C48.9913 30.583 49.5989 32.0015 49.8455 33.4262C48.9822 32.9717 47.8214 33.4055 47.4768 34.3093C46.7217 35.9612 48.9224 37.6796 50.2645 36.2886C50.5552 39.0748 50.6917 41.8824 51.2214 44.6396C50.8289 43.9938 49.8929 43.8419 49.3348 44.3732C47.5072 45.951 49.6092 49.5354 51.8184 47.8266C52.0861 49.3614 52.1806 50.9181 52.168 52.4707C51.4601 52.1979 51.0726 53.4216 51.0212 53.9395C50.9571 54.5628 51.2789 55.8697 52.033 55.9435L51.971 56.9404C51.8656 58.6488 51.772 60.3557 51.7954 62.0684C51.7575 62.0779 51.7252 62.0952 51.6982 62.1176C51.6962 62.1671 51.6897 62.2166 51.6803 62.2655C51.671 62.314 51.6401 62.3397 51.6038 62.3478L51.6025 62.3497C51.6042 62.384 51.6109 62.4183 51.6238 62.4507C50.2396 63.0303 48.8108 63.5089 47.3555 63.8856C47.3912 63.4011 47.3822 62.918 47.3318 62.4393C47.882 61.9161 47.2052 60.0165 47.1403 59.2781C46.8861 57.7988 46.6926 56.3103 46.5215 54.8197C47.0323 54.776 47.2938 54.2427 47.4281 53.8086C47.6032 53.3307 47.7088 52.8204 47.5855 52.3178C47.4605 51.7195 46.7902 51.1478 46.1581 51.3585L46.1183 50.9577C45.868 48.4191 45.6493 45.8764 45.2746 43.3519C46.4983 44.0347 47.6539 42.5498 47.3583 41.3972C47.2718 40.9079 46.9738 40.4338 46.5342 40.1796C46.1453 39.9561 45.3416 39.7347 45.0866 40.2264C44.9672 40.2417 44.8553 40.2999 44.7707 40.386C44.5064 39.0169 44.1848 37.6372 43.6732 36.3396C45.2904 35.3237 44.9879 32.7658 42.8594 32.7625C39.989 33.0083 40.7526 37.1956 43.5211 36.4082C44.3906 41.6485 44.8917 46.9322 45.3364 52.221C45.0017 52.7665 45.0547 53.5759 45.514 54.035C45.7138 55.9482 45.9561 57.8575 46.2744 59.7552C44.1688 60.2246 42.0372 60.6128 39.8825 60.7916C39.7789 60.1252 39.0539 59.7695 38.4273 59.716C38.0125 59.6714 37.5611 59.8289 37.1648 59.9042C36.686 60.0876 36.2942 60.5088 36.1193 60.9683C34.1078 60.9805 32.0951 60.8533 30.1024 60.5927C30.3036 59.5904 28.8447 58.8263 27.9564 58.9822C27.6009 59.0259 27.2541 59.1604 26.9877 59.4005C26.7275 59.4558 26.4829 59.6805 26.4183 59.951C25.7128 59.7832 24.9902 59.6554 24.3085 59.4061C23.6397 59.1868 23.4211 58.6362 23.5944 57.9854C25.486 58.743 27.0911 55.7374 25.2861 54.6501C25.055 54.4791 24.5735 54.3685 24.4381 54.6918C24.415 54.6958 24.3921 54.7007 24.3693 54.7062C24.5195 54.0877 24.6706 53.4694 24.8217 52.8512C25.689 52.7683 25.9785 51.496 25.2583 51.049C25.5033 50.0234 25.741 48.9957 25.9641 47.9651C27.1526 48.2101 28.1378 46.732 27.8863 45.6642L27.8783 45.632C27.7363 45.0515 27.3043 44.4807 26.6662 44.3843C26.8169 43.5121 26.9516 42.637 27.0651 41.759C27.2295 41.584 27.3031 41.3231 27.2391 41.0923C27.1927 39.4045 27.5351 37.6667 27.3971 35.9549C28.6583 37.4873 31.2862 36.4442 30.6859 34.4221C30.721 32.5489 28.0577 31.885 27.1595 33.541C27.0633 33.1878 26.9397 32.8363 26.8792 32.4721C26.8701 32.4303 26.8055 32.4387 26.8016 32.478L26.8015 32.4824C26.6676 34.878 26.7661 37.2891 26.509 39.682C25.5479 39.7292 25.1553 42.0207 26.1994 42.1852C25.8045 44.8492 25.2115 47.4785 24.5669 50.0954C23.4469 49.8079 23.0139 52.2143 23.9359 52.619C23.6676 53.6828 23.4006 54.7466 23.14 55.8122L23.1349 55.8099C22.9995 55.5773 22.6387 55.6032 22.4066 55.6476C21.6402 55.9299 21.9642 57.3164 22.7986 57.2315C22.3435 58.6008 22.632 59.8713 24.1507 60.3418L24.1499 60.3854C24.1028 60.3487 24.0457 60.3188 23.9765 60.2994C23.0275 60.0331 22.1413 59.6194 21.3236 59.083C21.5642 55.1292 22.7093 51.2965 23.6358 47.4613C24.7006 47.2916 25.0402 45.5867 24.2096 44.9588C24.7846 42.4125 24.9502 39.8087 25.2316 37.2228C25.9985 37.0557 26.1923 35.8255 25.4999 35.4487C25.9386 32.2374 27.5907 29.5304 30.6731 28.1538C30.7731 28.6108 30.9389 29.0546 31.1609 29.47C31.1401 29.4712 31.12 29.4737 31.1003 29.477C31.0952 29.4862 31.0889 29.4953 31.0805 29.504C30.9135 29.6747 30.8065 29.8668 30.7387 30.0725C30.7321 30.1166 30.7248 30.1608 30.7174 30.2049C30.7248 30.2229 30.7332 30.2408 30.7427 30.2583C30.4125 31.5131 31.9604 32.1546 33.0056 31.8739C33.1676 31.842 33.2735 31.7513 33.33 31.6366C35.1804 32.6309 37.5953 32.4214 39.2623 31.1066C40.4738 31.7533 42.0338 30.2431 41.1679 29.0585ZM49.8509 57.1929C48.0804 56.9327 47.5013 59.7762 48.9283 60.5657C49.3884 60.8387 50.0211 60.8624 50.4741 60.5607C51.6803 59.8308 51.3448 57.3428 49.8509 57.1929ZM43.1116 55.4914C40.8583 55.4818 40.6656 58.9363 42.631 59.5583C44.0926 59.9799 45.5244 58.3616 44.7748 57.0123C44.7056 56.1729 43.9786 55.5037 43.1116 55.4914ZM36.0904 55.8049C35.9732 54.9125 35.0368 54.06 34.0943 54.3057C33.2307 54.5231 33.0055 55.5289 32.8523 56.2738C32.5041 57.8162 34.258 59.3799 35.7358 58.5305C36.6798 57.9678 36.8178 56.5906 36.0904 55.8049ZM31.0578 50.597C30.742 50.0963 30.0344 49.8758 29.4568 50.0502C27.8725 50.5539 28.0607 53.0823 29.3356 53.8359C31.5256 54.977 33.2721 51.6964 31.0578 50.597ZM41.3763 52.0741C41.4133 50.5716 39.856 49.2039 38.3932 50.058C36.0255 51.6376 38.4502 55.2615 40.722 53.2304C41.1268 52.9703 41.3661 52.5482 41.3763 52.0741ZM44.3218 48.2405C45.4177 46.5414 43.5357 44.0227 41.7396 45.6507C41.1236 46.2801 41.1511 47.4343 41.5077 48.1825C42.0878 49.1822 43.6988 49.2056 44.3218 48.2405ZM36.3648 45.0543C35.5096 44.237 34.0153 44.2284 33.3655 45.3068C32.5953 46.6372 33.5145 48.9132 35.2507 48.805C37.0546 48.6777 37.5488 46.1532 36.3648 45.0543ZM40.8454 42.3978C42.2176 40.9985 40.7277 38.7538 38.8666 39.2943C35.8251 40.4084 38.4647 44.6007 40.8454 42.3978ZM33.3547 42.0821C34.5769 39.8626 31.6077 37.8669 30.0967 40.0033C28.9377 41.9382 32.0667 44.1718 33.3547 42.0821ZM37.3413 35.7682C38.3989 33.9182 36.5507 31.8625 34.6089 32.9483C31.8458 34.8586 35.3827 38.5325 37.3413 35.7682Z" fill="#333333"/>
<path fill-rule="evenodd" clip-rule="evenodd" d="M30.243 15.9498C30.5163 12.6174 31.3487 9.66589 35.2598 9.54004C37.0248 9.55581 38.8265 9.93077 40.4496 10.6245C44.3946 12.6025 45.6463 19.8302 42.1706 22.7396C42.1913 22.7514 42.1963 22.7854 42.1718 22.8018C41.4538 23.2849 40.6556 23.6823 39.8562 24.0163C37.7269 24.9165 35.2202 25.3075 33.0486 24.331C29.7346 22.9209 29.6849 18.997 30.243 15.9498Z" fill="#EAE5D9"/>
<path fill-rule="evenodd" clip-rule="evenodd" d="M23.7198 14.3965C23.5836 14.2738 23.482 14.1129 23.4307 13.9325C23.3837 13.768 23.3805 13.5884 23.4303 13.4243C23.4836 13.2483 23.5987 13.1081 23.5728 12.9249C23.57 12.907 23.5665 12.8883 23.5609 12.8696C23.4613 12.5247 23.2164 12.2758 23.304 11.8934C23.3287 11.7855 23.3753 11.6883 23.4402 11.6119C23.433 11.529 23.4267 11.4454 23.4215 11.3618C23.2777 11.0252 23.2829 10.6254 23.4362 10.294C23.4549 10.1244 23.4832 9.9563 23.523 9.79102C23.5047 9.64486 23.5302 9.48396 23.5772 9.35612C23.6598 9.13118 23.7618 8.90951 23.8725 8.6915C23.8595 8.63188 23.8654 8.56888 23.8982 8.51285C23.9581 8.41101 24.0371 8.32148 24.1179 8.23398C24.1751 8.13191 24.2326 8.03067 24.2897 7.93075C24.3161 7.88483 24.3453 7.83389 24.3775 7.77993C24.2898 7.6172 24.243 7.45861 24.3357 7.26725C24.3706 7.19536 24.4664 7.14235 24.5453 7.14705C24.6315 7.15219 24.7185 7.15605 24.806 7.15936C24.9696 6.9619 25.1549 6.78464 25.3535 6.6826C25.5546 6.51215 25.7585 6.34488 25.9568 6.17402C26.013 6.12544 26.0695 6.07685 26.1257 6.02826C26.1261 6.02707 26.1265 6.02547 26.1269 6.02428C26.1683 5.87334 26.2149 5.72439 26.2615 5.57464C26.2906 5.48185 26.2993 5.38467 26.3897 5.3341C26.5785 5.22856 26.8688 5.21183 27.0855 5.19391C27.107 5.17479 27.1285 5.15607 27.15 5.13696C27.0516 4.8749 27.0692 4.59652 27.193 4.33406C27.2352 4.24485 27.3818 4.20463 27.4622 4.26357C27.6478 4.39978 27.8681 4.44797 28.0859 4.42805C28.4061 4.18193 29.6977 3.06895 29.8972 2.95147C29.8997 2.94724 29.9017 2.94302 29.9043 2.93884C30.0165 2.7597 30.1528 2.61585 30.3059 2.50052C30.3278 2.4777 30.3497 2.45484 30.3715 2.43198C30.3523 2.29541 30.3017 2.16355 30.2202 2.05323C30.2114 2.04049 30.2015 2.02814 30.1915 2.01619C30.0489 1.84653 30.223 1.62829 30.4221 1.7171C30.4364 1.72347 30.4508 1.72984 30.4651 1.73661C30.6182 1.80488 30.7876 1.87907 30.964 1.94168C31.0285 1.9175 31.0943 1.8956 31.1543 1.87146L31.797 1.61311C31.9028 1.57058 32.0146 1.53454 32.1169 1.48456C32.1526 1.24723 32.3904 1.09159 32.6374 1.09972C32.6232 1.05416 32.6019 1.00991 32.5719 0.967973C32.5631 0.955626 32.5536 0.943679 32.5436 0.932129C32.4166 0.784375 32.5862 0.510372 32.7679 0.641798C32.7806 0.650958 32.7937 0.660118 32.8065 0.669278C32.8569 0.704683 32.9086 0.737898 32.9608 0.770077C33.0444 0.733597 33.1386 0.725273 33.2371 0.763864C33.4552 0.849291 33.6564 0.936152 33.8484 1.07005C33.8563 1.0755 33.8643 1.08008 33.8722 1.08522C33.9676 0.970043 34.1189 0.89302 34.2553 0.893856C34.2581 0.893856 34.2602 0.893816 34.2627 0.893777C34.3646 0.738495 34.5514 0.64825 34.7318 0.670194C34.7196 0.447367 34.9427 0.248516 35.1458 0.224342C35.3831 0.196145 35.5969 0.333903 35.6681 0.565372C35.688 0.62981 35.7078 0.694288 35.7276 0.758767C35.9118 0.665773 36.1063 0.594524 36.3094 0.55896C36.7719 0.477954 37.2241 0.564217 37.6698 0.692616C37.7143 0.70544 37.7588 0.718622 37.8033 0.731765C37.8669 0.658126 37.9265 0.582736 37.9835 0.512363C38.0818 0.390894 38.318 0.488069 38.3021 0.644187C38.291 0.751917 38.3348 0.829418 38.4052 0.884497C38.4826 0.895808 38.5574 0.899233 38.6702 0.896963C38.8193 0.893936 38.8871 0.889276 39.043 0.828502C39.1156 0.800225 39.206 0.72587 39.2484 0.659122C39.4107 0.40316 39.8229 0.334222 40.0192 0.578275C40.2259 0.487831 40.4867 0.612565 40.6014 0.788437C40.6614 0.880395 40.7867 0.93181 40.9443 0.976017C41.0626 1.00915 41.1836 1.03424 41.3051 1.05619C41.3593 0.982708 41.4734 0.933443 41.557 0.995054C41.6137 1.03691 41.6688 1.07988 41.723 1.12393C42.1416 1.1816 42.558 1.18367 42.9571 1.02046C43.295 0.882267 43.6052 1.2597 43.5495 1.57655C43.6473 1.62749 43.7535 1.66138 43.8501 1.71475C44.061 1.83128 44.2342 2.01548 44.3397 2.23189C44.3586 2.27064 44.3757 2.30999 44.392 2.34954C44.4708 2.4137 44.5488 2.47957 44.6248 2.54906C44.7515 2.48415 44.8777 2.41923 45.0044 2.35431C45.0992 2.30573 45.2589 2.33958 45.2776 2.46543C45.3083 2.67252 45.3827 2.84417 45.4891 2.98795C45.8348 3.16955 46.1673 3.37346 46.4855 3.60007C46.8515 3.71477 47.2406 3.78168 47.5604 3.85695C47.6699 3.88284 47.7297 4.02581 47.6679 4.121C47.6026 4.22176 47.5373 4.32251 47.4724 4.42327C47.6544 4.6009 47.8253 4.78649 47.9866 4.97845C48.4354 5.51212 48.811 6.09716 49.1471 6.71685C49.2801 6.77062 49.4131 6.82398 49.5461 6.87775C49.6744 6.92952 49.7321 7.07847 49.6282 7.18799C49.5788 7.24017 49.5346 7.29513 49.4968 7.35287C49.6851 7.66471 49.907 7.94907 50.2172 8.13545C50.3116 8.19201 50.3825 8.28082 50.4203 8.38158C50.4526 8.40308 50.4844 8.42618 50.5159 8.44968C50.6035 8.51579 50.6565 8.65996 50.5537 8.74559C50.4817 8.80612 50.4139 8.87781 50.3566 8.95706C50.3443 9.00207 50.3315 9.04747 50.3188 9.09247C50.6071 9.35771 50.8469 9.66597 51.0269 10.0117C51.0695 10.0049 51.1133 10.0093 51.1487 10.0356C51.4705 10.2733 51.4801 10.6521 51.3507 10.9906C51.4287 11.5007 51.3785 12.0237 51.228 12.5179C51.4259 12.7154 51.545 13.0006 51.5936 13.2754C51.6792 13.7581 51.6852 14.5004 51.7075 14.9931C51.9234 15.2014 52.0771 15.471 52.1627 15.7609C52.2348 15.7968 52.3069 15.8326 52.379 15.8685C52.4431 15.9003 52.4901 15.9844 52.4861 16.0552C52.4678 16.3981 52.3264 16.669 52.1388 16.9143C52.0723 17.1035 51.9739 17.2779 51.8449 17.4452C51.7557 17.5599 51.6685 17.6698 51.5916 17.7937C51.5836 17.806 51.5789 17.8175 51.5753 17.8255C51.6055 17.8582 51.6306 17.9123 51.6525 17.951C51.8365 18.2751 51.8393 18.6551 51.5781 18.9375C51.6764 19.0179 51.6796 19.1804 51.5928 19.28C51.0277 19.9255 50.5565 20.7105 49.7724 21.0534C49.7688 21.0594 49.7656 21.0654 49.7628 21.0713C49.9217 21.4537 49.9432 21.6524 49.8134 22.0475C49.8126 22.051 49.8114 22.0542 49.8102 22.0578C49.7409 22.2649 49.6134 22.5967 49.3836 22.6612C49.3112 22.6815 49.2399 22.6907 49.1694 22.6903C48.987 22.8659 48.805 23.0419 48.623 23.218C48.607 23.3052 48.5971 23.3932 48.5939 23.482C48.5887 23.6305 48.4489 23.7508 48.2984 23.707C48.2454 23.6915 47.9523 23.4067 47.8985 23.4083C47.8715 23.4354 47.8452 23.4625 47.8189 23.49C47.7221 23.5915 47.5879 23.7516 47.5767 23.858C47.5552 24.0583 47.4238 24.2877 47.2115 24.3283C47.1319 24.4091 47.0044 24.4334 46.9069 24.3279C46.9005 24.3211 46.8941 24.3144 46.8874 24.3084C46.877 24.3072 46.867 24.306 46.8567 24.3048C46.8097 24.445 46.7627 24.5852 46.7153 24.725C46.6225 25.0006 46.2681 25.1778 46.0164 25.0169C45.9757 25.0412 45.9359 25.0671 45.8961 25.093C45.8356 25.1316 45.7742 25.171 45.7113 25.2081C45.7077 25.2184 45.7041 25.2288 45.7009 25.2387C45.6603 25.3626 45.4915 25.4291 45.3875 25.3578C45.3553 25.3682 45.3222 25.3765 45.2887 25.3833C45.1131 25.4179 44.9363 25.4084 44.7666 25.3498C44.6452 25.3084 44.5293 25.2292 44.3986 25.2184C44.3905 25.2177 44.3821 25.2183 44.3738 25.2181C44.2672 25.4364 44.0237 25.6245 43.8317 25.6884C43.5804 25.7722 43.3231 25.7422 43.0942 25.6397C43.0324 25.7632 42.9548 25.8801 42.8621 25.9882C42.8108 26.048 42.718 26.0352 42.665 25.9882C42.5644 25.8991 42.4644 25.8095 42.3646 25.7197C42.2924 25.6919 42.2195 25.6585 42.1434 25.6274C41.9055 25.5302 41.6447 25.49 41.4246 25.3496C41.3202 25.2829 41.2219 25.1978 41.141 25.0992C40.9885 25.0112 40.8485 24.9016 40.7223 24.7759C40.6594 24.7763 40.5937 24.7616 40.5299 24.7293C40.2635 24.5939 40.1233 24.3183 40.111 24.0364C39.8951 23.5286 39.7677 22.987 39.7326 22.4326C39.7215 22.2506 39.7195 22.067 39.7334 21.885C39.743 21.7567 39.7752 21.6711 39.8238 21.5552C39.8401 21.5174 39.8549 21.4827 39.8664 21.4445C39.8636 21.3218 39.8621 21.1992 39.8605 21.0769C39.8274 20.9738 39.7685 20.8778 39.6864 20.7969C39.5594 20.6719 39.5012 20.4122 39.6167 20.2577C39.692 20.1577 39.7669 20.0578 39.8421 19.9578C39.821 19.5289 39.7183 18.8463 39.9461 18.7746C39.9369 18.7108 39.9174 18.6479 39.9063 18.5846C39.8529 18.2803 39.8848 18.0083 40.0464 17.7423C40.0803 17.6869 40.109 17.6379 40.1325 17.5901C40.1472 17.5025 40.1619 17.4149 40.1767 17.3273C40.1994 17.1923 40.2217 17.0561 40.2408 16.9191C40.2508 16.7446 40.2599 16.5702 40.2699 16.3954C40.279 16.2345 40.2894 16.0736 40.3001 15.9123C40.2958 15.8402 40.2894 15.7681 40.2802 15.696C40.2257 15.2663 40.05 15.1074 39.7458 14.8087C39.698 14.8011 39.6506 14.7928 39.604 14.7832C39.3869 14.7382 39.1599 14.6685 38.9365 14.6936C38.694 14.7207 38.4769 14.8254 38.2411 14.6916C38.1718 14.6518 38.0193 14.5419 38.0062 14.4546C38.0054 14.4491 38.0042 14.4443 38.0026 14.4407C37.9862 14.4383 37.9651 14.4363 37.952 14.4359C37.7648 14.4296 37.586 14.5032 37.3972 14.4829C37.1738 14.459 36.9739 14.3599 36.8424 14.2129C36.674 14.2543 36.5019 14.273 36.3271 14.2499C36.1805 14.2308 36.0491 14.183 35.9193 14.1121C35.8249 14.0612 35.8548 14.0464 35.752 14.0878C35.5182 14.1826 35.3068 14.3077 35.0435 14.2428C34.9069 14.2093 34.789 14.1356 34.6899 14.0365C34.6664 14.0134 34.6265 13.9787 34.5998 13.9461C34.4748 14.0094 34.1602 14.1524 34.1084 14.1651C33.9618 14.201 33.8065 14.1954 33.6639 14.1476C33.5592 14.1125 33.431 14.017 33.339 13.9974C33.2199 13.972 32.9554 14.1376 32.8133 14.1946C32.5639 14.2945 32.2999 14.3192 32.0474 14.2161C31.9606 14.1806 31.7917 14.0393 31.7268 14.0405C31.6213 14.1707 31.3265 14.8832 31.2381 15.1432C30.8801 16.1946 30.7873 19.4775 30.9526 20.315C30.959 20.3397 30.9657 20.364 30.9725 20.3887C31.1756 21.1171 31.3871 21.8579 31.7268 22.5365C32.0474 23.1761 32.4907 23.752 33.1267 24.1013C33.7862 24.4637 34.5604 24.5589 35.302 24.5099C35.7795 24.4788 36.249 24.3829 36.711 24.2626C36.9524 24.2001 37.1917 24.1304 37.4299 24.0579C37.5338 24.0264 37.6394 23.9969 37.7413 23.9603C37.9213 23.8954 38.0157 23.8902 38.1882 23.9735C38.3451 24.0491 38.3853 24.2725 38.3037 24.4131C38.1706 24.6425 37.9269 24.6585 37.6915 24.7254C37.4518 24.7935 37.2112 24.8588 36.9691 24.9173C36.5051 25.0288 36.0336 25.1145 35.5581 25.1539C34.7066 25.2252 33.8292 25.1153 33.0542 24.7437C32.9666 24.7015 32.8822 24.6565 32.8005 24.6079C32.8308 24.6501 32.8614 24.6923 32.8925 24.7341C32.9785 24.85 32.9148 25.0472 32.7941 25.1105C32.7559 25.1304 32.7177 25.1495 32.679 25.1682C32.6739 25.1806 32.6683 25.1929 32.6619 25.2053C32.5516 25.4267 32.3206 25.5573 32.0852 25.6139C31.8057 25.6808 31.4926 25.6334 31.2083 25.625C30.9446 25.6171 30.681 25.6091 30.4177 25.6011C30.3556 25.5995 30.2935 25.5976 30.2313 25.5956C29.9183 25.586 29.6057 25.5768 29.293 25.5673C29.0143 25.5589 29.0274 25.5804 28.7657 25.4689C28.649 25.4187 28.5535 25.3478 28.473 25.2535C28.4228 25.2312 28.3743 25.2057 28.3277 25.1766C28.1779 25.0834 28.0449 24.9583 27.9222 24.8205C27.7139 24.8863 27.422 24.8253 27.3814 24.5637C27.3161 24.1451 26.7721 23.9663 26.518 23.6636C26.3129 23.4195 26.1663 23.0997 26.1739 22.7926C25.6569 22.5425 25.3758 21.8834 25.31 21.3242C25.2794 21.065 25.2842 20.7874 25.2399 20.5237C25.2204 20.5026 25.2029 20.4803 25.1882 20.4564C25.0583 20.2465 24.9452 20.0303 24.8457 19.8088C24.7103 19.7113 24.5474 19.6511 24.3769 19.6412C23.9579 19.6169 23.8791 19.0518 24.2785 18.9156C24.2805 18.9148 24.2821 18.9144 24.2841 18.9136C24.1758 18.6427 24.185 18.3221 24.3164 18.0657C24.3108 18.0378 24.3056 18.0103 24.3005 17.9824C24.0762 17.7415 23.9476 17.4065 23.9619 17.0804C23.8596 17.0083 23.7449 16.9525 23.6194 16.9179C23.4255 16.8645 23.4243 16.6279 23.5677 16.522C23.6254 16.4794 23.6732 16.4296 23.713 16.3747C23.6139 16.0768 23.6529 15.7323 23.8556 15.4877C23.727 15.3228 23.5983 15.158 23.4697 14.9931C23.3845 14.884 23.3394 14.6988 23.4697 14.5952C23.5529 14.5287 23.6362 14.4626 23.7198 14.3965Z" fill="#333333"/>
<path fill-rule="evenodd" clip-rule="evenodd" d="M34.7799 22.3601C35.0476 22.2509 35.2865 22.0687 35.4611 21.836C35.5219 21.7551 35.5376 21.6696 35.5249 21.5915C35.5105 21.5036 35.4586 21.424 35.3877 21.3706C35.3166 21.317 35.2276 21.2906 35.1416 21.3041C35.0669 21.3158 34.9925 21.3567 34.9336 21.4415L34.9213 21.4585C34.8175 21.599 34.6822 21.7142 34.5281 21.7885C34.3795 21.8601 34.2133 21.8935 34.0413 21.8741C33.7138 21.8371 33.4881 21.66 33.2481 21.4194C33.2184 21.3891 33.1886 21.3577 33.1587 21.3259C33.1398 21.2971 33.1136 21.2785 33.0845 21.2688C33.0522 21.258 33.0157 21.2586 32.9822 21.2703C32.9499 21.2816 32.921 21.3029 32.9017 21.3313C32.8833 21.3583 32.8729 21.3917 32.8762 21.4301C32.8982 21.6794 33.0285 21.9018 33.2136 22.0765C33.4192 22.2705 33.6918 22.4047 33.9484 22.4518C34.231 22.5037 34.5191 22.4665 34.7799 22.3601ZM33.815 18.5145C33.5143 18.6973 33.056 19.1236 33.3796 19.5768C33.7604 19.9764 34.3087 19.5182 34.5789 19.311C34.8294 19.1504 35.1109 19.5634 34.8785 19.751C32.926 21.1965 32.1337 18.5623 33.6629 18.2996C33.8313 18.2707 33.8938 18.458 33.815 18.5145ZM37.3138 16.8331C37.2805 16.4206 36.6524 16.3269 36.5899 16.7351C36.5339 17.1007 36.5998 17.4365 36.7645 17.7657C36.9218 18.0802 37.3173 17.9335 37.3472 17.6471C37.3873 17.2633 37.3344 17.0896 37.3138 16.8331ZM32.5321 16.6505C32.4445 16.5358 32.3181 16.4575 32.1666 16.5017C31.6933 16.64 31.8328 17.312 31.999 17.6391C32.0893 17.8167 32.3813 17.8618 32.5132 17.7054C32.7283 17.4503 32.8313 16.941 32.5579 16.6898C32.5505 16.6768 32.5422 16.6637 32.5321 16.6505ZM36.7712 15.0283L36.6964 15.0152C36.4651 14.9752 36.1775 14.9368 36.0139 15.1227C35.9271 15.2213 35.8972 15.4046 36.0139 15.499C36.219 15.6651 36.4459 15.6007 36.6918 15.6148C36.8944 15.6264 37.0892 15.6599 37.2843 15.7157C37.7126 15.8381 38.0615 16.0616 38.4272 16.3069C38.4752 16.3391 38.5242 16.2777 38.5013 16.2328C38.2902 15.8193 37.881 15.4796 37.4712 15.2726C37.2525 15.162 37.0131 15.0704 36.7712 15.0283ZM32.9636 14.8431L32.9064 14.8548C32.2836 14.985 31.4745 15.245 31.1796 15.8567C31.1683 15.9432 31.1802 15.9617 31.1899 15.9738L31.1931 15.9779C31.201 15.9882 31.2074 16.0025 31.2449 16.0143C31.2553 16.0118 31.2658 16.0091 31.2764 16.0064C31.4116 15.9709 31.5185 15.9221 31.6221 15.8715L31.7343 15.8162C31.8646 15.7523 31.996 15.6908 32.1353 15.6453C32.4324 15.5484 32.7381 15.4801 33.0485 15.4437C33.1158 15.4358 33.1806 15.4131 33.2317 15.3741C33.2802 15.3372 33.3173 15.2861 33.3342 15.2181C33.3561 15.1301 33.3498 15.0635 33.3026 14.9841C33.2671 14.9245 33.2163 14.8832 33.158 14.8595C33.0986 14.8353 33.0309 14.8296 32.9636 14.8431Z" fill="#333333"/>
</svg>
