<svg width="51" height="8" viewBox="0 0 51 8" fill="none" xmlns="http://www.w3.org/2000/svg">
<path fill-rule="evenodd" clip-rule="evenodd" d="M3.67542 4.99275C3.3951 5.07479 3.10503 5.14582 2.91557 5.39441C3.18723 5.29564 3.48435 5.25041 3.67542 4.99275ZM21.3522 0.826375C22.4819 0.879021 23.6082 0.775186 24.7363 0.756807C26.354 0.730145 27.9718 0.695181 29.5897 0.813903C30.5836 0.887064 31.5815 0.84701 32.579 0.949283C34.9052 1.18801 37.2361 1.36338 39.5512 1.72078C41.4095 2.00773 43.2709 2.27093 45.1214 2.60724C46.7618 2.90559 48.3674 3.34517 49.9799 3.75742C50.2061 3.81515 50.4281 3.89757 50.5807 4.08372C50.4903 4.28687 50.2997 4.0269 50.2158 4.2037C50.3311 4.3485 50.7481 4.25188 50.6194 4.52322C50.5141 4.74508 50.244 4.92489 49.8941 4.89494C49.408 4.85328 48.9904 4.60866 48.5212 4.52174C46.4399 4.13614 44.371 3.6894 42.2667 3.42575C40.9724 3.26358 39.6804 3.04697 38.3792 3.00527C37.6579 2.98194 36.9685 2.7403 36.2465 2.79478C36.0691 2.8081 35.8924 2.71196 35.7185 2.88534C35.654 2.94961 35.3746 3.06477 35.3493 2.73805C35.3439 2.66911 35.2169 2.69338 35.1386 2.68906C34.2931 2.64229 33.4393 2.4942 32.6047 2.56654C31.7922 2.63696 30.9937 2.53262 30.188 2.55925C29.6187 2.57789 29.0614 2.31744 28.4698 2.37654C28.2257 2.40075 27.9758 2.36745 27.7386 2.45912C27.6468 2.45182 27.555 2.44475 27.4632 2.43745C26.84 2.34673 26.2172 2.32121 25.5964 2.45677C24.9418 2.35997 24.2901 2.3729 23.6415 2.5075C22.944 2.4745 22.2513 2.41634 21.5652 2.65985C21.2801 2.76094 20.9463 2.71889 20.6369 2.75828C19.583 2.89233 18.5307 3.03778 17.4767 3.16879C17.2817 3.19305 17.0744 3.28523 16.8845 3.13951C16.3351 3.08793 15.8081 3.1973 15.2888 3.36124C14.7693 3.54725 14.2155 3.53031 13.6796 3.60626C12.989 3.70425 12.3194 3.79652 11.6689 4.09523C11.1337 4.34097 10.509 4.32306 9.9311 4.48444C8.66817 4.83757 7.36382 5.12732 6.20399 5.70683C4.94255 6.33713 3.54622 6.61561 2.33478 7.3437C2.02583 7.52948 1.7697 7.79308 1.40973 7.90844C1.04284 8.0258 0.457387 7.85701 0.238494 7.4465C0.0594722 7.11071 0.0966828 6.75359 0.411856 6.4657C0.951689 5.97291 1.5563 5.56904 2.18338 5.20417C4.88155 3.63441 7.79734 2.61046 10.8045 1.83092C13.7422 1.06924 16.7278 0.570674 19.749 0.285843C21.2867 0.140947 22.829 0.119286 24.3712 0.0663004C25.958 0.0117826 27.5431 -0.0208483 29.128 0.0553886C30.5392 0.123317 31.9474 0.246318 33.3555 0.362926C35.0047 0.499228 36.6504 0.657894 38.2858 0.886495C42.2084 1.43482 46.12 2.05454 49.9107 3.25497C50.1663 3.33591 50.4962 3.26919 50.6738 3.59716C50.3863 3.74686 50.1143 3.66556 49.8475 3.58461C47.8951 2.99109 45.9078 2.55906 43.9042 2.16829C40.9513 1.5922 37.9624 1.30348 34.9849 0.928794C33.5448 0.747563 32.0849 0.729149 30.6365 0.609138C28.7361 0.451314 26.8319 0.45311 24.9294 0.464506C23.7915 0.471331 22.6477 0.515539 21.518 0.701127C21.4358 0.714685 21.3648 0.738098 21.3556 0.836822C21.1561 0.671961 20.9306 0.769275 20.7196 0.784778C19.0762 0.905844 17.4421 1.10742 15.811 1.34128C14.7873 1.48817 13.7765 1.70638 12.7571 1.87581C11.6843 2.05398 10.6302 2.37143 9.58856 2.69399C9.29351 2.78528 8.88192 2.71431 8.70424 3.09482C8.22262 2.9588 7.87776 3.26677 7.49985 3.46576C7.91291 3.37953 8.32845 3.3004 8.6994 3.08123C8.80711 3.06799 8.91916 3.06964 9.02201 3.03945C12.0617 2.14054 15.1615 1.53941 18.3079 1.17111C19.3223 1.05225 20.3374 0.941138 21.3522 0.826375Z" fill="#333333"/>
</svg>
