<svg width="45" height="72" viewBox="0 0 45 72" fill="none" xmlns="http://www.w3.org/2000/svg">
<path fill-rule="evenodd" clip-rule="evenodd" d="M34.0369 66.8019C32.2483 67.1152 30.3074 67.3889 28.4034 67.8241C27.7377 67.976 27.1679 68.3412 26.6055 67.7211C26.49 67.5936 26.311 67.4097 26.337 67.286C26.7782 65.1887 26.2579 63.1141 26.2805 61.0297C26.2958 59.6338 26.5563 58.2688 27.4968 57.1404C27.6846 56.9152 28.0488 56.8315 28.3316 56.6828C28.4685 56.9598 28.7073 57.2291 28.726 57.5147C28.862 59.5908 28.9747 61.6695 29.0475 63.7492C29.0704 64.4017 29.3424 64.4494 29.9126 64.3773C31.2285 64.211 32.5563 64.1472 33.8743 63.996C34.4377 63.9317 34.9887 63.755 35.5441 63.6237C35.5904 63.6127 35.6248 63.5279 35.667 63.5255C36.1028 63.5008 36.849 63.3468 36.9166 63.495C37.1123 63.9227 37.1635 64.5046 37.0405 64.969C36.6604 66.4041 35.2624 66.3602 34.0369 66.8019Z" fill="#333333"/>
<path fill-rule="evenodd" clip-rule="evenodd" d="M33.7311 38.7215C33.797 38.6702 33.863 38.6184 33.9288 38.5671L32.201 36.7601C32.1303 36.8261 32.06 36.8924 31.9896 36.9584C32.5699 37.5459 33.1507 38.1339 33.7311 38.7215ZM27.8355 22.6061C27.8835 22.5618 27.9315 22.5174 27.9795 22.473C27.1667 21.4332 26.3537 20.3935 25.5405 19.3535C25.4647 19.4119 25.389 19.4707 25.3134 19.5291C26.154 20.5548 26.9949 21.5804 27.8355 22.6061ZM23.8219 35.6764C22.9838 36.0716 22.1374 36.4509 21.3099 36.8674C20.7987 37.1246 20.746 37.5049 21.0086 38.0173C21.832 39.6223 23.6856 40.4828 25.5498 40.1538C27.5818 39.7954 28.5094 38.3368 29.2112 36.6544C29.2663 36.5228 29.0143 36.1552 28.8206 36.0542C27.2249 35.2241 25.5549 35.3023 23.8219 35.6764ZM29.1895 28.3327C28.1271 23.6053 25.2933 20.1413 21.3929 17.394C16.9527 14.2663 11.9997 12.2376 6.81603 10.6831C5.24618 10.2123 3.66307 9.78141 2.1062 9.27332C1.68839 9.13733 1.2254 8.85698 1.00681 8.50586C0.855913 8.26358 1.08942 7.78579 1.15162 7.41317C1.37728 7.4635 1.60672 7.50329 1.82854 7.56634C2.42626 7.73666 3.01084 7.96745 3.61868 8.08363C5.59695 8.46236 7.59013 8.76719 9.56368 9.16596C10.8939 9.43476 12.2173 9.76176 13.5113 10.1627C14.3286 10.4161 15.0706 10.8948 15.8749 11.1997C17.1495 11.6832 18.5063 11.9903 19.7231 12.5817C21.6173 13.5018 23.5362 14.4429 25.2436 15.6513C29.018 18.3226 31.4626 21.9085 32.3681 26.504C32.7896 28.6425 33.2902 30.7407 32.9884 32.9463C32.9553 33.1873 33.2051 33.5561 33.4313 33.7237C35.7118 35.4103 37.2607 37.6306 38.1367 40.2726C38.7925 42.2496 39.4961 44.267 39.7075 46.3171C39.8852 48.0369 39.5208 49.8588 39.1402 51.5818C38.8013 53.1136 38.2007 54.6107 37.5548 56.0537C36.6344 58.1092 35.1653 59.7864 33.3386 61.1213C33.0764 61.313 32.4834 61.2579 32.1473 61.1013C31.7736 60.9275 31.8246 60.523 31.904 60.0568C32.1529 58.5975 33.2481 57.7441 34.1283 56.7537C35.7963 54.8778 36.4815 52.6324 36.5351 50.2552C36.6268 46.1992 35.1839 42.5677 32.8921 39.2781C31.6536 37.5013 31.5769 37.5421 30.5227 39.3518C29.1355 41.7335 27.1618 43.3687 24.4147 43.9372C21.2262 44.5968 18.3376 42.6009 17.7518 39.4356C17.5682 38.442 17.998 37.6195 18.4526 36.8185C19.4855 34.999 21.0369 33.7261 22.9642 32.9173C24.9577 32.0802 26.9979 31.4857 29.2002 31.9454C29.732 32.0564 29.878 31.7766 29.7722 31.2806C29.5634 30.301 29.3823 29.3156 29.1895 28.3327Z" fill="#333333"/>
</svg>
